<svg width="283" height="436" viewBox="0 0 283 436" fill="none" xmlns="http://www.w3.org/2000/svg">
<path d="M205.052 326.736C215.963 341.048 236.051 347.594 253.315 342.524C254.92 342.075 256.717 341.241 257.102 339.636C257.423 338.353 256.652 337.005 255.561 336.235C254.47 335.464 251.005 334.117 249.721 333.796C257.038 337.326 266.536 335.529 272.055 329.56C272.633 328.982 273.147 328.212 272.89 327.442C272.569 326.415 271.157 326.223 270.13 326.608C269.103 326.929 267.499 327.635 266.472 327.442C272.697 323.848 278.024 318.649 281.747 312.488C282.517 311.205 283.223 309.6 282.517 308.317C281.875 307.161 280.399 306.776 279.115 307.097C277.832 307.418 276.099 307.996 275.072 308.83C283.287 298.754 282.452 283.415 275.842 272.248C271.478 264.867 264.803 258.706 256.717 255.754C248.63 252.802 239.26 253.315 231.879 257.743C224.563 262.172 219.685 272.505 220.263 281.041C220.712 276.869 224.049 273.339 228.029 271.991C232.008 270.643 236.436 271.221 240.351 272.761C250.17 276.676 257.038 287.651 255.369 298.112C253.764 307.996 245.229 315.89 235.473 318.264C225.782 320.639 215.321 318.136 206.721 313.13C205.438 318.714 205.438 320.96 205.052 326.736Z" fill="#D9BBA2"/>
<path d="M264.996 329.111C266.087 329.303 267.627 328.597 268.654 328.276C269.681 327.956 271.093 328.084 271.414 329.111C271.542 329.624 271.414 330.073 271.093 330.523C271.414 330.202 271.799 329.881 272.12 329.56C272.697 328.982 273.211 328.212 272.954 327.442C272.633 326.415 271.221 326.223 270.194 326.608C269.553 326.8 268.654 327.185 267.82 327.378C266.921 327.956 265.958 328.533 264.996 329.111Z" fill="#DFC5AD"/>
<path d="M256.588 337.262C254.92 337.262 253.251 337.133 251.647 336.684C252.609 337.069 253.572 337.518 254.021 337.903C255.112 338.674 255.882 340.021 255.561 341.305C255.561 341.433 255.497 341.497 255.433 341.626C256.203 341.177 256.909 340.535 257.102 339.636C257.294 338.802 257.038 337.968 256.588 337.262Z" fill="#DFC5AD"/>
<path d="M230.532 259.412C237.848 254.984 247.282 254.47 255.369 257.423C263.456 260.375 270.13 266.536 274.494 273.917C281.041 285.148 281.939 300.423 273.724 310.499C274.751 309.729 276.484 309.087 277.767 308.766C279.051 308.445 280.527 308.83 281.169 309.985C281.875 311.269 281.169 312.873 280.399 314.157C279.179 316.147 277.832 318.008 276.291 319.741C278.409 317.494 280.335 315.056 281.939 312.424C282.709 311.141 283.415 309.536 282.709 308.253C282.067 307.097 280.591 306.712 279.308 307.033C278.024 307.354 276.291 307.932 275.264 308.766C283.479 298.69 282.645 283.351 276.035 272.184C271.67 264.803 264.996 258.642 256.909 255.69C248.823 252.738 239.453 253.251 232.072 257.679C230.082 258.835 228.35 260.503 226.809 262.364C227.9 261.209 229.184 260.247 230.532 259.412Z" fill="#DFC5AD"/>
<path d="M234.126 319.933C239.838 318.521 245.164 315.248 248.887 310.755C245.293 314.35 240.672 317.045 235.666 318.264C225.975 320.639 215.514 318.136 206.914 313.13C206.721 313.964 206.529 314.67 206.336 315.376C214.808 319.933 224.82 322.244 234.126 319.933Z" fill="#DFC5AD"/>
<path d="M220.455 278.474C220.391 279.308 220.391 280.142 220.455 280.977C220.648 279.244 221.354 277.575 222.445 276.163C221.675 276.869 220.969 277.639 220.455 278.474Z" fill="#DFC5AD"/>
<path d="M241.442 335.272C239.581 334.245 237.655 333.218 235.794 332.256C243.56 335.079 252.994 332.512 258.321 326.223C255.882 325.388 253.508 324.554 251.069 323.784C258.193 323.527 264.996 319.227 268.269 312.938C266.023 312.488 263.712 312.938 261.723 314.093C273.211 307.418 278.024 290.09 271.799 278.345C265.317 266.087 250.491 258.899 237.27 263.905C230.275 266.6 221.29 272.954 220.455 281.105C220.905 276.933 224.242 273.403 228.221 272.056C232.2 270.708 236.629 271.285 240.544 272.826C250.363 276.741 257.23 287.715 255.561 298.176C253.957 308.06 245.421 315.954 235.666 318.329C225.975 320.703 215.514 318.2 206.914 313.194C206.144 316.211 205.758 318.329 205.566 320.511C215.257 329.303 228.221 334.823 241.442 335.272Z" fill="#C85E38"/>
<path d="M200.881 412.159C195.746 412.287 196.132 412.415 191.703 414.982C190.291 413.121 189.072 411.196 187.981 409.27C198.699 385.267 216.22 332.641 216.54 295.673C216.99 292.849 217.375 290.026 217.632 287.009C220.199 256.396 216.541 214.808 194.912 190.933C169.112 200.111 142.991 204.282 115.779 200.945C112.763 200.56 109.618 200.111 106.923 198.57C104.227 197.03 103.136 196.837 103.2 193.757C101.788 196.773 100.569 199.918 99.5419 203.063C94.9852 200.431 90.2359 198.442 86.0643 195.233C78.9404 189.842 72.8434 182.269 67.4523 175.209C56.4777 160.833 48.006 144.339 43.0001 126.882C42.1016 123.673 40.2404 119.694 36.903 120.015C35.0418 120.208 33.6299 121.876 33.1165 123.609C32.8598 124.508 32.7956 125.47 32.7956 126.497C32.0896 124.122 30.1001 121.684 28.2389 120.785C25.5433 119.502 22.0777 120.272 20.1523 122.582C18.6762 124.379 18.3553 127.075 19.1254 129.257C17.906 128.102 15.6597 127.46 14.0553 127.524C11.8732 127.652 9.88362 129.385 9.30601 131.567C8.72839 133.685 9.30601 136.06 10.7179 137.793C16.109 144.724 17.0717 154.543 24.4523 159.357C26.6986 160.833 28.8806 171.358 30.1642 174.182C32.4747 179.252 39.1493 197.287 42.0374 202.036C47.8777 211.534 54.8732 220.327 62.8314 228.157C67.7732 233.034 77.4001 243.881 85.5508 245.614C79.0046 258.193 74.4478 273.467 73.8702 288.549V288.614C73.6777 292.914 73.8702 297.278 74.4478 301.514C77.015 338.288 88.1822 388.155 97.7449 409.463C96.6538 411.388 95.4344 413.314 94.0225 415.175C89.5941 412.608 90.0434 412.479 84.8449 412.351C79.7105 412.223 74.3837 413.956 70.9822 417.742C67.5807 421.465 66.4896 427.369 69.121 431.669C91.327 435.263 106.666 436.739 128.679 432.118C129.514 430.706 130.348 429.23 131.118 427.818C131.311 418.32 131.054 375.961 131.503 354.782C139.269 356.258 146.842 356.451 154.415 355.296C154.864 376.603 154.543 418.384 154.8 427.754C155.57 429.23 156.405 430.642 157.239 432.054C179.252 436.675 194.591 435.199 216.797 431.605C219.364 427.305 218.338 421.464 214.936 417.678C211.406 413.763 206.015 412.03 200.881 412.159Z" fill="#D9BBA2"/>
<path d="M71.624 431.669C72.2658 427.241 71.7523 420.502 75.8598 417.55C76.2449 417.293 75.7956 416.779 75.4105 416.908C73.0359 417.87 71.7523 419.603 70.9822 422.042C70.0837 424.866 69.1852 428.717 69.9553 431.669C70.4687 431.733 70.9822 431.861 71.4956 431.926C71.5598 431.797 71.5598 431.733 71.624 431.669Z" fill="#B8896A"/>
<path d="M80.224 432.696C80.609 427.048 80.0956 420.117 86.9628 418.448C87.2195 418.384 87.3478 417.935 87.0269 417.806C79.3896 416.138 78.4269 427.754 78.5553 432.567C78.5553 432.696 78.6195 432.824 78.6837 432.953C79.1329 433.017 79.5822 433.081 79.9672 433.145C80.0956 433.017 80.224 432.888 80.224 432.696Z" fill="#B8896A"/>
<path d="M92.2896 415.111C93.8299 416.651 95.8195 417.614 97.3598 419.154C99.0926 420.823 99.5419 422.684 100.376 424.866C100.697 425.7 101.917 425.829 102.237 424.866C103.714 419.924 97.1673 414.854 93.124 413.763C92.2896 413.57 91.712 414.533 92.2896 415.111Z" fill="#D2B196"/>
<path d="M40.0478 138.82C36.4538 136.573 29.9075 136.702 26.6985 139.654C26.6344 139.718 26.6344 139.718 26.6344 139.782C25.5433 140.617 24.5806 141.772 24.003 143.12C22.3344 147.034 23.9388 151.72 27.9179 153.388C32.1538 155.121 37.2881 153.517 40.2403 150.115C42.9359 146.97 44.0911 141.387 40.0478 138.82Z" fill="#E5CFC1"/>
<path d="M25.415 123.224C25.0299 123.224 24.709 123.352 24.3881 123.481C22.4627 124.123 21.6926 126.818 22.8478 128.487C24.1956 130.476 27.2762 130.348 28.5597 128.358C29.8433 126.112 27.918 123.16 25.415 123.224Z" fill="#E5CFC1"/>
<path d="M37.2881 122.967C35.812 122.39 34.5284 123.802 34.4642 125.149C34.4001 125.727 34.4642 126.176 34.5926 126.754C34.721 127.396 35.106 127.845 35.6195 128.037C35.9404 128.358 36.3254 128.551 36.7105 128.551C38.0583 128.551 39.1493 127.652 39.4702 126.369C39.8553 124.572 38.8284 123.545 37.2881 122.967Z" fill="#E5CFC1"/>
<path d="M17.8418 131.311C17.6493 129.449 15.0821 127.717 13.606 129.578C12.5791 130.861 12.2583 132.081 12.515 133.685C12.6433 134.584 13.5418 135.225 14.3762 135.418C15.1463 135.739 15.9806 135.675 16.4941 135.161C16.815 135.033 17.1359 134.776 17.2642 134.455C17.906 133.364 17.9702 132.53 17.8418 131.311Z" fill="#E5CFC1"/>
<path d="M48.5836 152.49C48.006 151.848 46.7866 152.49 47.1075 153.324C47.8135 155.249 48.5195 157.881 50.3807 158.972C51.0866 159.357 52.1135 158.843 52.0493 158.009C51.921 155.827 49.9956 154.03 48.5836 152.49Z" fill="#D2B196"/>
<path d="M47.1075 161.988C46.3374 161.603 45.3105 162.245 45.5672 163.143C45.8881 164.299 46.6583 165.197 47.3001 166.224C47.8777 167.187 48.4553 168.342 49.3538 169.112C49.9956 169.69 51.1508 169.305 51.1508 168.406C51.0225 166.16 49.0971 162.887 47.1075 161.988Z" fill="#D2B196"/>
<path d="M55.0658 166.737C54.424 165.903 53.3329 166.994 53.718 167.764C54.7449 170.075 56.0285 173.027 57.9538 174.76C58.6598 175.337 59.7508 174.824 59.4941 173.861C58.8523 171.294 56.6702 168.791 55.0658 166.737Z" fill="#D2B196"/>
<path d="M57.5688 180.793C56.9912 182.076 58.1464 183.103 58.9165 184.066C59.8792 185.285 60.8419 186.44 62.318 187.018C62.9598 187.275 63.5374 186.505 63.4091 185.927C63.1524 184.9 58.5956 178.611 57.5688 180.793Z" fill="#D2B196"/>
<path d="M67.8374 181.114C66.8747 180.729 66.4896 182.012 66.9389 182.654C68.0941 184.13 69.506 185.863 70.9821 186.954C71.6881 187.467 72.5866 186.633 72.3941 185.863C71.8807 183.681 69.7627 181.884 67.8374 181.114Z" fill="#D2B196"/>
<path d="M74.0628 195.939C73.2284 194.527 71.4314 193.179 70.0195 192.473C69.2493 192.088 68.2225 192.923 68.7359 193.757C69.6344 195.169 71.1105 196.709 72.6508 197.415C73.4852 197.8 74.6404 196.902 74.0628 195.939Z" fill="#D2B196"/>
<path d="M84.3956 197.993C83.4329 196.645 81.7001 195.49 80.224 194.72C79.6464 194.399 78.7478 194.912 79.0046 195.618C79.7747 197.479 81.4434 199.212 83.4971 199.469C84.2673 199.533 84.8449 198.506 84.3956 197.993Z" fill="#D2B196"/>
<path d="M43.0001 156.854C40.818 157.945 39.2135 159.549 36.7747 160.191C34.3359 160.833 31.6404 160.769 29.2016 160.127C28.4314 159.934 27.9822 161.025 28.6881 161.411C33.2448 163.978 41.909 163.272 44.0911 157.624C44.2195 157.046 43.4493 156.597 43.0001 156.854Z" fill="#D2B196"/>
<path d="M214.102 431.669C213.46 427.241 213.973 420.502 209.866 417.55C209.481 417.293 209.93 416.779 210.315 416.908C212.69 417.87 213.973 419.603 214.743 422.042C215.642 424.866 216.541 428.717 215.77 431.669C215.257 431.733 214.743 431.861 214.23 431.926C214.166 431.797 214.166 431.733 214.102 431.669Z" fill="#B8896A"/>
<path d="M205.502 432.696C205.117 427.048 205.63 420.117 198.763 418.448C198.506 418.384 198.378 417.935 198.699 417.806C206.336 416.138 207.299 427.754 207.17 432.567C207.17 432.696 207.106 432.824 207.042 432.953C206.593 433.017 206.144 433.081 205.758 433.145C205.63 433.017 205.502 432.888 205.502 432.696Z" fill="#B8896A"/>
<path d="M192.602 413.763C188.494 414.854 182.012 419.924 183.488 424.866C183.745 425.829 185.029 425.7 185.349 424.866C186.184 422.748 186.633 420.887 188.366 419.154C189.906 417.614 191.896 416.715 193.436 415.111C194.014 414.533 193.436 413.57 192.602 413.763Z" fill="#D2B196"/>
<path d="M214.102 431.669C213.46 427.241 213.973 420.502 209.866 417.55C209.481 417.293 209.93 416.779 210.315 416.908C212.69 417.87 213.973 419.603 214.743 422.042C215.642 424.866 216.541 428.717 215.77 431.669C215.257 431.733 214.743 431.861 214.23 431.926C214.166 431.797 214.166 431.733 214.102 431.669Z" fill="#B8896A"/>
<path d="M205.502 432.696C205.117 427.048 205.63 420.117 198.763 418.448C198.506 418.384 198.378 417.935 198.699 417.806C206.336 416.138 207.299 427.754 207.17 432.567C207.17 432.696 207.106 432.824 207.042 432.953C206.593 433.017 206.144 433.081 205.758 433.145C205.63 433.017 205.502 432.888 205.502 432.696Z" fill="#B8896A"/>
<path d="M192.602 413.763C188.494 414.854 182.012 419.924 183.488 424.866C183.745 425.829 185.029 425.7 185.349 424.866C186.184 422.748 186.633 420.887 188.366 419.154C189.906 417.614 191.896 416.715 193.436 415.111C194.014 414.533 193.436 413.57 192.602 413.763Z" fill="#D2B196"/>
<path d="M217.696 287.073C216.926 295.994 217.824 309.087 215 316.403C214.551 315.505 211.535 309.536 211.149 308.573C210.123 307.803 209.224 306.84 208.711 305.685C201.843 291.502 207.555 274.43 218.338 262.172C218.594 270.9 218.338 279.372 217.696 287.073Z" fill="#D2B196"/>
<path d="M95.0493 204.732C95.2418 204.154 95.9478 204.218 96.012 204.86C96.3329 217.311 92.0971 233.355 87.3478 244.908C87.0269 245.678 86.0642 245.164 86.1926 244.394C87.3478 237.72 89.2732 231.173 90.7493 224.563C92.1612 218.017 92.9314 211.085 95.0493 204.732Z" fill="#B8896A"/>
<path d="M187.917 221.354C189.714 222.381 190.997 225.205 190.355 227.194C190.099 227.964 189.136 228.093 188.687 227.451C188.237 226.681 187.981 225.782 187.66 224.948C187.339 224.049 186.89 223.215 186.697 222.317C186.569 221.611 187.275 220.969 187.917 221.354Z" fill="#D2B196"/>
<path d="M194.399 224.82C195.746 226.103 196.709 228.349 196.324 230.211C196.196 230.788 195.361 230.917 195.04 230.403C194.206 228.991 193.757 227.002 193.436 225.397C193.308 224.82 193.949 224.37 194.399 224.82Z" fill="#D2B196"/>
<path d="M201.458 230.339C202.549 232.585 203.576 234.703 203.32 237.27C203.255 238.169 201.843 238.554 201.587 237.527C201.137 235.345 201.073 232.97 200.303 230.852C200.111 230.211 201.137 229.697 201.458 230.339Z" fill="#D2B196"/>
<path d="M191.639 236.115C192.409 237.206 192.666 238.682 192.923 240.03C193.179 241.314 193.308 242.533 193.051 243.881C192.858 244.715 191.832 244.715 191.382 244.138C190.548 242.982 190.227 241.763 189.906 240.351C189.649 239.067 189.264 237.784 189.521 236.5C189.778 235.345 191.126 235.409 191.639 236.115Z" fill="#D2B196"/>
<path d="M198.442 242.597C200.431 244.651 201.009 248.63 200.303 251.261C200.111 252.032 199.084 251.967 198.827 251.261C198.314 249.978 197.993 248.502 197.672 247.154C197.415 245.87 196.902 244.523 196.966 243.175C196.966 242.469 197.864 242.02 198.442 242.597Z" fill="#D2B196"/>
<path d="M182.397 228.606C183.937 230.403 184.643 233.419 184.643 235.73C184.643 236.564 183.617 236.757 183.167 236.115C181.884 234.318 180.664 231.43 180.857 229.248C180.921 228.542 181.82 227.9 182.397 228.606Z" fill="#D2B196"/>
<path d="M189.649 254.855C190.997 257.551 191.896 261.145 190.805 264.033C190.548 264.675 189.457 264.867 189.264 264.033C188.687 261.209 188.815 258.193 188.366 255.369C188.237 254.663 189.264 254.085 189.649 254.855Z" fill="#D2B196"/>
<path d="M206.978 257.037C207.748 258.963 208.39 261.402 207.876 263.455C207.748 264.097 206.785 264.097 206.657 263.455C206.143 261.53 206.208 259.348 205.823 257.358C205.63 256.588 206.721 256.267 206.978 257.037Z" fill="#D2B196"/>
<path d="M154.287 353.755C161.154 353.114 167.251 353.563 173.926 351.06C177.648 349.712 181.306 348.108 184.836 346.375C186.826 345.412 193.436 340.149 195.426 340.47C200.881 341.241 191.96 350.161 190.484 352.087C185.863 357.863 180.729 363.19 175.017 367.939C168.727 373.202 161.86 377.694 154.608 381.353C154.543 371.02 154.479 361.008 154.287 353.755Z" fill="#D2B196"/>
<path d="M131.503 351.381C131.311 358.569 131.182 369.351 131.182 380.647C130.476 380.261 129.706 379.748 128.808 379.106C118.603 371.918 108.078 365.629 100.633 355.36C96.3329 349.456 93.0598 342.717 91.0702 335.657C103.842 342.524 117.448 347.787 131.503 351.381Z" fill="#D2B196"/>
<path d="M93.1881 335.079C121.748 356.002 173.027 362.42 199.854 334.694C200.303 334.181 201.009 334.951 200.688 335.464C190.676 351.638 168.663 355.103 151.142 355.873C129.834 356.772 107.179 352.087 91.1986 337.197C90.1075 336.042 91.9687 334.181 93.1881 335.079Z" fill="#B8896A"/>
<path d="M233.291 252.802C211.47 244.394 193.821 217.76 198.699 194.912C219.749 203.255 241.185 218.53 255.882 235.73C262.236 243.175 268.141 252.545 266.151 262.172C264.611 269.424 258.835 275.072 252.609 279.179C246.384 283.287 239.452 286.303 233.676 290.988C232.906 291.566 232.2 292.208 231.494 292.914C234.254 292.978 237.527 291.373 239.902 292.593C242.982 294.069 243.688 297.47 240.543 299.588C239.003 300.615 237.014 300.872 235.152 301.129C238.426 300.936 242.469 301.257 243.688 304.273C244.715 306.776 242.79 309.793 240.287 310.884C238.554 311.654 236.629 311.718 234.767 311.59C236.885 312.552 238.426 315.248 237.784 317.623C236.885 320.896 233.163 322.821 229.826 322.564C226.424 322.308 223.408 320.254 220.969 317.944C219.429 316.467 217.246 312.873 215.449 308.702C214.423 307.932 213.524 306.969 213.011 305.814C204.09 287.394 216.284 264.033 233.291 252.802Z" fill="#D9BBA2"/>
<path d="M98.0657 184.579C97.8732 186.89 98.8359 188.237 100.697 189.585C102.558 190.933 104.74 191.575 106.922 192.088C134.006 198.827 162.822 196.517 188.045 185.542C189.264 185.028 190.548 184.387 191.061 183.167C191.318 182.59 191.126 181.755 190.74 180.921C190.74 180.793 190.74 180.664 190.676 180.472C190.548 180.151 190.548 179.894 190.484 179.573C194.848 181.37 198.827 187.018 198.634 191.639C198.378 196.837 195.04 201.33 190.869 204.09C186.697 206.849 181.82 208.069 176.942 209.16C155.314 214.037 132.017 216.155 110.966 207.555C106.088 205.566 101.211 202.87 98.0657 198.442C94.921 194.206 95.0493 188.879 98.0657 184.579Z" fill="#B10000"/>
<path d="M97.103 186.248C96.8463 188.558 98.2582 189.842 100.119 191.19C101.981 192.537 104.227 193.115 106.473 193.628C134.07 200.046 163.528 197.351 189.393 185.927C190.612 185.414 191.96 184.708 192.537 183.488C193.115 182.269 192.473 180.343 191.125 180.343C196.196 180.985 200.431 186.761 200.111 192.024C199.79 197.287 196.324 201.843 192.024 204.667C187.724 207.491 182.718 208.839 177.776 209.994C155.634 215.193 131.76 217.696 110.452 209.288C105.51 207.363 100.569 204.667 97.4239 200.303C94.1508 195.875 93.9582 190.612 97.103 186.248Z" fill="#D20000"/>
<path d="M144.339 209.481C148.19 208.069 152.233 209.93 154.351 212.69C157.111 216.22 156.597 221.739 153.645 224.82C150.243 228.478 144.66 227.9 141.579 224.435C139.333 221.932 138.37 218.723 139.012 215.706C139.461 213.588 140.681 211.47 142.927 210.187C143.44 209.866 143.89 209.609 144.339 209.481Z" fill="#F99122"/>
<path d="M144.724 208.518C148.125 207.17 151.719 209.031 153.581 211.791C156.019 215.321 155.634 220.84 153.067 223.921C150.051 227.515 145.173 226.937 142.413 223.472C140.424 220.969 139.59 217.76 140.103 214.679C140.488 212.561 141.579 210.443 143.505 209.16C143.89 208.903 144.339 208.711 144.724 208.518Z" fill="#F9B233"/>
<path d="M205.181 212.176C211.855 225.461 217.439 240.608 216.926 255.69C216.926 256.203 216.027 256.396 215.899 255.818C213.075 240.736 210.764 226.809 204.218 212.69C203.897 212.112 204.86 211.535 205.181 212.176Z" fill="#B8896A"/>
<path d="M192.858 377.951C193.436 376.603 194.206 375.384 194.976 374.1C195.554 373.138 197.094 373.779 196.773 374.87C196.388 376.282 196.003 377.694 195.426 379.042C194.976 380.197 194.655 381.353 193.564 381.994C192.987 382.315 192.217 382.059 192.024 381.353C191.703 380.069 192.345 379.106 192.858 377.951Z" fill="#D2B196"/>
<path d="M187.596 375.961C188.109 375.512 188.943 375.833 188.943 376.539C188.943 378.208 188.109 380.711 186.954 381.93C186.312 382.572 185.029 382.123 185.093 381.16C185.157 379.427 186.376 377.117 187.596 375.961Z" fill="#D2B196"/>
<path d="M190.291 385.845C190.484 384.818 192.152 385.075 192.152 386.102C192.088 388.091 192.088 390.851 190.484 392.327C189.842 392.905 188.623 392.52 188.687 391.557C188.687 389.632 189.97 387.835 190.291 385.845Z" fill="#D2B196"/>
<path d="M182.911 388.926C183.232 387.899 184.964 388.091 184.836 389.182C184.579 391.172 184.387 393.803 182.975 395.279C182.333 395.921 181.178 395.408 181.178 394.573C181.242 392.712 182.397 390.723 182.911 388.926Z" fill="#D2B196"/>
<path d="M185.414 399.964C185.734 399.258 186.89 399.451 187.082 400.157C187.467 401.89 186.89 404.008 185.606 405.227C185.093 405.676 184.066 405.42 184.13 404.585C184.258 403.045 184.772 401.376 185.414 399.964Z" fill="#D2B196"/>
<path d="M198.635 358.697C199.02 357.927 200.111 358.376 200.111 359.082C200.175 361.329 199.405 363.447 197.8 364.987C197.223 365.564 196.26 364.987 196.452 364.217C196.966 362.355 197.736 360.494 198.635 358.697Z" fill="#D2B196"/>
<path d="M99.9269 227.323C100.376 225.654 100.505 223.793 101.146 222.188C101.66 220.905 103.393 221.097 103.521 222.509C103.906 225.846 102.558 229.826 100.825 232.585C100.376 233.291 98.9001 233.099 99.0284 232.072C99.2851 230.467 99.5419 228.991 99.9269 227.323Z" fill="#D2B196"/>
<path d="M107.051 234.96C107.243 233.74 107.243 232.585 107.372 231.366C107.5 230.467 108.591 230.275 108.912 231.173C109.746 233.355 109.554 236.5 108.206 238.361C107.757 239.003 106.666 238.811 106.666 237.976C106.666 236.949 106.858 235.923 107.051 234.96Z" fill="#D2B196"/>
<path d="M95.2418 240.223C95.2418 238.875 97.103 239.003 97.2314 240.223C97.5523 242.79 97.3597 246.063 95.4344 248.052C94.9851 248.502 94.0224 248.181 94.0866 247.475C94.3433 245.036 95.2418 242.79 95.2418 240.223Z" fill="#D2B196"/>
<path d="M101.146 249.079C101.66 247.603 102.109 246.063 102.687 244.587C103.072 243.56 104.805 243.624 104.676 244.843C104.612 246.512 104.227 248.181 103.778 249.785C103.393 251.261 103.008 252.994 101.916 254.149C101.211 254.92 99.8627 254.342 99.8627 253.315C99.9269 251.839 100.697 250.491 101.146 249.079Z" fill="#D2B196"/>
<path d="M87.9897 255.433C88.1822 254.214 90.0434 254.727 89.8508 255.946C89.5941 257.679 89.4658 259.476 88.7598 261.081C88.4389 261.787 87.4762 261.337 87.412 260.696C87.2837 258.963 87.7971 257.166 87.9897 255.433Z" fill="#D2B196"/>
<path d="M93.124 266.536C93.5732 265.06 95.9479 265.702 95.4986 267.178C95.0493 268.59 94.6001 269.873 94.0225 271.221C93.509 272.312 92.0329 271.478 92.2255 270.451C92.3538 269.103 92.7389 267.884 93.124 266.536Z" fill="#D2B196"/>
<path d="M94.0225 362.291C94.8568 364.73 95.8837 367.811 94.6001 370.25C94.3434 370.763 93.5091 370.763 93.2523 370.25C92.1613 367.939 92.5464 364.987 92.1613 362.548C92.0329 361.457 93.7016 361.393 94.0225 362.291Z" fill="#D2B196"/>
<path d="M99.7986 371.469C100.505 373.33 101.146 376.347 100.44 378.272C100.119 379.17 98.8359 379.235 98.515 378.272C98.1941 377.245 98.2583 376.218 98.1941 375.127C98.1299 373.972 97.9374 372.881 97.8732 371.726C97.8732 370.57 99.4777 370.506 99.7986 371.469Z" fill="#D2B196"/>
<path d="M94.1508 380.39C94.3434 381.802 94.8568 383.342 94.5359 384.818C94.3434 385.652 93.0598 385.845 92.6747 385.075C92.0329 383.791 92.0971 382.123 91.9687 380.711C91.9046 379.491 93.9583 379.17 94.1508 380.39Z" fill="#D2B196"/>
<path d="M87.2195 345.669C87.412 344.449 89.0165 344.77 89.3374 345.669C90.3643 348.3 90.7493 351.958 90.0434 354.718C89.8508 355.424 88.824 355.617 88.4389 354.911C87.0911 352.279 86.706 348.621 87.2195 345.669Z" fill="#D2B196"/>
<path d="M106.666 383.406C106.858 381.994 108.912 381.93 108.912 383.406C108.912 385.973 109.425 388.605 109.105 391.108C108.976 391.942 107.757 392.584 107.308 391.621C106.152 389.054 106.345 386.166 106.666 383.406Z" fill="#D2B196"/>
<path d="M99.0926 391.236C99.6702 392.776 100.248 394.252 100.633 395.857C101.018 397.461 101.018 398.745 101.082 400.414C101.146 401.633 99.3493 401.826 98.9643 400.67C98.4508 399.194 97.9374 397.911 97.6807 396.306C97.424 394.83 97.1672 393.29 96.9105 391.814C96.6538 390.402 98.5792 389.888 99.0926 391.236Z" fill="#D2B196"/>
<path d="M105.061 400.029C105.19 398.552 107.243 398.552 107.372 400.029C107.564 401.761 107.949 404.072 107.308 405.741C106.922 406.832 105.575 406.832 105.125 405.741C104.484 404.008 104.869 401.761 105.061 400.029Z" fill="#D2B196"/>
<path d="M234.19 258.642C235.088 257.038 236.629 256.075 238.233 255.369C239.517 254.791 241.378 253.893 242.726 254.663C243.047 254.855 243.175 255.305 242.982 255.626C242.276 256.781 240.736 257.166 239.581 257.744C238.233 258.514 237.014 259.476 235.602 260.118C234.767 260.503 233.612 259.605 234.19 258.642Z" fill="#D2B196"/>
<path d="M236.243 264.867C237.527 263.584 239.581 263.006 241.185 262.043C242.533 261.209 243.56 263.199 242.405 264.097C240.864 265.252 239.132 266.729 237.142 266.857C235.987 266.921 235.538 265.573 236.243 264.867Z" fill="#D2B196"/>
<path d="M223.472 270.515C224.242 268.269 226.424 266.472 228.157 264.931C229.376 263.84 230.917 265.445 229.89 266.664C228.414 268.461 226.809 270.708 224.563 271.606C223.921 271.863 223.279 271.093 223.472 270.515Z" fill="#D2B196"/>
<path d="M226.039 275.393C227.387 274.237 228.863 273.467 230.596 272.954C232.008 272.569 232.97 274.687 231.623 275.393C230.339 276.034 229.12 276.805 228.093 277.703C227.13 278.602 226.424 279.949 225.269 280.527C224.434 280.912 223.343 280.463 223.343 279.436C223.343 277.896 224.82 276.42 226.039 275.393Z" fill="#D2B196"/>
<path d="M231.623 240.479C234.19 240.608 236.693 242.597 238.746 244.009C239.645 244.651 239.132 246.384 237.912 245.935C235.602 245.1 232.457 244.202 230.852 242.212C230.339 241.635 230.596 240.415 231.623 240.479Z" fill="#D2B196"/>
<path d="M231.558 252.352C236.5 245.742 248.052 247.603 254.535 250.555C255.305 250.94 254.92 252.224 254.085 252.16C250.363 251.967 246.705 250.876 242.982 251.005C239.196 251.133 236.243 252.673 232.778 254.021C231.943 254.342 230.981 253.123 231.558 252.352Z" fill="#D2B196"/>
<path d="M225.269 232.072C226.809 232.585 228.157 233.869 228.927 235.281C229.312 235.923 228.67 237.014 227.836 236.693C226.36 236.115 224.82 235.024 224.114 233.548C223.793 232.778 224.37 231.751 225.269 232.072Z" fill="#D2B196"/>
<path d="M221.867 238.105C223.408 238.49 224.627 239.966 225.012 241.442C225.269 242.276 224.242 243.111 223.536 242.597C222.445 241.891 221.226 240.864 220.648 239.709C220.199 238.875 220.969 237.848 221.867 238.105Z" fill="#D2B196"/>
<path d="M217.311 224.178C218.979 224.691 220.199 225.846 221.226 227.258C222.06 228.349 220.455 229.697 219.429 229.055C217.952 228.157 216.733 227.002 216.091 225.397C215.77 224.691 216.605 223.985 217.311 224.178Z" fill="#D2B196"/>
<path d="M231.237 292.015C232.329 292.143 232.329 293.555 231.237 293.684C226.424 294.261 223.6 296.957 220.905 300.743C220.584 301.193 219.621 301.128 219.685 300.423C220.199 295.096 226.167 291.373 231.237 292.015Z" fill="#D2B196"/>
<path d="M101.21 80.7374C89.8508 57.1836 88.3747 29.0732 97.2956 4.49255C106.858 18.5478 114.303 31.8329 119.245 48.1344C115.908 59.6224 108.912 71.6239 101.21 80.7374Z" fill="#E5CFC1"/>
<path d="M96.3328 3.78656C110.837 14.5687 122.39 28.8164 129.642 44.8612C124.957 45.7597 120.913 48.4552 118.282 52.2418C113.79 34.8493 106.152 19.0612 96.3328 3.78656Z" fill="#C85E38"/>
<path d="M110.966 10.9746C111.094 13.0925 111.928 15.1462 112.121 17.3283C112.313 19.2537 112.057 21.2433 112.378 23.1686C112.506 23.8104 113.533 23.9388 113.79 23.3612C115.458 19.9597 114.816 13.6059 112.506 10.5253C112.057 9.94773 110.902 10.0761 110.966 10.9746Z" fill="#C85E38"/>
<path d="M118.667 17.0075C118.796 19.1254 119.63 21.1792 119.822 23.3613C120.015 25.2866 119.758 27.2762 120.079 29.2016C120.208 29.8434 121.234 29.9717 121.491 29.3941C123.16 25.9926 122.518 19.6389 120.208 16.5583C119.822 15.9807 118.603 16.0448 118.667 17.0075Z" fill="#C85E38"/>
<path d="M129.385 30.806C128.166 32.3463 127.588 34.4642 126.497 36.1329C125.406 37.8015 123.93 39.2776 122.967 41.0105C122.582 41.7164 123.352 42.4224 124.058 42.1015C126.048 41.203 127.524 39.1493 128.615 37.4164C129.706 35.6836 131.054 33.4373 130.99 31.3194C130.925 30.2925 129.834 30.1642 129.385 30.806Z" fill="#C85E38"/>
<path d="M188.237 76.9508C196.516 52.1777 194.399 24.0672 182.525 0.834351C174.824 15.9806 169.112 30.1642 166.288 46.915C170.973 57.8254 179.445 68.9284 188.237 76.9508Z" fill="#E5CFC1"/>
<path d="M183.36 0C170.331 12.5149 160.705 28.1105 155.506 44.9896C160.255 45.2463 164.619 47.4926 167.7 50.8941C169.946 33.0523 175.53 16.3657 183.36 0Z" fill="#C85E38"/>
<path d="M200.624 127.717C193.372 106.858 194.976 81.6359 182.525 62.4463C164.299 34.2717 124.187 33.9508 105.575 62.4463C93.1239 81.6359 94.7284 106.858 87.4761 127.717C83.9463 137.857 79.2612 147.933 79.1328 158.523C79.0045 170.524 85.5507 183.937 96.4612 191.254C101.724 194.784 186.376 194.784 191.639 191.254C202.549 183.937 209.096 170.524 208.967 158.523C208.903 147.869 204.154 137.857 200.624 127.717Z" fill="#D9BBA2"/>
<path d="M87.5403 134.263C94.7926 113.405 93.1881 88.1822 105.639 68.9926C124.251 40.497 164.363 40.8179 182.59 68.9926C195.04 88.1822 193.436 113.405 200.688 134.263C203.897 143.44 208.005 152.49 208.839 161.988C208.967 160.833 209.031 159.678 209.031 158.523C208.903 147.933 204.218 137.857 200.688 127.717C193.436 106.858 195.04 81.6359 182.59 62.4463C164.363 34.2717 124.251 33.9508 105.639 62.4463C93.1881 81.6359 94.7926 106.858 87.5403 127.717C84.0105 137.857 79.3254 147.933 79.197 158.523C79.197 159.678 79.2612 160.833 79.3896 161.988C80.2239 152.49 84.3955 143.44 87.5403 134.263Z" fill="#DFC5AD"/>
<path d="M168.214 8.66416C166.352 12.0015 166.416 18.3552 168.47 21.5642C168.919 22.206 169.882 21.9492 169.946 21.1791C170.011 19.1895 169.497 17.2 169.433 15.1463C169.369 13.0925 169.882 11.103 169.754 9.11342C169.754 8.34327 168.663 7.95819 168.214 8.66416Z" fill="#C85E38"/>
<path d="M160.769 16.5582C158.908 19.8955 158.972 26.2493 161.025 29.4582C161.475 30.1 162.437 29.8433 162.502 29.0731C162.566 27.0836 162.052 25.094 161.988 23.0403C161.924 20.9866 162.437 18.997 162.309 17.0075C162.245 16.1731 161.154 15.7881 160.769 16.5582Z" fill="#C85E38"/>
<path d="M155.249 25.2224C154.479 29.009 156.918 35.106 159.999 37.3523C160.576 37.7373 161.346 37.0955 161.154 36.4538C160.512 34.4642 159.228 32.603 158.522 30.6135C157.816 28.7523 157.624 26.6985 156.79 24.9657C156.533 24.3881 155.442 24.5164 155.249 25.2224Z" fill="#C85E38"/>
<path d="M200.624 127.717C198.378 121.17 196.966 114.239 195.746 107.179C187.916 111.094 181.691 122.069 174.824 129.963C158.458 148.767 134.263 149.602 117.384 132.017C111.415 125.791 106.409 117.705 100.44 111.543C98.0657 109.105 95.4343 106.987 92.7388 105.575C91.4552 113.212 89.9791 120.721 87.5403 127.717C84.3313 136.894 80.2239 146.072 79.3895 155.634C79.903 162.951 81.5074 170.331 84.0104 177.199C89.5298 192.024 110.709 199.533 124.7 202.678C142.478 206.721 161.539 205.309 178.482 198.442C186.633 195.105 194.591 190.42 200.303 183.552C206.464 176.108 208.197 165.069 208.839 155.634C208.005 146.072 203.833 136.894 200.624 127.717Z" fill="#E5CFC1"/>
<path d="M170.011 77.8493C172.834 81.1224 175.722 84.3956 177.84 88.1821C179.958 91.9687 181.242 96.3329 180.793 100.633C180.151 106.602 176.043 111.8 171.037 115.137C167.315 117.64 162.694 119.309 158.33 118.411C154.608 117.64 151.527 115.073 149.088 112.249C143.825 106.152 140.681 98.0657 141.066 90.0433C141.387 83.3687 144.66 74.0627 150.5 70.1478C157.56 65.3344 165.711 72.9075 170.011 77.8493Z" fill="#C85E38"/>
<path d="M153.388 99.8628C152.875 98.1941 152.682 96.3329 152.875 94.6001C153.067 93.0598 153.516 91.5195 154.479 90.3642C155.506 89.209 157.111 88.503 158.587 88.8881C159.806 89.209 160.769 90.1717 161.475 91.1986C163.914 94.5359 166.16 101.211 163.785 105.061C162.822 106.602 161.09 107.564 159.293 107.051C158.073 106.73 157.046 105.896 156.212 104.997C154.928 103.521 153.966 101.724 153.388 99.8628Z" fill="#472B3C"/>
<path d="M130.348 100.248C130.54 98.6434 130.348 97.0389 129.899 95.4986C129.513 94.1509 128.808 92.8673 127.716 92.033C126.625 91.1986 125.021 90.8136 123.802 91.4553C122.775 91.9688 122.133 92.9956 121.619 94.0225C120.015 97.3598 119.181 103.714 122.005 106.794C123.096 108.014 124.828 108.527 126.369 107.757C127.396 107.243 128.166 106.345 128.743 105.382C129.578 103.778 130.155 102.045 130.348 100.248Z" fill="#472B3C"/>
<path d="M153.452 78.812C154.864 78.0419 156.405 77.6568 157.945 78.0419C160.576 78.1702 163.4 79.1971 163.143 81.7643C162.951 84.0105 160.384 84.3314 158.587 84.2031C156.661 84.0105 154.864 83.2404 153.324 82.021C152.425 81.2508 152.297 79.4538 153.452 78.812Z" fill="#472B3C"/>
<path d="M120.464 82.5986C120.978 81.0583 121.812 79.7747 123.224 78.9404C125.278 77.2075 127.973 76.0523 129.578 78.106C130.99 79.903 129.321 81.8926 127.909 82.9836C126.369 84.2031 124.507 84.8448 122.582 85.0374C121.363 85.1657 120.079 83.8822 120.464 82.5986Z" fill="#472B3C"/>
<path d="M188.751 160.705C188.687 157.624 183.873 157.752 183.937 160.833C184.002 163.978 188.815 163.849 188.751 160.705Z" fill="#472B3C"/>
<path d="M181.306 154.094C181.242 150.949 176.364 151.078 176.428 154.222C176.557 157.367 181.37 157.239 181.306 154.094Z" fill="#472B3C"/>
<path d="M180.279 168.214C180.215 165.133 175.466 165.261 175.53 168.342C175.594 171.423 180.343 171.294 180.279 168.214Z" fill="#472B3C"/>
<path d="M100.697 160.705C100.761 157.624 105.575 157.752 105.51 160.833C105.382 163.978 100.569 163.849 100.697 160.705Z" fill="#472B3C"/>
<path d="M108.078 154.094C108.142 150.949 113.019 151.078 112.955 154.222C112.827 157.367 108.013 157.239 108.078 154.094Z" fill="#472B3C"/>
<path d="M109.105 168.214C109.169 165.133 113.918 165.261 113.854 168.342C113.79 171.423 109.04 171.294 109.105 168.214Z" fill="#472B3C"/>
<path d="M176.878 126.818C174.824 121.684 168.663 119.887 163.208 118.988C157.175 118.025 151.078 117.448 144.981 117.384V117.32C144.66 117.32 144.339 117.32 144.082 117.32C143.761 117.32 143.44 117.32 143.184 117.32V117.384C137.087 117.512 130.99 118.025 124.957 118.988C119.502 119.887 113.34 121.684 111.287 126.818C109.105 132.337 113.148 138.37 117.576 142.285C123.994 147.933 134.199 153.902 143.119 154.543V154.608C143.376 154.608 143.633 154.608 143.89 154.608C143.89 154.608 143.89 154.608 143.954 154.608C144.018 154.608 144.018 154.608 144.082 154.608C144.146 154.608 144.146 154.608 144.211 154.608C144.211 154.608 144.211 154.608 144.275 154.608C144.531 154.608 144.788 154.608 145.045 154.608V154.543C153.966 153.902 164.17 147.933 170.588 142.285C175.081 138.37 179.124 132.337 176.878 126.818Z" fill="#472B3C"/>
<path d="M176.878 126.818C174.824 121.684 168.663 119.887 163.207 118.988C157.175 118.025 151.078 117.448 144.981 117.384V117.32C144.66 117.32 144.339 117.32 144.082 117.32C143.761 117.32 143.44 117.32 143.184 117.32V117.384C137.087 117.512 130.99 118.025 124.957 118.988C119.501 119.887 113.34 121.684 111.287 126.818C110.645 128.487 110.581 130.155 110.901 131.824C111.03 131.311 111.094 130.797 111.287 130.284C113.34 125.149 119.501 123.352 124.957 122.454C130.99 121.491 137.087 120.914 143.184 120.849V120.785C143.504 120.785 143.825 120.785 144.082 120.785C144.403 120.785 144.724 120.785 144.981 120.785V120.849C151.078 120.978 157.175 121.491 163.207 122.454C168.663 123.352 174.824 125.149 176.878 130.284C177.07 130.797 177.199 131.311 177.263 131.824C177.584 130.155 177.584 128.487 176.878 126.818Z" fill="#634357"/>
<path d="M159.357 164.812C156.405 168.342 154.094 171.808 148.96 172.193C143.119 172.642 139.59 168.984 135.546 165.454C134.584 164.62 132.787 165.39 133.236 166.802C135.354 173.155 142.734 177.135 149.281 176.557C154.672 176.043 161.603 171.679 161.218 165.582C161.154 164.684 159.999 164.042 159.357 164.812Z" fill="#472B3C"/>
<path d="M34.8493 95.7553L20.2806 96.4612L20.1523 82.9836H13.4776L13.0925 95.7553H0L1.09105 54.809L14.9537 55.4508L14.1194 76.3732H20.5373L20.6015 53.9105L33.8866 54.2314L34.8493 95.7553Z" fill="#FFA761"/>
<path d="M53.3329 54.7448L50.1239 94.4075L37.8657 95.0493V55.5791L53.3329 54.7448Z" fill="#FFA761"/>
<path d="M69.5702 52.4985L67.1955 83.112H56.4135L55.3224 52.4985H69.5702ZM67.6448 92.0971C67.6448 92.9314 67.4523 93.7657 67.1314 94.4717C66.8105 95.2418 66.3612 95.8836 65.7836 96.3971C65.206 96.9747 64.5642 97.3598 63.8582 97.6807C63.1523 98.0015 62.3179 98.1299 61.4836 98.1299C60.6493 98.1299 59.8149 98.0015 59.109 97.6807C58.403 97.3598 57.697 96.9105 57.1836 96.3971C56.606 95.8195 56.2209 95.1777 55.9 94.4717C55.5791 93.7657 55.3866 92.9314 55.3866 92.0971C55.3866 91.2627 55.5149 90.4926 55.9 89.7224C56.2209 88.9523 56.6702 88.3105 57.1836 87.7329C57.7612 87.1553 58.403 86.7702 59.109 86.3851C59.8149 86.0642 60.6493 85.8717 61.4836 85.8717C62.3179 85.8717 63.0881 86.0642 63.8582 86.3851C64.6284 86.706 65.2702 87.1553 65.7836 87.7329C66.3612 88.3105 66.7463 88.9523 67.1314 89.7224C67.5164 90.4284 67.6448 91.2627 67.6448 92.0971Z" fill="#FFA761"/>
</svg>
