<svg width="347" height="359" viewBox="0 0 347 359" fill="none" xmlns="http://www.w3.org/2000/svg">
<path d="M118.593 288.679C123.364 311.962 112.384 337.602 92.3203 350.307C90.4232 351.515 88.0661 352.607 86.1115 351.572C84.5593 350.767 83.8694 348.813 84.0419 347.088C84.2144 345.363 85.8816 340.764 86.6864 339.212C83.8119 349.56 73.7513 357.436 63.0584 357.723C62.0236 357.781 60.7588 357.608 60.1839 356.746C59.4366 355.539 60.5288 353.987 61.7361 353.239C62.9434 352.492 65.013 351.572 65.7603 350.307C56.7346 353.354 47.0189 354.102 37.6482 352.492C35.751 352.147 33.5089 351.457 32.8191 349.675C32.2442 348.065 33.164 346.226 34.5438 345.248C35.9235 344.271 38.1081 343.064 39.7753 342.719C22.6435 342.086 8.15625 327.944 2.75227 311.675C-0.812057 300.924 -1.09953 288.909 2.98221 278.388C7.06393 267.81 15.7448 258.9 26.5527 255.508C37.3607 252.058 51.7905 256.198 59.7815 264.246C55.2398 261.027 48.8585 261.314 44.0295 264.131C39.2579 266.891 35.9235 271.777 34.0838 277.009C29.4272 290.174 34.3713 306.501 46.214 313.917C57.3669 320.93 72.6591 319.263 83.467 311.675C94.275 304.086 100.829 291.553 103.358 278.618C110.314 282.01 112.557 284.022 118.593 288.679Z" fill="#D9BBA2"/>
<path d="M29.6572 255.393C18.8493 258.842 10.1684 267.753 6.0867 278.273C2.00497 288.851 2.2924 300.809 5.85673 311.56C11.2607 327.829 25.748 341.971 42.8798 342.604C41.2126 342.891 39.028 344.099 37.6483 345.133C36.2685 346.111 35.3487 347.95 35.9236 349.56C36.6134 351.4 38.798 352.09 40.7526 352.377C43.7421 352.894 46.8465 353.124 49.8934 353.182C45.8117 353.354 41.73 353.124 37.7057 352.434C35.8086 352.09 33.5665 351.4 32.8766 349.617C32.3017 348.008 33.2216 346.168 34.6013 345.191C35.981 344.214 38.1656 343.006 39.8328 342.661C22.7011 342.029 8.21379 327.887 2.80981 311.617C-0.754513 300.867 -1.04194 288.851 3.03978 278.331C7.12151 267.753 15.8024 258.842 26.6103 255.45C29.4848 254.53 32.6467 254.186 35.8086 254.243C33.6815 254.416 31.6119 254.818 29.6572 255.393Z" fill="#DFC5AD"/>
<path d="M68.8649 350.25C68.1175 351.457 66.0479 352.435 64.8406 353.182C63.6334 353.929 62.5411 355.482 63.2884 356.689C63.6333 357.264 64.2657 357.494 64.9556 357.609C64.3232 357.666 63.7483 357.724 63.116 357.724C62.0812 357.781 60.8164 357.609 60.2415 356.746C59.4941 355.539 60.5864 353.987 61.7937 353.239C62.5985 352.78 63.6908 352.205 64.6107 351.515C66.0479 351.112 67.4851 350.71 68.8649 350.25Z" fill="#DFC5AD"/>
<path d="M86.5715 311.617C80.2477 316.044 72.3142 318.458 64.6106 318.286C71.3369 317.883 78.0056 315.526 83.5246 311.675C94.3325 304.086 100.886 291.553 103.416 278.618C104.393 279.136 105.313 279.596 106.118 280.056C103.416 292.416 96.977 304.316 86.5715 311.617Z" fill="#DFC5AD"/>
<path d="M84.272 348.985C85.7093 347.375 86.974 345.536 88.0088 343.639C87.5489 344.961 87.204 346.283 87.1465 347.031C86.974 348.755 87.6639 350.71 89.2161 351.515C89.3311 351.572 89.5036 351.63 89.6185 351.687C88.4687 352.09 87.2615 352.147 86.1692 351.572C85.1919 351.055 84.5595 350.077 84.272 348.985Z" fill="#DFC5AD"/>
<path d="M57.3096 262.004C58.1719 262.694 59.0343 263.441 59.7816 264.189C57.8845 262.866 55.6424 262.177 53.3428 261.947C54.6651 261.832 56.0448 261.832 57.3096 262.004Z" fill="#DFC5AD"/>
<path d="M95.4824 332.198C96.1148 329.439 96.7471 326.679 97.3795 323.977C93.3553 334.153 82.7198 341.282 71.7969 341.109C73.0616 338.005 74.3839 334.9 75.6486 331.738C69.2099 338.58 59.0343 341.569 49.951 339.384C51.4457 336.797 53.9178 334.843 56.7347 333.923C40.1204 339.557 18.7344 329.209 12.4681 312.882C5.97179 295.808 11.6632 274.767 28.1626 266.028C36.901 261.372 51.1008 258.037 59.8391 264.246C55.2975 261.027 48.9162 261.314 44.0871 264.131C39.3155 266.891 35.9811 271.777 34.1415 277.009C29.4849 290.174 34.4289 306.501 46.2717 313.917C57.4246 320.93 72.7167 319.263 83.5247 311.675C94.3326 304.086 100.886 291.553 103.416 278.618C107.153 280.458 109.51 281.895 111.867 283.562C112.212 301.039 106.52 318.631 95.4824 332.198Z" fill="#C85E38"/>
<path d="M145.67 34.9795C140.094 47.4546 137.622 61.367 140.554 74.7045C143.486 88.042 150.787 100.402 161.077 109.37C165.217 105.059 167.976 100.172 172.173 95.8605C154.351 80.9133 146.648 58.2051 145.67 34.9795Z" fill="#C85E38"/>
<path d="M145.67 34.9795C144.463 57.9177 154.524 81.1433 172.115 95.8605C174.587 88.8468 177.002 83.6728 179.474 76.6591C172.863 59.8148 160.445 45.4425 145.67 34.9795Z" fill="#E5CFC1"/>
<path d="M144.521 92.986C148.027 92.8136 151.132 91.4338 154.236 89.9391C154.811 89.6517 155.386 90.3415 154.926 90.8589C152.282 93.8484 148.315 94.6532 144.463 94.2508C143.773 94.1933 143.716 93.0435 144.521 92.986Z" fill="#C85E38"/>
<path d="M135.495 76.6017C138.024 81.2583 141.474 83.7303 146.418 85.5125C146.993 85.685 146.878 86.5473 146.303 86.5473C140.956 86.6623 135.782 82.1781 134.46 77.0616C134.287 76.4292 135.207 76.0268 135.495 76.6017Z" fill="#C85E38"/>
<path d="M133.885 66.7135C135.035 68.6681 136.415 70.4503 138.082 71.945C139.806 73.4972 141.819 74.3596 143.716 75.6243C144.291 76.0267 143.946 76.8891 143.256 76.7166C138.772 75.6243 134.92 71.1977 132.793 67.3459C132.333 66.5985 133.425 65.9661 133.885 66.7135Z" fill="#C85E38"/>
<path d="M181.371 195.834C183.326 189.683 187.752 183.876 195.226 178.99C201.377 175.023 207.529 174.678 214.37 177.208C215.175 186.693 217.129 196.984 224.373 203.135C230.869 208.712 240.298 209.574 248.748 208.079C257.199 206.585 265.075 203.02 273.296 200.606C281.517 198.191 290.543 196.984 298.534 200.203C305.03 202.848 310.319 208.367 312.561 215.036C314.803 221.704 313.999 229.293 310.377 235.329C308.422 238.606 307.042 241.366 303.708 243.205C300.374 245.045 296.119 245.045 292.728 243.32C287.496 240.561 284.277 233.892 278.355 233.432C273.986 233.087 270.307 236.479 266.857 239.238C253.003 250.334 233.399 253.841 216.612 248.149C195.226 240.963 174.875 216.358 181.371 195.834Z" fill="#CCA78C"/>
<path d="M160.905 237.169C169.816 227.856 181.946 221.647 194.709 219.98C207.471 218.312 220.809 221.072 231.847 227.798C247.196 237.111 257.774 254.76 256.624 272.697C255.245 293.681 245.184 307.306 235.986 326.219C241.792 326.737 240.585 324.955 245.874 322.54C253.233 319.206 262.488 320.528 268.64 325.875C274.733 331.164 278.183 343.811 275.883 351.572C269.329 353.239 229.719 352.09 221.441 350.365C207.299 347.375 199.078 352.837 184.763 350.71C168.379 348.295 159.065 331.738 149.925 317.884C144.003 308.858 138.772 299.257 136.012 288.852C133.253 278.446 133.08 267.063 137.047 257.06C141.014 246.942 150.499 239.871 160.905 237.169Z" fill="#CCA78C"/>
<path d="M100.886 202.043C110.717 189.74 122.905 179.392 131.93 166.515C145.67 146.853 151.017 122.478 161.077 100.805C167.229 82.3505 179.646 66.0236 196.548 57.9176C216.095 48.5469 239.09 50.8465 259.844 44.7526C280.54 38.6588 298.649 23.999 309.399 4.56772C311.354 1.06088 315.033 -0.376346 318.77 0.830926C322.564 2.0382 325.324 5.37257 327.738 8.64945C338.604 23.3667 347.17 41.0158 346.997 59.4698C346.825 77.9239 335.902 96.8378 318.828 101.034C288.933 114.717 279.505 128.917 275.136 141.852C272.606 149.325 267.892 155.822 261.971 161.053C259.096 163.64 254.727 167.607 252.658 172.378C256.624 183.876 259.441 196.064 256.797 206.642C254.9 203.078 253.003 199.513 251.105 195.949C255.245 206.872 254.21 219.635 248.288 229.753C247.599 229.235 247.081 228.603 246.621 227.913C251.795 254.071 239.263 297.475 208.219 324.207C198.158 332.831 181.256 333.061 170.621 340.937C159.985 348.813 147.797 354.792 134.632 356.056C105.715 345.766 84.042 318.573 78.2356 288.449C72.4292 258.267 81.7425 226.016 100.886 202.043Z" fill="#D9BBA2"/>
<path d="M205.689 262.464C202.182 253.898 196.836 246.08 189.995 239.813C179.646 230.328 166.137 224.464 152.167 223.429C164.297 223.256 176.14 216.703 182.751 206.585C186.603 211.989 188.212 218.542 189.65 225.096C189.075 227.453 189.765 230.155 191.202 232.225C193.156 235.099 196.146 237.054 198.733 239.353C206.264 246.022 210.691 255.968 210.921 266.028C214.485 268.27 218.969 269.305 223.166 268.673C230.294 267.638 236.446 262.579 240.068 256.37C242.597 251.944 243.632 247.172 244.897 242.343C253.29 244.01 240.355 281.378 237.883 287.242C234.491 295.175 230.294 302.764 225.235 309.835C223.741 311.962 211.898 328.577 209.483 327.714C200.917 324.437 190.512 326.679 183.958 333.176C190.742 321.965 197.583 310.64 202.01 298.28C206.091 286.782 207.989 274.307 205.689 262.464Z" fill="#D2B196"/>
<path d="M190.914 230.787C190.454 228.89 190.052 226.993 189.592 225.039C189.822 224.119 190.224 223.256 190.857 222.509L190.914 230.787Z" fill="#D2B196"/>
<path d="M296.637 219.865C296.579 219.577 296.867 219.347 297.154 219.405C302.098 220.727 304.455 228.718 305.375 233.202C305.95 235.962 306.122 238.779 305.893 241.596C305.26 242.17 304.513 242.745 303.65 243.205C303.306 243.378 302.903 243.55 302.558 243.723C303.018 240.216 303.076 236.709 302.271 233.087C301.696 230.443 300.661 227.856 299.396 225.499C298.361 223.429 296.924 222.107 296.637 219.865Z" fill="#B8896A"/>
<path d="M312.906 229.408C312.216 227.511 311.412 225.671 310.319 223.889C307.732 219.692 303.823 216.933 301.063 213.023C300.719 212.564 301.121 211.989 301.638 212.161C306.467 213.368 310.837 217.967 313.826 223.314C313.769 225.384 313.424 227.453 312.906 229.408Z" fill="#B8896A"/>
<path d="M251.738 198.708C251.91 198.996 252.083 199.283 252.255 199.571C252.37 200.088 252.485 200.606 252.6 201.123C252.37 200.261 252.083 199.456 251.738 198.708Z" fill="#DFC5AD"/>
<path d="M100.886 202.043C110.717 189.74 122.905 179.392 131.93 166.515C139.979 155.017 145.095 141.909 150.04 128.687C144.981 144.611 140.209 160.708 131.356 174.793C122.962 188.073 111.234 198.996 101.979 211.701C83.9845 236.594 76.166 269.19 83.4097 299.027C85.5368 307.88 89.1011 316.389 93.7577 324.265C86.2266 313.572 80.8226 301.327 78.3506 288.449C72.4292 258.267 81.7425 226.016 100.886 202.043Z" fill="#DFC5AD"/>
<path d="M182.521 16.5829C176.657 24.344 173.265 33.9447 172.92 43.6603C172.575 53.376 175.335 63.2066 180.681 71.3126C183.958 67.7483 188.097 65.2188 192.006 62.4018C184.13 48.4894 180.394 32.4499 182.521 16.5829Z" fill="#C85E38"/>
<path d="M207.184 56.7104C203.217 41.4757 193.674 27.7358 182.521 16.5829C179.646 32.335 183.441 49.1218 192.064 62.6317C197.526 61.1945 202.412 59.5273 207.184 56.7104Z" fill="#E5CFC1"/>
<path d="M195.054 63.4366C214.6 54.0659 237.595 56.3654 258.349 50.2716C279.045 44.1777 297.154 29.518 307.905 10.0867C309.859 6.57984 313.539 5.2001 317.333 6.34988C321.07 7.55715 323.887 10.8915 326.301 14.1684C337.167 28.9431 345.733 46.5348 345.56 64.9888C345.503 68.0932 345.158 71.2551 344.525 74.302C346.077 69.5304 346.94 64.4714 346.997 59.4124C347.17 41.0158 338.604 23.3667 327.738 8.64945C325.324 5.37257 322.564 2.0382 318.77 0.830926C315.033 -0.376346 311.297 1.06088 309.342 4.56772C298.591 23.999 280.482 38.7163 259.786 44.7526C239.033 50.8465 216.037 48.5469 196.491 57.9176C177.922 66.771 164.757 85.5699 159.353 106.266C159.18 106.841 159.123 107.473 158.95 108.048C164.929 88.9043 177.634 71.7725 195.054 63.4366Z" fill="#DFC5AD"/>
<path d="M217.992 96.148C221.671 97.9876 225.35 99.8273 229.317 100.862C233.284 101.897 237.595 102.069 241.447 100.632C246.794 98.62 250.531 93.6184 252.428 88.2145C253.865 84.1902 254.325 79.5911 252.428 75.7968C250.818 72.5774 247.771 70.3353 244.552 68.7831C237.71 65.3913 229.547 64.4714 222.246 66.7135C216.21 68.5532 208.448 73.8422 206.264 80.1085C203.562 87.6396 212.415 93.331 217.992 96.148Z" fill="#C85E38"/>
<path d="M234.204 75.6244C232.536 75.5669 230.812 75.7968 229.259 76.4292C227.88 76.9466 226.615 77.7515 225.753 78.9587C224.948 80.166 224.66 81.8332 225.35 83.0979C225.925 84.1327 227.075 84.7651 228.167 85.225C231.789 86.6623 238.458 87.1222 241.447 84.0178C242.654 82.753 243.114 80.9708 242.195 79.4186C241.62 78.3838 240.585 77.6365 239.55 77.1191C237.94 76.1993 236.101 75.6818 234.204 75.6244Z" fill="#472B3C"/>
<path d="M235.641 54.5258C234.089 54.4683 232.594 54.6983 231.157 55.2157C229.949 55.6756 228.742 56.423 227.995 57.4578C227.247 58.5501 227.017 60.0448 227.65 61.1946C228.167 62.1144 229.202 62.6893 230.179 63.0917C233.456 64.414 239.493 64.8164 242.252 61.9994C243.344 60.8496 243.747 59.2399 242.942 57.8027C242.425 56.8829 241.505 56.193 240.527 55.7331C239.033 55.0432 237.366 54.5833 235.641 54.5258Z" fill="#472B3C"/>
<path d="M216.094 77.234C215.692 78.7287 215.75 80.2235 216.439 81.5457C217.187 83.9603 218.796 86.3173 221.096 85.455C223.108 84.7076 222.821 82.2931 222.246 80.6834C221.613 78.9587 220.464 77.464 219.026 76.3717C218.164 75.6818 216.439 76.0268 216.094 77.234Z" fill="#472B3C"/>
<path d="M217.704 61.9994C217.704 60.4472 218.107 59.0099 219.084 57.9177C220.406 55.7906 222.533 53.8934 224.546 55.2732C226.328 56.4804 225.408 58.7225 224.488 60.1597C223.453 61.7119 221.959 62.8617 220.291 63.5516C219.314 64.0115 217.704 63.2641 217.704 61.9994Z" fill="#472B3C"/>
<path d="M307.732 54.4109C305.145 55.8481 307.387 59.8149 309.974 58.3776C312.504 56.9979 310.319 52.9736 307.732 54.4109Z" fill="#472B3C"/>
<path d="M305.433 63.5516C302.846 64.9888 305.088 69.0131 307.675 67.5759C310.262 66.1386 308.02 62.1144 305.433 63.5516Z" fill="#472B3C"/>
<path d="M317.735 58.2626C315.206 59.6424 317.39 63.6091 319.92 62.1719C322.449 60.7922 320.265 56.8254 317.735 58.2626Z" fill="#472B3C"/>
<path d="M170.736 57.9752C172.863 58.6075 174.817 59.1249 177.059 59.0674C179.014 59.01 180.911 58.4351 182.866 58.2051C183.498 58.1476 183.843 59.0674 183.383 59.4699C179.876 62.3443 173.783 61.7119 170.276 59.1824C169.701 58.78 169.988 57.8027 170.736 57.9752Z" fill="#C85E38"/>
<path d="M167.401 49.1793C168.896 50.6165 170.333 52.0538 172.115 53.146C173.782 54.1234 175.737 54.5833 177.347 55.5606C178.094 56.0205 177.692 56.9978 176.944 57.0553C172.863 57.4577 167.918 53.5485 166.136 50.1566C165.734 49.3518 166.711 48.5469 167.401 49.1793Z" fill="#C85E38"/>
<path d="M169.298 38.8313C170.103 40.441 171.195 41.9357 172.46 43.2579C173.668 44.4652 175.335 45.2701 176.427 46.5923C177.002 47.2822 176.427 48.1445 175.622 48.0295C173.782 47.7996 171.943 45.9599 170.793 44.5802C169.471 43.028 168.608 41.3033 167.919 39.4062C167.689 38.6588 168.953 38.0839 169.298 38.8313Z" fill="#C85E38"/>
<path d="M158.318 223.141C180.796 225.383 202.757 239.181 208.161 262.234C213.795 286.264 201.607 308.915 187.522 327.772C194.364 323.747 200.055 324.725 207.011 326.794C206.264 327.542 207.759 326.047 207.011 326.794C206.896 326.852 206.781 326.967 206.666 327.024C204.424 326.679 202.01 326.794 199.25 327.427C193.214 328.806 188.442 332.773 182.693 334.67C182.348 334.785 182.003 334.67 181.716 334.555C181.371 334.843 181.026 335.073 180.624 335.245C179.991 335.475 179.416 334.728 179.704 334.153C179.876 333.865 180.106 333.636 180.336 333.348C180.164 332.946 180.221 332.486 180.509 332.026V331.968C181.141 330.129 181.831 328.289 182.636 326.507C182.636 326.334 182.693 326.104 182.808 325.932C182.923 325.817 182.981 325.702 183.038 325.53C183.556 324.38 184.131 323.287 184.705 322.195C184.533 321.39 185.05 320.471 186.258 319.378C190.052 312.652 194.536 306.271 198.158 299.429C200.228 293.853 201.78 288.104 202.987 282.24C204.309 263.441 197.353 248.207 181.141 233.547C173.955 229.695 165.907 227.166 157.628 226.016C155.731 225.786 156.478 222.969 158.318 223.141Z" fill="#B8896A"/>
<path d="M143.371 225.958C156.133 224.291 169.471 227.051 180.509 233.777C195.858 243.09 206.436 260.739 205.287 278.676C203.907 299.659 188.097 316.504 178.957 335.418C184.763 335.935 189.305 330.933 194.594 328.519C201.952 325.185 211.208 326.507 217.359 331.853C223.453 337.142 226.098 346.168 223.798 353.929C217.244 355.596 208.506 357.206 201.78 357.493C193.329 357.896 147.797 358.816 133.483 356.689C117.098 354.274 107.785 337.717 98.6442 323.862C92.7229 314.836 87.4913 305.236 84.7319 294.83C81.9724 284.425 81.7999 273.042 85.7667 263.039C89.6759 252.978 130.608 227.683 143.371 225.958Z" fill="#D9BBA2"/>
<path d="M77.2007 258.957C79.5003 238.319 87.8937 218.312 100.886 202.043C110.717 189.74 122.905 179.392 131.93 166.515C132.965 165.02 134 163.468 134.977 161.858C135.552 163.008 136.127 164.158 136.472 165.192C138.829 172.206 138.714 180.025 141.818 186.751C144.233 192.04 148.43 196.294 151.592 201.181C157.743 210.666 159.755 222.394 158.72 233.604C157.628 244.815 153.661 255.623 148.487 265.626C144.291 273.732 139.116 281.78 131.355 286.552C123.594 291.381 112.729 292.128 105.715 286.322C99.564 281.148 97.6094 272.295 91.5155 267.006C87.2613 263.499 81.6849 262.004 77.2007 258.957Z" fill="#C85E38"/>
<path d="M136.415 165.192C136.415 165.25 136.472 165.307 136.472 165.365C134.92 168.584 133.195 171.689 131.298 174.736C122.905 188.016 111.177 198.939 101.921 211.644C91.2856 226.303 84.2719 243.608 81.7424 261.487C80.1902 260.682 78.638 259.877 77.2008 258.9C77.2008 258.785 77.2007 258.727 77.2582 258.612C77.3732 257.405 77.5457 256.198 77.7182 254.99C77.8331 254.071 78.0056 253.151 78.1781 252.173C78.293 251.484 78.408 250.851 78.523 250.161C78.6955 249.242 78.8679 248.322 79.0979 247.459C79.3853 246.252 79.6728 245.102 79.9602 243.895C80.1902 242.975 80.4776 241.998 80.7651 241.078C80.995 240.273 81.225 239.526 81.455 238.721C81.6849 237.916 81.9149 237.169 82.2023 236.364C82.6622 234.984 83.1221 233.662 83.6395 232.34C83.8695 231.707 84.1569 231.075 84.3869 230.5C84.7893 229.523 85.1342 228.603 85.5942 227.626C85.8816 226.993 86.1116 226.361 86.399 225.786C87.0314 224.406 87.6638 222.969 88.4111 221.589C88.5836 221.187 88.8135 220.842 89.0435 220.439C89.6184 219.29 90.2508 218.14 90.8832 217.048C91.1706 216.588 91.4006 216.128 91.688 215.668C92.4929 214.231 93.3552 212.851 94.2175 211.414C94.3325 211.241 94.4475 211.069 94.5625 210.896C95.3673 209.631 96.2297 208.367 97.1495 207.102C97.4369 206.757 97.6669 206.355 97.9543 206.01C98.9316 204.63 99.9665 203.25 101.059 201.928C110.889 189.625 123.077 179.277 132.103 166.4C133.138 164.905 134.172 163.353 135.15 161.743C135.552 163.008 136.07 164.158 136.415 165.192Z" fill="#C86D47"/>
<path d="M218.279 347.146C217.359 343.294 215.29 340.189 212.645 337.315C211.955 336.568 212.875 335.475 213.738 336.108C218.854 339.959 222.246 348.008 220.751 354.619C220.004 354.792 219.199 354.964 218.394 355.137C218.739 352.492 218.912 349.905 218.279 347.146Z" fill="#B8896A"/>
<path d="M206.954 339.327C206.379 338.407 207.586 337.257 208.449 338.062C213.163 342.546 213.22 350.02 213.105 356.171C212.185 356.344 211.323 356.459 210.403 356.574C210.633 350.25 210.288 344.903 206.954 339.327Z" fill="#B8896A"/>
<path d="M270.537 342.431C269.617 338.579 267.547 335.475 264.903 332.601C264.213 331.853 265.133 330.761 265.995 331.393C271.629 335.648 275.251 345.133 272.376 351.974C271.801 352.032 271.227 352.032 270.537 352.089C270.824 348.813 271.342 345.766 270.537 342.431Z" fill="#B8896A"/>
<path d="M259.154 334.613C258.579 333.693 259.786 332.543 260.648 333.348C265.593 338.062 265.42 346.053 265.305 352.319C264.443 352.319 263.523 352.377 262.603 352.377C262.948 345.823 262.661 340.304 259.154 334.613Z" fill="#B8896A"/>
<path d="M164.642 117.764C165.217 117.534 165.677 118.224 165.447 118.741C164.872 120.006 164.067 121.156 163.607 122.478C163.205 123.685 163.147 125.007 162.687 126.215C162.342 127.02 161.307 126.732 161.02 126.1C159.698 123.283 161.882 118.856 164.642 117.764Z" fill="#D2B196"/>
<path d="M161.537 134.091C161.825 132.251 162.975 130.469 163.952 128.859C164.469 127.997 166.079 128.399 165.734 129.492C165.159 131.331 164.584 133.516 163.319 135.011C162.63 135.931 161.422 135.068 161.537 134.091Z" fill="#D2B196"/>
<path d="M154.409 130.067C155.099 128.802 157.111 129.837 156.421 131.101C155.558 132.769 154.811 134.666 153.259 135.873C152.856 136.16 152.109 135.873 152.167 135.298C152.282 133.401 153.489 131.734 154.409 130.067Z" fill="#D2B196"/>
<path d="M156.248 139.322C156.996 138.747 157.743 139.84 157.283 140.53C156.651 141.334 156.076 142.254 155.616 143.174C155.214 144.036 154.984 144.956 154.351 145.646C153.776 146.278 152.914 145.819 152.799 145.071C152.454 142.829 154.581 140.472 156.248 139.322Z" fill="#D2B196"/>
<path d="M161.652 143.634C162.342 142.427 164.297 143.461 163.549 144.611C162.515 146.336 161.537 148.521 159.985 149.785C159.468 150.245 158.72 149.555 158.835 148.98C159.238 147.141 160.675 145.301 161.652 143.634Z" fill="#D2B196"/>
<path d="M146.303 148.118C147.05 146.796 149.062 147.831 148.372 149.21C147.453 151.05 146.648 153.407 145.095 154.844C144.406 155.534 143.198 154.959 143.371 153.982C143.773 151.855 145.268 149.9 146.303 148.118Z" fill="#D2B196"/>
<path d="M149.695 160.478C150.04 159.444 150.672 158.639 151.247 157.661C151.822 156.684 152.339 155.707 152.856 154.729C153.431 153.637 155.386 154.269 154.984 155.477C154.294 157.546 153.201 160.248 151.362 161.571C150.614 162.145 149.407 161.398 149.695 160.478Z" fill="#D2B196"/>
<path d="M162.285 158.524C162.917 157.604 164.469 158.409 163.837 159.328C162.86 160.823 161.94 162.778 160.56 163.985C160.1 164.388 159.295 163.813 159.468 163.238C159.928 161.571 161.307 160.018 162.285 158.524Z" fill="#D2B196"/>
<path d="M145.958 176.575C146.245 175.483 147.28 174.85 147.97 173.931C148.66 172.953 149.235 171.861 149.522 170.711C149.925 169.332 151.879 169.791 151.649 171.171C151.419 172.608 150.959 173.988 150.155 175.253C149.465 176.345 148.487 177.84 147.05 177.897C146.36 177.955 145.785 177.265 145.958 176.575Z" fill="#D2B196"/>
<path d="M139.462 166.86C140.266 164.962 142.049 163.41 143.428 161.915C144.463 160.823 146.015 162.318 145.153 163.468C143.888 165.077 142.681 167.09 140.899 168.182C140.036 168.757 139.117 167.779 139.462 166.86Z" fill="#D2B196"/>
<path d="M169.241 91.2614C169.758 90.1116 171.713 90.8015 171.31 92.0087C170.448 94.4808 170.103 97.2977 168.896 99.5973C168.608 100.115 167.574 100.172 167.459 99.4823C166.884 96.7228 168.091 93.7334 169.241 91.2614Z" fill="#D2B196"/>
<path d="M169.931 108.968C169.988 107.933 171.31 107.933 171.483 108.911C171.77 110.52 171.943 112.762 170.736 114.085C170.218 114.659 169.241 114.315 169.183 113.51C169.126 112.015 169.873 110.52 169.931 108.968Z" fill="#D2B196"/>
<path d="M162.342 104.541C162.917 104.484 163.262 105.059 163.204 105.576C163.089 106.381 162.457 106.956 162.227 107.703C161.997 108.451 161.94 109.198 161.652 109.888C161.365 110.52 160.445 110.463 160.1 109.945C158.95 108.278 160.215 104.771 162.342 104.541Z" fill="#D2B196"/>
<path d="M86.9739 269.995C87.2613 268.385 89.6758 268.96 89.4459 270.57C89.2159 272.065 89.2734 273.904 88.3536 275.169C87.8362 275.859 86.7439 275.514 86.5139 274.767C86.054 273.272 86.6864 271.432 86.9739 269.995Z" fill="#D2B196"/>
<path d="M80.5351 269.535C80.8225 268.385 82.7197 268.443 82.6622 269.708C82.6047 272.122 82.5472 274.997 81.3399 277.124C81.0525 277.699 80.0177 277.699 79.8452 277.009C79.2703 274.594 79.9602 271.835 80.5351 269.535Z" fill="#D2B196"/>
<path d="M85.7667 281.953C85.9392 280.688 88.0088 280.861 88.0088 282.125C88.0088 283.792 88.5837 285.632 88.2962 287.299C88.1812 287.932 87.2039 288.334 86.744 287.759C85.3643 286.264 85.5367 283.85 85.7667 281.953Z" fill="#D2B196"/>
<path d="M91.5155 282.413C91.5155 281.033 93.4701 280.975 93.6425 282.298C93.815 284.137 94.1025 286.035 93.7575 287.874C93.5851 288.794 92.2053 288.851 91.9754 287.989C91.4005 286.149 91.5155 284.252 91.5155 282.413Z" fill="#D2B196"/>
<path d="M89.331 300.982C90.0784 303.281 91.4581 305.753 91.6306 308.168C91.6881 308.8 90.8257 309.26 90.3658 308.743C88.6411 306.903 87.9513 303.971 87.2039 301.614C86.8015 300.349 88.8711 299.659 89.331 300.982Z" fill="#D2B196"/>
<path d="M198.503 262.637C200.458 265.568 202.47 269.823 201.147 273.387C200.802 274.307 199.423 274.019 199.135 273.215C198.618 271.777 198.675 270.11 198.388 268.615C198.043 266.948 197.526 265.281 196.778 263.786C196.146 262.579 197.698 261.487 198.503 262.637Z" fill="#D2B196"/>
<path d="M191.029 249.184C193.444 249.414 195.916 253.093 195.686 255.335C195.628 256.025 194.651 256.255 194.191 255.795C193.386 255.048 192.984 253.956 192.294 253.093C191.604 252.231 190.569 251.484 190.109 250.506C189.707 249.759 190.224 249.069 191.029 249.184Z" fill="#D2B196"/>
<path d="M187.35 256.83C189.994 257.118 191.949 261.372 191.489 263.671C191.374 264.246 190.454 264.476 190.167 263.901C189.592 262.809 189.305 261.602 188.615 260.509C187.982 259.532 187.005 258.67 186.603 257.577C186.43 257.118 186.89 256.773 187.35 256.83Z" fill="#D2B196"/>
<path d="M179.474 245.102C180.509 245.332 181.256 246.137 182.003 246.884C182.808 247.689 183.671 248.379 184.36 249.356C184.935 250.161 183.901 251.311 183.096 250.794C182.118 250.219 181.314 249.414 180.451 248.667C179.646 247.977 178.784 247.287 178.439 246.252C178.267 245.562 178.842 244.93 179.474 245.102Z" fill="#D2B196"/>
<path d="M177.462 236.709C180.451 236.192 184.188 238.549 185.223 241.366C185.568 242.285 184.361 243.033 183.671 242.4C182.636 241.481 181.831 240.503 180.681 239.813C179.589 239.123 178.324 238.721 177.174 238.146C176.427 237.801 176.829 236.824 177.462 236.709Z" fill="#D2B196"/>
<path d="M166.021 234.352C167.861 233.834 170.391 235.387 171.713 236.594C172.575 237.399 171.598 239.066 170.448 238.376C169.643 237.916 168.896 237.399 168.034 237.054C167.229 236.709 166.366 236.594 165.676 236.019C165.159 235.559 165.332 234.582 166.021 234.352Z" fill="#D2B196"/>
<path d="M197.698 284.138C197.928 282.873 197.986 281.665 197.928 280.343C197.871 279.078 199.768 278.963 199.883 280.228C200.055 282.585 200.113 285.92 198.56 287.817C198.1 288.392 197.066 287.989 197.066 287.299C197.066 286.207 197.468 285.172 197.698 284.138Z" fill="#D2B196"/>
<path d="M192.064 271.777C192.467 272.812 192.754 273.962 192.869 275.054C192.927 275.572 192.984 276.147 192.984 276.721C192.984 277.411 192.812 277.699 192.639 278.389C192.467 279.136 191.202 279.308 190.972 278.446C190.799 277.814 190.627 277.469 190.569 276.836C190.512 276.376 190.454 275.917 190.397 275.399C190.282 274.307 190.11 273.215 189.937 272.122C189.822 270.915 191.662 270.685 192.064 271.777Z" fill="#D2B196"/>
<path d="M190.282 291.496C190.397 290.519 190.397 289.541 190.569 288.622C190.742 287.644 192.237 287.587 192.524 288.507C193.156 290.461 192.811 293.106 191.432 294.658C190.972 295.175 190.224 294.83 190.167 294.198C190.109 293.336 190.224 292.416 190.282 291.496Z" fill="#D2B196"/>
<path d="M195.628 169.217C203.447 168.814 208.046 173.298 212.76 179.105C218.969 186.808 223.856 194.512 234.894 194.627C242.999 194.684 250.473 191.982 257.027 187.498C258.004 186.866 259.039 188.303 258.234 189.05C251.22 196.007 240.297 199.513 230.467 198.134C213.565 195.777 211.495 175.253 195.226 172.034C193.616 171.689 194.076 169.332 195.628 169.217Z" fill="#B8896A"/>
<path d="M212.3 103.219C224.2 100.69 236.561 101.782 248.576 103.449C260.591 105.174 272.664 107.416 284.852 107.128C297.039 106.841 309.514 103.737 318.828 95.918C321.357 93.7909 323.599 91.2039 325.439 88.387C327.164 90.974 327.738 94.1359 327.566 97.2403C324.864 98.9075 321.99 100.172 318.828 100.977C273.411 121.213 276.343 144.036 273.239 148.751C266.283 159.329 255.82 155.937 252.198 156.397C246.564 157.144 249.323 156.627 243.689 156.224C231.847 155.419 221.211 151.797 210.346 147.256C201.952 143.749 194.881 138.345 193.099 128.974C191.892 122.65 193.099 115.637 197.353 110.808C201.09 106.611 206.724 104.426 212.3 103.219Z" fill="#E5CFC1"/>
<path d="M332.223 61.4245C332.108 75.1644 327.106 90.2265 316.586 102.012C335.959 97.0103 346.825 76.9466 346.997 59.4699C347.112 44.6951 341.708 30.4953 333.947 17.8477C333.66 17.9052 333.315 17.9052 333.027 18.0202C322.335 21.8145 332.28 52.5137 332.223 61.4245Z" fill="#CCA78C"/>
<path d="M318.828 101.035C319.46 100.862 318.253 101.207 318.828 101.035C332.05 84.8226 338.144 57.0553 330.785 36.9916C330.555 36.3593 328.486 36.4167 328.543 37.2216C329.521 48.087 332.223 59.8148 330.67 70.7378C328.831 83.5578 324.691 92.4687 316.586 102.069C317.793 101.035 317.678 102.127 318.828 101.035Z" fill="#B8896A"/>
<path d="M287.956 28.5982C294.165 35.3244 303.248 39.5786 312.504 40.4985C322.794 41.4183 333.085 38.8313 342.571 34.4621C339.121 25.0339 333.775 16.1231 327.624 8.13207C325.266 5.02766 322.507 1.86576 318.77 0.773464C315.033 -0.318829 311.354 1.06091 309.342 4.39528C303.88 13.766 296.522 21.987 287.956 28.5982Z" fill="#472B3C"/>
<path d="M306.812 8.41955C304.685 11.5814 302.328 14.6284 299.799 17.5028L299.741 17.5603C296.177 21.5846 292.21 25.2639 287.956 28.5407C288.646 29.2881 289.393 30.0355 290.198 30.7253C291.865 32.2201 307.445 10.3742 309.514 8.24708C313.826 3.76293 319.575 1.75081 324.404 6.63738C332.223 14.5709 338.546 23.9416 342.858 34.2322C340.444 26.8161 336.247 19.8024 331.878 13.3636C329.061 9.22439 324.749 0.77349 319.173 0.0836206C315.263 -0.376293 311.354 1.06094 309.342 4.39531C308.537 5.77505 307.732 7.0973 306.812 8.41955Z" fill="#634357"/>
<path d="M224.086 115.004C249.438 125.467 292.038 116.614 315.551 102.529C293.245 117.706 276.803 140.185 275.653 140.472C260.419 144.036 244.609 138.517 233.686 127.652C231.329 125.352 226.385 115.924 224.086 115.004Z" fill="#472B3C"/>
<path d="M232.019 113.74C229.604 112.13 226.098 113.165 224.086 115.004C221.958 116.902 220.694 120.523 222.878 122.765C223.568 123.513 224.718 123.11 225.178 122.363C226.04 120.983 225.925 119.316 226.96 117.936C228.11 116.384 229.777 116.212 231.559 115.924C232.709 115.694 232.996 114.372 232.019 113.74Z" fill="#472B3C"/>
<path d="M233.686 127.652C233.226 127.192 232.709 126.502 232.076 125.64C236.618 123.915 245.011 129.204 250.013 128.744C253.405 128.457 256.682 127.365 260.016 126.617C263.351 125.87 266.915 125.582 270.134 126.79C273.354 127.997 276.056 131.044 275.883 134.436C275.768 137.54 273.354 140.07 270.479 141.277C256.912 142.714 243.344 137.31 233.686 127.652Z" fill="#EE5652"/>
<path d="M182.981 134.666C189.65 146.508 200.63 156.626 213.278 163.008C226.902 169.849 239.665 169.159 254.095 169.906C253.29 171.171 252.6 172.551 252.198 173.988C251.968 174.046 251.853 174.391 251.738 174.908C248.748 175.195 245.644 175.253 242.712 174.965C228.57 175.885 214.542 170.194 203.504 162.088C195.456 156.109 183.441 145.244 182.176 134.953C182.061 134.436 182.751 134.263 182.981 134.666Z" fill="#CCA78C"/>
<path d="M150.844 127.135C149.35 129.434 149.58 131.389 150.787 133.803C151.994 136.218 154.006 138.058 156.018 139.782C181.199 161.513 213.335 174.621 246.506 176.805C248.059 176.92 249.783 176.92 251.105 176C251.68 175.54 251.968 174.563 252.025 173.471C252.083 173.298 252.198 173.183 252.198 173.011C252.255 172.666 252.37 172.321 252.485 171.976C256.164 176.173 257.199 184.279 254.325 188.993C251.105 194.282 244.954 197.156 238.975 197.789C232.996 198.421 227.017 197.041 221.211 195.604C195.283 188.993 169.126 178.645 151.534 158.294C147.453 153.58 143.773 148.118 142.911 141.852C141.991 135.413 145.153 129.952 150.844 127.135Z" fill="#B10000"/>
<path d="M148.832 128.284C147.28 130.584 148.027 132.653 149.292 135.068C150.5 137.483 152.569 139.322 154.639 141.047C180.509 162.663 213.565 175.713 247.771 177.782C249.381 177.897 251.163 177.897 252.485 176.92C253.807 175.943 254.152 173.586 252.715 172.838C257.774 176.288 259.039 184.566 255.705 189.855C252.37 195.144 246.046 198.076 239.895 198.708C233.686 199.341 227.592 198.019 221.614 196.581C194.939 190.028 168.034 179.737 149.925 159.443C145.728 154.729 141.991 149.325 141.071 143.002C140.209 136.735 143.026 131.159 148.832 128.284Z" fill="#D20000"/>
<path d="M243.114 188.418C246.851 187.958 249.496 191.178 250.186 194.857C251.105 199.571 248.576 205.55 244.954 208.194C240.7 211.299 236.331 209.057 235.066 204.285C234.146 200.836 234.606 196.984 236.331 193.765C237.481 191.522 239.32 189.51 241.677 188.706C242.195 188.533 242.655 188.476 243.114 188.418Z" fill="#F99122"/>
<path d="M245.127 188.131C248.863 187.671 251.508 190.89 252.198 194.569C253.118 199.283 250.588 205.262 246.966 207.907C242.712 211.011 238.343 208.769 237.078 203.998C236.158 200.548 236.618 196.696 238.343 193.477C239.493 191.235 241.332 189.223 243.689 188.418C244.207 188.303 244.667 188.188 245.127 188.131Z" fill="#F9B233"/>
<path d="M186.947 191.177C198.445 194.799 205.172 198.479 216.612 195.777C214.485 195.259 228.915 194.914 230.639 194.282C238.458 194.914 243.517 190.085 249.496 184.911C255.992 179.335 260.936 172.206 266.8 165.94C272.664 159.673 279.792 154.04 288.243 152.717C295.2 151.625 302.558 153.752 307.847 158.351C313.194 162.95 316.356 169.907 316.298 176.92C316.298 180.714 316.528 183.819 314.573 187.096C312.619 190.373 308.997 192.557 305.203 192.787C299.281 193.075 293.13 188.993 287.841 191.637C283.874 193.592 282.494 198.364 280.942 202.503C274.733 219.117 259.614 232.11 242.31 235.847C220.176 240.561 190.167 229.868 185.28 208.884C184.131 203.538 184.533 197.616 186.947 191.177Z" fill="#D9BBA2"/>
<path d="M296.694 170.596C296.522 170.366 296.579 170.021 296.924 169.906C301.868 168.527 307.962 174.161 311.067 177.553C312.964 179.622 314.573 181.979 315.838 184.509C315.608 185.371 315.206 186.176 314.746 187.038C314.516 187.383 314.286 187.728 314.056 188.016C312.676 184.739 310.952 181.749 308.365 178.99C306.525 177.035 304.34 175.31 301.983 173.931C300.029 172.838 298.132 172.379 296.694 170.596Z" fill="#B8896A"/>
<path d="M315.551 170.539C313.999 169.274 312.389 168.067 310.549 167.089C306.238 164.79 301.409 164.445 297.039 162.49C296.522 162.26 296.579 161.571 297.097 161.398C301.868 159.961 307.962 161.686 313.251 164.732C314.229 166.63 315.034 168.527 315.551 170.539Z" fill="#B8896A"/>
<path d="M279.793 177.782C280.31 177.38 283.644 183.014 284.334 184.854C285.714 187.038 287.094 189.223 288.531 191.292C288.301 191.35 288.128 191.465 287.898 191.58C283.932 193.534 282.552 198.306 281 202.445C280.77 203.135 280.425 203.768 280.195 204.457C280.54 202.388 280.942 200.261 281.172 198.191C281.172 198.076 281.115 197.961 281.115 197.846C281.115 196.409 281.287 194.914 281.46 193.477C281.46 191.695 281.402 189.855 281.287 188.073C281 186.291 279.333 177.897 279.793 177.782Z" fill="#B8896A"/>
<path d="M183.096 206.125C190.282 218.312 197.066 228.89 211.61 233.202C224.373 236.996 242.884 237.859 254.957 232.167C255.647 231.88 256.337 232.8 255.704 233.26C244.379 242.228 223.568 240.446 210.518 236.422C197.066 232.282 183.786 221.187 181.371 206.757C181.256 205.722 182.578 205.205 183.096 206.125Z" fill="#B8896A"/>
<path d="M262.431 177.61C262.718 176.518 263.753 175.713 264.443 174.851C265.133 173.988 265.65 173.011 266.455 172.206C266.742 171.919 267.202 172.206 267.202 172.551C267.145 173.816 266.513 174.966 265.938 176C265.305 177.035 264.615 178.185 263.408 178.587C262.718 178.817 262.258 178.127 262.431 177.61Z" fill="#D2B196"/>
<path d="M266.398 180.484C266.857 180.082 267.432 180.657 267.145 181.117C266.57 182.094 265.995 183.072 265.42 184.049C264.903 184.969 264.443 185.888 263.638 186.636C263.236 186.981 262.488 186.693 262.603 186.118C262.948 183.876 264.788 181.922 266.398 180.484Z" fill="#D2B196"/>
<path d="M252.198 188.303C252.773 187.383 253.865 186.808 254.727 186.119C255.647 185.371 256.624 184.796 257.487 183.934C257.947 183.532 258.579 184.106 258.292 184.624C257.084 186.521 255.59 189.28 253.175 189.74C252.37 189.913 251.738 188.993 252.198 188.303Z" fill="#D2B196"/>
<path d="M252.14 196.926C252.945 196.064 254.267 195.662 255.187 194.914C256.107 194.167 257.027 193.305 257.832 192.442C258.177 192.04 258.924 192.5 258.752 193.017C258.177 194.339 257.429 195.432 256.337 196.409C255.36 197.271 254.095 198.364 252.715 198.364C251.91 198.421 251.738 197.386 252.14 196.926Z" fill="#D2B196"/>
<path d="M238.745 195.949C239.895 195.087 241.102 194.627 242.367 193.994C243.689 193.305 244.897 192.327 246.334 191.752C246.851 191.522 247.369 192.04 247.081 192.557C245.701 194.972 241.907 197.099 239.148 196.984C238.63 196.926 238.285 196.236 238.745 195.949Z" fill="#D2B196"/>
<path d="M236.043 200.721C236.906 200.203 238.055 200.203 239.033 199.801C240.01 199.398 240.93 198.938 241.85 198.306C242.655 197.789 243.344 198.996 242.77 199.628C241.332 201.181 238.458 203.078 236.216 202.388C235.411 202.1 235.353 201.066 236.043 200.721Z" fill="#D2B196"/>
<path d="M225.12 195.892C225.925 196.179 226.672 196.639 227.477 196.926C228.34 197.271 229.317 197.329 230.237 197.386C230.697 197.386 230.812 198.019 230.409 198.191C228.512 199.226 225.35 198.766 224.43 196.581C224.315 196.236 224.66 195.777 225.12 195.892Z" fill="#D2B196"/>
</svg>
