<svg width="409" height="129" viewBox="0 0 409 129" fill="none" xmlns="http://www.w3.org/2000/svg">
<path d="M110.792 -0.205776C114.487 -2.52349 120.319 -7.73837 121.936 -14.5756C123.09 -19.4042 122.513 -23.4989 122.34 -24.2714C123.726 -22.8036 135.966 -10.3651 157.157 -9.51529C178.001 -8.70409 198.788 -19.4815 204.677 -35.8987C205.37 -33.0788 209.296 -18.1681 226.734 -11.833C247.751 -4.22316 300.93 -32.7698 300.93 -32.7698C300.93 -32.7698 293.539 -18.3226 300.93 -9.47666C311.323 2.84589 343.773 8.2539 376.338 -2.56213C372.873 -0.321663 368.197 3.07766 363.808 7.75173C358.323 13.546 348.507 24.0144 351.972 34.6759C355.378 45.1443 390.253 56.3852 390.253 56.3852C390.253 56.3852 352.318 56.6943 340.366 65.6948C328.01 75.0043 328.529 86.3997 328.76 88.9878C326.508 87.7131 312.304 79.9101 293.943 81.9961C275.408 84.1206 260.338 95.4388 257.971 109.925C254.16 98.7609 242.497 89.799 227.831 87.4427C207.218 84.082 175.634 111.508 175.634 111.508C175.634 111.508 176.269 101.079 170.899 93.3529C167.897 89.1037 163.277 84.7001 159.409 82.7686C145.898 76.1245 111.485 85.2795 78.2266 107.607C91.68 89.9149 102.073 70.1757 89.8323 60.2867C75.3396 48.5436 33.0162 49.4321 33.0162 49.4321C35.9032 48.8527 56.1122 44.4103 64.3112 30.813C71.7019 18.5291 50.4536 -6.07734 50.4536 -6.07734C50.4536 -6.07734 99.4748 6.82465 110.792 -0.205776Z" fill="#FFF777"/>
<path d="M107.847 -2.29168C109.753 -3.56643 111.485 -5.22746 112.986 -6.84986C113.737 -7.6997 114.429 -8.54952 115.065 -9.43798C115.7 -10.3264 116.277 -11.2149 116.739 -12.142C117.259 -13.0691 117.547 -13.9962 117.894 -14.9619C118.183 -15.9276 118.414 -16.9319 118.587 -17.9363C118.933 -19.945 119.106 -22.0309 118.991 -24.0396L117.086 -33.156L125.227 -25.5075C127.652 -23.2284 130.597 -21.0652 133.772 -19.211C137.006 -17.3569 140.47 -15.7345 144.223 -14.5756C147.976 -13.4167 151.96 -12.6828 156.002 -12.4124C160.044 -12.142 164.144 -12.3738 168.128 -13.0691C176.038 -14.4983 183.371 -17.55 189.087 -21.6833C191.974 -23.7306 194.457 -26.0483 196.536 -28.5205C198.557 -31.0314 200.173 -33.6968 201.501 -36.4394L206.178 -46.3284L207.91 -36.2463C209.123 -29.6021 212.645 -22.8421 219.227 -17.859C219.978 -17.2023 220.96 -16.6615 221.826 -16.0821C222.692 -15.5027 223.731 -15.0391 224.713 -14.537C225.752 -14.0734 226.791 -13.6485 227.831 -13.2236L229.332 -12.76C229.852 -12.6055 230.429 -12.5283 230.949 -12.451C235.452 -11.7557 240.591 -12.2965 245.441 -13.2622C255.257 -15.2323 264.496 -18.6316 273.388 -22.3013C282.222 -26.0483 290.767 -30.2202 298.793 -34.5852L307.165 -39.1821L303.99 -32.113C303.355 -30.6838 302.777 -29.1 302.373 -27.5548C301.969 -26.0097 301.622 -24.4259 301.449 -22.8808C301.045 -19.7905 301.334 -16.7002 302.431 -13.9189C302.546 -13.5712 302.777 -13.2622 302.95 -12.9146C303.124 -12.6055 303.239 -12.2579 303.528 -11.9488L304.221 -11.0218C304.394 -10.7127 304.74 -10.4037 305.029 -10.1333C306.184 -8.93581 307.57 -7.85421 309.186 -6.84986C312.304 -4.84117 316.231 -3.29602 320.388 -2.13716C328.76 0.141933 338.229 0.798618 347.468 0.180561C356.764 -0.437496 365.829 -2.3303 374.317 -5.1502L399.145 -13.3395L379.283 -0.4375C376.049 1.64845 373.047 3.96617 370.391 6.39977C369.063 7.63589 367.85 8.83338 366.58 10.1854C365.367 11.5374 364.155 12.8508 363 14.1641C360.806 16.8295 358.843 19.5335 357.515 22.3534C356.187 25.1347 355.436 27.9932 355.551 30.7358C355.667 31.4312 355.609 32.1265 355.84 32.7832L356.071 33.7875L356.129 34.0579L356.244 34.251L356.418 34.6373C356.937 35.6803 357.919 36.8392 359.189 37.9208C361.672 40.1226 365.079 42.1313 368.601 44.0241C372.181 45.8783 375.991 47.6166 379.975 49.239C383.902 50.8228 388.059 52.4065 392.101 53.7199L408.499 59.1665L390.195 59.4756C386.673 59.5528 382.92 59.7073 379.283 59.9391C375.645 60.1709 372.007 60.5186 368.427 60.9435C364.848 61.3684 361.325 61.9092 357.977 62.6045C354.628 63.2998 351.336 64.1496 348.507 65.2312C347.121 65.772 345.793 66.3901 344.754 67.0468C343.773 67.6262 342.675 68.5919 341.636 69.4804C339.615 71.2959 337.941 73.266 336.671 75.3906C334.072 79.5625 332.975 84.2752 333.322 88.8334L333.899 95.941L325.7 91.4215C320.157 88.3698 313.286 86.0907 306.357 85.2409C299.371 84.3524 292.153 85.0864 285.744 87.1337C282.568 88.1767 279.566 89.5673 276.91 91.1511C274.254 92.7735 271.829 94.589 269.923 96.6364C267.96 98.6837 266.343 100.886 265.131 103.165C263.976 105.482 263.168 107.877 262.706 110.311L259.414 128.08L253.352 110.659C251.389 105.096 247.231 99.8039 241.111 95.941C238.051 94.0482 234.586 92.4258 230.775 91.4215C229.852 91.1897 228.87 90.9193 227.888 90.7648C227.427 90.6876 226.849 90.533 226.503 90.4944L225.29 90.3785C223.673 90.2626 221.826 90.4172 219.978 90.7648C218.13 91.0738 216.167 91.6146 214.32 92.2327C212.414 92.8508 210.566 93.6233 208.719 94.4345C205.081 96.0569 201.501 97.9884 198.152 100.036C194.746 102.083 191.512 104.246 188.394 106.487C185.276 108.727 182.216 111.122 179.445 113.44L170.553 121.011L170.957 111.393C171.015 110.581 170.957 109.577 170.899 108.689C170.841 107.761 170.726 106.834 170.61 105.907C170.379 104.053 169.975 102.238 169.398 100.461C168.821 98.6837 168.07 96.984 167.031 95.4003C166.049 93.8165 164.663 92.1554 163.22 90.6489C161.776 89.1424 160.102 87.6745 158.427 86.477C158.023 86.168 157.561 85.9362 157.157 85.6658C156.753 85.4341 156.349 85.2795 155.944 85.0864C155.078 84.7774 154.155 84.4683 153.057 84.2752C150.921 83.8889 148.438 83.773 145.898 83.9275C143.357 84.082 140.701 84.3911 138.103 84.8932C132.849 85.859 127.652 87.3269 122.629 89.0651C117.605 90.8034 112.697 92.7735 108.02 94.9753C98.6087 99.3404 89.7745 104.362 81.5754 109.847L61.02 123.561L74.2425 106.216C79.3236 99.5722 83.885 92.7735 87.1762 85.8203C88.7929 82.3438 90.0632 78.8285 90.6406 75.352C91.1603 71.8754 90.9871 68.4374 89.3703 65.5016C88.5042 64.0338 87.4072 62.7976 85.8482 61.6774C84.2892 60.5185 82.3838 59.5142 80.2474 58.6644C75.9747 56.9261 70.9513 55.69 65.7547 54.7629C60.5581 53.8358 55.1305 53.2564 49.703 52.8701C44.2754 52.4838 38.6747 52.2906 33.3626 52.3293L0.335327 52.7542L31.9191 46.6509C35.5567 45.9555 39.2521 44.8739 42.601 43.5992C46.0076 42.2858 49.1833 40.7407 52.0126 38.9251C54.8418 37.1482 57.2669 35.0623 59.2301 32.8218C59.7497 32.281 60.1539 31.6629 60.6158 31.0835C61.02 30.5041 61.5397 29.886 61.7706 29.3838C62.348 28.2636 62.7522 27.0661 62.8677 25.7914C63.1564 23.2419 62.7522 20.5765 62.0016 17.9111C61.251 15.2457 60.0962 12.5804 58.8259 9.95361C56.1699 4.70011 52.8209 -0.476131 48.9524 -5.38197L46.4118 -8.47227L51.4352 -7.3134C56.2853 -6.19317 61.3087 -5.22746 66.2744 -4.30037C71.24 -3.37328 76.2634 -2.56208 81.2867 -1.90539C86.3101 -1.2487 91.3335 -0.746529 96.2414 -0.630642C98.6665 -0.592014 101.092 -0.630642 103.228 -0.901043C105.191 -1.21007 107.096 -1.75088 107.847 -2.29168ZM113.679 1.84159C112.12 2.69142 110.445 3.30948 108.829 3.65714C108.02 3.85028 107.212 3.96617 106.461 4.08205C105.653 4.19794 104.902 4.23657 104.152 4.31383C101.149 4.5456 98.32 4.42971 95.5485 4.2752C92.777 4.08205 90.121 3.81165 87.4649 3.42537C84.8089 3.07771 82.2106 2.65279 79.67 2.18925C74.5312 1.26216 69.5078 0.180561 64.4844 -0.978298C59.5188 -2.17579 54.6109 -3.45053 49.7607 -4.84117L52.3013 -6.81123C56.6895 -1.82813 60.4426 3.30948 63.5606 8.67887C65.1196 11.3829 66.5053 14.1255 67.4869 17.0227C68.5262 19.8812 69.2191 22.8556 69.0459 25.9845C68.9881 27.5297 68.6417 29.1521 67.8911 30.7358C67.5446 31.5857 67.0827 32.2424 66.6208 32.9377C66.1589 33.633 65.7547 34.3669 65.1773 35.0236C63.0986 37.7663 60.3849 40.2385 57.2092 42.4403C54.0335 44.6422 50.5113 46.5736 46.6428 48.196C42.7742 49.8184 38.7324 51.1704 34.2864 52.1748L32.9007 46.4963C38.9056 46.4191 44.5641 46.6122 50.4536 46.9985C56.2276 47.3848 62.0593 48.0029 67.8333 49.0072C73.5496 50.0116 79.3236 51.3249 84.7511 53.5268C87.4649 54.6084 90.0632 55.9217 92.3151 57.5828C94.6247 59.2052 96.4723 61.2525 97.6849 63.3385C100.052 67.549 100.168 71.8754 99.5903 75.8928C98.9552 79.9488 97.5694 83.8116 95.8372 87.5586C92.3728 95.0526 87.6381 102.122 82.4415 108.959L75.0508 105.366C83.5386 99.6494 92.7193 94.3573 102.651 89.6832C112.64 85.0864 123.379 80.9531 135.62 78.674C138.68 78.0946 141.856 77.7083 145.205 77.5152C148.496 77.322 152.018 77.4379 155.598 78.056C157.388 78.365 159.178 78.8672 160.852 79.5239C161.718 79.8715 162.527 80.2578 163.277 80.6441C163.97 81.0304 164.663 81.4553 165.241 81.8802C167.666 83.5412 169.513 85.2795 171.246 87.0564C172.978 88.872 174.479 90.6875 175.807 92.7349C177.135 94.7822 178.059 96.8681 178.752 98.9541C179.445 101.04 179.907 103.126 180.138 105.212C180.253 106.255 180.368 107.298 180.426 108.341C180.484 109.384 180.484 110.388 180.484 111.547L171.996 109.5C175.114 106.873 178.232 104.478 181.523 102.083C184.814 99.7267 188.221 97.409 191.916 95.2071C195.554 93.0053 199.365 90.9193 203.58 89.0651C205.659 88.138 207.853 87.2496 210.22 86.477C212.53 85.7044 215.012 85.0091 217.726 84.5456C220.44 84.082 223.327 83.773 226.387 84.0048C227.138 84.082 227.946 84.1593 228.697 84.2752C229.447 84.3524 230.025 84.507 230.718 84.6228C232.046 84.8546 233.258 85.1636 234.529 85.5113C239.552 86.8247 243.94 88.872 247.809 91.267C255.488 96.0956 260.454 102.508 262.763 109.191L253.41 109.538C253.929 106.641 254.853 103.744 256.297 100.963C257.798 98.1815 259.703 95.5547 262.128 93.0439C266.921 88.0994 273.676 83.9275 281.818 81.3008C285.859 80.026 290.248 79.1376 294.751 78.7127C299.255 78.2877 303.816 78.4036 308.262 78.9444C312.651 79.4852 316.923 80.4896 320.85 81.7643C324.834 83.0391 328.471 84.6228 331.936 86.5543L324.314 89.1038C323.91 83.5799 325.238 78.0946 328.414 72.957C330.03 70.4075 332.051 67.9352 334.534 65.7334C335.862 64.6518 337.017 63.5702 338.807 62.45C340.539 61.407 342.329 60.5958 344.177 59.8619C347.872 58.4326 351.741 57.4669 355.551 56.6943C359.362 55.9217 363.231 55.3423 367.099 54.8788C370.968 54.4152 374.779 54.0676 378.647 53.8358C382.516 53.5654 386.327 53.4109 390.311 53.3336L388.406 59.0507C383.902 57.5441 379.745 55.9604 375.53 54.2607C371.372 52.5224 367.273 50.7069 363.346 48.6209C359.42 46.535 355.609 44.2945 352.318 41.436C350.701 39.9681 349.2 38.3843 348.219 36.3756L347.872 35.6031L347.699 35.2168L347.583 34.8691L347.237 33.5171C347.006 32.6286 347.006 31.7016 346.89 30.8131C346.717 27.182 347.757 23.6668 349.316 20.422C350.932 17.1385 353.126 14.0869 355.551 11.1897C356.764 9.76047 358.034 8.33121 359.362 6.97921C360.633 5.6272 362.076 4.15931 363.52 2.84594C366.464 0.14193 369.813 -2.40757 373.393 -4.72528L378.359 -0.0512123C369.063 3.00045 358.958 5.12503 348.507 5.78172C338.114 6.47704 327.259 5.78172 317.328 2.96183C312.362 1.53256 307.627 -0.360245 303.643 -2.987C301.68 -4.30037 299.89 -5.76826 298.389 -7.35203C298.042 -7.77695 297.638 -8.16324 297.35 -8.58815L296.426 -9.94016C296.079 -10.3651 295.906 -10.8286 295.675 -11.2922C295.444 -11.7557 295.213 -12.2192 295.04 -12.6442C293.77 -16.3139 293.77 -19.945 294.405 -23.4216C294.694 -25.1599 295.156 -26.8595 295.733 -28.5592C296.31 -30.2588 296.945 -31.8812 297.869 -33.6195L303.124 -31.1473C294.463 -26.8209 285.628 -22.8808 276.332 -19.2883C271.713 -17.4727 266.978 -15.7731 262.071 -14.2666C257.22 -12.7214 252.197 -11.3308 246.885 -10.3651C244.229 -9.8629 241.515 -9.51524 238.744 -9.28347C235.914 -9.09032 233.027 -9.12895 230.083 -9.59249C229.332 -9.74701 228.639 -9.82427 227.888 -10.0174L225.752 -10.6355C224.54 -11.1376 223.327 -11.6012 222.114 -12.1034C221.017 -12.6828 219.805 -13.2236 218.766 -13.8416C217.784 -14.4983 216.629 -15.0778 215.763 -15.8117L214.32 -16.8547C213.858 -17.2023 213.453 -17.5886 213.049 -17.9749C212.183 -18.7089 211.433 -19.4814 210.624 -20.254C209.816 -21.0266 209.181 -21.8378 208.488 -22.649C207.853 -23.4602 207.218 -24.31 206.64 -25.1599C204.273 -28.5205 202.656 -32.0358 201.501 -35.7055L207.91 -35.551C206.929 -32.3834 205.428 -29.2931 203.349 -26.3187C201.155 -23.4216 198.441 -20.6403 195.208 -18.1294C191.974 -15.6572 188.163 -13.494 183.948 -11.7171C179.733 -9.94016 175.172 -8.51089 170.264 -7.73832C165.356 -6.92712 160.275 -6.65672 155.194 -7.00438C150.171 -7.3134 145.205 -8.35638 140.759 -9.8629C136.313 -11.3694 132.271 -13.3395 128.749 -15.5799C125.227 -17.859 122.109 -20.2926 119.568 -23.1898L125.804 -24.6577C126.382 -22.3013 126.555 -20.0222 126.439 -17.6659C126.382 -16.507 126.266 -15.3482 126.035 -14.1507C125.747 -12.9532 125.4 -11.7557 124.938 -10.5968C123.957 -8.24049 122.571 -6.00003 120.723 -3.95271C119.799 -2.90974 118.76 -1.90539 117.605 -0.978298C116.335 0.103302 115.122 0.99176 113.679 1.84159Z" fill="black"/>
</svg>
