<?xml version="1.0" encoding="UTF-8"?>
<!DOCTYPE svg PUBLIC "-//W3C//DTD SVG 1.1//EN" "http://www.w3.org/Graphics/SVG/1.1/DTD/svg11.dtd">
<svg xmlns="http://www.w3.org/2000/svg" xml:space="preserve" width="751" height="455" viewBox="1065 500 1498 1598" version="1.1" style="shape-rendering:geometricPrecision; text-rendering:geometricPrecision; image-rendering:optimizeQuality; fill-rule:evenodd; clip-rule:evenodd"

 xmlns:xlink="http://www.w3.org/1999/xlink">
 <defs>
  <style type="text/css">
   <![CDATA[
    .fil16 {fill:none}
    .fil6 {fill:#472B3C}
    .fil7 {fill:#634357}
    .fil5 {fill:#B8896A}
    .fil2 {fill:#C85E38}
    .fil8 {fill:#C86D47}
    .fil4 {fill:#CCA78C}
    .fil9 {fill:#D2B196}
    .fil14 {fill:#D80000}
    .fil0 {fill:#D9BBA2}
    .fil1 {fill:#DFC5AD}
    .fil3 {fill:#E5CFC1}
    .fil12 {fill:#E90000}
    .fil13 {fill:#E90000}
    .fil11 {fill:#EE5652}
    .fil15 {fill:#F9B233}
    .fil10 {fill:#FB5E5E}
   ]]>
  </style>
 </defs>
 <g id="layer1">
  <animateMotion id="motion" dur="3s" repeatCount="indefinite">
      <mpath xlink:href="#theMotionPath"/>
    </animateMotion>
  <path class="fil0" d="M2280.4 1187.33c118.87,17.43 245.54,-45.37 304.08,-150.83 5.4,-9.92 10.21,-22.24 4.5,-31.86 -4.5,-7.51 -14.41,-10.51 -23.41,-9.31 -8.71,1.2 -31.52,11.12 -39.02,15.92 51.33,-17.42 88.25,-70.61 86.75,-124.99 -0.3,-5.41 -1.2,-11.72 -6.01,-14.13 -6.3,-3.6 -13.81,2.41 -17.11,8.72 -3.3,6.31 -7.5,17.12 -13.51,21.33 12.91,-46.57 13.81,-96.15 3.01,-143.02 -2.1,-9.62 -6.31,-20.74 -15.91,-23.44 -8.11,-2.41 -17.11,2.7 -21.92,9.91 -4.5,7.22 -9.9,18.63 -11.1,27.05 -8.11,-86.54 -83.75,-155.65 -167.5,-178.49 -55.23,-15.02 -116.17,-12.92 -168.4,10.82 -52.23,23.74 -94.86,70.31 -108.96,125.9 -14.11,55.59 10.8,127.4 53.73,165.56 -17.41,-21.93 -17.71,-54.38 -5.1,-79.62 12.6,-24.94 36.32,-43.27 62.43,-54.09 65.44,-27.34 149.19,-7.21 190.01,50.78 38.73,54.39 34.52,132.51 -0.6,189.3 -35.12,56.79 -96.65,93.75 -161.49,110.28 19.51,34.25 30.02,44.77 55.53,74.21z"/>
  <path class="fil1" d="M2086.49 746.84c14.11,-55.59 56.73,-102.17 108.96,-125.9 52.23,-23.74 112.87,-25.84 168.4,-10.82 83.75,22.84 159.69,91.95 167.5,178.48 1.2,-8.41 6.6,-19.83 11.1,-27.04 4.51,-7.21 13.51,-12.62 21.92,-9.92 9.6,3.01 13.51,13.83 15.91,23.44 3.6,15.03 5.7,30.65 6.6,45.97 -0.3,-20.73 -2.7,-41.46 -7.2,-61.59 -2.1,-9.62 -6.31,-20.74 -15.91,-23.44 -8.11,-2.4 -17.11,2.7 -21.92,9.92 -4.5,7.21 -9.9,18.62 -11.1,27.04 -8.11,-86.54 -83.75,-155.65 -167.5,-178.48 -55.23,-15.03 -116.17,-12.92 -168.4,10.81 -52.23,23.74 -94.85,70.31 -108.96,125.9 -3.91,14.73 -4.81,30.95 -3.31,47.18 0,-10.82 1.21,-21.64 3.91,-31.55z"/>
  <path class="fil1" d="M2577.28 917.81c6,-4.21 10.2,-14.73 13.5,-21.34 3.31,-6.31 10.81,-12.32 17.11,-8.71 3.01,1.5 4.51,4.81 5.11,8.11 0.3,-3 0.3,-6.31 0,-9.31 -0.3,-5.41 -1.2,-11.72 -6.01,-14.12 -6.3,-3.61 -13.81,2.4 -17.11,8.71 -2.1,4.21 -4.8,9.92 -7.8,14.72 -1.2,7.51 -2.7,14.72 -4.8,21.94z"/>
  <path class="fil1" d="M2386.96 1018.77c20.72,-33.36 30.32,-74.22 27.32,-112.98 -0.3,33.95 -9.91,68.51 -27.92,97.65 -35.12,56.79 -96.65,93.75 -161.49,110.28 2.7,4.8 5.4,9.31 7.8,13.22 62.14,-17.43 120.37,-53.49 154.29,-108.17z"/>
  <path class="fil1" d="M2575.47 996.23c-7.8,7.81 -16.51,14.72 -26.11,20.43 6.6,-2.7 13.21,-4.8 16.81,-5.41 8.7,-1.2 18.61,1.51 23.41,9.32 0.3,0.6 0.6,1.2 0.9,2.1 1.5,-6.01 1.8,-12.02 -1.5,-17.43 -3,-5.1 -8.1,-7.81 -13.51,-9.01z"/>
  <path class="fil1" d="M2127.91 885.06c3.9,4.2 7.81,8.41 11.71,12.01 -7.51,-9.31 -11.41,-20.43 -13.21,-32.15 -0.3,6.61 0,13.53 1.5,20.14z"/>
  <path class="fil2" d="M2493.83 1057.83c-13.81,3.9 -27.32,7.81 -41.13,11.72 50.43,-23.14 83.45,-79.33 79.25,-134.62 -15.31,7.51 -30.62,14.73 -46.23,22.24 32.72,-34.56 45.03,-86.84 31.22,-132.21 -12.61,8.41 -21.61,21.63 -25.82,36.06 23.72,-85.64 -34.82,-191.11 -119.17,-217.85 -88.25,-27.94 -193.01,6.91 -232.63,92.85 -21.01,45.67 -33.62,118.39 0,161.05 -17.41,-21.93 -17.71,-54.38 -5.1,-79.62 12.6,-24.94 36.32,-43.27 62.43,-54.09 65.44,-27.34 149.19,-7.21 190.01,50.78 38.73,54.39 34.52,132.51 -0.6,189.3 -35.12,56.79 -96.65,93.75 -161.49,110.28 10.5,18.33 18.31,29.75 27.61,41.16 88.86,-3.3 176.21,-37.26 241.65,-97.05z"/>
  <path class="fil2" d="M1376.87 515.17c45.93,46.87 80.45,105.77 89.75,170.97 9.31,65.2 -3,133.11 -34.22,191.1 -26.11,-12.62 -46.82,-30.05 -72.64,-42.36 54.63,-97.36 51.33,-213.04 17.11,-319.71z"/>
  <path class="fil3" d="M1376.87 515.17c43.83,101.56 37.22,223.55 -17.41,319.71 -22.81,-27.35 -42.63,-46.88 -65.44,-74.52 1.8,-87.14 33.62,-173.08 82.85,-245.19z"/>
  <path class="fil2" d="M1491.54 773.58c-16.21,5.11 -33.02,4.21 -49.83,2.7 -2.7,-0.3 -3.9,3.91 -1.5,5.11 17.41,9.32 36.32,6.31 53.43,-2.4 3.3,-1.5 1.2,-6.61 -2.1,-5.41z"/>
  <path class="fil2" d="M1492.44 686.14c-3.6,25.24 -15.31,42.97 -34.82,58.89 -1.8,1.51 0,5.11 2.4,4.21 24.31,-8.71 40.52,-36.96 37.82,-62.5 0,-2.7 -4.8,-4.2 -5.4,-0.6z"/>
  <path class="fil2" d="M1483.43 638.37c-4.2,23.43 -15.61,39.36 -29.71,57.39 -1.81,2.4 1.8,5.71 3.9,3.9 18.31,-13.52 28.21,-38.16 31.82,-59.79 0.6,-3.61 -5.41,-5.41 -6.01,-1.5z"/>
  <path class="fil4" d="M2794 1694.83c-18.01,-23.73 -47.43,-35.15 -75.94,-43.56 -28.52,-8.42 -58.54,-15.33 -81.95,-33.36 -36.92,-28.54 -55.83,-83.53 -101.76,-91.94 -36.02,-6.61 -78.05,19.23 -107.76,-2.71 -23.72,-17.42 -21.32,-52.88 -19.21,-82.32 7.8,-111.48 -96.96,-206.13 -206.53,-259.92 -89.45,184.49 -151.28,274.34 -348.8,328.72l-19.51 27.35c-3.9,51.68 44.72,90.74 89.45,116.58 76.25,44.47 158.19,81.43 245.24,97.05 87.06,15.63 179.51,9.32 259.06,-28.84 23.41,-11.42 47.72,-25.84 73.54,-23.44 24.01,2.1 44.13,18.03 64.24,30.95 70.24,44.77 159.09,59.2 240.14,38.76 28.82,-7.21 7.5,-49.58 -10.21,-73.32z"/>
  <path class="fil4" d="M1344.45 1447.84c41.43,-61.89 -16.81,-148.43 -77.44,-176.07 -67.84,-30.65 -149.49,-19.23 -215.53,4.2 -60.94,21.64 -116.47,54.99 -175.9,80.53 -59.14,25.54 -124.58,43.57 -189.42,32.45 -17.71,-3 -35.42,-8.11 -53.43,-9.31 -18.01,-1.2 -36.92,2.4 -49.83,14.42 -19.51,18.63 -17.71,52.58 -2.7,76.62 15.01,23.74 50.13,53.49 77.45,57.39 104.46,14.42 209.22,52.89 316.08,51.08 112.27,-2.1 234.74,-30.65 327.5,-91.64 16.2,-10.82 31.81,-23.14 42.62,-39.07 0.6,-0.3 0.6,-0.3 0.6,-0.6z"/>
  <path class="fil0" d="M1038.87 1370.62c1.2,3.91 8.11,13.53 0,0l0 0z"/>
  <path class="fil0" d="M2818.02 1825.24c-18.01,-23.74 -47.43,-35.15 -75.95,-43.57 -28.51,-8.41 -58.53,-15.32 -81.95,-33.35 -36.92,-28.55 -55.83,-83.53 -101.76,-91.95 -36.02,-6.61 -78.04,19.24 -107.76,-2.7 -23.71,-17.43 -21.31,-52.88 -19.21,-82.33 6.9,-98.25 -19.51,-198.31 -73.24,-280.65 0,-0.3 -0.3,-1.5 -0.6,-3.3 -10.51,-62.2 -40.23,-120.19 -87.36,-161.95 -47.72,-42.37 -105.36,-71.82 -168.39,-78.13 -57.64,-5.71 -115.57,8.11 -170.8,25.54 -55.24,17.43 -109.87,38.46 -167.2,47.78 -33.32,5.41 -67.84,6.31 -100.86,0.3 -21.31,-10.82 -45.03,-16.53 -66.64,-23.44 -0.3,-0.3 -0.9,-0.3 -1.2,-0.6 -0.9,-0.6 -1.8,-1.2 -2.4,-1.5 -0.3,0.3 -0.6,0.6 -0.6,0.9 -30.62,-9.92 -56.44,-22.84 -63.34,-56.19 -15.01,-71.51 -42.63,-141.83 -84.35,-198.91 -58.23,-79.93 -148.59,-138.82 -247.05,-146.64 -103.86,-8.11 -204.12,39.07 -307.98,46.88 -103.86,7.51 -209.52,-25.54 -289.67,-90.75 -14.4,-11.71 -35.72,-12.31 -50.42,-0.6 -14.41,11.42 -21.32,29.75 -26.72,47.48 -25.22,80.83 -35.12,170.37 -3.9,249.09 31.22,78.73 111.36,141.83 195.41,132.21 88.25,34.26 189.11,39.06 279.16,10.52 3.31,38.46 13.21,165.26 26.72,231.66 -0.6,0 -1.2,0 -1.8,0 1.2,2.41 2.4,5.11 3.3,7.52 3,13.82 6.3,24.33 9.91,30.04 3.3,5.41 5.7,9.32 7.5,12.32 -0.6,-1.5 0,-2.1 3.3,0.6 51.63,101.87 125.78,211.84 211.33,275.84 193.91,144.83 437.95,192.9 660.09,115.98 10.5,7.82 21.31,14.73 32.11,21.04 76.25,44.47 158.2,81.43 245.25,97.05 87.05,15.62 179.5,9.31 259.05,-28.85 23.41,-11.42 47.73,-25.84 73.54,-23.43 24.02,2.1 44.13,18.02 64.24,30.95 70.24,44.77 159.1,59.19 240.14,38.76 29.12,-7.52 7.81,-49.88 -9.9,-73.62z"/>
  <path class="fil5" d="M668.45 1451.75c-5.7,-14.42 -28.81,-18.93 -42.32,-18.93 -19.81,0 -38.72,9.02 -53.43,21.03 1.2,3.91 2.7,7.52 4.5,10.82 0.9,0 1.5,-0.3 2.4,-0.9 14.71,-9.62 29.72,-18.03 48.03,-18.03 14.11,0 24.32,8.11 37.52,10.52 3,0.9 3.9,-2.41 3.3,-4.51z"/>
  <path class="fil5" d="M655.25 1412.39c2.1,0 3.6,-2.41 1.8,-4.21 -19.51,-21.93 -63.64,-12.32 -85.25,5.11 -1.5,4.81 -2.4,9.92 -2.7,15.02 0.6,0 1.2,-0.3 1.8,-0.6 12.61,-8.41 24.31,-15.92 39.92,-18.33 15.31,-2.7 29.12,3.31 44.43,3.01z"/>
  <path class="fil1" d="M2357.85 1290.69c0,-0.3 -0.3,-1.5 -0.6,-3.3 -10.51,-62.2 -40.23,-120.19 -87.36,-161.95 -47.72,-42.37 -105.36,-71.82 -168.39,-78.13 -57.64,-5.71 -115.57,8.11 -170.8,25.54 -55.24,17.43 -109.87,38.46 -167.2,47.78 -57.34,9.31 -118.87,5.71 -169,-23.74 -0.9,-0.6 -1.8,-1.2 -2.4,-1.5 -1.5,1.5 -2.7,3.3 -4.21,4.81 1.51,6.3 2.41,12.61 3.31,19.23 0.3,-0.3 0.6,-0.61 0.9,-1.21 0.9,0.6 1.8,1.21 2.4,1.51 50.13,29.44 111.66,33.05 169,23.74 57.33,-9.32 111.66,-30.35 167.2,-47.78 55.23,-17.43 113.16,-31.25 170.8,-25.54 63.03,6.31 120.67,35.75 168.39,78.12 47.13,41.77 77.15,99.76 87.36,161.96 0.3,1.8 0.6,2.7 0.6,3.3 0.9,7.21 1.5,14.43 2.1,21.04 0.6,-13.83 0.3,-28.25 -2.1,-43.88z"/>
  <path class="fil2" d="M1930.7 1072.85c-55.24,17.43 -109.87,38.46 -167.2,47.78 -37.52,6.01 -76.85,6.31 -113.77,-2.11 4.8,15.03 16.81,29.75 27.32,38.76 25.81,22.84 59.13,36.06 82.24,61.3 18.32,19.83 28.82,45.37 43.83,67.61 29.42,43.27 75.64,73.01 125.17,88.64 49.83,15.63 102.66,18.03 154.59,14.12 42.03,-3 85.56,-10.81 119.78,-35.46 34.52,-24.33 57.33,-69.4 45.02,-109.67 -10.8,-35.45 -45.32,-59.79 -56.73,-95.25 -8.41,-25.84 -3.6,-54.38 -10.21,-80.23 -25.21,-10.81 -51.93,-18.33 -79.54,-21.03 -57.34,-5.71 -114.97,8.41 -170.5,25.54z"/>
  <path class="fil2" d="M1064.39 486.93c42.62,19.83 78.64,52.88 102.06,93.44 23.41,40.57 33.92,88.64 29.71,135.22 -21.91,-7.51 -45.32,-9.02 -68.44,-12.32 2.4,-77.22 -18.01,-153.85 -63.33,-216.34z"/>
  <path class="fil3" d="M1050.58 713.48c-17.71,-73.91 -10.21,-152.64 11.71,-225.35 47.72,60.39 71.74,139.42 65.73,216.04 -26.11,6.61 -50.73,10.52 -77.44,9.31z"/>
  <path class="fil1" d="M1212.37 715.59c-103.86,-8.11 -204.12,39.06 -307.98,46.87 -103.56,7.81 -209.52,-25.54 -289.97,-91.34 -14.71,-12.02 -33.62,-12.02 -48.63,-0.6 -15,11.41 -22.21,30.04 -27.61,48.07 -24.92,80.83 -34.82,170.37 -3.9,249.1 5.4,13.22 12,26.14 19.81,38.46 -15.01,-18.03 -27.02,-38.16 -35.72,-59.8 -30.92,-78.42 -21.02,-167.96 3.9,-248.79 5.7,-18.03 12.61,-36.96 27.62,-48.08 15,-11.41 33.92,-11.41 48.62,0.6 80.45,65.81 186.41,99.16 289.97,91.35 104.16,-8.12 204.42,-55.29 307.98,-47.18 98.46,7.82 188.82,66.71 247.05,146.64 1.8,2.4 3,4.8 4.8,6.91 -58.23,-72.42 -143.48,-124.7 -235.94,-132.21z"/>
  <path class="fil3" d="M1240.89 1200.25c-42.32,22.84 -88.85,40.57 -136.88,39.36 -48.03,-1.2 -80.45,-9.91 -102.96,-52.58 -2.7,-5.1 -5.7,-74.22 -7.81,-97.95 -69.94,22.23 -146.48,24.34 -218.52,7.81 0,-6.01 13.21,-4.51 20.71,-4.21 57.93,3.01 116.17,-8.71 169,-32.75 29.72,-13.52 57.33,-30.95 82.25,-52.28 39.62,-33.95 71.74,-76.02 112.26,-109.07 40.23,-33.06 93.66,-57.09 144.09,-44.47 48.93,12.32 85.55,58.29 93.65,108.47 8.11,49.88 -9,101.86 -39.02,142.42 -30.32,41.17 -72.34,71.52 -116.77,95.25z"/>
  <path class="fil6" d="M1186.26 956.87c4.8,-7.82 16.81,-4.21 16.21,5.11 -3.3,72.41 -24.32,142.72 -68.44,201.01 -13.51,18.03 -29.12,35.16 -49.23,45.08 -20.11,9.91 -45.63,11.71 -64.54,-0.31 -16.81,-10.51 -26.42,-30.64 -29.12,-50.17 -2.7,-19.83 -0.9,-48.38 2.1,-68.21 -20.11,6.91 129.08,-31.55 193.02,-132.51z"/>
  <path class="fil6" d="M1175.45 955.37c8.11,-7.52 21.91,-5.71 30.62,0 9.01,5.7 16.21,18.63 9.31,28.54 -2.11,3.3 -6.61,2.4 -9.01,-0.3 -4.2,-4.81 -4.8,-11.12 -9.31,-15.62 -5.4,-5.11 -11.7,-4.81 -18.61,-4.81 -4.2,0 -6.3,-4.81 -3,-7.81z"/>
  <path class="fil4" d="M588.61 931.03c23.11,58.59 74.14,120.19 141.08,153.54 -95.76,10.22 -181.61,-63.4 -211.02,-137.92 -24.92,-63.1 -23.42,-132.81 -9.01,-199.81 1.5,-0.3 3,-0.6 4.5,-0.6 54.34,-1.21 59.44,146.93 74.45,184.79z"/>
  <path class="fil5" d="M714.08 1078.86c-3,0.3 3,0 0,0 -86.45,-47.77 -159.39,-157.15 -159.09,-255.1 0,-3.01 9.3,-6.31 10.5,-2.71 13.21,48.08 20.42,102.77 45.33,147.24 29.42,51.98 72.04,90.14 124.27,118.08 -7.2,-2.4 -14.1,-4.8 -21.01,-7.51z"/>
  <path class="fil6" d="M735.69 723.4c-16.51,40.86 -50.73,75.42 -90.65,94.65 -45.03,21.63 -95.75,27.04 -145.88,23.14 -0.6,-48.38 8.7,-97.66 23.11,-143.93 5.7,-18.03 12.61,-36.96 27.62,-48.08 15,-11.42 33.92,-11.42 48.62,0.6 40.53,33.06 87.35,58 137.18,73.62z"/>
  <path class="fil6" d="M689.77 873.34c14.11,2.1 10.8,24.03 -3.3,21.93 -13.81,-2.4 -10.51,-24.34 3.3,-21.93z"/>
  <path class="fil6" d="M715.58 910.59c14.11,2.11 10.81,24.04 -3.3,21.94 -14.11,-2.1 -10.81,-24.04 3.3,-21.94z"/>
  <path class="fil6" d="M651.04 907.29c13.81,2.1 10.51,23.44 -3.3,21.33 -13.51,-2.1 -10.5,-23.43 3.3,-21.33z"/>
  <path class="fil7" d="M616.82 663.9c15.01,10.82 30.62,20.74 46.83,29.15 0.3,0 0.3,0.3 0.6,0.3 22.82,12.32 46.83,22.24 71.74,30.05 -1.8,4.81 -4.2,9.31 -6.3,13.82 -5.1,9.62 -111.96,-62.8 -124.87,-69.11 -27.02,-13.22 -56.44,-12.32 -69.94,17.73 -22.22,48.68 -35.12,101.86 -37.22,155.35 -1.51,-37.56 5.7,-76.33 14.4,-112.68 5.71,-23.44 10.81,-68.81 34.82,-81.43 16.81,-8.71 36.93,-9.01 51.63,3 6.01,4.81 12.01,9.32 18.31,13.82z"/>
  <path class="fil2" d="M1208.47 636.26c-6.9,6.91 -13.81,13.52 -22.81,18.33 -8.71,4.81 -18.31,6.01 -27.32,9.92 -3,1.2 -3.9,6.01 0,6.91 21.01,5.11 46.23,-12.92 54.93,-31.25 1.5,-3.31 -2.1,-6.61 -4.8,-3.91z"/>
  <path class="fil2" d="M1202.77 591.19c-3,9.62 -6.01,18.93 -11.11,27.64 -4.8,8.12 -12.01,14.13 -16.81,22.24 -2.1,3.6 2.1,6.61 5.4,5.41 18.32,-7.81 30.32,-35.16 30.02,-54.09 -0.3,-4.5 -6.3,-5.11 -7.5,-1.2z"/>
  <path class="fil2" d="M1171.25 551.83c0.3,9.01 -0.9,17.73 -3.6,26.44 -2.4,7.81 -6.91,15.02 -9.31,22.54 -1.2,4.2 3.9,6.61 6.91,3.9 14.1,-12.92 15.6,-36.35 12.9,-54.08 -0.6,-3.91 -7.2,-2.71 -6.9,1.2z"/>
  <path class="fil8" d="M1739.18 1123.63c-5.1,0.6 -10.2,0.9 -15.01,0.9 -3.3,0.3 -6.6,0.3 -9.9,0.3 -3.3,0 -6.61,0 -10.21,0 -3.6,0 -7.2,-0.3 -10.5,-0.3 -1.8,0 -3.61,-0.3 -5.41,-0.3 -7.2,-0.6 -14.41,-1.5 -21.61,-2.4 -1.2,-0.3 -2.4,-0.3 -3.6,-0.6 -4.2,-0.6 -8.41,-1.5 -12.61,-2.71 3,8.72 8.11,17.13 14.11,24.64 27.02,2.71 54.63,1.21 81.65,-3 57.33,-9.32 111.66,-30.35 167.2,-47.78 55.23,-17.42 113.16,-31.25 170.8,-25.54 36.02,3.61 69.94,14.73 101.46,31.55 -0.6,-10.21 -1.51,-20.43 -3.91,-30.05 -12.3,-5.4 -24.91,-9.61 -37.82,-13.22 -0.3,0 -0.9,-0.3 -1.2,-0.3 -5.7,-1.5 -11.71,-2.7 -17.41,-3.9 -0.9,-0.3 -1.8,-0.3 -2.7,-0.6 -6.61,-1.21 -13.51,-2.11 -20.41,-3.01 -57.64,-5.71 -115.57,8.11 -170.8,25.54 -55.24,17.43 -109.87,38.46 -167.2,47.78 -6.31,0.9 -12.31,1.8 -18.61,2.4 -2.4,0.3 -4.51,0.3 -6.31,0.6z"/>
  <path class="fil3" d="M1124.72 1007.35c-56.13,27.94 -138.98,45.37 -195.41,72.71 -17.71,8.42 -17.41,15.03 -33.92,24.34 81.04,7.51 175.6,-33.95 229.33,-97.05z"/>
  <path class="fil5" d="M1299.12 1693.93c-4.2,0.6 -6.6,2.71 -7.5,6.91 -0.3,0.6 0.9,0.91 1.2,0.3 0.6,-3.6 2.7,-6.01 6.3,-7.21 0.3,0 0.3,0.3 0,0z"/>
  <path class="fil5" d="M2688.64 1775.06c-6.3,-9.31 -14.11,-12.32 -24.01,-17.73 -15.91,-8.41 -30.02,-19.22 -42.63,-32.15 -17.71,-18.33 -30.32,-38.76 -58.23,-38.76 -4.2,0 -8.41,3.91 -8.11,8.11 0.3,6.91 2.4,13.23 6.01,19.23 0,1.21 0.3,2.41 0.9,3.31 21.91,35.46 75.94,84.43 121.27,70.01 4.5,-1.5 7.8,-7.51 4.8,-12.02z"/>
  <path class="fil5" d="M2805.41 1888.34c2.7,-10.51 -9.61,-22.83 -18.31,-26.74 -6.91,-3.01 -15.31,0.3 -16.81,8.11 -1.2,6.91 3.3,14.12 6.9,19.83 3.6,5.41 8.41,11.42 15.31,12.02 0.3,0.3 0.9,0.6 1.2,0.6 4.81,2.11 11.41,-0.3 11.11,-6.31 0,-0.6 -0.3,-1.2 -0.3,-1.8 0.9,-1.5 1.2,-3.61 0.9,-5.71z"/>
  <path class="fil5" d="M2830.92 1872.12c-2.4,-13.83 -10.2,-25.25 -21.31,-33.66 -4.8,-3.6 -11.1,0.6 -12.61,5.11 -3.9,11.72 0.9,23.74 10.51,30.95 1.2,0.9 2.7,1.5 3.9,1.5 2.4,2.11 5.11,3.91 7.51,5.11 6.6,3.91 13.21,-2.4 12,-9.01z"/>
  <path class="fil5" d="M2525.04 1805.11c-12,-18.63 -15.3,-39.66 -23.71,-59.49 -0.9,-2.11 -4.5,-1.51 -4.8,0.6 -7.51,27.34 6,59.19 27.01,82.93 0.3,0 0.6,0 0.9,0 14.41,1.2 27.32,7.51 39.93,15.02 -15.31,-11.42 -29.12,-23.44 -39.33,-39.06z"/>
  <path class="fil9" d="M1921.99 1760.04c-39.92,-56.19 -107.46,-118.99 -102.36,-174.88 -92.45,61.3 -216.43,71.81 -317.89,27.04 -11.4,-5.1 -23.11,-11.41 -30.01,-21.93 -6.61,-10.52 -6.31,-26.74 4.2,-33.65 -39.93,35.75 -99.96,47.77 -150.69,30.34 -50.73,-17.42 -90.35,-64 -99.66,-116.88 -5.4,-30.95 2.4,-68.21 30.32,-81.73 -45.93,14.42 -102.96,32.15 -148.59,18.03 -23.11,-7.21 -48.93,-28.85 -79.55,-63.1 51.64,109.07 131.78,234.67 225.44,304.38 202.02,149.64 440.06,202.52 668.79,112.38z"/>
  <path class="fil5" d="M1945.4 1772.06c-28.21,-36.36 -61.23,-67.91 -87.05,-106.67 -25.51,-38.76 -40.22,-79.93 -54.33,-123.8 -0.9,-2.4 -5.1,-2.1 -4.8,0.6 6.3,88.04 72.64,183.29 141.08,235.88 4.2,3.3 7.81,-2.71 5.1,-6.01z"/>
  <path class="fil9" d="M1312.93 1400.07c-10.2,-0.9 -23.41,-1.2 -33.32,2.1 -4.2,1.5 -5.4,8.42 0,9.32 10.81,1.8 24.02,-0.6 34.52,-3.31 4.51,-0.9 3.61,-7.81 -1.2,-8.11z"/>
  <path class="fil9" d="M1331.54 1441.24c-6,-0.3 -11.7,-0.91 -17.71,-1.21 -5.4,-0.3 -10.5,-0.9 -15.61,1.21 -4.5,1.8 -2.7,7.81 0.9,9.01 5.11,1.8 11.11,0.6 16.51,0.3 5.41,-0.3 10.81,-1.2 16.51,-1.81 4.81,-0.6 3.61,-7.2 -0.6,-7.5z"/>
  <path class="fil0" d="M1483.73 1556.02c23.42,-70.61 -55.53,-138.82 -121.57,-149.34 -73.54,-11.72 -149.19,21.33 -206.52,61.6 -52.83,37.26 -97.86,83.83 -148.29,124.39 -50.43,40.27 -108.66,75.12 -174.1,81.73 -18.01,1.81 -36.32,1.51 -53.73,5.11 -17.71,3.61 -35.12,12.02 -44.13,27.34 -13.8,23.14 -3.3,55.59 17.71,74.52 21.02,18.93 62.44,38.46 90.06,34.86 104.46,-13.83 215.82,-4.81 318.18,-34.86 107.77,-31.85 218.23,-91.94 291.47,-175.48 12.91,-14.72 24.62,-30.64 30.62,-48.97 0.3,-0.6 0.3,-0.9 0.3,-0.9z"/>
  <path class="fil1" d="M735.69 1706.55c9.01,-15.02 26.42,-23.43 44.13,-27.34 17.71,-3.6 36.02,-3.3 53.73,-5.11 65.44,-6.61 123.67,-41.46 174.1,-81.73 50.43,-40.26 95.16,-87.14 148.29,-124.39 57.33,-40.27 133.28,-73.02 206.52,-61.6 14.41,2.4 29.72,7.51 44.13,14.72 -16.21,-9.61 -33.62,-16.52 -50.13,-19.83 -72.94,-13.82 -149.79,16.83 -208.32,55.29 -54.04,35.46 -100.26,80.83 -151.89,119.89 -51.63,38.76 -110.77,71.81 -176.51,76.62 -18.01,1.2 -36.32,0.3 -54.03,3.6 -17.71,3.31 -35.42,11.12 -44.72,25.85 -14.41,22.53 -5.11,54.68 14.7,74.21 -7.8,-16.22 -9,-35.15 0,-50.18z"/>
  <path class="fil5" d="M817.34 1718.57c-9,-12.62 -32.42,-11.72 -45.32,-8.41 -19.22,4.81 -35.43,17.73 -46.83,33.05 2.1,3.31 4.5,6.61 7.2,9.62 0.9,-0.3 1.5,-0.6 2.1,-1.21 12.01,-12.61 24.62,-24.63 42.33,-28.84 13.81,-3.31 25.51,2.1 38.72,1.5 2.7,-0.3 3,-3.9 1.8,-5.71z"/>
  <path class="fil5" d="M795.13 1683.42c2.1,-0.6 2.7,-3.31 0.9,-4.51 -24.01,-16.83 -64.84,3.31 -81.65,24.94 -0.3,5.11 0,10.22 0.9,15.32 0.6,-0.3 0.9,-0.6 1.5,-1.2 10.21,-11.42 19.81,-21.33 34.52,-27.34 14.11,-6.01 29.12,-3.31 43.83,-7.21z"/>
  <path class="fil9" d="M1227.98 1461.07c-4.2,2.7 -8.4,4.8 -12.9,7.21 -4.21,2.1 -8.41,3.6 -11.11,7.21 -2.7,3.3 0.6,7.81 4.5,8.41 9.01,1.2 19.81,-7.51 26.42,-12.62 5.4,-4.2 -1.2,-13.82 -6.91,-10.21z"/>
  <path class="fil9" d="M1230.68 1505.23c-13.8,0.91 -30.31,8.72 -38.72,19.24 -1.5,2.1 0.9,5.41 3.3,4.8 6.91,-1.8 12.31,-4.5 18.61,-7.51 6.31,-3.3 13.51,-5.41 19.52,-9.01 3.6,-2.41 1.8,-7.82 -2.71,-7.52z"/>
  <path class="fil9" d="M1191.96 1450.55c-11.71,2.4 -25.51,6.01 -33.92,14.42 -3.3,3.01 0.3,8.12 4.5,6.61 5.41,-2.1 10.21,-5.41 15.61,-8.11 5.41,-2.71 10.51,-5.11 15.91,-7.21 3,-1.51 1.2,-6.31 -2.1,-5.71z"/>
  <path class="fil9" d="M1148.44 1504.63c-3.61,2.11 -7.51,4.21 -11.41,5.71 -3.9,1.51 -8.11,1.51 -11.41,4.51 -2.4,2.1 -2.4,6.61 0.6,8.41 9.91,5.71 23.42,-3 29.12,-10.51 3.6,-4.51 -2.1,-10.82 -6.9,-8.12z"/>
  <path class="fil9" d="M1147.84 1548.5c-6.91,0.9 -14.11,3.61 -20.72,6.01 -6.6,2.11 -14.41,3.61 -19.21,8.72 -2.7,2.7 -1.2,7.51 3,8.11 6.91,0.6 13.21,-2.7 19.52,-5.11 6.9,-2.7 14.4,-5.11 20.71,-9.01 3.6,-3.01 1.8,-9.32 -3.3,-8.72z"/>
  <path class="fil9" d="M1081.2 1532.28c2.1,-3.61 -3.01,-9.02 -6.31,-5.41 -3.3,3.61 -6.9,6.91 -10.8,9.92 -3.91,3 -8.41,5.1 -11.71,8.71 -2.7,3 -0.6,7.51 3.6,7.21 11.11,-0.9 20.41,-12.02 25.22,-20.43z"/>
  <path class="fil9" d="M1063.79 1565.33c-3.61,2.4 -6.91,5.11 -10.51,7.21 -3.6,2.11 -7.8,3.91 -10.51,6.91 -2.4,2.41 -0.6,6.91 3.31,6.31 8.7,-1.2 17.41,-9.91 21.91,-17.12 1.5,-2.41 -1.8,-4.81 -4.2,-3.31z"/>
  <path class="fil9" d="M1089 1604.09c0,-1.5 -1.2,-3.3 -2.7,-3.91 -6.3,-1.8 -12.01,3.91 -17.71,6.01 -6.6,2.71 -13.81,4.21 -20.11,7.22 -2.4,1.2 -2.7,5.71 0.6,6.61 7.8,1.8 15.91,0 23.11,-2.71 5.7,-2.7 16.21,-6.01 16.81,-13.22z"/>
  <path class="fil9" d="M986.04 1618.82c-5.4,2.4 -11.11,4.5 -16.51,6.91 -5.1,2.1 -11.11,3.6 -15.01,7.51 -2.4,2.4 -1.5,8.11 3,7.81 5.71,-0.3 10.51,-3.01 15.91,-5.41 5.71,-2.7 11.71,-5.11 17.41,-7.81 5.71,-2.4 0.9,-11.42 -4.8,-9.01z"/>
  <path class="fil5" d="M1483.13 1531.08c-26.71,24.63 -44.12,60.39 -68.74,87.43 -26.41,29.15 -59.43,46.88 -89.75,71.22 -3.6,2.7 0.9,8.11 4.8,6.01 36.62,-19.53 69.34,-41.77 97.56,-72.12 23.11,-24.94 51.33,-56.19 63.94,-88.04 1.8,-4.8 -4.51,-7.51 -7.81,-4.5z"/>
  <path class="fil5" d="M1285.62 1383.84c-61.54,8.12 -137.78,47.48 -177.41,96.16 -2.1,2.7 0.6,6.91 3.9,5.11 28.82,-16.53 54.34,-38.17 84.05,-54.09 29.42,-15.63 60.94,-26.44 90.96,-40.86 3,-1.51 1.8,-6.62 -1.5,-6.32z"/>
  <path class="fil9" d="M1857.15 1580.66c-3,-3.61 -8.7,0.3 -7.5,4.5 2.4,9.01 7.2,21.03 14.41,27.34 2.4,2.41 8.1,0.91 7.5,-3 -1.5,-10.22 -8.1,-21.34 -14.41,-28.84z"/>
  <path class="fil9" d="M1939.4 1608.9c-5.1,-6.01 -11.11,-12.02 -18.61,-15.03 -3.6,-1.5 -6.3,3.31 -4.8,6.01 3.6,6.31 9,11.42 13.5,17.13 4.21,5.41 8.41,12.02 14.11,15.93 2.4,1.5 6.61,-0.6 6.31,-3.61 -0.6,-7.81 -5.41,-14.42 -10.51,-20.43z"/>
  <path class="fil9" d="M1926.19 1671.1c-5.4,-9.02 -14.11,-16.23 -22.21,-22.84 -3,-2.7 -9.01,0.9 -6.3,4.81 6.3,8.71 13.2,18.33 22.21,24.34 4.2,2.1 8.7,-2.71 6.3,-6.31z"/>
  <path class="fil9" d="M1994.03 1688.23c-2.1,-5.71 -6.3,-9.32 -10.2,-13.53 -4.21,-4.5 -8.11,-9.01 -13.21,-12.32 -4.8,-3 -9.61,2.71 -7.21,7.22 2.41,5.1 6.61,9.31 10.21,13.52 3.6,4.2 7.21,9.31 12.31,11.71 3.9,1.81 9.9,-1.5 8.1,-6.6z"/>
  <path class="fil9" d="M1967.62 1744.72c-3.3,-5.71 -8.71,-9.92 -13.21,-14.43 -4.8,-4.81 -9.61,-9.91 -14.11,-15.02 -3.9,-4.51 -11.41,1.2 -8.4,6.61 6.9,11.42 16.51,26.14 30.01,30.65 4.21,1.5 7.81,-3.91 5.71,-7.81z"/>
  <path class="fil9" d="M2043.26 1746.52c-2.7,-6.01 -8.4,-9.32 -13.51,-12.92 -5.7,-4.21 -11.7,-7.82 -18.01,-11.72 -4.8,-3.01 -10.2,3.9 -6,7.81 5.1,4.81 10.51,9.32 16.21,13.82 4.8,3.91 9.9,8.41 16.21,9.62 3.9,0.9 6.9,-2.71 5.1,-6.61z"/>
  <path class="fil9" d="M2049.87 1792.79c-5.11,-4.81 -12.61,-6.91 -18.62,-10.21 -6.3,-3.31 -12.3,-7.52 -18.91,-10.22 -5.1,-2.11 -7.5,5.11 -4.8,8.41 4.5,5.71 11.71,10.22 18.01,13.52 6,3.31 13.81,7.21 20.71,6.31 3.91,0 6.91,-4.81 3.61,-7.81z"/>
  <path class="fil9" d="M2124.01 1785.28c-6.9,-9.92 -21.91,-15.33 -32.72,-19.23 -7.2,-2.71 -10.21,7.51 -4.8,11.42 8.7,6.31 21.91,15.62 33.02,15.92 3.6,0 6.9,-4.8 4.5,-8.11z"/>
  <path class="fil9" d="M2145.62 1837.56c-4.2,-3.6 -9.9,-5.41 -15.31,-7.21 -6,-2.1 -12.3,-4.51 -18.61,-6.01 -5.1,-1.2 -8.7,6.31 -3.6,8.71 5.4,2.71 11.11,4.81 16.81,7.21 5.4,2.11 11.41,5.11 17.41,5.41 3.6,0 6.3,-5.41 3.3,-8.11z"/>
  <path class="fil9" d="M2239.88 1810.22c-8.41,-3.01 -17.41,-3.01 -26.12,-5.41 -8.7,-2.1 -16.81,-5.41 -25.51,-7.51 -3,-0.6 -5.71,3 -3,5.41 12.9,11.71 37.22,20.13 54.63,16.82 5.1,-0.6 4.2,-7.81 0,-9.31z"/>
  <path class="fil9" d="M2096.99 1723.38c-5.4,-5.11 -11.7,-9.01 -17.41,-13.82 -5.4,-4.51 -9.9,-10.22 -15.31,-14.43 -2.4,-1.8 -6.6,1.21 -5.4,4.21 5.4,13.22 21.01,26.44 34.22,30.65 3.6,1.5 6.6,-3.9 3.9,-6.61z"/>
  <path class="fil9" d="M2255.49 1853.79c-8.41,-2.71 -16.21,-3.61 -25.22,-4.51 -8.4,-0.6 -16.81,-2.11 -25.21,-0.3 -3,0.6 -4.21,5.71 -0.9,7.21 14.1,6.01 35.12,7.21 50.13,5.41 4.5,-0.3 6,-6.31 1.2,-7.81z"/>
  <path class="fil9" d="M2341.64 1824.64c-7.81,0.9 -15.01,2.71 -22.82,2.71 -2.4,0 -3,3.6 -0.6,3.9 8.41,1.8 17.11,2.11 24.92,-1.8 1.8,-1.2 0.9,-5.11 -1.5,-4.81z"/>
  <path class="fil9" d="M1509.85 1086.07c-3,-4.8 -5.1,-9.91 -8.41,-14.42 -3.6,-5.41 -13.5,-3.91 -13.2,3.61 0.6,10.21 9,29.14 20.11,30.94 3.6,0.6 8.7,-1.8 8.1,-6.3 -0.6,-5.41 -3.6,-9.02 -6.6,-13.83z"/>
  <path class="fil9" d="M1589.39 1135.05c-3.9,-4.21 -10.2,-6.01 -15.3,-8.41 -5.71,-2.71 -11.11,-6.31 -16.21,-10.22 -6.01,-5.11 -14.11,2.71 -8.71,8.72 8.41,9.31 24.32,22.53 37.82,18.63 3.91,-0.91 5.11,-5.71 2.4,-8.72z"/>
  <path class="fil9" d="M1539.57 1175.31c-6.31,-10.81 -20.12,-20.13 -30.92,-25.54 -6.01,-3 -11.71,4.21 -7.21,9.32 8.11,9.31 20.72,20.13 32.72,23.44 4.21,1.2 7.81,-3.61 5.41,-7.22z"/>
  <path class="fil9" d="M1670.14 1186.13c-9.3,-6.01 -23.41,-5.41 -34.22,-6.31 -5.4,-0.3 -6.3,7.81 -1.2,9.32 10.51,3 23.42,8.11 34.52,5.7 4.2,-0.6 4.2,-6.6 0.9,-8.71z"/>
  <path class="fil9" d="M1602.6 1197.85c-2.7,-3.61 -7.2,-6.31 -10.8,-8.71 -4.21,-3.01 -7.81,-6.61 -11.71,-10.22 -4.2,-4.21 -11.41,1.2 -8.41,6.31 5.41,9.31 15.61,20.13 27.32,20.73 4.5,0.3 5.7,-5.11 3.6,-8.11z"/>
  <path class="fil9" d="M1698.66 1230.3c-13.81,-3 -27.62,-2.7 -41.13,-7.21 -4.5,-1.5 -6,5.11 -1.8,6.91 13.21,5.11 28.82,9.61 42.93,6.31 2.7,-0.9 3,-5.41 0,-6.01z"/>
  <path class="fil9" d="M1638.32 1130.54c-3.3,-2.1 -7.2,-2.4 -10.8,-3.9 -4.51,-1.5 -7.81,-3.61 -11.11,-6.91 -3.6,-3.61 -10.21,1.2 -7.5,5.71 5.7,9.01 18.31,19.23 29.41,13.52 3.31,-1.81 3.01,-6.61 0,-8.42z"/>
  <path class="fil9" d="M1493.94 993.52c-2.4,-5.4 -4.8,-11.11 -9.01,-15.32 -2.7,-2.7 -6.9,-0.6 -6.9,3.01 -0.3,6 2.1,12.31 4.2,17.72 2.1,5.71 3.6,11.72 7.81,15.93 3.6,3.61 9.6,0.9 9.9,-4.21 -0.3,-6.01 -3.6,-11.72 -6,-17.13z"/>
  <path class="fil12" d="M1233.09 895.57c7.2,-46.57 -21.32,-92.25 -59.74,-116.28 -12.31,-7.81 -105.06,-44.47 -106.86,-17.73 1.5,-21.94 1.5,-38.76 -19.81,-42.97 -53.14,-9.91 -109.87,2.71 -153.69,34.26 -16.81,12.32 -9.31,36.95 -0.6,55.88 8.7,18.93 26.71,33.36 47.12,37.56 -1.2,48.08 27.62,94.35 69.04,118.39 41.43,24.04 91.56,29.15 139.29,23.74 44.42,-5.11 78.34,-48.98 85.25,-92.85z"/>
  <path class="fil6" d="M1038.27 840.59c5.4,-6.01 12.01,-10.82 19.51,-14.13 6.31,-3 13.51,-4.81 20.41,-3.3 6.91,1.2 13.51,6.01 15.31,12.62 1.5,5.41 0,11.41 -2.4,16.82 -7.5,17.13 -28.51,41.77 -49.23,41.47 -8.4,0 -15.91,-4.81 -18.31,-12.92 -1.5,-5.41 -0.6,-11.42 0.9,-16.83 3,-9.01 7.51,-17.13 13.81,-23.73z"/>
  <path class="fil6" d="M961.13 773.88c5.1,-5.41 11.1,-9.92 17.71,-12.92 5.7,-2.71 12.3,-4.21 18.61,-3.01 6.3,1.21 12.3,5.41 13.81,11.42 1.5,5.11 0,10.52 -2.11,15.33 -6.6,15.62 -25.81,37.86 -44.72,37.56 -7.51,0 -14.41,-4.21 -16.51,-11.72 -1.2,-5.11 -0.6,-10.22 0.9,-15.33 2.7,-8.11 6.9,-15.32 12.31,-21.33z"/>
  <path class="fil6" d="M1105.21 784.4c6.3,3.6 11.41,9.01 13.51,15.92 5.7,10.82 8.1,24.34 -2.4,29.15 -9.31,4.51 -16.51,-4.81 -20.11,-12.32 -3.91,-8.12 -4.81,-16.83 -3.91,-25.84 0.6,-5.41 7.51,-9.92 12.91,-6.91z"/>
  <path class="fil6" d="M1047.88 737.82c-5.11,-5.41 -11.41,-8.71 -18.61,-9.01 -11.71,-2.71 -25.52,-1.8 -27.62,9.61 -2.1,10.22 8.7,14.73 16.81,16.53 8.7,1.8 17.71,0.6 25.81,-2.7 5.11,-2.11 7.81,-9.92 3.61,-14.43z"/>
  <path class="fil12" d="M1081.5 1370.02c-19.51,0 -38.73,-1.2 -58.24,-3.3 -3.9,-0.3 -6.6,-3.91 -6,-7.52 0.3,-3.9 3.9,-6.31 7.5,-6.01 104.46,11.72 213.13,-9.61 305.28,-60.39 92.16,-50.78 168.7,-130.71 214.93,-225.36 1.8,-3.3 5.7,-4.8 9.3,-3.3 3.31,1.8 4.81,5.71 3.31,9.31 -47.43,97.06 -125.78,179.39 -220.63,231.37 -78.05,42.66 -166.9,65.2 -255.45,65.2z"/>
  <path class="fil13" d="M2509.44 1368.82c-14.8,-25.23 61.15,-53.32 52.53,-134.31 -12.75,-111.82 -171.11,-106.7 -176.81,-190.8 -2.1,-29.75 70.24,-110.88 29.72,-128.31 -118.87,-51.08 -74.14,-64.3 -36.92,-112.98 -182.02,21.06 -250.44,55.55 -401.94,155.95 -122.81,81.39 -282.89,175.93 -432.55,104.87 -50.13,122.89 -149.79,219.64 -273.16,268.02 312.64,149.76 621.09,-29.21 930.24,33.65 97.66,19.85 331.29,114.53 423.25,54.69 -15.1,-8.68 -112.54,-47.69 -114.36,-50.78z">
    <animate 
        attributeName="d"
        dur="2.3s"
        repeatCount="indefinite"
        values="
    M2509.44 1368.82c-14.8,-25.23 61.15,-53.32 52.53,-134.31 -12.75,-111.82 -171.11,-106.7 -176.81,-190.8 -2.1,-29.75 70.24,-110.88 29.72,-128.31 -118.87,-51.08 -74.14,-64.3 -36.92,-112.98 -182.02,21.06 -250.44,55.55 -401.94,155.95 -122.81,81.39 -282.89,175.93 -432.55,104.87 -50.13,122.89 -149.79,219.64 -273.16,268.02 312.64,149.76 621.09,-29.21 930.24,33.65 97.66,19.85 331.29,114.53 423.25,54.69 -15.1,-8.68 -112.54,-47.69 -114.36,-50.78z;
    M2414.82 1256.88c19.42,-14.54 94.29,10.07 82.89,-71.8 -44.62,-78.34 -117.37,-49.76 -93.78,-164.31 -2.11,-29.74 24.08,-55.51 -16.45,-72.93 -55.57,-44 -5.94,-24.75 -7.93,-77.81 -161.7,-10.75 -279.55,-92.42 -431.05,7.98 -122.82,81.39 -255.37,256.29 -405.03,185.23 -50.13,122.89 -149.79,219.64 -273.16,268.02 312.64,149.76 554.97,-117.08 864.12,-54.21 97.66,19.85 223.46,117.36 315.42,57.52 -3.64,-3.65 -62.43,-57.35 -35.03,-77.69z;
    M2389.95 1167.95c7.36,-18.35 54.77,-30.02 49.27,-111.88 -44.62,-78.34 -147.05,-43.66 -123.47,-158.21 -2.1,-29.75 24.08,-55.51 -16.44,-72.94 -55.57,-44 -5.95,-24.74 -7.93,-77.8 -161.7,-10.76 -307.56,-105.86 -459.06,-5.46 -122.82,81.39 -139.19,392.64 -288.85,321.58 -50.13,122.89 -149.79,219.64 -273.16,268.02 312.64,149.76 554.97,-117.08 864.12,-54.21 97.66,19.85 223.46,32.5 315.42,-27.34 -3.64,-3.64 -72.61,-50.09 -59.9,-81.76z;
    M2509.44 1368.82c-14.8,-25.23 61.15,-53.32 52.53,-134.31 -12.75,-111.82 -155.82,-53.48 -161.52,-137.59 -2.1,-29.74 70.24,-110.87 29.72,-128.3 -108.53,-50.92 -22.55,-64.43 -36.92,-112.98 -171.05,55.2 -238.9,91.44 -401.94,155.95 -144.84,51.53 -311.73,104.35 -447.84,51.65 -50.13,122.89 -149.79,219.64 -273.16,268.02 326.63,112.13 709.16,134.74 811.62,140.59 104.31,5.97 373.36,-26.01 465.32,-85.85 -15.1,-8.68 -35.99,-14.09 -37.81,-17.18z;
    M2494.9 1293.82c-14.8,-25.24 62.36,-22.07 53.73,-103.06 -3.28,-101.57 -29.71,-42.67 -42.12,-80.68 -2.11,-29.75 70.24,-110.88 29.71,-128.3 -118.87,-51.08 -17.88,-68.36 -36.92,-110.87 -14.37,-14.37 -165,93.36 -410.54,154.63 -138.34,38.59 -395.63,108.76 -545.29,37.7 -50.13,122.89 -149.79,219.64 -273.16,268.02 716.5,279.03 1134.12,185.4 1264.04,134.24 156.25,-61.37 129.12,-101.34 118.67,-91.04 -43.75,-6.02 -111.06,-32.96 -158.12,-80.64z;
    M2509.44 1368.82c-14.8,-25.23 61.15,-53.32 52.53,-134.31 -12.75,-111.82 -171.11,-106.7 -176.81,-190.8 -2.1,-29.75 70.24,-110.88 29.72,-128.31 -118.87,-51.08 -74.14,-64.3 -36.92,-112.98 -182.02,21.06 -250.44,55.55 -401.94,155.95 -122.81,81.39 -282.89,175.93 -432.55,104.87 -50.13,122.89 -149.79,219.64 -273.16,268.02 312.64,149.76 621.09,-29.21 930.24,33.65 97.66,19.85 331.29,114.53 423.25,54.69 -15.1,-8.68 -112.54,-47.69 -114.36,-50.78z;
		"
    />
  </path>
  <path class="fil14" d="M2169.94 949.96c62.73,-29.75 129.97,-57.39 198.11,-56.79 -45.32,-26.74 -32.12,-42.37 -9,-67.61 0.6,-2.1 2.1,-4.81 5.4,-7.81 -151.59,40.26 -264.76,180.88 -419.65,205.82 79.55,-2.1 153.09,-39.66 225.14,-73.61z">
    <animate 
        attributeName="d"
        dur="2.3s"
        repeatCount="indefinite"
        values="
            M2169.94 949.96c62.73,-29.75 129.97,-57.39 198.11,-56.79 -45.32,-26.74 -32.12,-42.37 -9,-67.61 0.6,-2.1 2.1,-4.81 5.4,-7.81 -151.59,40.26 -264.76,180.88 -419.65,205.82 79.55,-2.1 153.09,-39.66 225.14,-73.61z;
            M2057.6 971.09c62.74,-29.75 173.96,-50.83 242.1,-50.23 -45.33,-26.74 -208.86,7.15 -227.06,7.19 -2.18,0 -73.22,32.77 -69.92,29.77 -40.34,18.9 -67.6,36.15 -111.58,63.47 76.37,-17.76 92.45,-25.94 166.46,-50.2z;
            M1905.38 887.44c37.04,-33.22 78.25,-64.38 121.17,-67.19 -31.36,-6.19 -38.81,-10.34 -65.2,8.31 -4.6,3.03 -11.24,6.49 -18.36,15.19 -7.01,8.56 -5.18,5.05 -18.46,21.77 -3.75,4.72 -6.55,7.07 -19.15,21.92z;
            M2256.5 972.74c71.89,-25.35 45.36,-15.58 85.88,-42.83 -24.79,27.31 -71.13,47.77 -91.09,52.05 -20.65,4.3 -19.8,2.89 -29.86,3.63 -15.69,2.06 -18.87,-0.31 -35.88,-0.48 38.09,-2.09 55.3,-7.87 70.95,-12.37z;
            M2378.39 1002.29c6.36,-5.06 15.04,-9.65 21.42,-17.18 2.24,-2.64 8.26,-9.86 15.81,-15.3 0.24,-1.73 1.24,-3.94 3.8,-6.2 -57.27,35.79 -67.95,42.16 -120.83,69.64 36.81,-12.4 63.18,-17.74 79.8,-30.96z;
            M2169.94 949.96c62.73,-29.75 129.97,-57.39 198.11,-56.79 -45.32,-26.74 -32.12,-42.37 -9,-67.61 0.6,-2.1 2.1,-4.81 5.4,-7.81 -151.59,40.26 -264.76,180.88 -419.65,205.82 79.55,-2.1 153.09,-39.66 225.14,-73.61z;
		"
    />
  </path>
  <path class="fil14" d="M2291.8 1357.93c72.11,19.74 155.46,25.92 227.53,18.6 -34.54,-18.79 7.61,-33.75 35.13,-89.14 -19,86.73 -496.02,-97.15 -742.63,-12.92 212.58,-41.34 295.31,38.99 479.97,83.46z">
    <animate 
        attributeName="d"
        dur="2.3s"
        repeatCount="indefinite"
        values="
          M2291.8 1357.93c72.11,19.74 155.46,25.92 227.53,18.6 -34.54,-18.79 7.61,-33.75 35.13,-89.14 -19,86.73 -496.02,-97.15 -742.63,-12.92 212.58,-41.34 295.31,38.99 479.97,83.46z;
          M2313.34 1251.96c12.35,0.6 6.34,5.63 72.51,10.76 -13.69,-2.85 -8.19,-10.85 -45.65,-13.68 -48.76,-3.68 -86.16,-17.24 -90.51,-19.07 19.22,14.65 55.8,21.62 63.65,21.99z;
          M2096.12 1209.96c55.67,3.65 120.5,-8.19 176.41,-31.67 -58.69,8.6 -73.3,9.05 -137.11,9.04 -53.49,2.89 -181.76,1.25 -224.65,-6.29 78.65,16.97 55.46,12.2 185.35,28.92z;
          M2149.31 1302.2c38.37,21.63 89.24,32.23 178.07,52.27 7.32,0.92 43.98,10.94 86.93,1.27 -153,3.33 -324.82,-143.49 -498.44,-76.25 129.58,-11.78 168.41,11.47 233.44,22.71z;
          M2122.32 1401.48c133.5,-4.06 207.89,-48.03 290.56,-88.87 -290.46,48.06 -235.38,27.79 -297.15,40.25 -66.57,4.14 -301.42,24.97 -410.52,-16.56 112.8,31.35 216.91,70.24 417.11,65.18z;
          M2291.8 1357.93c72.11,19.74 155.46,25.92 227.53,18.6 -34.54,-18.79 7.61,-33.75 35.13,-89.14 -19,86.73 -496.02,-97.15 -742.63,-12.92 212.58,-41.34 295.31,38.99 479.97,83.46z;
		    "
    />
  </path>
  <path class="fil14" d="M2250.38 1124.23c69.64,1.21 139.89,5.11 208.93,-0.6 -75.23,-40.84 -90.69,-60.8 -49.83,-138.52 -124.26,43.45 -110.88,70.44 -289.36,91.89 -122.79,14.75 -259.08,26.61 -372.83,84.19 165.99,-27.94 334.69,-40.26 503.09,-36.96z">
    <animate 
        attributeName="d"
        dur="2.3s"
        repeatCount="indefinite"
        values="
            M2250.38 1124.23c69.64,1.21 139.89,5.11 208.93,-0.6 -75.23,-40.84 -90.69,-60.8 -49.83,-138.52 -124.26,43.45 -110.88,70.44 -289.36,91.89 -122.79,14.75 -259.08,26.61 -372.83,84.19 165.99,-27.94 334.69,-40.26 503.09,-36.96z;
            M2000.94 1166.95c217.86,3.74 285.14,-80.35 341.64,-72.89 -41.95,-12.56 -88.01,-13.57 -135.5,-8.42 -69.4,7.53 -141.88,28.23 -209.11,45.35 -60.1,15.31 -79.33,22.91 -192.06,21 85.84,8.74 110.29,18.26 195.03,14.96z;
            M2114.92 992.44c40.98,-0.31 75.11,-26.02 87.31,-27.16 -60.25,-26.59 -70.33,-17.78 -80.02,-17.34 -13.7,1.89 -31.15,9.27 -43.94,13.17 -28.23,8.61 -39.8,25.24 -78.43,48.54 15.53,-10.36 31.19,-9.67 115.08,-17.21z;
            M2213.05 1150.67c36.92,0.82 68.18,3.32 101.81,-3.24 -43.29,8.54 -84.17,-2.91 -111.16,-8.16 -40.22,-6.32 -56.34,-13.28 -96.39,-11.19 -66.36,3.47 -39.8,2.55 -147.36,34.1 82.98,-19.45 168.47,-23.25 253.1,-11.51z;
            M2347.79 1164.94c17.56,-6.99 35.05,-11.39 52.92,-25.08 -28.69,17.17 -134.8,22.27 -177.46,26.96 -41.65,4.58 -48.42,3.96 -75.08,4.25 28.57,7.13 60.16,8.32 90.7,6.52 42.32,-2.51 71.42,-7.59 108.92,-12.65z;
            M2250.38 1124.23c69.64,1.21 139.89,5.11 208.93,-0.6 -75.23,-40.84 -90.69,-60.8 -49.83,-138.52 -124.26,43.45 -110.88,70.44 -289.36,91.89 -122.79,14.75 -259.08,26.61 -372.83,84.19 165.99,-27.94 334.69,-40.26 503.09,-36.96z;
		"
    />
  </path>
  <path class="fil15" d="M1594.8 1119.73c-15.99,68.29 -79.29,134.56 -138.68,169.16l303.17 -93.15 -164.49 -76.01z">
    <animate 
        attributeName="d"
        dur="2.3s"
        repeatCount="indefinite"
        values="
          M1594.8 1119.73c-15.99,68.29 -79.29,134.56 -138.68,169.16l303.17 -93.15 -164.49 -76.01z;
          M1594.8 1119.73c-15.99,68.29 -79.29,134.56 -138.68,169.16l281.37 -165.07 -142.69 -4.09z;
          M1594.8 1119.73c-15.99,68.29 -79.29,134.56 -138.68,169.16l303.17 -62.04 -164.49 -107.12z;
          M1594.8 1119.73c-15.99,68.29 -79.29,134.56 -138.68,169.16l303.17 -93.15 -164.49 -76.01z;
		    "
    />
  </path>

  <g id="_2735596200112">
    <animateTransform attributeName="transform"
                          attributeType="XML"
                          type="rotate"
                          values="
                            10 1123.89 1095.26;
                            0 1123.63 1095.26;
                            10 1123.63 1095.26;
                          "
                          dur="1.5s"
                          repeatCount="indefinite"/>
   <path class="fil10" d="M1442.01 1072.55c-13.21,-5.71 -28.82,-8.71 -45.03,-8.71 -36.62,0.3 -72.64,6.61 -109.26,9.01 -20.71,1.2 -42.03,1.2 -62.44,-1.8 -16.81,-2.71 -36.92,-15.33 -53.13,-14.73 -26.72,0.91 -38.42,34.56 -38.42,53.49 -3.91,-0.3 -8.11,-0.3 -12.01,0.3 -40.22,5.41 -27.62,58.59 8.1,75.42 77.15,36.36 145.29,18.93 230.24,11.12 42.93,-3.91 94.26,-12.02 112.57,-50.78 15.31,-33.96 -1.2,-60.4 -30.62,-73.32z"/>
   <path class="fil11" d="M1388.58 1123.63c-84.95,-1.5 -179.51,31.25 -251.55,-24.64 -3.9,-3 -9.61,1.81 -5.7,5.71 27.61,27.95 54.03,40.87 93.35,41.17 54.33,0.3 111.37,-3.91 165.4,-11.42 6.3,-0.9 4.5,-10.82 -1.5,-10.82z"/>
  </g>
 </g>

 <path  id="theMotionPath" fill="none" stroke="none" d="M33.54 1.28l225.72 0c17.75,0 32.26,14.51 32.26,32.26l0 20.69c0,17.74 -14.51,32.26 -32.26,32.26l-225.72 0c-17.75,0 -32.26,-14.52 -32.26,-32.26l0 -20.69c0,-17.75 14.51,-32.26 32.26,-32.26z"/>
</svg>
