<svg width="444" height="230" viewBox="0 0 444 230" fill="none" xmlns="http://www.w3.org/2000/svg">
<path d="M8.92567 104.168C10.4075 72.2169 59.2192 47.6505 79.1938 37.6325C141.348 6.38533 210.201 7.48381 229.181 7.99896C321.428 10.4367 437.945 49.3548 438.627 103.811C439.077 141.303 384.457 169.792 374.636 174.936C315.777 205.674 246.917 201.667 218.377 200.039C206.447 199.359 194.159 198.114 181.751 196.345C179.407 199.923 176.764 203.644 173.741 207.456C166.005 217.179 157.867 224.856 150.899 230.715C151.921 217.686 152.939 204.597 153.961 191.568C78.4343 176.352 7.13092 143.626 8.92567 104.168Z" fill="#FEE741"/>
<path d="M15.2087 104.125C15.4889 98.1046 17.7109 92.1022 21.4316 86.392C25.1571 80.7408 30.1501 75.4008 35.8757 70.4756C47.4039 60.6188 61.4628 52.2757 76.2016 44.6485L81.7888 41.8131C83.6529 40.8876 85.5218 40.0211 87.3907 39.1546L92.9925 36.496C94.8614 35.6295 96.822 34.9336 98.7728 34.1197L104.553 31.7434C106.509 30.9885 108.551 30.3453 110.512 29.6493L116.471 27.5552L122.603 25.6844C138.89 20.8394 155.829 17.3065 173.038 15.1765C207.447 10.7985 242.602 11.7035 276.463 16.6935C293.43 19.1559 310.094 22.6527 326.286 27.0197C334.382 29.2032 342.349 31.6943 350.093 34.3224C357.848 37.0685 365.463 40.0042 372.793 43.2603C387.383 49.8376 401.211 57.5465 412.314 67.0239C417.825 71.7362 422.675 76.9186 426.399 82.5501C430.04 88.129 432.478 94.1633 433.224 100.396C434.047 106.623 433.016 112.943 430.572 119.082C429.273 122.159 427.738 125.195 425.88 128.079C423.95 131.029 421.856 133.874 419.444 136.626C409.878 147.687 397.087 157.291 383.182 165.622C379.705 167.69 376.145 169.705 372.499 171.609L361.402 177.273C357.495 178.842 353.675 180.522 349.764 182.032L343.805 184.126C341.763 184.769 339.812 185.583 337.76 186.109C321.487 191.131 304.293 194.388 286.982 196.229C284.833 196.525 282.67 196.644 280.434 196.828C278.276 197.005 276.117 197.183 273.882 197.367C269.55 197.546 265.156 197.908 260.815 197.969C252.07 198.273 243.291 198.165 234.575 197.873C225.858 197.582 217.055 197.179 208.387 196.527C199.718 195.875 191.103 194.922 182.472 193.792L179.962 193.464L178.864 195.217C171.106 207.495 160.956 219.02 148.913 229.216L153.771 230.716L157.454 191.577L157.679 189.599L155.068 188.983C139.473 185.279 124.086 181.261 109.314 176.243C94.4709 171.29 80.1183 165.702 66.7624 159.023C53.4836 152.338 40.9077 144.763 31.1494 135.591C26.3473 130.998 22.1377 126.06 19.2961 120.772C16.3727 115.431 15.0535 109.779 15.2087 104.125ZM2.72465 104.263C2.53672 111.404 4.35796 118.439 7.82653 124.745C11.2951 131.051 16.1076 136.711 21.5701 141.784C27.1096 146.85 33.2993 151.328 39.8404 155.362C46.3863 159.455 53.2837 163.103 60.3881 166.437C74.6787 173.157 89.7876 178.504 105.301 183.105C113.093 185.373 120.944 187.399 128.934 189.235C136.846 191.077 144.899 192.73 153.004 194.081L150.54 191.493L148.022 230.655L147.651 236.505L152.875 232.096C165.526 221.731 176.277 209.979 184.624 197.296L180.939 198.728C189.66 200.029 198.363 201.093 207.195 201.85C216.033 202.667 224.841 203.129 233.726 203.584C242.606 203.981 251.544 204.136 260.53 203.93C265.03 203.916 269.506 203.607 273.997 203.474C276.237 203.349 278.473 203.165 280.708 202.981C282.944 202.797 285.184 202.672 287.415 202.428C305.352 200.654 323.25 197.458 340.37 192.366C342.577 191.828 344.605 191.008 346.72 190.299L353.064 188.174C357.202 186.586 361.253 184.886 365.386 183.239L377.187 177.636C380.982 175.66 384.773 173.626 388.476 171.48C395.807 167.195 402.872 162.516 409.436 157.403C416.005 152.348 422.067 146.802 427.392 140.781C430.016 137.774 432.394 134.609 434.531 131.345C436.668 128.081 438.483 124.666 439.902 121.164C442.74 114.161 444.064 106.689 443.159 99.4593C442.402 92.1583 439.651 85.1403 435.561 78.8264C431.466 72.4535 426.181 66.7131 420.169 61.567C408.213 51.1505 393.651 43.0269 378.479 35.9631C347.772 22.1622 313.822 13.2603 278.847 7.94622C244.191 2.72473 207.624 1.63914 171.601 6.20944C153.621 8.40294 135.839 12.0646 118.642 17.1628L112.206 19.118L105.866 21.3028C103.756 22.0704 101.637 22.7201 99.5318 23.5466L93.3709 26.0137C91.343 26.8339 89.238 27.6605 87.2149 28.5397L81.2373 31.3479C79.2962 32.2798 77.2009 33.2243 75.3368 34.1498L69.6002 37.0569C54.3365 44.9055 39.4539 53.6134 26.688 64.4628C20.3846 69.9107 14.6693 75.9039 10.1736 82.5687C5.90419 89.1554 3.10497 96.6305 2.72465 104.263Z" fill="black"/>
</svg>
