<svg width="26" height="26" viewBox="0 0 26 26" fill="none" xmlns="http://www.w3.org/2000/svg">
<path d="M0 12.9994C0 5.82546 5.82517 0 13 0C20.1748 0 26 5.82546 26 12.9994C26 20.1745 20.1748 26 13 26C5.82517 26 0 20.1745 0 12.9994ZM10.6764 6.70188C10.4931 6.56144 10.2864 6.49772 10.0835 6.49772C9.57772 6.49772 9.10182 6.89562 9.10182 7.47167V18.5257C9.10182 19.1044 9.57902 19.501 10.0835 19.501C10.2877 19.501 10.4944 19.436 10.6777 19.2942C12.6983 17.7299 16.1375 15.0656 17.8266 13.7574C18.0658 13.5728 18.2036 13.2893 18.2036 12.9876C18.2036 12.6886 18.0645 12.4038 17.8253 12.2192L10.6764 6.70188Z" fill="#000"/>
</svg>
