<svg width="25" height="24" viewBox="0 0 25 24" fill="none" xmlns="http://www.w3.org/2000/svg">
<path d="M7.11194 14.729L7.96694 13.578C8.96694 14.062 9.60194 14.43 10.7269 15.232C12.8399 12.833 14.2379 11.616 16.8329 10.001L17.1119 10.641C14.9709 12.51 13.4029 14.59 11.1449 18.64C9.75194 17 8.82294 16.314 7.11194 14.729ZM22.1119 3V24H2.11194V3H6.77794L4.11194 5.808V22H20.1119V5.808L17.5029 3H22.1119ZM18.4659 7L15.1539 3.431V3.021C15.1549 1.353 13.8019 0 12.1329 0C10.4659 0 9.11194 1.332 9.11194 3L9.11294 3.431L5.81494 7H18.4659ZM12.1119 2C12.6649 2 13.1119 2.448 13.1119 3C13.1119 3.552 12.6649 4 12.1119 4C11.5589 4 11.1119 3.552 11.1119 3C11.1119 2.448 11.5589 2 12.1119 2Z" fill="#000"/>
</svg>
