<svg width="23" height="24" viewBox="0 0 23 24" fill="none" xmlns="http://www.w3.org/2000/svg">
<path fill-rule="evenodd" clip-rule="evenodd" d="M18.423 24C16.021 24 14.647 22.109 13.915 19.771C13.649 18.911 13.397 17.985 12.183 16.75C9.969 14.495 9.019 11.921 9.019 9.39802C9.019 5.19002 12.335 2.00002 15.977 2.00002C20.294 2.00002 23.562 5.78202 21.415 11.689L19.5 11C21.191 6.16502 18.601 4.23602 15.918 4.18502C13.59 4.14002 11.49 6.19502 11.203 8.59502C10.953 10.689 11.501 13.222 13.503 15.143C15.238 16.807 15.474 17.909 15.791 19C16.522 21.516 17.674 21.903 18.496 21.849C20.419 21.722 21.256 19.704 19.44 17.41L21.262 16.385C22.103 17.624 22.493 18.957 22.5 20C22.516 22.45 20.561 24 18.423 24ZM6.156 17.411L4.769 19C2.157 16.677 0.5 13.286 0.5 9.49902C0.5 5.71202 2.157 2.32102 4.769 -0.000976562L6.156 1.58702C3.979 3.52302 2.596 6.34902 2.596 9.49902C2.596 12.649 3.979 15.474 6.156 17.411ZM6.596 9.49902C6.596 7.60802 7.425 5.91302 8.731 4.75102L7.345 3.16602C5.603 4.71402 4.5 6.97402 4.5 9.49902C4.5 12.024 5.603 14.284 7.345 15.832L8.731 14.247C7.425 13.085 6.596 11.389 6.596 9.49902ZM18.132 15.161C16.892 15.816 15.77 14.872 15.272 13.717C14.796 12.616 15.085 11.355 16.039 10.343C16.696 9.64602 17.061 8.81202 16.923 8.17602C16.872 7.93402 16.727 7.61102 16.339 7.45202C15.95 7.29102 15.547 7.34102 15.222 7.52202C14.7 7.81202 14.285 8.51702 14.142 9.36102L12.663 9.11102C12.885 7.80702 13.569 6.72302 14.494 6.21102C15.225 5.80602 16.095 5.72902 16.909 6.06402C17.673 6.37802 18.212 7.03302 18.391 7.86102C18.635 8.99602 18.14 10.301 17.129 11.373C19.189 11.887 19.441 14.363 18.132 15.161Z" fill="#000"/>
</svg>
