<svg width="143" height="35" viewBox="0 0 143 35" fill="none" xmlns="http://www.w3.org/2000/svg">
<path fill-rule="evenodd" clip-rule="evenodd" d="M15.5995 0.0963903C12.2074 0.449422 8.84128 1.88522 6.25659 4.08141C1.44744 8.16787 -0.796994 14.3365 0.254742 20.5771C1.0831 25.4924 4.10296 29.9359 8.39466 32.5546C9.30572 33.1105 10.3696 33.633 11.3001 33.9815C12.192 34.3156 12.5986 34.3088 12.9132 33.9544L13.1128 33.7295V31.8999V30.0702L12.9174 30.1206C12.0684 30.3397 10.7554 30.3561 9.93359 30.1578C9.10487 29.9579 8.54436 29.6504 7.99267 29.093C7.59458 28.6909 7.45177 28.4703 7.03841 27.6192C6.60345 26.7235 6.49581 26.5618 6.01375 26.0804C5.71747 25.7845 5.32535 25.4409 5.1424 25.3167C4.95945 25.1926 4.75469 25.0064 4.68741 24.9031C4.57813 24.7353 4.57657 24.7036 4.67256 24.6069C4.85117 24.4272 5.29182 24.36 5.72145 24.4471C6.64573 24.6344 7.42982 25.2348 8.14159 26.2999C8.64099 27.0472 9.15936 27.5322 9.77349 27.8267C10.2202 28.0409 10.2667 28.0481 11.1945 28.046C12.0309 28.0441 12.2167 28.0212 12.6457 27.8673L13.1379 27.6907L13.2894 27.1187C13.4612 26.4698 13.6335 26.1066 13.9964 25.6282C14.1351 25.4453 14.2327 25.2957 14.2131 25.2957C13.9871 25.2957 12.6357 25.0453 12.0859 24.9015C9.44019 24.2098 7.65689 22.6551 6.88694 20.3691C6.57716 19.4492 6.45588 18.8039 6.36849 17.6102C6.21226 15.4748 6.60942 13.9324 7.69611 12.4547L8.11082 11.8908L7.97107 11.4618C7.85746 11.1131 7.83054 10.8254 7.82705 9.92466C7.82279 8.80337 7.90222 8.28533 8.19175 7.54752L8.2969 7.27943H8.77158C9.65639 7.27943 10.8575 7.72232 12.2586 8.5653L13.0925 9.06703L13.8664 8.89474C15.2017 8.59739 15.8463 8.53197 17.4468 8.53127C19.0501 8.53055 19.6714 8.59381 21.0424 8.89752L21.8315 9.0724L22.4278 8.6997C23.2473 8.1876 24.4793 7.60665 25.1246 7.42813C25.4223 7.34577 25.8755 7.27943 26.1407 7.27943H26.6193L26.7241 7.5318C27.1421 8.53833 27.2576 10.3038 26.9757 11.3764L26.829 11.9344L27.1744 12.3773C27.874 13.2745 28.3659 14.4538 28.5356 15.6407C28.6989 16.7829 28.5359 18.7109 28.1715 19.949C27.3018 22.9034 25.1311 24.622 21.6031 25.1495C21.3296 25.1904 20.9998 25.2418 20.8703 25.2639L20.6348 25.3039L20.8972 25.5962C21.0415 25.7569 21.2518 26.093 21.3646 26.3433C21.758 27.2164 21.7786 27.4275 21.7797 30.6063C21.7808 33.8108 21.7926 33.9093 22.198 34.1203C22.5573 34.3073 22.9312 34.257 23.8258 33.9016C26.1431 32.9812 28.0328 31.7322 29.8132 29.9446C32.5723 27.1742 34.182 23.9033 34.7929 19.8265C34.9186 18.9871 34.9217 16.1095 34.7977 15.2867C34.1766 11.1642 32.5462 7.86566 29.7502 5.07458C26.0309 1.36168 20.8738 -0.452604 15.5995 0.0963903ZM52.0831 5.53929C49.7023 5.73339 47.9505 6.2766 46.4654 7.28128C45.7675 7.75342 44.67 8.85413 44.1856 9.5677C43.0602 11.2257 42.3758 13.2352 41.9825 16.0373C41.876 16.7962 41.8523 17.4194 41.8535 19.4333C41.8548 21.6588 41.8709 22.001 42.0189 22.9355C42.8635 28.2681 45.2776 31.2005 49.7585 32.3369C51.4733 32.7717 54.6716 32.8756 56.5358 32.5569C58.1732 32.2769 59.9767 31.6548 61.0708 30.9925L61.4615 30.7559L61.4806 24.0759L61.4996 17.3957L61.3483 17.2706C61.208 17.1545 60.8877 17.1455 56.9033 17.1455H52.6095L52.4351 17.321L52.2607 17.4964V19.6286C52.2607 21.4426 52.2772 21.7844 52.3713 21.9196C52.4805 22.0764 52.5045 22.0785 54.2186 22.0785H55.9552V24.648C55.9552 26.0613 55.929 27.2339 55.8968 27.2539C55.5952 27.4415 53.2494 27.5649 52.291 27.4435C49.3785 27.0749 47.8834 25.014 47.4949 20.8324C47.3914 19.719 47.4455 17.6329 47.6044 16.6093C48.0723 13.5943 49.3308 11.8225 51.488 11.1417C53.2186 10.5957 56.298 10.6901 58.5018 11.3569C59.4233 11.6358 59.4247 11.635 59.6778 10.5809C60.2262 8.29784 60.4936 7.05358 60.4566 6.95678C60.3692 6.72743 59.2645 6.27424 58.1168 5.99684C56.5837 5.6263 53.6993 5.40753 52.0831 5.53929ZM86.1975 6.62376C86.089 6.74437 86.0799 7.73219 86.0799 19.3801C86.0799 30.7627 86.0909 32.0169 86.1915 32.1182C86.289 32.2161 86.6296 32.2305 88.8508 32.2305C91.0721 32.2305 91.4127 32.2161 91.5101 32.1182C91.6096 32.018 91.6217 31.4202 91.6217 26.6132V21.2206H95.3163H99.0108V26.6397C99.0108 30.7593 99.0313 32.0795 99.0961 32.1447C99.1592 32.2082 99.8469 32.2305 101.749 32.2305C104.147 32.2305 104.325 32.2218 104.435 32.0997C104.544 31.9791 104.553 30.9917 104.553 19.3493C104.553 7.21437 104.548 6.72507 104.423 6.61132C104.307 6.50587 104.018 6.493 101.769 6.493C99.4189 6.493 99.238 6.50194 99.1289 6.62319C99.0231 6.7408 99.0101 7.20321 98.9935 11.4311L98.9753 16.1088H95.3163H91.6573L91.639 11.4311C91.6224 7.20321 91.6094 6.7408 91.5037 6.62319C91.3946 6.50194 91.2131 6.493 88.8508 6.493C86.4845 6.493 86.3072 6.50173 86.1975 6.62376ZM125.543 6.59445C125.408 6.69419 125.405 6.91688 125.387 19.2961C125.371 30.511 125.381 31.9147 125.478 32.0634L125.586 32.2305L127.414 32.2294C128.42 32.2288 129.288 32.1992 129.344 32.1636C129.4 32.128 129.496 31.8388 129.557 31.5211L129.668 30.9432L130.024 31.1998C131.364 32.1684 133.284 32.7309 135.249 32.7309C139.316 32.7309 141.181 30.8868 141.899 26.1536C141.997 25.5038 142.024 24.8592 142.025 23.0794C142.027 20.627 141.959 20.0076 141.529 18.5905C140.517 15.2519 137.95 13.7345 134.18 14.247C133.073 14.3974 132.127 14.7058 131.038 15.2707C131.009 15.2855 130.977 13.3621 130.967 10.9967C130.948 6.83381 130.943 6.69268 130.809 6.59445C130.605 6.44439 125.747 6.44439 125.543 6.59445ZM66.1935 7.17812C65.6921 7.31381 65.0486 7.71181 64.7233 8.08744C64.5803 8.25252 64.3635 8.59667 64.2414 8.85227C64.0306 9.29324 64.0193 9.36073 64.0193 10.1749C64.0193 10.9891 64.0306 11.0566 64.2414 11.4975C64.5277 12.0967 64.8811 12.5001 65.3949 12.8142C66.4219 13.4419 67.673 13.4301 68.6746 12.7833C69.6557 12.1498 70.2216 10.8615 70.0304 9.69686C69.7287 7.85838 67.9631 6.69933 66.1935 7.17812ZM74.4812 9.71446C74.3665 9.78306 74.3569 9.98466 74.3569 12.3061V14.8235L73.2023 15.1024C71.571 15.4966 71.6182 15.4803 71.5262 15.6835C71.4071 15.9466 71.4152 18.8358 71.5357 19.0758L71.6255 19.2545L72.9864 19.2739L74.3472 19.2933L74.3751 23.7065C74.402 27.9609 74.4085 28.141 74.5577 28.7143C75.242 31.346 76.9691 32.5641 80.2228 32.7097C81.1719 32.7522 81.9839 32.6628 83.0959 32.3934C83.8513 32.2105 83.8064 32.35 83.8064 30.1835C83.8064 27.9184 83.8776 28.0634 82.8117 28.1575C81.3376 28.2876 80.4051 27.9734 79.9881 27.2058C79.874 26.9957 79.8614 26.6423 79.8431 23.133L79.8229 19.2903H81.6939C83.0543 19.2903 83.588 19.2669 83.6501 19.2045C83.7126 19.1416 83.7353 18.5508 83.7353 16.9923C83.7353 14.8759 83.7345 14.8653 83.5774 14.7545C83.4446 14.6609 83.134 14.6432 81.6235 14.6432H79.8276L79.8266 12.2661C79.8259 10.8944 79.797 9.84356 79.7581 9.78166C79.7007 9.69016 79.3183 9.67196 77.1482 9.65728C75.4857 9.64612 74.5625 9.66593 74.4812 9.71446ZM64.4811 14.6962C64.1965 14.8076 64.2015 14.6516 64.1992 23.4495L64.1969 31.9341L64.3841 32.0823C64.5652 32.2257 64.6504 32.2305 67.0129 32.2305C69.3598 32.2305 69.46 32.2249 69.5966 32.0875C69.7371 31.9461 69.7387 31.8492 69.7387 23.4369C69.7387 15.0245 69.7371 14.9276 69.5966 14.7862C69.4598 14.6486 69.3637 14.6434 67.0211 14.6489C65.6827 14.652 64.5397 14.6733 64.4811 14.6962ZM106.959 14.8329C106.879 14.9304 106.858 15.9302 106.841 20.5345C106.819 26.4273 106.865 27.833 107.112 28.8703C107.532 30.628 108.621 31.8188 110.308 32.3614C111.165 32.6373 111.894 32.7309 113.185 32.7309C115.352 32.7309 116.226 32.4856 118.984 31.103C119.008 31.091 119.049 31.2726 119.076 31.5068C119.105 31.7699 119.18 32.0045 119.271 32.1209L119.418 32.3092L121.069 32.2877C122.339 32.2712 122.747 32.2436 122.837 32.1681C122.945 32.0779 122.954 31.3803 122.954 23.5107C122.954 15.3093 122.949 14.9464 122.824 14.833C122.709 14.7277 122.422 14.7147 120.207 14.7147C117.887 14.7147 117.711 14.7235 117.601 14.8455C117.494 14.965 117.484 15.507 117.484 21.1705V27.3649L116.897 27.648C115.815 28.1708 114.655 28.3496 113.793 28.1266C113.2 27.9732 112.893 27.7314 112.661 27.2336L112.475 26.8328L112.454 20.9014C112.436 15.5578 112.422 14.9575 112.319 14.8424C112.213 14.7243 112.011 14.7147 109.63 14.7147C107.323 14.7147 107.047 14.7269 106.959 14.8329ZM134.982 18.9578C136.105 19.511 136.596 20.8494 136.596 23.3629C136.596 25.7236 136.293 27.0528 135.616 27.6684C135.189 28.0569 134.716 28.1911 133.789 28.1871C132.747 28.1827 132.108 28.0294 131.072 27.5345L130.841 27.4242V23.4604V19.4966L131.356 19.2619C131.794 19.0621 132.21 18.9301 132.937 18.7596C133.015 18.7413 133.418 18.7348 133.833 18.7451C134.487 18.7615 134.641 18.7899 134.982 18.9578ZM6.15002 25.0311C6.15002 25.1624 6.2983 25.2957 6.44423 25.2957C6.61297 25.2957 6.67791 25.1686 6.57375 25.0423C6.46718 24.9131 6.15002 24.9047 6.15002 25.0311ZM6.88246 25.6271C6.81766 25.797 6.95287 25.9714 7.16964 25.9974C7.31785 26.0153 7.35785 25.9898 7.35785 25.8775C7.35785 25.5869 6.97475 25.3851 6.88246 25.6271ZM7.56538 26.4821C7.42733 26.6495 7.61867 26.9683 7.87522 26.9983C8.04752 27.0186 8.06834 26.9978 8.06834 26.8058C8.06834 26.6645 8.01413 26.5524 7.91039 26.4794C7.71338 26.3405 7.68197 26.3408 7.56538 26.4821ZM8.44134 27.4163C8.30912 27.47 8.33399 27.7589 8.48248 27.8941C8.55395 27.9591 8.69783 28.0124 8.8022 28.0124C8.95574 28.0124 8.99197 27.9793 8.99197 27.8389C8.99197 27.7365 8.91517 27.6045 8.80476 27.5172C8.61001 27.363 8.58784 27.3568 8.44134 27.4163ZM9.60049 28.2504C9.42099 28.3825 9.55809 28.6282 9.84689 28.6921C10.2278 28.7763 10.4139 28.4787 10.1129 28.2667C9.91959 28.1304 9.76999 28.1256 9.60049 28.2504ZM12.3778 28.3576C12.2134 28.5404 12.231 28.6482 12.4381 28.7275C12.6413 28.8052 12.9381 28.7014 13.0035 28.5299C13.1095 28.2518 12.5993 28.1114 12.3778 28.3576ZM11.0559 28.4956C10.8589 28.6561 10.9238 28.8462 11.1963 28.9064C11.6198 29.0001 11.8966 28.5876 11.5096 28.4396C11.2651 28.3461 11.2348 28.3498 11.0559 28.4956Z" fill="black"/>
</svg>
