<svg width="22" height="29" viewBox="0 0 22 29" fill="none" xmlns="http://www.w3.org/2000/svg">
<path d="M16.7264 5.21567C12.8064 5.21567 12.7177 1.83817 8.16655 1.83817C5.70722 1.83817 3.41238 2.9815 2.43938 3.8145V0.5H0.106049V28.5H2.43938V17.9148C3.82072 16.9593 5.91488 15.9537 8.18288 15.9537C12.4809 15.9537 13.084 19.1667 16.9142 19.1667C19.3899 19.1667 21.106 17.5812 21.106 17.5812V3.5485C21.106 3.5485 19.2149 5.21567 16.7264 5.21567ZM18.7727 11.3092C15.9529 13.3823 12.9055 10.9125 11.3644 9.89517V14.1757L11.3679 14.1768C10.4847 13.8513 9.44872 13.6203 8.18288 13.6203C5.87405 13.6203 3.85455 14.4125 2.43938 15.1825V10.7608C5.07605 8.46017 8.90855 8.15567 11.3644 9.89517V5.45833C12.4914 6.34033 14.0337 7.549 16.7264 7.549C17.4579 7.549 18.1439 7.44867 18.7727 7.28883V11.3092Z" fill="black"/>
</svg>
