<svg width="40" height="34" viewBox="0 0 40 34" fill="none" xmlns="http://www.w3.org/2000/svg">
<path d="M26.6667 11.6667V5L40 16.6667L26.6667 28.3333V21.6667H13.3333V11.6667H26.6667ZM23.3333 28.3333V28.195C21.37 29.3367 19.0967 30 16.6667 30C9.315 30 3.33333 24.0183 3.33333 16.6667C3.33333 9.315 9.315 3.33333 16.6667 3.33333C19.0967 3.33333 21.37 3.99667 23.3333 5.13833V1.39667C21.29 0.503333 19.0383 0 16.6667 0C7.46333 0 0 7.46167 0 16.6667C0 25.8717 7.46333 33.3333 16.6667 33.3333C19.0383 33.3333 21.29 32.83 23.3333 31.9367V28.3333Z" fill="black"/>
</svg>
