<svg width="32" height="29" viewBox="0 0 32 29" fill="none" xmlns="http://www.w3.org/2000/svg">
<path d="M6.30824 25.9545C2.55243 25.1782 0.560608 22.0218 0.560608 18.9545C0.560608 15.6264 2.7637 12.3389 7.28443 11.9545C5.48352 13.9795 4.37879 16.6738 4.37879 19.5909C4.37879 21.8589 5.16533 24.1727 6.30824 25.9545ZM31.1061 18.9545C31.1061 22.0205 29.1333 25.1769 25.3788 25.9545C26.5204 24.1727 27.2879 21.8589 27.2879 19.5909C27.2879 16.6738 26.1832 13.9795 24.3822 11.9545C28.903 12.3402 31.1061 15.6276 31.1061 18.9545ZM24.6482 9.42564C25.8472 9.53255 26.9162 9.79982 27.867 10.1905C26.2506 4.60582 21.9284 0.5 15.8333 0.5C9.74206 0.5 5.43134 4.60455 3.81624 10.1816C4.76315 9.796 5.8297 9.53 7.02352 9.42436C8.73788 6.19418 11.9133 4.28255 15.8333 4.29018C19.7546 4.28255 22.9326 6.19418 24.6482 9.42564ZM15.8333 10.6818C10.9142 10.6818 6.92424 14.6705 6.92424 19.5909C6.92424 24.5113 10.9142 28.5 15.8333 28.5C20.7524 28.5 24.7424 24.5113 24.7424 19.5909C24.7424 14.6705 20.7524 10.6818 15.8333 10.6818ZM13.2879 24.6818V14.5L20.9242 19.5909L13.2879 24.6818Z" fill="black"/>
</svg>
