<svg width="40" height="35" viewBox="0 0 40 35" fill="none" xmlns="http://www.w3.org/2000/svg">
<path d="M13.3333 12.5V5.83331L26.6667 17.5L13.3333 29.1666V22.5H0V12.5H13.3333ZM23.3333 0.833313C20.355 0.833313 17.5667 1.62331 15.1483 2.99165L15.5283 3.32498L17.8533 5.35998C19.5267 4.59998 21.3783 4.16665 23.3333 4.16665C30.685 4.16665 36.6667 10.1483 36.6667 17.5C36.6667 24.8516 30.685 30.8333 23.3333 30.8333C21.3783 30.8333 19.5267 30.4 17.8533 29.6416L15.5283 31.6766L15.1483 32.01C17.5667 33.3766 20.355 34.1666 23.3333 34.1666C32.5367 34.1666 40 26.705 40 17.5C40 8.29498 32.5367 0.833313 23.3333 0.833313Z" fill="black"/>
</svg>
