<svg width="35" height="34" viewBox="0 0 35 34" fill="none" xmlns="http://www.w3.org/2000/svg">
<path d="M18.4896 17.027C14.9237 17.1118 14.0945 20.5449 10.9018 23.639C6.17496 28.1742 7.08716 32.1583 9.98959 32.9636C12.892 33.769 15.3384 30.463 18.4896 30.5053C18.4896 30.5053 18.4896 30.5053 18.531 30.5053C18.531 30.5053 18.531 30.5053 18.5725 30.5053C21.7237 30.463 24.17 33.769 27.0725 32.9636C29.9749 32.1583 30.8871 28.2166 26.1603 23.639C22.8847 20.5449 22.0554 17.1118 18.4896 17.027Z" fill="#001922"/>
<path d="M10.2842 21.6872C12.0247 20.3928 11.8413 17.1031 9.87437 14.3396C7.90748 11.5761 4.90201 10.3852 3.16145 11.6797C1.42089 12.9742 1.60436 16.2639 3.57125 19.0274C5.53813 21.7909 8.54361 22.9817 10.2842 21.6872Z" fill="#001922"/>
<path d="M27.0724 14.3144C25.0822 17.0694 24.9163 20.3754 26.6578 21.6893C28.3993 23.0032 31.4261 21.7741 33.3749 19.0191C35.3651 16.2641 35.531 12.9581 33.7895 11.6441C32.0895 10.3302 29.0627 11.5594 27.0724 14.3144Z" fill="#001922"/>
<path d="M14.6347 14.5059C16.8891 14.095 18.215 10.885 17.5961 7.33594C16.9772 3.78692 14.6479 1.2429 12.3934 1.65372C10.1389 2.06453 8.81306 5.27462 9.43197 8.82364C10.0509 12.3727 12.3802 14.9167 14.6347 14.5059Z" fill="#001922"/>
<path d="M19.4017 7.36327C18.7798 10.9236 20.1066 14.1448 22.3456 14.5263C24.5846 14.9501 26.9066 12.3647 27.5285 8.80435C28.1505 5.24404 26.8237 2.0228 24.5846 1.64133C22.3456 1.21749 20.0237 3.80296 19.4017 7.36327Z" fill="#001922"/>
</svg>
