<svg width="36" height="35" viewBox="0 0 36 35" fill="none" xmlns="http://www.w3.org/2000/svg">
<path fill-rule="evenodd" clip-rule="evenodd" d="M16.155 0.0963903C12.7629 0.449422 9.39682 1.88522 6.81213 4.08141C2.00298 8.16787 -0.241452 14.3365 0.810284 20.5771C1.63864 25.4924 4.6585 29.9359 8.9502 32.5546C9.86126 33.1105 10.9251 33.633 11.8556 33.9815C12.7475 34.3156 13.1541 34.3088 13.4687 33.9544L13.6683 33.7295V31.8999V30.0702L13.4729 30.1206C12.6239 30.3397 11.3109 30.3561 10.4891 30.1578C9.66041 29.9579 9.0999 29.6504 8.54821 29.093C8.15012 28.6909 8.00731 28.4703 7.59395 27.6192C7.15899 26.7235 7.05135 26.5618 6.56929 26.0804C6.27301 25.7845 5.88089 25.4409 5.69794 25.3167C5.51499 25.1926 5.31023 25.0064 5.24295 24.9031C5.13367 24.7353 5.13211 24.7036 5.2281 24.6069C5.40671 24.4272 5.84736 24.36 6.27699 24.4471C7.20127 24.6344 7.98536 25.2348 8.69713 26.2999C9.19653 27.0472 9.7149 27.5322 10.329 27.8267C10.7757 28.0409 10.8222 28.0481 11.75 28.046C12.5864 28.0441 12.7722 28.0212 13.2012 27.8673L13.6934 27.6907L13.8449 27.1187C14.0167 26.4698 14.189 26.1066 14.5519 25.6282C14.6906 25.4453 14.7882 25.2957 14.7686 25.2957C14.5426 25.2957 13.1912 25.0453 12.6414 24.9015C9.99573 24.2098 8.21243 22.6551 7.44248 20.3691C7.1327 19.4492 7.01142 18.8039 6.92403 17.6102C6.7678 15.4748 7.16496 13.9324 8.25165 12.4547L8.66636 11.8908L8.52661 11.4618C8.413 11.1131 8.38608 10.8254 8.38259 9.92466C8.37833 8.80337 8.45776 8.28533 8.74729 7.54752L8.85244 7.27943H9.32712C10.2119 7.27943 11.413 7.72232 12.8141 8.5653L13.648 9.06703L14.4219 8.89474C15.7572 8.59739 16.4018 8.53197 18.0023 8.53127C19.6056 8.53055 20.2269 8.59381 21.5979 8.89752L22.387 9.0724L22.9833 8.6997C23.8028 8.1876 25.0348 7.60665 25.6801 7.42813C25.9778 7.34577 26.431 7.27943 26.6962 7.27943H27.1748L27.2796 7.5318C27.6976 8.53833 27.8131 10.3038 27.5312 11.3764L27.3845 11.9344L27.7299 12.3773C28.4295 13.2745 28.9214 14.4538 29.0911 15.6407C29.2544 16.7829 29.0914 18.7109 28.727 19.949C27.8573 22.9034 25.6866 24.622 22.1586 25.1495C21.8851 25.1904 21.5553 25.2418 21.4258 25.2639L21.1903 25.3039L21.4527 25.5962C21.597 25.7569 21.8073 26.093 21.9201 26.3433C22.3135 27.2164 22.3341 27.4275 22.3352 30.6063C22.3363 33.8108 22.3481 33.9093 22.7535 34.1203C23.1128 34.3073 23.4867 34.257 24.3813 33.9016C26.6986 32.9812 28.5883 31.7322 30.3687 29.9446C33.1278 27.1742 34.7375 23.9033 35.3484 19.8265C35.4741 18.9871 35.4772 16.1095 35.3532 15.2867C34.7321 11.1642 33.1017 7.86566 30.3057 5.07458C26.5864 1.36168 21.4293 -0.452604 16.155 0.0963903ZM6.70556 25.0311C6.70556 25.1624 6.85384 25.2957 6.99977 25.2957C7.16851 25.2957 7.23345 25.1686 7.12929 25.0423C7.02272 24.9131 6.70556 24.9047 6.70556 25.0311ZM7.438 25.6271C7.3732 25.797 7.50841 25.9714 7.72518 25.9974C7.87339 26.0153 7.91339 25.9898 7.91339 25.8775C7.91339 25.5869 7.53029 25.3851 7.438 25.6271ZM8.12092 26.4821C7.98287 26.6495 8.17421 26.9683 8.43076 26.9983C8.60306 27.0186 8.62388 26.9978 8.62388 26.8058C8.62388 26.6645 8.56967 26.5524 8.46593 26.4794C8.26892 26.3405 8.23751 26.3408 8.12092 26.4821ZM8.99688 27.4163C8.86466 27.47 8.88953 27.7589 9.03802 27.8941C9.10949 27.9591 9.25337 28.0124 9.35774 28.0124C9.51128 28.0124 9.54751 27.9793 9.54751 27.8389C9.54751 27.7365 9.47071 27.6045 9.3603 27.5172C9.16555 27.363 9.14338 27.3568 8.99688 27.4163ZM10.156 28.2504C9.97653 28.3825 10.1136 28.6282 10.4024 28.6921C10.7833 28.7763 10.9694 28.4787 10.6684 28.2667C10.4751 28.1304 10.3255 28.1256 10.156 28.2504ZM12.9333 28.3576C12.7689 28.5404 12.7865 28.6482 12.9936 28.7275C13.1968 28.8052 13.4936 28.7014 13.559 28.5299C13.665 28.2518 13.1548 28.1114 12.9333 28.3576ZM11.6114 28.4956C11.4144 28.6561 11.4793 28.8462 11.7518 28.9064C12.1753 29.0001 12.4521 28.5876 12.0651 28.4396C11.8206 28.3461 11.7903 28.3498 11.6114 28.4956Z" fill="black"/>
</svg>
