<svg width="1920" height="1280" viewBox="0 0 1920 1280" fill="none" xmlns="http://www.w3.org/2000/svg">
<path d="M1920 0H0V1280H1920V0Z" fill="#DCE4FA"/>
<g style="mix-blend-mode:overlay">
<path fill-rule="evenodd" clip-rule="evenodd" d="M960 640L788.48 0H590.592L960 640Z" fill="black" fill-opacity="0.6"/>
<path fill-rule="evenodd" clip-rule="evenodd" d="M960 0V640L1131.52 0H960Z" fill="black" fill-opacity="0.6"/>
<path fill-rule="evenodd" clip-rule="evenodd" d="M1329.41 0L960 640L1600 0H1329.41Z" fill="black" fill-opacity="0.6"/>
<path fill-rule="evenodd" clip-rule="evenodd" d="M1920 85.76L960 640L1920 382.72V85.76Z" fill="black" fill-opacity="0.6"/>
<path fill-rule="evenodd" clip-rule="evenodd" d="M1920 640H960L1920 897.28V640Z" fill="black" fill-opacity="0.6"/>
<path fill-rule="evenodd" clip-rule="evenodd" d="M1920 1194.24L960 640L1600 1280H1920V1194.24Z" fill="black" fill-opacity="0.6"/>
<path fill-rule="evenodd" clip-rule="evenodd" d="M1329.41 1280L960 640L1131.52 1280H1329.41Z" fill="black" fill-opacity="0.6"/>
<path fill-rule="evenodd" clip-rule="evenodd" d="M960 1280V640L788.48 1280H960Z" fill="black" fill-opacity="0.6"/>
<path fill-rule="evenodd" clip-rule="evenodd" d="M590.592 1280L960 640L320 1280H590.592Z" fill="black" fill-opacity="0.6"/>
<path fill-rule="evenodd" clip-rule="evenodd" d="M0 1194.24L960 640L0 897.28V1194.24Z" fill="black" fill-opacity="0.6"/>
<path fill-rule="evenodd" clip-rule="evenodd" d="M0 640H960L0 382.72V640Z" fill="black" fill-opacity="0.6"/>
<path fill-rule="evenodd" clip-rule="evenodd" d="M0 85.76L960 640L320 0H0V85.76Z" fill="black" fill-opacity="0.6"/>
<path fill-rule="evenodd" clip-rule="evenodd" d="M1085.7 1280L1031.17 1059.84L1041.41 1280H1085.7Z" fill="black" fill-opacity="0.6"/>
</g>
<path d="M1920 0H0V1280H1920V0Z" fill="url(#paint0_radial_203_3942)" fill-opacity="0.6"/>
<path fill-rule="evenodd" clip-rule="evenodd" d="M167.68 982.784C268.8 968.704 376.832 982.272 439.808 1072.38C459.52 1100.8 475.648 1140.74 481.024 1177.86C495.36 1171.2 512.512 1169.41 527.616 1171.97C544 1175.04 558.336 1182.98 568.064 1195.52C571.648 1192.19 575.488 1189.38 579.584 1186.56C610.56 1166.08 652.288 1165.57 686.336 1178.11C730.624 1194.24 763.392 1231.36 763.648 1280H0V886.784C53.248 878.848 120.576 880.896 152.32 931.84C161.024 945.92 166.912 964.864 167.68 982.784Z" fill="black"/>
<path fill-rule="evenodd" clip-rule="evenodd" d="M750.848 1280C750.336 1185.28 611.584 1149.95 565.76 1217.79C550.656 1174.53 490.752 1175.55 470.528 1201.92C470.528 1201.92 466.432 945.408 154.624 997.632C154.624 997.632 171.264 873.472 0 899.584V1280H750.848Z" fill="white"/>
<path fill-rule="evenodd" clip-rule="evenodd" d="M91.136 986.88C91.136 986.88 158.464 978.944 165.888 1051.39C165.888 1051.39 197.632 1014.02 163.072 988.16C128.768 962.304 91.136 986.88 91.136 986.88Z" fill="black"/>
<path fill-rule="evenodd" clip-rule="evenodd" d="M411.904 1209.09C411.904 1209.09 474.88 1184 500.992 1252.1C500.992 1252.1 513.536 1205.25 473.6 1189.12C433.408 1172.99 411.904 1209.09 411.904 1209.09Z" fill="black"/>
<path fill-rule="evenodd" clip-rule="evenodd" d="M357.12 1185.28C357.12 1185.28 425.216 1187.84 413.696 1259.78C458.496 1223.42 418.048 1157.89 357.12 1185.28Z" fill="black"/>
<path fill-rule="evenodd" clip-rule="evenodd" d="M1752.32 982.784C1651.2 968.704 1543.17 982.272 1480.19 1072.38C1460.48 1100.8 1444.35 1140.74 1438.98 1177.86C1424.64 1171.2 1407.49 1169.41 1392.38 1171.97C1376 1175.04 1361.66 1182.98 1351.94 1195.52C1348.35 1192.19 1344.51 1189.38 1340.42 1186.56C1309.44 1166.08 1267.71 1165.57 1233.66 1178.11C1189.38 1194.24 1156.61 1231.36 1156.35 1280H1920V886.784C1866.75 878.848 1799.42 880.896 1767.68 931.84C1758.98 945.92 1753.09 964.864 1752.32 982.784Z" fill="black"/>
<path fill-rule="evenodd" clip-rule="evenodd" d="M1169.15 1280C1169.66 1185.28 1308.42 1149.95 1354.24 1217.79C1369.34 1174.53 1429.25 1175.55 1449.47 1201.92C1449.47 1201.92 1453.57 945.408 1765.38 997.632C1765.38 997.632 1748.74 873.472 1920 899.584V1280H1169.15Z" fill="white"/>
<path fill-rule="evenodd" clip-rule="evenodd" d="M1828.86 986.88C1828.86 986.88 1761.54 978.944 1754.11 1051.39C1754.11 1051.39 1722.37 1014.02 1756.93 988.16C1791.23 962.304 1828.86 986.88 1828.86 986.88Z" fill="black"/>
<path fill-rule="evenodd" clip-rule="evenodd" d="M1508.1 1209.09C1508.1 1209.09 1445.12 1184 1419.01 1252.1C1419.01 1252.1 1406.46 1205.25 1446.4 1189.12C1486.59 1172.99 1508.1 1209.09 1508.1 1209.09Z" fill="black"/>
<path fill-rule="evenodd" clip-rule="evenodd" d="M1562.88 1185.28C1562.88 1185.28 1494.78 1187.84 1506.3 1259.78C1461.5 1223.42 1501.95 1157.89 1562.88 1185.28Z" fill="black"/>
<defs>
<radialGradient id="paint0_radial_203_3942" cx="0" cy="0" r="1" gradientUnits="userSpaceOnUse" gradientTransform="translate(960 640) rotate(14.8779) scale(792.571 1188.86)">
<stop stop-color="white"/>
<stop offset="0.541466" stop-color="white" stop-opacity="0.54"/>
<stop offset="1" stop-color="white" stop-opacity="0"/>
</radialGradient>
</defs>
</svg>
