<svg width="178" height="74" viewBox="0 0 178 74" fill="none" xmlns="http://www.w3.org/2000/svg">
<path fill-rule="evenodd" clip-rule="evenodd" d="M147.131 65.1859C144.839 63.4448 143.015 62.2841 141.144 60.3616C142.407 60.9057 154.943 69.3573 160.977 70.8444C158.732 67.9789 152.838 60.9783 151.996 57.9676L157.983 65.1859C171.174 64.0615 169.256 55.1021 168.835 43.1321C168.789 41.3548 168.695 39.5049 168.508 37.5461C168.087 32.613 162.895 31.271 156.72 31.3072C127.205 31.416 41.1949 32.4147 11.4453 32.6686C-1.51165 32.8137 1.43488 41.7415 2.22156 54.7394C2.08123 64.4604 6.15074 64.3879 19.2013 64.533C27.2467 64.6055 145.494 65.9114 147.131 65.1859Z" fill="white"/>
<path fill-rule="evenodd" clip-rule="evenodd" d="M146.617 64.823C144.979 65.5485 26.3124 64.6054 18.2669 64.5328C1.85796 64.3152 2.17592 62.6829 2.12914 40.5203C2.12914 31.7423 10.923 33.0844 21.167 32.9393C47.8761 32.5766 127.454 33.4472 154.023 32.9393C168.477 32.6492 166.663 38.6457 167.037 51.051C167.084 53.1548 167.551 56.2627 167.037 58.0038C165.867 62.03 162.474 63.098 156.814 63.8597L151.996 58.0038C152.838 60.9781 158.732 68.015 160.977 70.8806C154.896 69.3934 142.407 60.9418 141.144 60.3978C143.062 62.3565 144.231 63.0457 146.617 64.823ZM154.943 30.0013C144.512 29.965 10.1278 30.7214 6.9003 31.592C0.361123 33.3557 0.361123 36.4941 0.361123 39.5772C0.0336906 43.6761 -0.917795 58.5692 2.68396 61.725C8.57774 66.8757 11.117 66.5282 21.7039 66.5282C26.2879 66.4194 115.37 65.9837 117.428 66.0926C119.954 66.2014 146.897 65.7298 146.944 65.7298C147.973 65.6573 155.878 70.0826 156.814 70.6266L165.561 74C165.28 73.1657 159.386 66.6729 158.591 65.8024C161.912 64.5328 169.49 66.2014 169.911 55.4647C170.051 51.9099 170.098 38.0538 169.49 36.4941C166.964 29.7111 160.041 30.2189 154.943 30.0013Z" fill="#221F1F"/>
<path fill-rule="evenodd" clip-rule="evenodd" d="M30.8882 32.1356C33.1822 30.5821 35.008 29.5464 36.8806 27.8311C35.6166 28.3166 23.07 35.8574 17.0308 37.1844C19.2779 34.6276 25.1767 28.3813 26.0194 25.6951L20.027 32.1356C6.82505 31.1323 8.74448 23.1383 9.16582 12.4582C9.21263 10.8723 9.30626 9.22174 9.49352 7.47407C9.91486 3.07254 15.1114 1.87507 21.291 1.90743C50.8315 2.00453 133.724 2.91072 163.499 3.13727C176.467 3.26673 174.126 11.2283 174.313 22.8147C174.454 31.4883 170.381 31.4236 157.319 31.553C149.267 31.6177 32.5268 32.7829 30.8882 32.1356Z" fill="white"/>
<path fill-rule="evenodd" clip-rule="evenodd" d="M31.4032 31.8119C33.0417 32.4592 148.841 31.6177 156.894 31.553C176.322 31.3588 172.998 29.9024 173.045 10.1279C173.045 2.29575 164.244 3.49323 153.991 3.36377C127.259 3.04013 47.8354 2.36048 21.2442 1.90738C6.77827 1.64847 9.49353 8.70386 9.11901 19.7724C9.0722 21.6495 9.07219 24.5299 9.58716 26.0834C10.7575 29.6758 14.3624 31.4882 20.027 32.1679L26.0194 25.7274C25.1768 28.3813 19.278 34.6599 17.0308 37.2167C23.1168 35.8898 35.6166 28.3489 36.8806 27.8634C34.9612 29.6111 33.7908 30.226 31.4032 31.8119ZM23.07 0.74227C33.5099 0.709905 165.039 -0.519928 168.27 0.256812C174.496 1.7132 177.445 4.56125 177.82 9.28641C178.148 12.9436 178.429 27.9282 174.824 30.7439C168.925 35.3396 160.592 33.9479 149.871 33.7861C145.283 33.689 62.676 32.8475 60.6162 32.9446C58.0881 33.0417 31.1223 32.621 31.0755 32.621C30.0456 32.5562 22.1337 36.5047 21.1974 36.9901L12.4429 40C12.7238 39.2556 18.6226 33.4624 19.4184 32.6857C16.0945 31.553 8.51041 33.0417 8.08907 23.4619C7.94862 20.2902 7.90181 7.92711 8.51041 6.53545C11.0384 0.483355 17.9672 0.936455 23.07 0.74227Z" fill="#221F1F"/>
</svg>
