<svg width="80" height="1909" viewBox="10 40 80 1909" fill="none" xmlns="http://www.w3.org/2000/svg">
<path d="M50.0176 720.677C30.0176 720.677 13.7676 737.552 14.3926 757.552C15.0176 777.552 31.2676 793.177 51.2676 793.177C71.2676 793.177 86.8925 776.302 86.8925 756.302C86.8925 738.802 72.5176 720.677 50.0176 720.677Z" fill="#05D7E2"/>
<path d="M49.9965 641.927C29.3118 641.927 12.5054 659.379 13.1518 680.064C13.7982 700.749 30.6046 716.909 51.2893 716.909C71.974 716.909 88.1338 699.456 88.1338 678.771C88.1338 660.672 73.2668 641.927 49.9965 641.927Z" fill="#05D7E2"/>
<path d="M49.9701 563.194C28.4235 563.194 10.9169 581.374 11.5902 602.921C12.2635 624.467 29.7702 641.301 51.3168 641.301C72.8633 641.301 89.6964 623.121 89.6964 601.574C89.6964 582.721 74.21 563.194 49.9701 563.194Z" fill="#05D7E2"/>
<path d="M49.9434 484.462C27.535 484.462 9.32807 503.369 10.0283 525.777C10.7286 548.186 28.9355 565.692 51.3439 565.692C73.7524 565.692 91.2588 546.785 91.2588 524.377C91.2588 504.77 75.1529 484.462 49.9434 484.462Z" fill="#05D7E2"/>
<path d="M49.9169 403.856C26.6466 403.856 7.73939 423.49 8.46659 446.761C9.19378 470.031 28.101 488.211 51.3713 488.211C74.6415 488.211 92.8213 468.576 92.8213 445.306C92.8213 424.945 76.0959 403.856 49.9169 403.856Z" fill="#05D7E2"/>
<path d="M49.8904 323.25C25.7583 323.25 6.15083 343.611 6.90496 367.743C7.65909 391.875 27.2665 410.729 51.3987 410.729C75.5308 410.729 94.3839 390.367 94.3839 366.235C94.3839 345.119 77.0391 323.25 49.8904 323.25Z" fill="#05D7E2"/>
<path d="M49.8638 242.644C24.8697 242.644 4.56203 263.733 5.34309 288.727C6.12415 313.721 26.4319 333.247 51.4259 333.247C76.4199 333.247 95.9463 312.159 95.9463 287.165C95.9463 265.295 77.982 242.644 49.8638 242.644Z" fill="#05D7E2"/>
<path d="M49.8372 162.038C23.9813 162.038 2.97335 183.853 3.78134 209.709C4.58934 235.565 25.5973 255.765 51.4532 255.765C77.3091 255.765 97.5088 233.949 97.5088 208.093C97.5088 185.47 78.925 162.038 49.8372 162.038Z" fill="#05D7E2"/>
<path d="M49.8108 81.4321C23.093 81.4321 1.38479 103.975 2.21972 130.693C3.05465 157.411 24.7629 178.284 51.4806 178.284C78.1984 178.284 99.0714 155.741 99.0714 129.023C99.0714 105.645 79.8682 81.4321 49.8108 81.4321Z" fill="#05D7E2"/>
<path d="M49.7841 0.825684C22.2045 0.825684 -0.204016 24.096 0.657846 51.6756C1.51971 79.2551 23.9282 100.802 51.5078 100.802C79.0874 100.802 100.634 77.5314 100.634 49.9519C100.634 25.8197 80.8111 0.825684 49.7841 0.825684Z" fill="#05D7E2"/>
<path d="M50.3211 798.177C30.9461 798.177 15.3212 813.802 15.3212 833.177C15.3212 852.552 30.9461 868.177 50.3211 868.177C69.6961 868.177 85.3213 853.177 85.9463 833.802C85.9463 813.802 70.3211 798.177 50.3211 798.177Z" fill="#05D7E2"/>
<path d="M50.3094 876.302C31.5594 876.302 16.5593 891.302 16.5593 910.052C16.5593 928.177 30.9343 944.427 50.9343 944.427C73.4343 944.427 85.3092 925.052 84.6842 909.427C84.0592 890.677 69.0594 876.302 50.3094 876.302Z" fill="#05D7E2"/>
<path d="M50.6334 953.802C33.1334 953.802 18.1335 968.802 17.5085 986.302C17.5085 1004.43 32.5084 1019.43 50.6334 1019.43C68.7584 1019.43 83.7587 1003.8 83.7587 985.677C83.1337 968.177 68.1334 953.177 50.6334 953.802Z" fill="#05D7E2"/>
<path d="M50.0186 1094.43C67.5186 1094.43 81.8939 1080.05 81.8939 1062.55C81.8939 1045.68 67.5187 1031.3 50.6437 1031.3C33.1437 1031.3 18.7686 1045.68 19.3937 1063.18C18.7686 1080.68 32.5186 1094.43 50.0186 1094.43Z" fill="#05D7E2"/>
<path d="M50.9365 1170.05C67.8115 1170.05 81.5617 1156.3 80.9367 1139.43C80.9367 1122.55 67.1864 1110.05 50.3114 1110.05C33.4364 1110.05 20.3115 1123.8 20.3115 1140.05C20.9365 1156.93 34.0615 1170.05 50.9365 1170.05Z" fill="#05D7E2"/>
<path d="M51.2477 1245.05C67.4977 1245.05 79.9974 1231.93 79.3724 1216.3C79.3724 1200.05 66.2476 1188.18 50.6226 1187.55C34.9976 1187.55 21.8726 1200.68 21.8726 1216.3C22.4976 1232.55 34.9977 1245.05 51.2477 1245.05Z" fill="#05D7E2"/>
<path d="M50.9464 1320.05C65.3214 1319.43 77.8211 1307.55 77.8211 1292.55C77.8211 1278.18 65.3214 1265.68 50.9464 1265.68C35.9463 1265.68 23.4464 1277.55 23.4464 1293.18C23.4464 1308.18 35.9463 1320.68 50.9464 1320.05Z" fill="#05D7E2"/>
<path d="M50.9468 1394.43C64.6968 1394.43 76.5719 1382.55 75.9469 1368.18C75.9469 1354.43 64.6968 1343.18 50.9468 1343.18C36.5718 1343.18 25.3217 1354.43 25.3217 1368.8C24.6967 1383.18 36.5718 1395.05 50.9468 1394.43Z" fill="#05D7E2"/>
<path d="M51.2454 1470.05C64.3704 1469.43 74.9955 1458.8 74.3705 1445.68C73.7455 1432.55 63.1205 1422.55 49.9955 1422.55C36.8705 1422.55 26.8705 1433.18 26.8705 1446.93C26.8705 1459.43 38.1204 1470.05 51.2454 1470.05Z" fill="#05D7E2"/>
<path d="M50.3359 1543.8C62.2109 1543.8 72.2109 1534.43 72.2109 1521.93C72.2109 1510.05 62.2109 1500.05 50.3359 1500.05C38.4609 1500.05 29.0859 1510.05 29.0859 1521.3C28.4609 1534.43 37.8359 1543.8 50.3359 1543.8Z" fill="#05D7E2"/>
<path d="M50.6494 1618.18C61.2744 1618.18 70.0244 1610.05 70.0244 1599.43C70.0244 1588.8 61.2745 1579.43 50.0245 1579.43C39.3995 1579.43 30.6495 1588.18 31.2745 1598.8C31.2745 1610.05 40.0244 1618.18 50.6494 1618.18Z" fill="#05D7E2"/>
<path d="M50.9463 1692.55C60.3213 1692.55 67.8213 1684.43 67.8213 1675.05C67.8213 1665.68 60.3213 1658.18 50.9463 1658.18C41.5713 1658.18 34.0713 1665.68 33.4463 1675.05C33.4463 1684.43 41.5713 1692.55 50.9463 1692.55Z" fill="#05D7E2"/>
<path d="M64.6963 1751.93C64.6963 1744.43 58.4463 1738.18 50.9463 1738.18C43.4463 1738.18 37.1963 1743.8 36.5713 1751.93C36.5713 1760.05 42.1963 1766.3 50.9463 1766.3C59.0713 1765.68 64.6963 1759.43 64.6963 1751.93Z" fill="#05D7E2"/>
<path d="M60.634 1828.18C60.634 1822.55 55.634 1818.18 50.009 1818.8C44.384 1818.8 40.634 1823.8 40.634 1829.43C40.634 1835.05 45.0091 1838.8 50.6341 1838.8C56.2591 1838.18 60.634 1833.8 60.634 1828.18Z" fill="#05D7E2"/>
<path d="M50.9462 1900.68C48.4462 1900.68 46.5712 1902.55 46.5712 1904.43C46.5712 1906.93 48.4462 1908.8 50.3212 1908.8C52.8212 1908.8 54.6962 1906.93 54.6962 1904.43C54.6962 1902.55 53.4462 1901.3 50.9462 1900.68Z" fill="#05D7E2"/>
</svg>
