<svg width="209" height="262" viewBox="0 0 209 262" fill="none" xmlns="http://www.w3.org/2000/svg">
<path d="M194.692 237.142C178.991 209.143 173.803 181.143 181.995 168.987C184.589 165.163 187.592 162.978 191.006 162.295C196.194 161.339 200.836 164.48 200.836 164.617L206.434 168.578L204.113 162.158C200.426 151.368 192.781 121.73 202.611 113.808L208.208 109.301L201.109 109.984C188.821 111.077 175.032 107.935 173.393 100.969C172.984 99.3305 173.257 97.8281 173.939 96.7354C175.578 94.1404 179.537 93.3209 179.537 93.3209L186.227 91.9551L179.947 89.2234C179.81 89.2234 167.659 83.7601 164.519 72.2872C162.061 63.5459 165.884 55.7608 166.021 55.6242L169.434 48.7951L162.88 52.756C152.504 59.0388 146.77 60.6777 143.63 58.0827C141.309 56.1705 140.763 49.3414 140.899 46.3366L141.309 37.7319L136.94 45.1074C132.434 52.756 122.195 57.6729 117.416 57.5364C110.726 57.3998 104.309 51.7999 101.578 43.8781L99.2575 37.049L97.346 44.561C95.2981 52.756 91.7483 66.5508 77.4126 67.2337C67.3094 67.78 37.9554 45.6537 27.5791 37.049L11.7416 24.0737L24.4389 40.1904C24.7119 40.6002 52.2911 75.7018 41.9148 94.2769C31.402 112.989 8.0553 114.355 7.91876 114.355L3.05176e-05 114.764L6.96304 118.452C12.6973 121.457 17.749 126.647 20.4796 132.11C21.7083 134.569 22.3909 137.164 22.664 139.622C23.3467 146.724 19.9334 153.417 12.4242 159.427L3.41328 166.665L14.4722 163.114C27.4426 159.017 44.3723 158.334 52.9737 169.124C61.4386 179.641 45.8742 202.996 45.7376 203.27L41.5051 209.552L48.4682 206.547C48.6048 206.547 62.8039 200.265 71.6784 203.952C74.5455 205.182 76.4569 207.23 77.6856 210.235C82.6007 223.074 84.2392 247.112 84.2392 247.385L85.1948 262L88.4715 247.795C91.8848 233.181 98.3017 217.337 102.534 217.064C107.449 216.791 115.231 228.401 119.054 236.869L124.789 249.434L123.15 235.776C122.331 228.947 121.512 210.099 127.792 205.728C133.117 202.04 139.943 201.494 147.862 204.499C160.013 208.869 174.622 220.889 191.279 240.147L205.341 256.4L194.692 237.142Z" fill="#1A1A1A"/>
<path d="M7.91876 116.267C21.0257 123.232 35.3613 143.31 13.653 160.792C26.8965 156.558 45.055 155.602 54.6121 167.485C64.1692 179.504 47.5125 204.226 47.5125 204.226C47.5125 204.226 73.3167 192.753 79.5971 209.142C84.6487 222.391 86.2871 246.839 86.2871 246.839C86.2871 246.839 93.6597 215.016 102.261 214.469C110.862 213.923 120.829 235.503 120.829 235.503C120.829 235.503 117.689 209.416 126.29 203.406C134.892 197.396 154.279 193.709 192.644 238.234C177.762 211.738 170.663 181.689 180.083 167.758C189.504 153.827 201.928 162.841 201.928 162.841C201.928 162.841 187.865 122.686 201.109 112.033C187.456 113.262 172.984 109.711 171.072 101.379C169.161 93.0477 178.854 90.9989 178.854 90.9989C178.854 90.9989 165.611 85.2625 162.198 72.5603C159.467 62.7264 163.836 54.3949 163.836 54.3949C151.958 61.6338 145.951 62.7264 141.991 59.585C138.032 56.3071 138.442 46.0634 138.442 46.0634C133.663 54.1218 122.877 59.7216 117.006 59.585C109.088 59.3119 102.125 53.0291 99.1209 44.561C96.9364 53.1657 93.2501 68.5995 77.003 69.419C63.7596 70.1019 25.6677 38.688 25.6677 38.688C25.6677 38.688 54.6121 75.0188 43.4166 95.233C32.4942 115.174 7.91876 116.267 7.91876 116.267Z" fill="#F26120"/>
<path d="M33.0402 118.862C43.0069 124.052 54.0658 138.803 37.9552 151.232C47.9219 148.364 61.575 147.818 68.9476 156.559C76.3202 165.3 64.0325 183.056 64.0325 183.056C64.0325 183.056 83.4198 174.997 88.3349 187.017C92.2943 196.577 93.7961 214.47 93.7961 214.47C93.7961 214.47 98.9842 191.524 105.538 191.114C112.091 190.841 119.873 206.548 119.873 206.548C119.873 206.548 117.143 187.7 123.696 183.329C130.113 179.095 144.858 176.636 174.349 209.279C162.88 190.021 157.01 168.032 163.973 158.198C170.936 148.227 180.493 154.92 180.493 154.92C180.493 154.92 169.434 125.691 179.264 118.179C168.888 118.862 157.965 116.13 156.327 110.121C154.689 104.111 162.061 102.745 162.061 102.745C162.061 102.745 151.958 98.5114 149.227 89.2238C147.043 82.1215 150.183 76.1119 150.183 76.1119C141.309 81.1654 136.803 81.9849 133.799 79.5264C130.796 77.2046 130.932 69.6925 130.932 69.6925C127.382 75.429 119.327 79.3898 114.958 79.2533C108.951 78.9801 103.626 74.3363 101.305 68.0536C99.8034 74.1998 97.2094 85.3995 84.9216 85.8092C74.8184 86.0824 45.7375 63 45.7375 63C45.7375 63 68.1284 89.6335 59.8001 104.111C51.7448 118.452 33.0402 118.862 33.0402 118.862Z" fill="#FFCE22"/>
<path d="M204.659 110.668L201.245 110.941C188.548 112.034 174.212 109.029 172.301 100.97C171.891 99.0582 172.028 97.2827 172.984 95.7803C174.895 92.7755 179.264 91.8194 179.264 91.8194L182.541 91.1365L179.537 89.7707C179.401 89.7707 166.703 84.1708 163.427 72.015C160.832 62.7274 164.928 54.669 164.928 54.669L166.567 51.3911L163.427 53.3032C152.368 59.9957 146.497 61.4982 142.81 58.4934C139.943 56.1715 139.534 48.5228 139.67 45.7912L139.807 41.6937L137.622 45.2449C132.844 53.4398 122.331 58.3568 117.143 58.2202C109.907 57.947 103.08 52.2106 100.213 43.879L99.1208 40.6011L98.1651 44.4254C95.9806 53.03 92.2943 67.2346 77.1395 68.0541C64.4422 68.737 26.8963 37.8694 26.4867 37.5963L18.8411 31.3135L24.9849 39.0987C25.258 39.5084 53.3832 75.1564 42.5974 94.4144C31.8115 113.809 7.91864 115.038 7.64558 115.038L3.82275 115.175L7.23601 116.95C12.5607 119.819 18.1584 124.872 21.1621 131.018C22.3909 133.477 23.2101 136.209 23.4831 138.94C24.1658 146.452 20.6159 153.418 12.8337 159.701L8.46481 163.252L13.7894 161.613C27.1694 157.379 44.5088 156.832 53.5198 168.032C62.5307 179.232 46.4201 203.27 46.2836 203.544L44.2356 206.548L47.5124 205.046C47.6489 205.046 62.2577 198.627 71.6783 202.451C74.8185 203.68 77.0029 206.002 78.2317 209.28C83.1468 222.255 84.7852 246.43 84.9217 246.704L85.3313 253.669L86.9697 246.84C89.7002 234.821 96.2537 215.563 101.988 215.153C108.541 214.743 116.87 229.767 119.6 235.64L122.331 241.65L121.512 235.094C121.512 234.821 118.508 209.69 126.563 203.953C132.298 199.992 139.397 199.446 147.726 202.588C160.15 207.095 174.895 219.251 191.688 238.645L198.378 246.43L193.327 237.416C177.489 209.007 172.301 180.598 180.766 168.032C183.496 163.935 186.773 161.613 190.459 160.93C196.194 159.974 201.109 163.388 201.109 163.388L203.839 165.301L202.747 162.159C202.611 161.749 189.094 122.55 201.655 112.58L204.659 110.668ZM171.072 103.702C174.622 110.804 186.773 113.809 198.788 113.263C190.05 124.462 197.696 152.052 200.426 160.657C198.242 159.564 194.555 158.471 190.596 159.154C186.364 159.974 182.541 162.569 179.537 167.213C174.895 174.042 173.939 184.832 176.533 198.49C178.581 208.597 182.541 220.07 188.002 231.133C154.825 195.075 135.984 195.485 125.881 202.588C119.191 207.231 119.054 222.255 119.464 230.314C118.508 228.538 117.143 226.353 115.777 224.167C110.862 216.792 106.22 213.104 102.261 213.377C98.1651 213.651 94.2057 219.251 90.1098 230.45C88.7445 234.138 87.6522 237.826 86.8331 240.694C86.0139 232.499 84.1025 218.021 80.5527 208.734C79.0509 204.909 76.4568 202.178 72.7705 200.675C65.1248 197.534 55.0215 200.402 49.9699 202.041C54.0658 195.212 63.4864 176.91 55.4311 166.803C50.9256 161.067 44.2357 157.789 35.6343 156.969C30.173 156.423 23.8927 156.969 17.7488 158.471C23.6196 152.462 26.4867 145.769 25.8041 138.94C24.9849 129.653 18.1584 121.594 11.1954 116.95C13.7895 116.541 17.6123 115.858 21.9812 114.219C29.0808 111.624 38.638 106.297 44.6453 95.6437C49.4239 87.039 47.922 74.61 40.0033 58.9031C37.1361 53.1666 33.8594 47.9765 31.2653 44.1522C42.5973 53.0301 66.8997 70.7857 77.4125 70.376C92.5674 69.6931 97.3459 56.5812 99.6669 47.8399C99.6669 47.9765 99.8034 48.1131 99.8034 48.1131C103.49 55.4885 110.18 60.4055 117.279 60.6786C123.014 60.8152 132.298 56.1714 137.759 49.3423C138.032 52.8935 138.715 58.0836 141.582 60.4055C145.678 63.82 151.548 62.864 161.925 56.8544C160.832 60.2689 159.604 66.142 161.379 72.8345C164.109 82.805 172.301 88.4048 176.397 90.7267C174.759 91.4096 172.574 92.6389 171.209 94.8242C169.98 96.7363 169.707 99.0583 170.253 101.517C170.526 102.336 170.663 103.019 171.072 103.702Z" fill="#1A1A1A"/>
<path d="M72.361 131.837C72.7706 131.154 73.3167 130.471 73.7263 129.789L76.1838 125.964L76.7299 115.721L77.0029 111.487L77.5491 111.077C78.6413 110.257 79.597 109.574 80.9623 108.755C82.0546 108.072 83.2833 107.389 84.5121 106.706C85.7409 106.023 86.9697 105.477 88.1984 104.931C89.0176 104.521 89.9733 104.248 90.929 103.975C90.929 103.292 90.929 102.609 90.929 101.926V100.833C90.929 100.15 90.7925 99.3308 90.7925 98.5113C90.7925 97.8284 90.7925 97.1455 90.929 96.5991C90.929 96.0528 91.2021 95.3699 91.3386 94.687C91.6117 93.7309 92.0213 92.7748 92.2943 91.8187L92.4309 91.5456C93.7962 87.4481 95.4346 83.2141 96.9364 79.1166C98.8478 74.3362 100.486 70.3753 102.125 66.8242C102.398 66.2779 102.534 65.8682 102.807 65.3218C103.08 64.6389 103.353 63.8194 103.763 63.1365L104.172 62.317L104.309 62.4536C104.582 61.9073 104.855 61.3609 105.128 60.8146C105.265 60.5414 105.401 60.2683 105.674 59.9951C106.084 59.3122 106.493 58.6293 106.903 57.9464L107.859 56.5805C108.132 56.1708 108.268 55.7611 108.405 55.4879C108.541 55.3513 108.541 55.0782 108.541 54.9416C108.541 54.6684 108.678 54.5318 108.678 54.2587L108.951 52.7563C109.088 51.6636 109.224 50.5709 109.361 49.4783C109.634 47.4296 109.907 45.2442 110.043 42.9223C110.316 40.737 110.453 38.5517 110.589 36.3664L110.999 29.8105C110.999 28.7178 111.135 27.6251 111.135 26.5325C111.135 25.8495 111.136 25.1666 111.272 24.4837V23.2545C111.272 22.5716 111.272 21.7521 111.272 21.0692V19.4302C111.272 19.0205 111.272 18.7473 111.272 18.3376C111.272 17.7912 111.272 17.2449 111.272 16.6986V16.4254C111.272 15.4693 111.272 14.3767 111.272 13.4206L111.135 10.9621L110.862 6.86464C110.726 5.6354 110.726 4.54275 110.589 3.31351V3.04035L110.726 2.90376C110.862 2.76718 110.999 2.63061 111.272 2.35744C111.409 2.22086 111.682 2.08427 111.955 1.94769C112.228 1.81111 112.501 1.53793 112.774 1.40135C113.32 1.12819 114.003 0.855034 114.685 0.581869C116.051 0.172123 117.416 -0.101054 118.918 0.035528C120.283 0.035528 121.648 0.445283 123.014 0.855029C124.379 1.40136 125.608 1.94768 126.836 2.76717L126.973 2.90376C128.475 4.81591 129.704 7.13782 131.069 9.86946C131.615 11.0987 132.161 12.3279 132.707 13.5572C133.117 14.7864 133.663 16.0157 134.073 17.3815C135.711 22.7082 136.257 28.308 135.574 33.6347C135.438 34.864 135.165 36.2298 134.892 37.7322L134.755 38.1419C134.755 38.4151 134.619 38.5517 134.619 38.8249L134.346 39.7809C134.209 40.1907 134.073 40.737 133.936 41.1468L133.8 41.6931L134.482 48.7954C135.028 53.5758 135.574 58.2195 136.121 62.9999C138.305 62.8633 140.353 62.7267 142.674 62.7267C145.541 62.5901 148.135 62.5902 150.729 62.5902C153.733 62.5902 156.464 62.7267 158.785 62.8633C161.379 62.9999 164.109 63.2731 166.84 63.8194C167.522 63.956 168.205 64.0926 168.888 64.5023C169.57 64.9121 170.116 65.4584 170.526 66.0047C170.663 66.1413 170.663 66.2779 170.799 66.5511V66.6876C170.936 66.8242 171.072 66.9608 171.209 67.0974L172.574 68.19C173.393 68.7363 174.349 69.5558 175.305 70.3753C175.851 70.7851 176.26 71.1948 176.533 71.7412C176.943 72.1509 177.353 72.6973 177.626 73.3802C177.762 73.7899 177.899 74.1996 177.899 74.6094C177.899 75.0191 177.899 75.2923 177.762 75.5655C177.626 76.1118 177.626 76.6581 177.353 77.341C177.08 78.4337 176.807 79.5263 176.397 80.619C175.987 81.7117 175.578 82.8043 175.168 83.897C174.759 84.853 174.349 85.6725 174.076 86.6286C174.349 87.9944 174.485 89.3603 174.622 90.8627C174.759 92.6382 174.895 94.1406 174.895 95.643C174.895 97.5552 174.759 99.0576 174.622 100.56C174.485 101.516 174.212 102.336 174.076 103.018C173.939 103.565 173.666 104.111 173.393 104.657C174.212 106.023 174.759 107.389 175.441 109.028V109.165C175.714 109.984 176.124 110.94 176.26 112.033C176.26 112.169 176.26 112.306 176.26 112.579V112.716C176.26 112.852 176.26 112.989 176.26 113.126C176.26 113.399 176.124 113.672 176.124 113.945C175.987 114.218 175.987 114.628 175.851 114.901L175.714 115.311C175.168 117.086 174.622 118.999 173.803 120.774C173.12 122.55 172.438 124.052 171.345 125.418L171.482 125.555C171.755 125.828 171.891 126.237 172.164 126.511L172.847 127.603C172.984 127.74 172.984 127.876 173.12 128.013L173.257 128.286C173.393 128.559 173.53 128.696 173.53 129.106C173.666 129.379 173.803 129.652 173.803 129.925C174.485 131.837 174.759 134.023 174.895 136.345C174.895 136.891 174.895 137.437 174.895 137.847V138.53C174.895 138.666 174.895 138.803 174.759 138.94C174.622 139.486 174.349 139.759 174.076 140.169C173.666 140.715 173.257 140.988 172.711 141.398C172.301 141.671 171.891 141.944 171.345 142.354C169.434 143.447 167.522 144.266 165.611 144.949C161.652 146.588 157.692 147.817 154.006 148.91C152.095 149.456 150.183 150.003 148.135 150.549C146.36 151.095 144.449 151.505 142.81 151.915L139.261 156.968L140.353 174.314L139.67 174.861C137.349 176.636 134.892 178.412 132.025 180.324C129.431 182.1 126.836 183.739 124.106 185.378C121.785 186.743 119.191 188.109 115.914 189.885C113.32 191.251 110.453 192.48 107.313 193.846L106.767 194.119L104.036 192.07C103.626 191.797 103.217 191.524 102.807 191.114L101.169 189.748L99.5304 188.382C99.1208 188.109 98.8478 187.699 98.4382 187.426C97.7555 186.88 97.0729 186.197 96.3902 185.514L94.8884 184.012C94.4788 183.739 94.2058 183.329 93.9327 183.056C93.7962 182.919 93.5231 182.646 93.3866 182.509L91.8848 181.007C91.6117 180.734 91.2021 180.324 90.929 180.051L89.0177 177.866C88.7446 177.456 88.4715 177.183 88.0619 176.773L87.5158 176.227C87.1062 175.68 86.5601 175.134 86.1505 174.588C85.8774 174.178 85.6044 173.905 85.3313 173.495L84.5121 172.402C83.8294 171.446 83.0103 170.49 82.3276 169.397L81.9181 168.851C81.2354 167.895 80.5527 166.939 80.0066 165.846C79.7336 165.437 79.597 165.163 79.324 164.754C78.7778 163.934 78.2318 163.115 77.8222 162.295C76.3203 159.837 74.955 157.242 73.7263 154.783L72.907 152.871C72.7705 152.598 72.7706 152.461 72.634 152.188C72.4975 151.778 72.2244 151.369 72.0879 150.822C71.9514 150.412 71.6783 149.866 71.5417 149.456C71.1321 148.637 70.8591 147.681 70.5861 146.861L70.313 146.178C69.9034 145.086 69.6304 143.993 69.2208 142.9L67.992 138.257L72.361 131.837Z" fill="#1A1A1A"/>
<path d="M176.397 145.495L175.032 146.451C174.622 146.725 174.076 146.998 173.666 147.271L173.53 147.407C171.618 148.5 169.434 149.456 167.249 150.139C165.065 150.822 162.744 151.368 160.559 151.641C159.604 151.778 158.648 151.778 157.692 151.915C156.19 151.915 154.962 151.915 153.596 151.778L151.002 151.368L153.46 150.685C154.689 150.276 155.917 150.002 157.146 149.593C158.102 149.32 158.921 149.046 159.74 148.91C161.652 148.364 163.7 147.681 165.884 146.998C167.932 146.315 169.98 145.495 172.028 144.812L172.711 144.539C172.984 144.403 173.257 144.266 173.53 144.129C174.076 143.993 174.486 143.72 175.032 143.583C176.124 143.173 177.08 142.764 178.035 142.354L180.22 141.261L178.581 143.173C178.172 144.129 177.216 144.812 176.397 145.495Z" fill="#1A1A1A"/>
<path d="M159.604 153.008C161.515 153.008 163.427 152.735 165.338 152.598C167.113 152.325 169.161 152.052 171.072 151.505C172.438 151.232 173.803 150.822 175.305 150.413L180.083 149.047L177.216 150.959C175.578 152.052 173.803 153.008 171.618 153.691C169.707 154.374 167.659 154.92 165.611 155.193C164.655 155.33 163.7 155.466 162.744 155.466C161.652 155.466 160.56 155.466 159.331 155.33C157.146 155.193 155.098 154.647 153.323 153.964L150.047 152.735L153.596 152.871C155.917 153.144 157.829 153.144 159.604 153.008Z" fill="#1A1A1A"/>
<path d="M93.6597 75.5643C92.977 77.8862 92.2944 80.3447 91.7483 83.3495C91.2022 86.0811 90.656 88.6762 90.2464 91.2713C89.8368 93.7297 89.5638 96.3248 89.1542 99.3296L88.6081 104.11L88.062 99.3296C87.7889 96.8711 87.6524 94.1395 87.9254 90.9981C88.0619 88.1298 88.4716 85.3982 89.0177 82.8031C89.5638 79.9349 90.383 77.2033 91.3387 74.7448C92.5674 71.6034 93.9327 69.2815 95.4346 67.3694L98.5748 63.6816L96.3903 67.9157C95.4346 70.101 94.6154 72.4229 93.6597 75.5643Z" fill="#1A1A1A"/>
<path d="M87.2427 77.2046C86.8331 79.3899 86.5601 81.7118 86.2871 84.58C86.014 87.1751 86.0139 89.6336 85.8774 91.9555C85.8774 94.5506 85.8775 97.009 86.014 99.4675L86.2871 103.838L84.9218 99.6041C84.2391 97.4187 83.8295 94.9603 83.5565 91.9555C83.4199 89.3604 83.4199 86.7654 83.5565 84.3069C83.8295 81.5752 84.2391 79.1168 84.7852 76.6583V76.5217C84.9217 75.9754 85.0583 75.4291 85.3313 74.8827L86.014 73.1071C86.5601 71.8779 87.1062 70.7852 87.9254 69.6926L90.5195 66.0049L88.8811 70.1023C88.1984 72.5608 87.6523 75.0193 87.2427 77.2046Z" fill="#1A1A1A"/>
<path d="M111.955 3.58633C118.781 -1.87696 126.427 3.85949 126.427 3.85949C129.431 8.09353 138.442 24.8931 132.298 41.6927C132.161 42.2391 134.892 64.9117 134.892 64.9117C134.892 64.9117 156.464 63.2727 166.976 65.1849C169.161 65.3215 169.98 67.097 170.117 67.5068C170.253 67.7799 176.397 71.7408 177.08 74.1993C177.762 76.6578 172.847 86.6283 172.847 86.6283C172.847 86.6283 175.032 100.15 171.891 105.067C174.895 109.847 175.441 111.759 175.578 112.989C175.578 114.081 172.711 122.549 169.98 125.418C173.803 129.652 173.803 134.295 173.53 138.666C173.257 143.037 141.991 150.822 141.991 150.822L137.759 156.695L138.715 173.768C138.715 173.768 123.15 186.333 106.903 192.889C91.7482 181.963 75.0916 161.066 69.2208 138.529L77.276 126.374L78.3682 112.442C78.3682 112.442 85.7409 106.842 92.4309 105.203C92.4309 100.286 91.8848 97.9646 92.5674 95.7793C93.1135 93.7306 102.398 66.2775 108.678 57.946C109.361 56.9899 109.907 55.8973 110.043 54.668C111.409 47.7024 115.095 22.5712 111.955 3.58633Z" fill="#FFC68D"/>
<path d="M114.958 163.114C107.995 162.841 94.0694 150.822 85.6045 135.115C77.1396 119.408 92.8406 110.53 92.8406 110.53L92.704 105.34C92.704 105.34 80.6894 109.847 78.6414 112.579L77.5492 126.51L69.4939 138.666C69.4939 138.666 77.8223 171.992 107.176 193.026C107.176 193.026 135.984 178.138 139.124 173.494L137.213 155.056C137.076 155.056 119.601 163.251 114.958 163.114Z" fill="#04A6B7"/>
<path d="M111.545 3.44942C111.682 3.31283 111.818 3.17627 112.091 3.03969C112.228 2.9031 112.501 2.76652 112.637 2.62994C112.91 2.49335 113.184 2.22018 113.457 2.08359C114.003 1.81043 114.685 1.53728 115.368 1.26411C116.597 0.854368 118.099 0.717773 119.327 0.717773C120.693 0.717773 122.058 1.12753 123.287 1.53727C124.516 1.94702 125.744 2.62994 126.837 3.31285V3.44942C128.475 5.63473 129.704 7.95663 130.932 10.2785C131.479 11.5078 132.025 12.737 132.571 13.9663C133.117 15.1955 133.527 16.4247 133.936 17.7905C135.438 22.9807 136.121 28.444 135.438 33.7707C135.301 35.1365 135.028 36.5023 134.755 37.7315C134.619 38.0047 134.619 38.4145 134.482 38.6876L134.209 39.6437C134.073 40.3266 133.8 40.8729 133.527 41.5558L133.39 41.829C133.39 41.829 133.39 41.829 133.39 41.6924V41.5558V41.6924C133.39 41.6924 133.39 41.829 133.39 41.9656V42.2387L133.527 43.1948L133.663 45.107L134.073 49.0678C134.619 54.258 135.165 59.4481 135.848 64.7748L134.755 63.8187C137.486 63.6822 140.08 63.5455 142.811 63.409C145.541 63.2724 148.135 63.2724 150.866 63.2724C153.596 63.2724 156.191 63.409 158.921 63.5456C161.652 63.6821 164.246 63.9553 166.976 64.5016C167.659 64.5016 168.205 64.7748 168.888 65.048C169.434 65.3211 169.98 65.8675 170.253 66.4138C170.39 66.5504 170.39 66.6869 170.526 66.8235C170.526 66.9601 170.663 66.9601 170.663 67.0967V67.2333C170.663 67.2333 170.663 67.2333 170.663 67.0967C170.799 67.2333 171.072 67.3699 171.345 67.643L172.711 68.7357C173.666 69.4186 174.486 70.1015 175.305 70.921C175.714 71.3307 176.124 71.7405 176.534 72.1503C176.943 72.56 177.353 73.1063 177.489 73.6526C177.626 73.9258 177.762 74.3356 177.762 74.6087C177.762 74.8819 177.762 75.2916 177.762 75.5648C177.626 76.1111 177.489 76.794 177.353 77.3404C177.08 78.433 176.67 79.5257 176.397 80.6183C175.987 81.711 175.578 82.8036 175.168 83.8963C174.759 84.9889 174.349 85.945 173.803 87.0377L173.939 86.3548C174.212 87.9938 174.349 89.4962 174.486 91.1352C174.622 92.7741 174.759 94.2766 174.759 95.9155C174.759 97.5545 174.622 99.0569 174.486 100.696C174.349 101.515 174.212 102.335 173.939 103.154C173.666 103.974 173.393 104.793 172.847 105.476V104.384C173.803 106.023 174.622 107.798 175.305 109.574C175.578 110.53 175.987 111.349 176.124 112.442C176.124 112.579 176.124 112.715 176.124 112.852C176.124 112.988 176.124 113.125 176.124 113.261C176.124 113.535 175.987 113.808 175.987 113.944C175.851 114.354 175.714 114.9 175.578 115.31C175.032 117.086 174.486 118.998 173.803 120.773C173.12 122.549 172.301 124.325 170.936 125.964V124.598L171.072 124.734C171.072 124.734 171.072 124.871 171.072 125.008C171.072 125.144 170.936 125.417 171.072 125.554C171.209 125.827 171.345 125.964 171.482 126.237C171.755 126.646 172.028 127.056 172.301 127.603L172.711 128.285C172.847 128.559 172.984 128.695 173.12 128.968C173.257 129.242 173.393 129.378 173.393 129.651C173.53 129.924 173.53 130.198 173.666 130.334C174.349 132.383 174.622 134.432 174.622 136.48C174.622 137.027 174.622 137.573 174.622 137.983V138.393V138.529C174.622 138.529 174.622 138.529 174.622 138.666C174.622 138.802 174.622 138.939 174.622 139.076C174.486 139.485 174.349 139.758 174.076 140.032C173.666 140.578 173.257 140.851 172.711 141.261C172.301 141.534 171.755 141.807 171.345 142.08C169.571 143.173 167.659 143.856 165.748 144.675C161.925 146.178 158.102 147.407 154.279 148.636C152.368 149.183 150.456 149.729 148.408 150.275C146.497 150.822 144.449 151.231 142.537 151.778L143.084 151.368L138.851 157.241L138.988 156.558L139.943 173.631V174.177L139.534 174.45C137.076 176.362 134.482 178.138 131.888 179.914C129.294 181.689 126.7 183.328 123.969 184.967C121.239 186.606 118.508 188.108 115.778 189.474C113.047 190.977 110.18 192.206 107.313 193.435L107.04 193.572L106.767 193.435L105.128 192.206C104.582 191.796 104.036 191.386 103.49 190.977L101.852 189.611L101.032 188.928L100.213 188.245C99.1209 187.289 98.0287 186.333 97.073 185.377L95.5712 183.874C95.025 183.328 94.6154 182.918 94.0693 182.372L92.5675 180.87C92.0214 180.323 91.6118 179.777 91.2022 179.367L89.8369 177.865C89.4273 177.318 88.8812 176.772 88.4716 176.226C88.062 175.679 87.5159 175.133 87.1063 174.587C86.6967 174.041 86.2871 173.494 85.741 172.948C84.9218 171.855 83.9661 170.763 83.2835 169.533C82.4643 168.441 81.6451 167.211 80.9624 165.982C80.2798 164.753 79.4606 163.66 78.778 162.431C77.2761 159.973 76.0473 157.514 74.8186 154.919L73.9994 153.007C73.7264 152.324 73.4533 151.778 73.1802 151.095C72.6341 149.729 72.088 148.5 71.6784 147.134C71.2688 145.768 70.7227 144.402 70.3131 143.036L69.2209 138.939L69.0843 138.666L69.2209 138.393L71.2688 135.388L73.3168 132.383C73.9994 131.427 74.6821 130.334 75.3647 129.378L77.4127 126.373L77.2761 126.647L77.5492 123.095L77.6857 119.544L77.8223 115.993L78.0953 112.442V112.032L78.5049 111.759C79.5971 110.94 80.6894 110.257 81.9182 109.437C83.0104 108.754 84.2391 108.071 85.4679 107.388C86.6967 106.706 87.9255 106.159 89.1542 105.613C90.383 105.067 91.7483 104.657 93.1136 104.247L92.2944 105.203C92.2944 104.11 92.2944 103.018 92.1579 101.925C92.1579 100.832 92.0213 99.7398 92.0213 98.6472C92.0213 98.1009 92.0214 97.4179 92.1579 96.8716C92.2944 96.3253 92.431 95.6424 92.5675 95.096C92.9771 94.0034 93.2501 93.0473 93.6597 91.9547C95.1615 87.7206 96.6634 83.6231 98.1652 79.5257C99.8036 75.4282 101.442 71.3308 103.353 67.2333C103.763 66.2772 104.309 65.1845 104.855 64.2285C105.401 63.2724 105.811 62.1798 106.357 61.2237C106.903 60.2676 107.449 59.3115 108.132 58.3554L109.088 56.9896C109.361 56.5799 109.634 56.1701 109.77 55.7604C109.907 55.4872 109.907 55.3507 109.907 55.0775C109.907 54.8043 110.043 54.6677 110.043 54.3946L110.316 52.7556C110.453 51.6629 110.589 50.5703 110.726 49.4776C110.999 47.2923 111.272 45.107 111.409 42.9216C111.682 40.7363 111.818 38.551 111.955 36.3657L112.228 33.0878L112.501 29.8098C112.501 28.7171 112.637 27.6244 112.637 26.5318C112.637 25.4391 112.774 24.3465 112.774 23.2538C112.774 22.1612 112.774 21.0685 112.774 19.9759C112.774 19.4295 112.774 18.8832 112.774 18.3369C112.774 17.7906 112.774 17.2442 112.774 16.6979C112.774 15.6052 112.774 14.5126 112.774 13.4199V11.7809V10.9614V10.142L112.637 8.50297V7.68347V7.27372V6.86397C111.682 5.77131 111.545 4.54207 111.545 3.44942ZM112.501 3.85917C112.637 4.95182 112.91 5.90789 113.047 6.86397C113.047 7.13713 113.184 7.41031 113.184 7.68347L113.32 8.50297L113.457 10.142L113.593 10.9614V11.7809L113.73 13.4199C113.866 14.5126 113.866 15.6052 113.866 16.6979C114.003 21.0685 114.003 25.5757 113.866 29.9463C113.73 34.317 113.32 38.8242 112.911 43.1948C112.637 45.3801 112.501 47.5654 112.091 49.7508C111.955 50.8434 111.818 51.9361 111.682 53.0288L111.409 54.6677C111.409 54.9409 111.272 55.2141 111.272 55.6238C111.136 55.897 111.136 56.1701 110.999 56.5799C110.726 57.1262 110.453 57.6725 110.18 58.2189L109.634 58.9018L109.224 59.5847C108.542 60.4042 108.132 61.3602 107.586 62.3163C107.04 63.2724 106.63 64.2285 106.084 65.1846C105.674 66.1406 105.128 67.0967 104.719 68.1893C102.944 72.1502 101.305 76.2477 99.6671 80.3452C98.0287 84.4426 96.6634 88.5401 95.1616 92.6376C94.752 93.7302 94.4789 94.6863 94.0693 95.7789C93.9328 96.3253 93.7963 96.735 93.7963 97.1448C93.7963 97.5545 93.6597 98.1009 93.6597 98.6472C93.6597 99.7398 93.7963 100.832 93.7963 101.925C93.7963 103.018 93.9328 104.11 93.9328 105.203V106.023L93.1136 106.296C91.8849 106.569 90.6561 106.979 89.5638 107.525C88.335 108.071 87.2428 108.618 86.0141 109.164C84.9218 109.71 83.693 110.393 82.6008 111.076C81.5086 111.759 80.4163 112.442 79.3241 113.261L79.7336 112.579L79.4606 116.13L79.051 119.544L78.6414 122.959L78.2318 126.51V126.647L78.0953 126.783L76.0474 129.788C75.3647 130.744 74.6821 131.837 73.9994 132.793L71.9515 135.798L70.04 138.939L70.1765 138.393L71.4053 142.353C71.8149 143.719 72.361 144.949 72.9071 146.314C73.4532 147.544 73.9994 148.909 74.5455 150.139C74.8186 150.822 75.0917 151.368 75.3647 152.051L76.3204 153.963C77.5491 156.421 78.9145 158.88 80.2798 161.338C80.9624 162.568 81.7816 163.66 82.4642 164.89C83.1469 166.119 83.9661 167.211 84.7853 168.304C85.6044 169.533 86.4236 170.626 87.2428 171.719C87.6524 172.265 88.062 172.811 88.4716 173.358C88.8812 173.904 89.2908 174.45 89.7004 174.997C90.11 175.543 90.5196 176.089 91.0657 176.636L92.431 178.275C92.8406 178.821 93.3867 179.367 93.7963 179.914L95.1616 181.416C95.5712 181.962 96.1173 182.509 96.5269 182.918L98.0287 184.421C98.9844 185.377 100.077 186.333 101.032 187.289L101.852 187.972L102.671 188.655L104.309 190.021C104.855 190.43 105.401 190.84 105.947 191.25L107.586 192.479H107.04C109.907 191.25 112.637 190.021 115.368 188.518C118.099 187.016 120.693 185.513 123.287 183.874C125.881 182.235 128.475 180.46 130.932 178.684C133.39 176.909 135.984 174.997 138.305 173.084L137.896 173.904L136.803 156.831V156.421L137.076 156.148L141.309 150.275L141.582 150.002L141.991 149.865L147.726 148.226C149.637 147.68 151.548 147.134 153.46 146.588C157.283 145.495 161.106 144.266 164.928 142.9C166.84 142.217 168.615 141.397 170.39 140.578C170.799 140.305 171.209 140.168 171.618 139.895C172.028 139.622 172.301 139.349 172.574 139.076C172.711 138.939 172.711 138.802 172.711 138.802V138.666V138.256C172.711 137.71 172.847 137.3 172.847 136.754C172.847 135.798 172.847 134.841 172.847 133.885C172.847 132.929 172.711 131.973 172.438 131.017C172.438 130.744 172.301 130.607 172.301 130.334C172.165 130.061 172.165 129.924 172.028 129.651C171.892 129.242 171.618 128.832 171.345 128.285C171.072 127.876 170.799 127.466 170.526 127.056C170.39 126.92 170.253 126.647 170.117 126.51C169.98 126.373 169.844 126.51 169.571 126.51C169.434 126.51 169.434 126.51 169.297 126.51L169.161 126.373L168.478 125.69L169.161 125.008C169.707 124.461 170.253 123.642 170.663 122.959C171.072 122.139 171.618 121.456 172.028 120.637C172.438 119.817 172.847 118.998 173.257 118.178C173.393 117.769 173.666 117.359 173.803 116.949C173.939 116.539 174.213 116.13 174.349 115.72C174.486 115.31 174.622 114.9 174.759 114.354C174.759 114.081 174.895 113.944 174.895 113.671C174.895 113.535 174.895 113.535 174.895 113.398C174.895 113.261 174.895 113.261 174.895 113.125C174.759 112.305 174.349 111.486 173.939 110.666C172.984 109.027 171.892 107.662 170.936 106.023L170.526 105.476L170.936 104.93C171.618 103.837 171.891 102.335 172.165 100.969C172.301 99.4667 172.438 97.9643 172.438 96.4619C172.438 94.9595 172.438 93.4571 172.301 91.8181C172.165 90.3157 172.028 88.8132 171.755 87.3108V86.9011L171.891 86.6279C172.438 85.6719 172.847 84.5792 173.393 83.6231C173.939 82.6671 174.349 81.5744 174.895 80.6183C175.305 79.6622 175.714 78.5696 176.124 77.477C176.26 76.9306 176.397 76.3843 176.534 75.9745C176.534 75.7014 176.533 75.4282 176.67 75.2916C176.67 75.0185 176.67 74.8819 176.534 74.6087C176.397 74.199 175.987 73.7892 175.714 73.3795C175.305 72.9697 175.032 72.56 174.622 72.2868C173.803 71.6039 172.984 70.7844 172.028 70.2381L170.663 69.282C170.39 69.1454 170.253 69.0089 169.98 68.7357C169.98 68.7357 169.98 68.7357 169.844 68.5991C169.844 68.5991 169.844 68.4625 169.707 68.4625V68.3259V68.1893C169.707 68.0528 169.571 67.9162 169.571 67.9162C169.024 67.0967 168.205 66.5504 167.249 66.5504C164.655 66.1406 161.925 65.8675 159.331 65.8675C156.737 65.7309 154.006 65.7309 151.275 65.8675C148.545 65.8675 145.951 66.004 143.22 66.1406C140.49 66.2772 137.896 66.4138 135.165 66.687L134.209 66.8235L134.073 65.8675C133.527 60.6773 132.844 55.4872 132.298 50.1605L131.888 46.1996L131.752 44.2875L131.615 43.3314C131.615 43.1948 131.615 43.0583 131.615 42.7851V42.6485C131.615 42.5119 131.615 42.5119 131.615 42.3753V42.2387V42.1022L131.752 41.829C132.571 39.3705 133.253 36.912 133.527 34.317C134.073 29.2634 133.663 23.9367 132.298 19.0198C131.615 16.5613 130.796 14.1028 129.704 11.6443C128.611 9.32245 127.519 6.86397 126.017 4.81524L126.154 4.95183C125.198 4.26892 123.969 3.72259 122.877 3.31285C121.648 2.9031 120.556 2.62993 119.191 2.49335C117.962 2.35676 116.733 2.62993 115.505 2.9031C114.958 3.03968 114.412 3.31284 113.866 3.58601C113.593 3.72259 113.32 3.85917 113.047 3.99576C112.91 4.13234 112.774 4.13233 112.774 4.13233C112.637 3.72258 112.637 3.85917 112.501 3.85917Z" fill="#1A1A1A"/>
<path d="M134.209 38.1418C132.707 38.9613 131.069 39.5077 129.567 39.7808C127.929 40.1906 126.29 40.3271 124.788 40.3271C123.15 40.3271 121.512 40.1906 120.01 39.9174C118.508 39.6443 116.87 39.0979 115.641 38.1418C117.006 38.8247 118.645 39.0979 120.147 39.2345C121.648 39.3711 123.287 39.2345 124.788 39.0979C126.29 38.8248 127.792 38.5516 129.294 38.0053C130.659 37.4589 132.025 36.776 133.253 35.9565L134.209 38.1418Z" fill="#1A1A1A"/>
<path d="M113.73 40.4634C114.685 40.8731 115.778 41.1463 116.87 41.2829C117.962 41.4195 118.918 41.556 120.01 41.6926C121.102 41.6926 122.058 41.8292 123.15 41.8292C124.242 41.8292 125.335 41.8292 126.427 41.6926C125.471 42.2389 124.379 42.5121 123.287 42.6487C122.194 42.7853 121.102 42.9219 120.01 42.7853C118.918 42.6487 117.826 42.5121 116.733 42.1024C115.505 41.8292 114.412 41.2829 113.73 40.4634Z" fill="#1A1A1A"/>
<path d="M132.161 40.6011C126.973 45.1083 120.829 45.9278 118.508 45.9278C123.833 46.3375 128.065 47.9765 132.571 46.3375L132.161 40.6011Z" fill="#1A1A1A"/>
<path d="M134.892 66.1406C133.936 66.2772 132.98 66.4138 132.025 66.4138C131.069 66.5504 130.113 66.5504 129.158 66.687L123.287 67.0967H122.741L122.468 66.8235L122.331 66.687L122.194 66.5504C122.058 66.4138 121.921 66.4138 121.785 66.2772C121.512 66.1406 121.102 66.004 120.829 65.8675C120.147 65.5943 119.464 65.3211 118.781 65.048C118.099 64.7748 117.416 64.6382 116.597 64.365C116.187 64.2285 115.914 64.2284 115.504 64.0919C115.095 63.9553 114.822 63.9553 114.412 63.8187C114.822 63.8187 115.231 63.6821 115.504 63.6821C115.914 63.6821 116.324 63.6821 116.597 63.6821C117.006 63.6821 117.416 63.6821 117.689 63.6821C118.099 63.6821 118.508 63.6821 118.918 63.8187C119.737 63.9553 120.42 63.9553 121.239 64.2284C121.648 64.365 122.058 64.5016 122.331 64.6382C122.468 64.6382 122.741 64.7748 122.877 64.9114C123.014 64.9114 123.014 65.048 123.15 65.048C123.287 65.048 123.287 65.1845 123.423 65.1845L122.604 65.048C123.56 64.9114 124.516 64.6382 125.608 64.5016C126.563 64.365 127.519 64.2284 128.611 64.0919C129.567 63.9553 130.523 63.9553 131.615 63.8187C132.571 63.8187 133.663 63.8187 134.619 63.8187L134.892 66.1406Z" fill="#1A1A1A"/>
<path d="M122.058 82.8047C124.106 83.8973 125.881 84.99 127.792 85.9461C128.065 86.0826 128.202 86.2192 128.475 86.2192L129.157 86.4924C129.567 86.629 129.977 86.9021 130.523 87.3119C130.932 87.585 131.479 87.8582 132.025 87.8582C132.571 87.8582 133.117 87.8582 133.526 87.8582C134.073 87.8582 134.619 87.7217 135.165 87.7217C135.711 87.7217 136.257 87.5851 136.803 87.5851L140.08 87.3119C142.264 87.1753 144.449 86.9021 146.633 86.7656C151.002 86.3558 155.371 86.2192 159.74 85.9461C164.109 85.8095 168.478 85.6729 172.984 85.8095L172.847 88.1314C168.615 87.8582 164.246 87.8582 159.877 87.8582C155.508 87.8582 151.139 87.9948 146.77 88.1314C144.585 88.1314 142.401 88.268 140.216 88.4046C138.032 88.5411 135.847 88.6777 133.663 88.9509C133.39 88.9509 133.117 88.9509 132.844 89.0875C132.571 89.0875 132.298 89.0875 132.025 89.0875C131.752 89.0875 131.478 89.0875 131.205 89.0875C131.069 89.0875 130.932 89.0875 130.796 89.0875H130.386C129.704 89.0875 129.158 89.0875 128.611 88.8143C128.065 88.5411 127.519 88.268 127.11 87.9948C124.789 86.4924 123.15 84.7168 122.058 82.8047Z" fill="#1A1A1A"/>
<path d="M163.154 85.3993C163.973 85.3993 164.792 85.2627 165.611 84.8529C166.43 84.5798 167.249 84.17 167.932 83.6237C168.615 83.0774 169.297 82.3945 169.98 81.7116C170.526 81.0287 171.209 80.2091 171.618 79.3896C171.345 80.3457 170.936 81.1652 170.526 81.9847C170.117 82.8042 169.434 83.6237 168.888 84.4432C168.205 85.2627 167.386 85.809 166.567 86.4919C165.748 87.0383 164.655 87.448 163.563 87.7212L163.154 85.3993Z" fill="#1A1A1A"/>
<path d="M169.57 67.6435L168.478 66.1411C168.751 67.7801 169.161 71.3313 169.161 73.2434C169.024 75.1556 168.888 76.9311 168.615 78.8433C169.297 77.0677 169.844 75.2921 170.253 73.38C170.526 72.4239 170.663 71.4678 170.799 70.5118C170.936 69.9654 170.936 69.4191 171.072 68.8728C170.39 68.5996 169.844 68.1899 169.57 67.6435Z" fill="#1A1A1A"/>
<path d="M164.109 66.0049C163.7 66.1415 163.427 66.4146 163.017 66.5512L162.061 67.0975C161.379 67.5073 160.696 67.917 160.013 68.3268L160.286 67.6438C160.969 68.8731 161.379 69.9657 161.788 71.195C162.198 72.4242 162.471 73.6534 162.607 75.0193C162.88 76.2485 163.017 77.6144 163.017 78.8436C163.153 80.0728 163.154 81.4386 163.154 82.6679C162.88 81.4386 162.607 80.2094 162.334 78.9802C162.061 77.7509 161.788 76.5217 161.379 75.2925C161.106 74.0632 160.696 72.834 160.286 71.7413C159.877 70.5121 159.604 69.2828 159.194 68.1902L159.058 67.6438L159.467 67.5073C160.286 67.2341 160.969 66.9609 161.788 66.8243L162.88 66.4146C163.29 66.1414 163.7 66.0049 164.109 66.0049Z" fill="#1A1A1A"/>
<path d="M165.202 66.8237C165.884 67.9164 166.157 69.1456 166.43 70.5115C166.703 71.7407 166.703 72.9699 166.703 74.3357C166.703 75.565 166.567 76.7943 166.43 78.1601C166.294 79.3893 166.021 80.6185 165.611 81.8478C165.475 80.6185 165.475 79.3893 165.475 78.0235C165.475 76.7942 165.475 75.565 165.475 74.3357C165.475 73.1065 165.475 71.8773 165.475 70.6481C165.475 69.2822 165.475 68.1896 165.202 66.8237Z" fill="#1A1A1A"/>
<path d="M120.283 73.2437C119.464 73.1071 118.781 72.9705 117.962 72.8339L115.777 72.2876C115.095 72.151 114.276 72.0144 113.593 71.8778C113.183 71.8778 112.91 71.7412 112.501 71.7412C112.364 71.7412 112.091 71.7412 111.955 71.7412C111.818 71.7412 111.682 71.7412 111.545 71.7412L112.091 71.4681C111.545 72.0144 110.862 72.6973 110.316 73.3802C109.77 74.0632 109.224 74.7461 108.678 75.429C107.586 76.7948 106.63 78.2972 105.947 79.7996V78.9801C106.493 80.0728 107.313 81.1654 108.132 82.1215C109.088 83.0776 110.043 83.8971 111.135 84.7165C112.228 85.536 113.456 86.219 114.685 86.7653C115.914 87.3116 117.143 87.8579 118.645 88.1311C117.962 88.1311 117.279 88.1311 116.597 87.9945C116.187 87.9945 115.914 87.858 115.504 87.858L114.412 87.5848C113.047 87.175 111.682 86.6287 110.453 85.9458C109.224 85.2629 107.995 84.4434 106.903 83.3507C105.811 82.3947 104.855 81.1654 104.172 79.7996L104.036 79.3899L104.172 78.9801C104.582 78.024 104.992 77.2045 105.538 76.385C106.084 75.5655 106.63 74.8826 107.176 74.0632C107.722 73.3802 108.405 72.6973 109.087 72.0144C109.77 71.3315 110.453 70.7852 111.135 70.1023L111.408 69.8291H111.682C111.955 69.8291 112.228 69.8291 112.364 69.8291C112.637 69.8291 112.774 69.9657 113.047 69.9657C113.456 70.1023 113.866 70.2388 114.139 70.2388C114.822 70.512 115.641 70.7852 116.324 71.0583C117.006 71.3315 117.689 71.6047 118.508 72.0144C118.918 72.5608 119.6 72.9705 120.283 73.2437Z" fill="#1A1A1A"/>
<path d="M124.789 97.8281C123.287 97.0086 121.648 96.3257 120.01 95.7794C118.372 95.233 116.733 94.6867 115.095 94.1404H115.504L113.183 95.916C112.364 96.4623 111.682 97.1452 110.863 97.8281C110.18 98.511 109.361 99.0573 108.678 99.7402C107.995 100.423 107.313 101.106 106.903 101.789L107.04 100.969C107.449 101.789 107.859 102.608 108.405 103.291C108.951 104.111 109.634 104.794 110.316 105.477C110.999 106.16 111.682 106.843 112.364 107.525C113.047 108.208 113.866 108.891 114.549 109.438H114.003C114.412 109.028 114.822 108.755 115.368 108.345C115.778 108.072 116.324 107.662 116.733 107.389C117.143 107.116 117.689 106.843 118.099 106.569C118.645 106.296 119.054 106.023 119.6 105.75C119.191 106.16 118.781 106.569 118.372 106.979C117.962 107.389 117.552 107.799 117.143 108.072C116.733 108.482 116.324 108.755 115.914 109.164C115.504 109.574 115.095 109.847 114.549 110.12L114.276 110.257L114.003 110.12C113.047 109.574 112.228 109.028 111.409 108.481C110.589 107.935 109.77 107.252 109.088 106.569C108.268 105.886 107.586 105.204 106.903 104.384C106.22 103.565 105.674 102.608 105.128 101.652L104.992 101.243L105.265 100.833C105.811 99.8768 106.63 99.0573 107.313 98.3744C107.995 97.6915 108.815 97.0086 109.634 96.3257C110.453 95.7794 111.272 95.0965 112.091 94.5501C112.91 94.0038 113.866 93.4575 114.685 93.0477L114.958 92.9111L115.095 93.0477C116.733 93.7306 118.235 94.4136 119.873 95.233C121.785 96.0525 123.287 96.872 124.789 97.8281Z" fill="#1A1A1A"/>
<path d="M120.01 114.764C119.327 115.447 118.645 116.13 118.099 116.813L116.187 118.862L112.364 123.096V122.549C113.593 124.052 114.958 125.418 116.187 126.783C116.87 127.466 117.552 128.149 118.235 128.696C118.918 129.242 119.6 129.788 120.283 130.198H120.01L120.42 130.061L120.829 129.788L121.785 129.378L123.56 128.559L127.246 126.783L134.482 123.232L127.383 127.33L123.833 129.378L122.058 130.335L121.239 130.881L120.829 131.154L120.556 131.291L120.283 131.427H120.147H120.01C119.464 131.564 118.781 131.427 118.235 131.154C117.689 130.881 117.279 130.608 116.87 130.335C116.46 130.061 116.051 129.652 115.641 129.242C115.232 128.832 114.958 128.559 114.549 128.149C113.866 127.33 113.32 126.647 112.774 125.691C112.228 124.871 111.682 124.052 111.272 123.096L111.136 122.822L111.409 122.549L115.641 118.588L117.689 116.676C118.645 115.993 119.327 115.31 120.01 114.764Z" fill="#1A1A1A"/>
<path d="M93.7962 105.204C93.9327 108.209 94.2058 111.077 94.4789 114.082C94.6154 115.584 94.8884 116.95 95.1615 118.453C95.4346 119.955 95.7076 121.321 96.1171 122.823C96.7998 125.691 97.619 128.56 98.5748 131.428L101.305 139.896C99.9401 137.164 98.7112 134.569 97.4824 131.701C96.2537 128.969 95.1615 126.101 94.3423 123.233C93.5231 120.365 92.8405 117.36 92.4309 114.355C92.0213 111.35 91.7482 108.345 91.6117 105.341L93.7962 105.204Z" fill="#1A1A1A"/>
<path d="M106.493 64.3659C106.22 65.1854 105.947 65.8683 105.674 66.6878L105.265 67.917L104.855 69.1463C104.309 70.7853 103.899 72.4242 103.49 73.9266C102.671 77.2046 101.715 80.4826 100.896 83.7606C100.077 87.0385 99.2573 90.3165 98.4382 93.5945C97.619 96.8724 96.9364 100.15 96.2537 103.565C96.3902 100.15 96.7998 96.7358 97.2094 93.4579C97.619 90.0433 98.1651 86.7654 98.8477 83.3508C99.5304 79.9362 100.077 76.6583 101.032 73.3803C101.169 72.5608 101.442 71.7413 101.715 70.9218C101.988 70.1023 102.125 69.2828 102.398 68.4634L102.807 67.2341L103.217 66.0049C103.49 65.1854 103.899 64.3659 104.309 63.5464L106.493 64.3659Z" fill="#1A1A1A"/>
<path d="M104.172 83.4878C104.036 85.8097 103.763 88.2682 103.353 90.5901C102.944 92.912 102.534 95.2338 102.124 97.5557C101.715 99.8776 101.169 102.2 100.623 104.521C100.077 106.843 99.3939 109.165 98.5747 111.351C98.7113 109.029 98.9843 106.57 99.3939 104.248C99.8035 101.926 100.213 99.6045 100.623 97.2826C101.032 94.9607 101.578 92.6388 102.124 90.3169C102.807 88.1316 103.353 85.8097 104.172 83.4878Z" fill="#1A1A1A"/>
<path d="M124.379 104.384C126.017 105.613 127.656 106.979 129.431 107.662C129.704 107.799 129.84 107.799 130.113 107.935C130.386 107.935 130.523 108.072 130.796 108.072C131.205 108.209 131.615 108.209 132.161 108.345C132.298 108.345 132.434 108.482 132.434 108.482L132.844 108.618C133.117 108.755 133.39 108.755 133.527 108.891C134.073 109.028 134.482 109.028 135.028 108.891C135.574 108.755 135.984 108.755 136.53 108.618L138.032 108.345L141.036 107.935L147.18 107.116L159.467 105.477L171.755 103.838L172.028 106.16C167.932 106.433 163.836 106.843 159.74 107.252C155.644 107.662 151.548 108.072 147.453 108.345C143.357 108.755 139.261 109.165 135.165 109.574C134.619 109.574 134.073 109.711 133.527 109.847C133.253 109.847 132.98 109.984 132.707 110.121C132.434 110.257 132.161 110.257 131.888 110.257C131.342 110.257 130.796 110.121 130.25 109.984C129.977 109.848 129.704 109.711 129.431 109.711C129.158 109.574 128.884 109.438 128.748 109.301C127.792 108.755 126.973 107.935 126.29 107.116C125.471 106.16 124.925 105.34 124.379 104.384Z" fill="#1A1A1A"/>
<path d="M165.611 104.931C165.884 104.658 166.294 104.385 166.567 103.838C166.84 103.428 167.113 102.882 167.249 102.336C167.659 101.243 167.932 100.15 168.205 99.0578C168.478 97.9652 168.615 96.7359 168.751 95.5067C168.888 94.2774 169.024 93.1848 169.024 91.9556C169.161 93.1848 169.297 94.2774 169.297 95.5067C169.297 96.7359 169.297 97.9652 169.297 99.1944C169.161 100.424 169.161 101.653 168.888 102.882C168.751 103.565 168.615 104.111 168.342 104.794C168.069 105.477 167.796 106.024 167.113 106.706L165.611 104.931Z" fill="#1A1A1A"/>
<path d="M165.065 87.1746C164.519 87.9941 164.109 89.0867 163.973 90.316C163.836 91.5452 163.836 92.7745 163.836 94.0037C163.973 95.2329 164.109 96.4621 164.246 97.6914C164.519 98.9206 164.792 100.15 165.201 101.379C164.519 100.286 164.109 99.0572 163.563 97.828C163.154 96.5987 162.744 95.3695 162.471 94.1402C162.198 92.911 162.061 91.5452 162.061 90.1794C162.061 88.8135 162.198 87.4477 163.017 85.9453L165.065 87.1746Z" fill="#1A1A1A"/>
<path d="M169.024 106.024C168.342 107.253 167.795 108.482 167.249 109.711C166.703 110.941 166.294 112.306 166.021 113.672C165.747 115.038 165.611 116.404 165.747 117.77C165.884 119.135 166.157 120.501 166.976 121.867C166.567 121.321 166.157 120.638 165.884 119.955C165.748 119.682 165.611 119.272 165.474 118.999C165.338 118.589 165.338 118.316 165.201 117.906C164.928 116.404 164.792 115.038 164.928 113.536C165.065 112.033 165.338 110.531 165.747 109.165C166.294 107.799 166.84 106.433 167.795 105.204L169.024 106.024Z" fill="#1A1A1A"/>
<path d="M169.707 109.848C170.116 111.077 170.39 112.443 170.663 113.672C170.936 114.901 171.072 116.267 171.209 117.633C171.345 118.999 171.482 120.228 171.482 121.594C171.482 122.277 171.482 122.96 171.345 123.642C171.209 124.325 171.072 125.008 170.936 125.828L170.663 126.511H169.843L164.792 126.784C163.017 126.92 161.379 126.92 159.604 127.057C157.965 127.194 156.19 127.467 154.552 127.74C153.733 127.877 152.914 128.013 152.094 128.15L150.866 128.423L149.637 128.696C146.36 129.516 143.083 130.608 139.67 131.564C138.851 131.837 138.032 131.974 137.076 132.247C136.257 132.52 135.438 132.793 134.482 132.93C133.526 133.067 132.571 132.93 131.752 132.657C130.796 132.384 130.113 131.701 129.567 131.018C130.523 131.291 131.205 131.428 132.025 131.564C132.844 131.701 133.526 131.564 134.346 131.701C135.165 131.701 135.984 131.701 136.803 131.564C137.622 131.428 138.441 131.155 139.261 130.881C140.899 130.335 142.537 129.789 144.176 129.106C145.814 128.559 147.452 127.877 149.091 127.467C150.729 126.92 152.504 126.511 154.142 126.101C155.917 125.691 157.556 125.418 159.331 125.145C161.106 124.872 162.744 124.599 164.519 124.462C166.294 124.325 168.068 124.189 169.843 124.325L168.751 125.008C169.161 124.052 169.434 122.686 169.57 121.457C169.707 120.228 169.843 118.862 169.843 117.633C169.843 116.404 169.843 115.038 169.843 113.809C169.843 112.443 169.707 111.077 169.707 109.848Z" fill="#1A1A1A"/>
<path d="M165.338 124.325C166.021 124.598 166.567 125.008 167.113 125.418C167.522 125.828 167.932 126.374 168.205 126.92C168.751 128.013 169.161 128.969 169.297 130.062C169.57 131.154 169.707 132.247 169.707 133.203C169.844 134.296 169.844 135.388 169.707 136.344C169.57 135.252 169.297 134.296 169.161 133.203C168.888 132.247 168.615 131.154 168.205 130.335C167.796 129.379 167.249 128.559 166.703 127.74C166.157 127.057 165.338 126.511 164.655 126.374L165.338 124.325Z" fill="#1A1A1A"/>
<path d="M120.693 137.983C119.873 138.939 119.191 139.895 118.372 140.851C117.962 141.397 117.689 141.807 117.416 142.354C117.279 142.627 117.143 142.9 117.006 143.173C116.87 143.446 116.733 143.719 116.733 143.993L116.597 143.719C117.962 145.085 119.327 146.314 120.829 147.544C121.512 148.09 122.331 148.636 123.014 149.183C123.423 149.456 123.833 149.592 124.106 149.866C124.515 150.002 124.925 150.139 125.198 150.139L124.516 150.275L127.11 148.636C127.929 148.09 128.884 147.407 129.704 146.861C130.113 146.588 130.523 146.178 130.932 145.905C131.342 145.632 131.752 145.222 132.161 144.949C132.98 144.266 133.8 143.583 134.619 142.9C134.073 143.856 133.526 144.675 132.844 145.632C132.161 146.451 131.479 147.27 130.659 148.09C129.84 148.909 129.157 149.592 128.202 150.275C127.383 150.958 126.427 151.641 125.471 152.051L125.198 152.187H124.925C124.242 152.051 123.696 151.778 123.287 151.505C122.877 151.231 122.468 150.958 122.058 150.548C121.239 149.866 120.556 149.183 119.873 148.5C118.508 147.134 117.279 145.632 116.051 144.129L115.914 143.993V143.856C116.051 143.446 116.187 143.173 116.324 142.9C116.46 142.627 116.733 142.354 116.87 142.08C117.279 141.534 117.689 141.124 118.099 140.715C118.918 139.622 119.873 138.802 120.693 137.983Z" fill="#1A1A1A"/>
<path d="M132.707 150.686C133.527 149.866 134.482 149.047 135.301 148.227C135.438 147.954 135.711 147.817 135.848 147.544L136.394 146.861C136.803 146.452 137.076 146.042 137.486 145.496C138.169 144.539 138.851 143.583 139.534 142.627C140.217 141.671 140.763 140.715 141.445 139.623C141.309 140.852 140.899 141.944 140.353 143.037C139.807 144.13 139.124 145.222 138.442 146.178C138.032 146.725 137.622 147.135 137.213 147.544C136.94 147.817 136.803 147.954 136.53 148.227L136.257 148.5L135.848 148.774C134.892 149.73 133.8 150.276 132.707 150.686Z" fill="#1A1A1A"/>
<path d="M153.733 151.232C155.917 150.549 157.965 150.002 160.15 149.456C162.198 148.91 164.246 148.227 166.43 147.544C168.478 146.861 170.526 146.178 172.574 145.358C173.12 145.222 173.666 144.949 174.076 144.812C174.622 144.676 175.032 144.402 175.578 144.266C176.533 143.856 177.626 143.446 178.718 143.037C178.035 143.856 177.08 144.676 176.26 145.358L175.578 145.905L174.895 146.315C174.485 146.588 173.939 146.861 173.393 147.134C171.482 148.227 169.297 149.183 167.249 149.866C165.065 150.549 162.88 151.095 160.696 151.368C158.238 151.505 155.917 151.505 153.733 151.232Z" fill="#1A1A1A"/>
<path d="M153.733 153.554C155.781 153.554 157.692 153.691 159.74 153.554C161.652 153.554 163.7 153.281 165.611 153.144C167.522 152.871 169.434 152.461 171.345 152.052C173.257 151.642 175.168 151.096 177.08 150.549C175.441 151.642 173.53 152.598 171.618 153.281C169.707 153.964 167.795 154.51 165.748 154.783C163.7 155.057 161.652 155.057 159.604 154.92C157.692 154.647 155.644 154.237 153.733 153.554Z" fill="#1A1A1A"/>
<path d="M125.062 65.7319C125.062 65.7319 128.338 60.4052 134.346 60.815L135.165 65.049L125.062 65.7319Z" fill="#1A1A1A"/>
<path d="M130.932 63.5461C130.796 62.8632 130.386 62.0437 129.977 61.3607C129.567 60.6778 129.021 59.8584 128.611 59.1755C127.656 57.6731 126.427 56.3072 125.335 54.9414C126.836 56.0341 128.202 57.1267 129.431 58.356C130.113 59.0389 130.796 59.5852 131.342 60.2681C132.025 60.951 132.571 61.6339 133.117 62.59L130.932 63.5461Z" fill="#1A1A1A"/>
<path d="M130.659 64.9128C129.84 64.0933 128.884 63.2738 127.929 62.5909C126.973 61.908 125.881 61.2251 124.789 60.5422C123.696 59.9959 122.467 59.4495 121.375 59.0398C120.146 58.63 118.918 58.3569 117.689 58.3569C118.918 58.2203 120.283 58.3569 121.512 58.4935C122.741 58.7666 124.106 59.0398 125.335 59.5861C126.563 59.9958 127.792 60.5422 128.884 61.0885C130.113 61.6348 131.205 62.3178 132.298 63.2738L130.659 64.9128Z" fill="#1A1A1A"/>
<path d="M94.2059 113.125C93.6598 114.764 93.2501 116.54 92.9771 118.315C92.704 120.091 92.5675 121.867 92.431 123.642C92.1579 127.193 92.1579 130.881 92.2944 134.569C91.7483 131.018 91.3387 127.33 91.2022 123.642C91.0657 121.867 91.0657 119.954 91.2022 118.042C91.3387 116.13 91.4753 114.355 91.8848 112.442L94.2059 113.125Z" fill="#1A1A1A"/>
<path d="M127.383 153.691C129.84 153.144 132.298 152.461 134.619 151.779C137.076 151.096 139.397 150.413 141.718 149.593L142.264 151.915C139.807 152.325 137.349 152.598 134.755 152.871C132.298 153.281 129.84 153.418 127.383 153.691Z" fill="#1A1A1A"/>
<path d="M112.774 149.047C114.276 150.003 115.778 150.96 117.279 151.916C118.781 152.735 120.283 153.555 121.921 154.237C123.56 154.92 125.062 155.603 126.7 156.286C128.338 156.969 129.977 157.652 131.752 158.472C129.84 158.608 128.065 158.472 126.29 158.062C124.515 157.652 122.741 157.106 120.966 156.423C119.327 155.603 117.689 154.647 116.187 153.418C114.822 152.052 113.593 150.686 112.774 149.047Z" fill="#1A1A1A"/>
<path d="M107.722 147.134C108.678 148.364 109.497 149.456 110.453 150.412C111.408 151.505 112.501 152.461 113.456 153.417C114.412 154.373 115.504 155.466 116.597 156.422C117.689 157.378 118.645 158.471 119.737 159.563C118.372 159.017 117.143 158.197 115.914 157.378C114.685 156.558 113.593 155.602 112.501 154.51C111.408 153.417 110.453 152.324 109.634 151.095C108.678 150.002 107.995 148.637 107.722 147.134Z" fill="#1A1A1A"/>
<path d="M117.279 176.636L117.552 187.973C117.552 187.973 136.667 176.909 138.715 173.905L138.032 163.115C138.032 163.115 128.611 174.451 120.556 175.817C127.656 171.446 137.895 160.52 137.895 160.52L137.622 156.832L141.718 151.095L139.397 151.369L127.246 153.69C128.611 154.783 131.479 155.739 133.117 155.329C133.117 155.329 125.198 160.383 114.549 160.52C103.763 160.52 85.7409 138.803 86.014 127.876L87.2427 124.598C87.2427 124.598 87.7888 132.384 89.5637 135.388C88.608 128.969 87.7889 115.721 93.5231 111.213L93.2501 108.345C93.2501 108.345 84.5121 111.35 81.3719 115.721C81.3719 115.721 81.9181 126.511 82.8738 131.974C89.0177 143.583 101.169 160.52 114.003 165.846C114.003 165.846 122.877 166.119 132.844 160.246C128.611 164.48 121.648 167.349 118.372 167.895C118.372 167.895 120.829 169.807 120.966 172.812L117.279 176.636Z" fill="#1A1A1A"/>
<path d="M101.305 131.292C101.988 132.931 102.397 134.707 102.944 136.346C103.217 137.165 103.353 137.985 103.626 138.941L104.172 141.536C104.582 143.311 104.855 144.95 105.128 146.726C105.401 148.501 105.674 150.14 105.811 151.916C105.128 150.277 104.719 148.501 104.172 146.862C103.763 145.223 103.217 143.448 102.944 141.809L102.398 139.214C102.261 138.394 102.124 137.438 101.988 136.619C101.715 134.843 101.442 133.068 101.305 131.292Z" fill="#1A1A1A"/>
<path d="M101.715 173.768C102.944 173.495 104.172 173.085 105.265 172.812C106.493 172.539 107.586 172.129 108.815 171.719L112.364 170.627C113.593 170.217 114.685 169.944 115.914 169.397C114.958 170.354 113.866 170.9 112.774 171.446C111.682 171.993 110.453 172.402 109.224 172.812C107.995 173.222 106.767 173.495 105.538 173.632C104.173 173.905 102.944 174.041 101.715 173.768Z" fill="#1A1A1A"/>
<path d="M106.22 176.636C107.586 175.953 108.814 175.407 110.043 174.724L113.866 172.949L117.689 171.173C118.918 170.627 120.283 169.944 121.648 169.397C120.693 170.627 119.6 171.583 118.508 172.402C117.279 173.222 116.051 174.041 114.822 174.724C113.457 175.407 112.091 175.817 110.726 176.227C109.224 176.636 107.722 176.773 106.22 176.636Z" fill="#1A1A1A"/>
<path d="M108.814 182.236C109.907 181.144 111.135 180.187 112.364 179.231C113.593 178.275 114.822 177.456 116.051 176.5C117.279 175.544 118.508 174.724 119.6 173.768C120.829 172.812 121.921 171.856 123.15 170.9C122.604 172.402 121.648 173.768 120.556 174.861C119.464 176.09 118.372 177.046 117.006 178.002C115.778 178.958 114.412 179.778 113.047 180.461C111.682 181.28 110.316 181.826 108.814 182.236Z" fill="#1A1A1A"/>
<path d="M91.0656 153.691C90.656 153.144 90.2463 152.461 89.8367 151.915C89.4272 151.232 89.0176 150.686 88.7445 150.003C87.2427 147.545 86.0139 144.949 84.7851 142.218C83.5563 139.623 82.4642 136.891 81.5084 134.159C80.4162 131.428 78.9143 127.877 77.9586 125.145L77.1395 125.828C77.1395 126.238 77.0029 126.784 76.7299 127.057C76.5934 127.194 76.5933 127.33 76.4568 127.467C76.5933 127.74 76.5934 128.013 76.7299 128.286L75.9107 128.423C75.7741 129.379 75.2281 130.199 74.6819 131.018C74.6819 131.155 74.8184 131.291 74.8184 131.428L74.2723 131.564C73.9992 131.838 73.5897 132.111 73.3166 132.384C73.3166 132.384 73.1801 132.384 73.1801 132.52C73.1801 132.52 73.1801 132.52 73.1801 132.657C73.1801 132.794 73.0436 132.93 73.0436 132.93C73.0436 133.203 73.1801 133.613 73.3166 133.886C73.4532 134.569 73.7262 135.252 73.8627 135.798C73.9992 136.481 74.2723 137.028 74.5454 137.711C74.8184 138.394 74.9549 138.94 75.228 139.623C76.1837 142.081 77.4125 144.403 78.6413 146.862C79.87 149.183 81.2353 151.505 82.7372 153.691C83.5563 154.783 84.239 155.876 85.1947 156.832C86.0139 157.788 86.9696 158.744 88.0619 159.564C87.2427 158.608 86.56 157.515 85.8773 156.286C85.1947 155.193 84.6486 153.964 84.1025 152.871C83.1468 150.822 82.3276 148.774 81.5084 146.725C82.4642 148.501 83.5563 150.276 84.7851 151.915C85.6043 153.008 86.4235 154.237 87.3792 155.193C88.3349 156.286 89.2906 157.242 90.5194 158.061C88.608 156.013 87.2427 153.691 86.0139 151.232C84.7851 148.774 83.6929 146.315 82.7372 143.72C82.191 142.491 81.7815 141.125 81.3719 139.896C81.2353 139.35 80.9623 138.667 80.8258 138.12C81.645 139.896 82.4641 141.535 83.2833 143.174C83.966 144.54 84.7851 145.769 85.4678 146.998C86.2869 148.227 87.1062 149.457 88.0619 150.686C89.0176 151.915 89.9733 153.008 90.929 154.1C92.0212 155.193 93.1135 156.149 94.3422 156.969C92.8404 156.013 92.0213 154.92 91.0656 153.691Z" fill="#1A1A1A"/>
<path d="M73.7263 142.49L76.0473 146.861L78.2318 151.231C78.9144 152.734 79.7336 154.1 80.4162 155.602C81.0989 157.104 81.7815 158.607 82.4642 160.109C81.2354 158.88 80.2797 157.651 79.324 156.285C78.3683 154.919 77.5491 153.417 76.8665 151.914C76.1838 150.412 75.5011 148.91 74.955 147.271C74.4089 145.768 73.8628 144.129 73.7263 142.49Z" fill="#1A1A1A"/>
<path d="M95.9807 67.7803C94.7519 70.2388 93.7963 72.8338 93.1136 75.4289C92.2944 78.0239 91.7483 80.619 91.2022 83.3506C90.656 85.9457 90.11 88.6773 89.7004 91.409C89.2908 94.1406 89.0176 96.7357 88.6081 99.4673C88.1985 96.7357 88.1985 94.0041 88.4716 91.2724C88.6081 88.5408 89.0177 85.8091 89.5638 83.0775C90.1099 80.3458 90.9291 77.7508 91.8848 75.1557C92.977 72.4241 94.2058 69.829 95.9807 67.7803Z" fill="#1A1A1A"/>
<path d="M88.608 69.9658C87.6523 72.2877 87.1062 74.7462 86.6966 77.2047C86.287 79.6631 86.0139 82.1216 85.7409 84.5801C85.6043 87.0386 85.4678 89.4971 85.3313 91.9556C85.3313 94.414 85.3313 96.8725 85.4678 99.4676C84.6486 97.0091 84.3756 94.5506 84.1025 91.9556C83.966 89.3605 83.966 86.902 84.1025 84.3069C84.3756 81.8485 84.7852 79.2534 85.3313 76.7949C85.4678 76.2486 85.6043 75.5657 85.8774 75.0193L86.1504 74.0633L86.56 73.2438C87.2427 72.0145 87.9253 70.9219 88.608 69.9658Z" fill="#1A1A1A"/>
<path d="M151.685 86.9023C155.781 86.7657 171.618 84.4438 174.895 81.9854L172.984 87.4486L171.345 86.6291L151.685 86.9023Z" fill="#1A1A1A"/>
<path d="M156.6 106.706C157.01 106.706 172.847 101.926 172.847 101.926L172.028 104.521L171.755 105.34L156.6 106.706Z" fill="#1A1A1A"/>
<path d="M126.7 20.9331C126.017 22.1623 124.652 22.2989 123.833 21.4794C121.921 19.2941 123.833 17.3819 121.921 13.9674C120.146 10.6894 117.689 10.6894 116.46 7.82119C115.778 6.31879 116.597 3.99688 118.235 3.58713C120.146 3.17739 121.648 3.45056 122.741 5.08955C123.969 6.72853 124.515 8.23093 125.471 11.7821C126.154 14.2405 126.017 14.6503 126.836 17.7917C127.109 19.0209 126.973 20.2502 126.7 20.9331Z" fill="white"/>
<path d="M137.076 68.0534C144.995 67.5071 151.549 67.9168 151.549 69.0095C151.685 71.3314 145.268 71.468 137.349 72.0143C129.431 72.5606 123.014 73.107 122.877 71.0582C122.741 69.9656 129.158 68.5998 137.076 68.0534Z" fill="white"/>
<path d="M140.08 89.0876C146.633 88.2681 152.094 88.5412 152.094 89.7705C152.368 92.7753 147.043 92.5021 140.626 93.3216C134.073 94.1411 128.748 94.824 128.611 92.6387C128.338 90.1802 133.526 89.9071 140.08 89.0876Z" fill="white"/>
<path d="M141.582 110.531C147.726 109.711 152.641 108.892 152.914 111.077C153.05 113.536 148.272 113.809 142.128 114.628C135.984 115.448 131.069 117.087 130.796 114.082C130.796 112.853 135.574 111.35 141.582 110.531Z" fill="white"/>
<path d="M147.453 130.882C153.05 129.379 157.419 128.15 157.965 130.199C158.648 132.384 154.006 133.34 148.408 134.706C142.811 136.208 138.578 137.984 137.895 135.389C137.622 134.296 141.991 132.247 147.453 130.882Z" fill="white"/>
</svg>
