<svg width="193" height="268" viewBox="0 0 193 268" fill="none" xmlns="http://www.w3.org/2000/svg">
<g filter="url(#filter0_d_672_17197)">
<path d="M76.6453 82.2109C79.5083 85.1541 83.7854 87.1278 88.718 87.7857C93.6505 88.4436 99.2384 87.7857 104.447 85.9159C103.274 84.3231 102.757 82.384 102.067 80.5488C93.3401 83.2497 84.3718 84.0114 76.6453 82.2109Z" fill="#C85E38"/>
<path d="M102.101 73.7622C93.4779 74.6279 84.6821 77.8135 76.7487 82.0032C84.2682 84.0808 93.5469 83.5614 102.17 80.5835C102.515 78.1943 102.619 75.9783 102.101 73.7622Z" fill="#E5CFC1"/>
<path d="M85.4755 89.0683C86.4759 88.7912 87.4762 88.3757 88.4075 87.891C89.2353 87.4408 89.9942 86.8176 90.8565 86.402C91.1669 86.2289 91.6843 86.6098 91.4084 86.9561C90.1666 88.6527 87.6486 89.4491 85.648 89.7608C85.2341 89.7954 85.0271 89.1721 85.4755 89.0683Z" fill="#C85E38"/>
<path d="M73.2994 92.7026C76.1623 95.6458 80.4395 97.6195 85.372 98.2774C90.3046 98.9353 95.8925 98.2774 101.101 96.4076C99.9282 94.8148 99.4108 92.8757 98.7209 91.0405C90.0286 93.7414 81.0259 94.5031 73.2994 92.7026Z" fill="#C85E38"/>
<path d="M98.7553 84.2534C90.132 85.1191 81.3362 88.3047 73.4027 92.4944C80.9223 94.572 90.201 94.0526 98.8243 91.0747C99.1692 88.6856 99.2727 86.4695 98.7553 84.2534Z" fill="#E5CFC1"/>
<path d="M82.1297 99.5585C83.13 99.2815 84.1303 98.866 85.0616 98.3812C85.8895 97.9311 86.6483 97.3078 87.5107 96.8923C87.8211 96.7192 88.3385 97.1 88.0626 97.4463C86.8208 99.143 84.3028 99.9394 82.3022 100.251C81.8883 100.286 81.6813 99.6624 82.1297 99.5585Z" fill="#C85E38"/>
<path d="M72.9546 205.064C65.504 217.252 50.2235 224.074 36.2193 221.407C34.9085 221.165 33.4253 220.68 32.9769 219.399C32.632 218.395 33.1149 217.287 33.9082 216.56C34.7016 215.867 37.3231 214.552 38.2889 214.171C32.8044 217.564 25.1469 216.871 20.3524 212.612C19.8695 212.197 19.3866 211.608 19.49 210.985C19.6625 210.154 20.7663 209.912 21.5941 210.085C22.422 210.258 23.7327 210.708 24.5606 210.466C19.3521 208.111 14.7645 204.441 11.3151 199.87C10.5908 198.935 9.90092 197.723 10.3838 196.65C10.7633 195.715 11.936 195.299 12.9363 195.403C13.9366 195.542 15.3853 195.888 16.2477 196.442C8.9696 189.136 8.41772 176.948 12.6949 167.564C15.5233 161.366 20.3179 155.964 26.4232 152.986C32.5285 150.009 39.979 149.662 46.1188 152.571C52.2586 155.479 56.8807 163.236 57.1222 170.057C56.4323 166.802 53.5004 164.274 50.258 163.547C47.0157 162.786 43.5663 163.617 40.6344 165.14C33.1839 169.053 28.6998 178.229 30.8383 186.366C32.8734 194.053 40.255 199.593 48.085 200.701C55.9149 201.809 63.9519 198.97 70.3331 194.33C72.0233 198.727 72.1957 200.528 72.9546 205.064Z" fill="#D9BBA2"/>
<path d="M47.5329 153.887C41.3931 150.978 33.9426 151.324 27.8373 154.302C21.732 157.28 16.9374 162.682 14.109 168.88C9.8318 178.264 10.3837 190.452 17.6618 197.758C16.7994 197.204 15.3507 196.858 14.3504 196.719C13.3501 196.581 12.1773 196.996 11.7979 197.966C11.3495 199.039 12.0394 200.251 12.7292 201.186C13.833 202.64 15.0748 204.025 16.42 205.306C14.5574 203.714 12.8672 201.913 11.384 199.974C10.6596 199.039 9.96977 197.827 10.4527 196.754C10.8321 195.819 12.0049 195.403 13.0052 195.507C14.0055 195.646 15.4542 195.992 16.3165 196.546C9.03846 189.24 8.48656 177.052 12.7637 167.668C15.5922 161.47 20.3867 156.068 26.492 153.09C32.5973 150.113 40.0479 149.766 46.1877 152.675C47.8089 153.471 49.3611 154.579 50.7063 155.93C49.706 155.099 48.6367 154.406 47.5329 153.887Z" fill="#DFC5AD"/>
<path d="M25.9403 211.747C25.1125 211.99 23.8362 211.54 22.9739 211.367C22.146 211.193 21.0423 211.436 20.8698 212.267C20.8008 212.648 20.9733 213.029 21.2147 213.34C20.9043 213.132 20.6283 212.89 20.3524 212.648C19.8695 212.232 19.3866 211.644 19.4901 211.02C19.6625 210.189 20.7663 209.947 21.5942 210.12C22.146 210.224 22.8704 210.432 23.5258 210.536C24.3191 210.951 25.1125 211.367 25.9403 211.747Z" fill="#DFC5AD"/>
<path d="M49.5336 202.018C44.946 201.36 40.4963 199.178 37.185 195.923C40.2894 198.486 44.1871 200.217 48.1883 200.771C56.0183 201.879 64.0552 199.04 70.4365 194.4C70.678 195.023 70.8504 195.612 71.0574 196.131C64.7451 200.459 57.0531 203.056 49.5336 202.018Z" fill="#DFC5AD"/>
<path d="M33.2183 217.53C34.529 217.426 35.8053 217.149 37.0471 216.699C36.2882 217.115 35.6328 217.53 35.2879 217.842C34.4946 218.534 34.0116 219.677 34.3566 220.681C34.3911 220.75 34.4256 220.82 34.4601 220.924C33.8047 220.612 33.2183 220.162 32.9768 219.469C32.7699 218.777 32.9079 218.119 33.2183 217.53Z" fill="#DFC5AD"/>
<path d="M56.9841 168.153C57.0876 168.811 57.1566 169.469 57.1911 170.126C56.9152 168.741 56.1908 167.53 55.2595 166.491C55.8804 166.975 56.4667 167.53 56.9841 168.153Z" fill="#DFC5AD"/>
<path d="M44.9805 214.724C46.3948 213.755 47.7745 212.82 49.1887 211.85C43.2559 214.69 35.6674 213.443 30.9418 208.873C32.7699 208.042 34.6326 207.176 36.4607 206.345C30.8383 206.726 25.1469 203.852 22.077 199.143C23.8017 198.623 25.6643 198.796 27.2855 199.524C17.6964 195.195 12.5224 181.83 16.4891 172.065C20.6283 161.885 31.7351 154.96 42.5315 157.868C48.2919 159.427 55.8459 163.755 57.1567 170.091C56.4668 166.837 53.5349 164.309 50.2925 163.582C47.0501 162.82 43.6008 163.651 40.6689 165.175C33.2183 169.087 28.7342 178.263 30.8728 186.4C32.9079 194.087 40.2894 199.627 48.1194 200.736C55.9494 201.844 63.9863 199.004 70.3676 194.364C71.2299 196.719 71.6783 198.312 72.0233 200.008C65.0901 207.868 55.3975 213.305 44.9805 214.724Z" fill="#C85E38"/>
<path d="M106.792 169.747C112.622 164.623 120.176 161.575 127.937 161.229C135.663 160.918 143.493 163.307 149.702 167.912C158.36 174.352 163.741 185.467 162.085 196.167C160.153 208.702 149.805 217.912 143.286 228.785C146.736 229.408 149.702 226.638 153.013 225.495C157.601 223.868 163.051 225.184 166.431 228.715C169.812 232.247 170.881 237.753 169.087 242.289C165.086 242.947 159.774 243.431 155.738 243.258C150.668 243.051 123.418 241.146 114.967 239.103C105.309 236.783 100.618 226.326 95.8925 217.531C92.8226 211.818 90.2356 205.758 89.1318 199.352C88.028 192.947 88.5454 186.125 91.4428 180.308C94.3748 174.526 100.411 170.821 106.792 169.747Z" fill="#CCA78C"/>
<path d="M159.602 229.821C162.878 232.799 164.5 238.962 162.051 242.944C161.74 242.979 161.43 242.979 161.119 243.014C161.119 242.979 161.085 242.944 161.085 242.91C161.464 240.798 161.982 238.859 161.671 236.712C161.326 234.357 160.257 232.384 158.843 230.514C158.498 229.994 159.119 229.406 159.602 229.821Z" fill="#B8896A"/>
<path d="M166.017 242.494C166.397 240.382 166.914 238.443 166.604 236.296C166.259 233.942 165.189 231.968 163.775 230.098C163.396 229.613 164.017 229.025 164.5 229.44C167.742 232.384 169.363 238.512 167.018 242.46C166.707 242.494 166.362 242.529 166.052 242.598C166.052 242.529 166.017 242.529 166.017 242.494Z" fill="#B8896A"/>
<path d="M182.678 243.222C182.747 241.075 182.678 238.894 181.988 236.851C181.298 234.808 179.918 232.938 177.986 232.003C176.055 231.068 173.226 230.48 171.709 232.003C169.053 230.272 172.123 232.038 169.467 230.306C170.329 217.114 169.225 205.272 169.467 192.045C169.708 178.817 170.708 161.158 166.569 148.624C164.086 167.46 155.704 183.734 144.252 198.831C147.115 212.543 153.082 230.826 159.809 243.083C168.225 246.2 173.847 244.711 182.678 243.222Z" fill="#D9BBA2"/>
<path d="M145.735 209.046C150.081 196.684 155.669 187.335 158.394 174.524C159.084 171.303 159.636 168.048 160.119 164.759C162.465 158.526 164.155 152.017 165.052 145.161C165.189 145.611 165.327 146.096 165.465 146.546C165.5 146.719 165.534 146.892 165.569 147.03C165.638 147.204 165.707 147.411 165.776 147.584C166.397 149.697 166.983 151.878 167.466 154.163C169.018 162.785 170.57 171.823 167.259 189.724C165.569 198.727 155.117 201.601 147.529 211.677C147.356 211.296 145.873 209.461 145.735 209.046Z" fill="#CCA78C"/>
<path d="M79.0597 148.485C85.5789 141.63 93.4434 136.089 99.5142 128.853C101.86 126.048 103.929 123.001 105.792 119.85C106.896 115.556 106.378 110.57 104.964 106.242C102.619 99.178 98.4794 92.6683 97.4101 85.2929C95.8924 74.6627 101.825 63.4093 111.449 58.7001C116.278 47.7237 117.106 36.3663 121.866 25.3206C126.246 15.1752 133.007 5.37602 142.769 0.493746C144.493 -0.371906 146.632 -0.0948972 148.012 1.29014C155.186 8.63087 162.223 31.7611 164.258 47.1697C167.811 74.0741 161.809 102.675 168.052 128.506C168.225 128.61 168.397 128.714 168.604 128.818C169.536 132.038 170.605 135.535 171.467 139.171C171.743 139.864 172.019 140.556 172.329 141.249C172.191 141.249 172.054 141.214 171.916 141.214C173.295 147.62 173.951 154.164 172.019 159.67C171.088 157.419 170.122 155.203 169.191 152.952C171.088 159.739 169.777 167.322 165.707 173.07C164.534 171.997 163.948 170.265 164.293 168.672C159.119 188.202 148.909 208.943 135.594 224.074C131.731 228.472 125.143 230.376 119.244 232.765C122.418 232.973 125.212 230.515 128.316 229.407C132.904 227.779 138.354 229.095 141.734 232.627C145.114 236.159 146.184 241.664 144.39 246.2C140.389 246.858 135.077 247.343 131.041 247.17C125.971 246.962 98.7209 245.058 90.27 243.015C85.3375 241.837 81.7157 238.548 78.7148 234.427C68.8152 225.425 62.296 212.509 60.9507 199.074C59.0536 180.688 66.3317 161.851 79.0597 148.485Z" fill="#D9BBA2"/>
<path d="M87.0969 100.909C88.1662 100.286 89.2354 99.732 90.2013 98.9702C90.9946 98.347 91.6155 97.5159 92.4088 96.9273C92.6848 96.7195 93.0642 97.0658 92.9607 97.3774C92.2019 99.455 89.3734 101.152 87.3728 101.636C86.9589 101.706 86.7174 101.152 87.0969 100.909Z" fill="#C85E38"/>
<path d="M180.366 240.28C180.056 238.099 179.021 236.229 177.71 234.463C177.365 234.013 177.952 233.459 178.366 233.84C180.78 235.986 182.195 239.968 181.643 243.396C181.16 243.466 180.711 243.569 180.228 243.639C180.435 242.531 180.539 241.423 180.366 240.28Z" fill="#B8896A"/>
<path d="M175.71 240.66C175.4 238.478 174.365 236.609 173.054 234.843C172.709 234.393 173.295 233.839 173.709 234.219C176.227 236.47 177.676 240.694 176.917 244.192C176.469 244.261 175.986 244.33 175.538 244.399C175.779 243.188 175.917 241.976 175.71 240.66Z" fill="#B8896A"/>
<path d="M104.757 121.512C103.171 124.075 101.446 126.533 99.5143 128.853C93.4435 136.124 85.579 141.63 79.0598 148.486C66.3318 161.852 59.0537 180.688 60.9508 199.109C61.7442 206.935 64.2967 214.587 68.2289 221.408C65.8834 216.457 64.1932 211.159 63.3999 205.723C60.6749 187.44 67.0906 168.292 79.1978 154.338C85.4065 147.205 92.9951 141.284 98.7209 133.77C100.894 130.93 102.722 127.883 104.412 124.732C104.481 123.659 104.619 122.586 104.757 121.512Z" fill="#DFC5AD"/>
<path d="M167.294 148.728C169.95 151.532 171.295 156.484 170.191 160.223C169.984 160.951 168.984 160.674 168.949 160.016C168.846 158.146 168.915 156.311 168.501 154.475C168.087 152.64 167.328 150.944 166.604 149.212C166.466 148.762 166.949 148.347 167.294 148.728Z" fill="#B8896A"/>
<path d="M163.741 151.428C163.706 151.081 164.189 150.839 164.362 151.185C166.121 155.306 166.397 160.396 164.879 164.655C164.707 165.174 163.844 165.07 163.913 164.482C164.293 159.98 164.362 155.929 163.741 151.428Z" fill="#B8896A"/>
<path d="M161.326 160.155C161.326 159.809 161.878 159.739 161.947 160.086C162.775 164.829 162.051 170.266 159.395 174.351C159.153 174.732 158.532 174.455 158.67 174.005C160.257 169.365 161.292 165.141 161.326 160.155Z" fill="#B8896A"/>
<path d="M135.008 234.428C138.112 237.267 139.768 243.015 137.802 246.997C137.422 247.032 137.008 247.067 136.629 247.067C136.974 245.128 137.422 243.327 137.146 241.284C136.802 238.929 135.732 236.956 134.318 235.086C133.904 234.601 134.525 234.013 135.008 234.428Z" fill="#B8896A"/>
<path d="M140.975 246.616C141.355 244.504 141.872 242.565 141.561 240.418C141.217 238.064 140.147 236.09 138.733 234.22C138.354 233.735 138.974 233.147 139.457 233.562C142.7 236.506 144.321 242.634 141.975 246.582C141.665 246.616 141.32 246.651 141.01 246.72C141.01 246.651 140.975 246.651 140.975 246.616Z" fill="#B8896A"/>
<path d="M67.0906 188.513C67.332 187.544 68.7808 188.029 68.5393 188.963C68.3323 189.864 68.2634 190.937 67.6425 191.664C67.2975 192.045 66.6767 191.768 66.5732 191.318C66.3662 190.452 66.8836 189.379 67.0906 188.513Z" fill="#D2B196"/>
<path d="M65.7454 195.647C65.9179 194.919 67.1597 195.127 67.0562 195.889C66.9527 196.893 67.2286 198.036 66.9527 199.005C66.8492 199.386 66.2628 199.559 66.0214 199.213C65.297 198.209 65.504 196.755 65.7454 195.647Z" fill="#D2B196"/>
<path d="M69.1602 196.2C69.2292 195.369 70.402 195.438 70.4365 196.235C70.4365 197.343 70.5054 198.485 70.195 199.593C70.057 200.113 69.2292 200.078 69.1257 199.559C68.8843 198.451 69.0567 197.308 69.1602 196.2Z" fill="#D2B196"/>
<path d="M66.8491 207.246C67.1595 208.666 67.8494 210.224 67.8494 211.678C67.8494 212.059 67.2975 212.302 67.056 211.955C66.1247 210.743 65.8488 208.977 65.5728 207.523C65.4003 206.727 66.6766 206.415 66.8491 207.246Z" fill="#D2B196"/>
<path d="M106.102 111.332C105.895 112.821 106.482 113.721 107.62 114.656C108.758 115.591 110.138 116.041 111.518 116.456C128.627 121.616 147.08 120.923 163.43 114.517C164.224 114.206 165.051 113.825 165.431 113.063C165.603 112.717 165.5 112.128 165.258 111.609C165.258 111.505 165.258 111.436 165.224 111.332C165.155 111.124 165.155 110.951 165.12 110.743C167.845 112.024 170.26 115.833 169.984 118.811C169.674 122.17 167.431 125.009 164.706 126.671C161.982 128.333 158.808 129.026 155.704 129.58C141.768 132.107 126.833 132.869 113.656 126.671C110.587 125.251 107.586 123.347 105.689 120.404C103.826 117.495 104.067 114.033 106.102 111.332Z" fill="#B10000"/>
<path d="M105.447 112.371C105.24 113.86 106.102 114.726 107.241 115.661C108.379 116.596 109.828 117.046 111.207 117.427C128.626 122.378 147.494 121.443 164.327 114.76C165.12 114.449 165.983 114.068 166.397 113.271C166.811 112.475 166.431 111.228 165.569 111.194C168.777 111.782 171.329 115.626 170.984 119.019C170.639 122.413 168.294 125.287 165.5 127.018C162.706 128.715 159.463 129.442 156.256 130.065C141.975 132.801 126.695 133.77 113.311 127.71C110.207 126.325 107.137 124.456 105.24 121.512C103.308 118.535 103.308 115.141 105.447 112.371Z" fill="#D20000"/>
<path d="M164.568 121.095C166.259 120.022 168.259 121.026 169.467 122.723C171.019 124.87 171.191 128.436 170.087 130.548C168.777 133.041 166.155 132.938 164.465 130.825C163.223 129.302 162.533 127.293 162.602 125.285C162.637 123.9 163.051 122.48 163.982 121.546C164.155 121.407 164.362 121.234 164.568 121.095Z" fill="#F99122"/>
<path d="M165.465 120.543C167.155 119.47 169.156 120.474 170.363 122.171C171.916 124.317 172.088 127.884 170.984 129.996C169.673 132.489 167.052 132.385 165.362 130.273C164.12 128.75 163.43 126.741 163.499 124.733C163.534 123.348 163.948 121.928 164.879 120.993C165.051 120.82 165.258 120.647 165.465 120.543Z" fill="#F9B233"/>
<path d="M116.933 165.245C118.175 163.894 118.934 162.405 119.417 160.812C118.21 155.134 119.21 148.832 121.624 143.707C121.693 143.534 121.935 143.396 122.142 143.396C122.245 143.396 122.314 143.43 122.418 143.43C122.728 143.465 123.004 143.88 122.694 144.123C122.659 144.157 122.659 144.157 122.625 144.192C122.038 144.538 121.555 148.451 121.383 149.42C121.314 149.767 121.279 150.078 121.245 150.425C121.279 150.286 121.383 150.217 121.521 150.217C121.59 149.974 121.659 149.767 121.728 149.524C122.107 148.382 123.797 148.832 123.522 150.009C121.935 157.384 124.763 164.137 128.902 170.127C129.04 170.3 129.178 170.473 129.316 170.612C129.627 170.577 129.937 170.681 130.213 170.992C130.731 171.616 131.282 172.204 131.8 172.724C133.387 173.139 134.939 173.659 136.594 173.866C138.112 174.04 139.595 174.04 141.113 173.97C142.769 173.624 144.355 172.966 145.942 171.858C146.77 171.269 148.184 172.066 148.046 173.07C147.839 175.044 147.701 177.052 147.632 179.026C147.77 181.38 148.081 183.7 148.564 185.986C149.012 186.782 149.288 187.613 149.081 188.305C149.874 191.491 150.944 194.642 152.22 197.828C152.634 198.832 151.047 199.455 150.495 198.555C148.771 195.681 147.529 192.599 146.666 189.414C145.183 186.643 143.804 183.7 141.424 181.796C138.457 179.441 134.697 179.095 131.214 177.918C130.662 177.71 130.731 176.844 131.351 176.844C131.627 176.844 131.869 176.844 132.145 176.879C132.007 176.81 131.903 176.74 131.765 176.637C131.214 176.463 130.627 176.29 130.075 176.048C129.178 175.702 128.971 174.836 129.213 174.178L129.178 174.143C128.799 174.42 128.178 174.386 127.833 173.901C125.212 170.265 121.452 169.469 117.692 167.495C117.416 167.357 117.244 167.08 117.175 166.768C116.692 166.526 116.416 165.833 116.933 165.245Z" fill="#CCA78C"/>
<path d="M121.935 160.12C122.073 159.358 123.177 159.462 123.349 160.12C124.867 165.141 126.419 170.612 131.834 172.828C135.56 174.351 142.769 174.282 146.391 171.962C146.391 171.893 146.391 171.824 146.425 171.789C146.563 170.716 148.219 171.166 148.046 172.239C146.77 181.554 149.184 190.383 152.599 199.005C152.91 199.732 153.358 200.39 152.91 199.732C147.632 192.322 145.356 182.696 146.149 174.109C142.872 177.087 133.904 176.29 130.903 175.044C125.591 172.828 120.831 165.937 121.935 160.12Z" fill="#B8896A"/>
<path d="M131.11 135.812C127.971 136.469 125.488 139.032 124.142 141.975C122.797 144.884 122.418 148.173 122.107 151.359C121.521 157.453 121.417 164.24 125.384 168.879C127.764 171.649 131.352 173.242 134.973 173.658C138.595 174.073 142.286 173.45 145.804 172.411C146.46 172.203 147.46 171.823 148.115 171.649C147.356 180.514 147.253 189.136 151.358 197.03C152.703 199.662 155.29 202.328 158.153 201.636C160.119 201.151 161.395 199.246 162.326 197.446C165.569 191.213 167.431 184.288 167.776 177.259C167.983 173 167.604 168.637 166.017 164.69C164.431 160.742 161.533 157.21 157.67 155.444C153.979 153.748 149.771 153.782 145.873 152.571C138.526 150.354 131.938 143.464 131.11 135.812Z" fill="#D9BBA2"/>
<path d="M132.662 137.82C135.594 145.161 139.526 149.974 147.46 151.774C151.565 152.709 155.807 153.056 159.533 155.202C164.327 157.972 167.569 162.993 168.225 168.429C167.914 169.157 167.604 169.849 167.225 170.542C166.328 164.828 164.086 159.6 158.774 156.518C153.807 153.644 147.839 154.129 142.665 151.982C136.801 149.524 133.042 144.226 131.49 138.166C131.283 137.37 132.386 137.093 132.662 137.82Z" fill="#B8896A"/>
<path d="M112.242 164.241C125.557 166.803 137.94 176.256 139.94 190.383C140.941 197.378 139.458 204.407 136.491 210.743C133.387 217.357 128.075 222.205 124.522 228.333C128.351 227.156 131.766 226.083 135.801 227.329C139.664 228.507 142.079 230.549 143.769 234.22C143.976 234.635 145.287 238.721 144.942 239.067C144.942 239.067 144.045 236.159 143.7 235.466C141.424 230.826 135.042 227.987 129.972 229.13C126.798 229.857 122.28 233.285 119.106 232.315C119.244 231.865 119.382 231.138 119.658 230.757C121.245 223.105 128.765 218.95 131.972 212.198C133.49 208.943 134.732 205.619 135.801 202.121C137.595 190.903 134.249 181.38 125.35 171.72C121.28 169.019 116.588 167.08 111.725 165.937C110.587 165.695 111.139 164.033 112.242 164.241Z" fill="#B8896A"/>
<path d="M160.843 196.269C161.43 194.399 161.43 192.287 161.05 190.383C160.981 190.002 161.499 189.863 161.637 190.21C163.051 193.707 162.154 199.143 158.774 201.428C158.567 201.498 158.394 201.602 158.153 201.636C157.98 201.671 157.808 201.671 157.601 201.705C157.532 201.567 157.497 201.359 157.635 201.186C158.912 199.559 160.222 198.312 160.843 196.269Z" fill="#B8896A"/>
<path d="M154.324 200.666C154.358 200.632 154.358 200.597 154.393 200.562C156.6 197.931 157.118 194.78 156.497 191.456C156.394 190.936 157.083 190.763 157.256 191.248C158.601 194.641 157.67 198.519 155.428 201.289C155.014 201.116 154.669 200.909 154.324 200.666Z" fill="#B8896A"/>
<path d="M167.707 140.245C169.742 140.21 171.26 142.668 172.26 144.192C173.537 146.2 174.261 148.693 174.02 151.048C173.951 151.671 173.157 151.81 172.916 151.186C172.191 149.143 171.467 147.17 170.363 145.265C169.501 143.776 167.604 142.495 167.259 140.799C167.19 140.522 167.397 140.245 167.707 140.245Z" fill="#B8896A"/>
<path d="M167.708 135.016C170.122 135.155 172.157 137.094 173.192 139.137C173.364 139.483 172.951 139.864 172.64 139.552C171.881 138.791 171.019 138.063 170.122 137.475C169.26 136.886 168.294 136.505 167.432 135.951C167.052 135.709 167.19 134.982 167.708 135.016Z" fill="#B8896A"/>
<path d="M161.326 141.387C161.844 141.802 162.43 142.01 162.844 142.495C163.292 143.049 163.637 143.672 163.948 144.33C164.5 145.576 164.672 146.685 164.845 148.035C164.948 148.797 163.741 148.901 163.534 148.208C163.189 146.996 162.672 145.75 162.189 144.572C161.982 144.088 161.74 143.603 161.602 143.118C161.43 142.564 161.43 141.975 161.223 141.421C161.188 141.387 161.257 141.387 161.326 141.387Z" fill="#B8896A"/>
<path d="M134.145 190.072C135.146 191.942 136.112 194.608 135.146 196.686C134.904 197.24 134.076 196.963 133.938 196.478C133.732 195.578 133.835 194.608 133.732 193.673C133.628 192.669 133.387 191.63 133.007 190.661C132.731 189.934 133.732 189.345 134.145 190.072Z" fill="#D2B196"/>
<path d="M130.386 181.622C131.8 181.864 133.111 184.219 132.835 185.569C132.766 185.985 132.145 186.054 131.903 185.777C131.489 185.292 131.283 184.6 130.938 184.046C130.558 183.491 130.006 183.007 129.765 182.383C129.592 181.899 129.937 181.518 130.386 181.622Z" fill="#D2B196"/>
<path d="M127.799 186.02C129.351 186.332 130.282 188.963 129.903 190.349C129.799 190.695 129.248 190.764 129.075 190.418C128.799 189.725 128.661 188.998 128.316 188.306C128.006 187.682 127.454 187.128 127.281 186.436C127.212 186.159 127.523 185.951 127.799 186.02Z" fill="#D2B196"/>
<path d="M123.729 178.575C124.349 178.783 124.729 179.302 125.143 179.787C125.591 180.306 126.074 180.791 126.419 181.38C126.729 181.899 126.04 182.522 125.591 182.176C125.039 181.76 124.591 181.241 124.143 180.756C123.694 180.306 123.211 179.856 123.073 179.233C122.97 178.783 123.349 178.436 123.729 178.575Z" fill="#D2B196"/>
<path d="M122.97 173.417C124.763 173.278 126.902 174.871 127.35 176.637C127.488 177.225 126.764 177.572 126.35 177.156C125.798 176.568 125.35 175.91 124.694 175.425C124.073 174.975 123.349 174.629 122.694 174.248C122.28 174.04 122.59 173.451 122.97 173.417Z" fill="#D2B196"/>
<path d="M116.278 171.407C117.416 171.199 118.83 172.273 119.555 173.069C120.038 173.623 119.348 174.523 118.727 174.073C118.279 173.727 117.83 173.381 117.347 173.138C116.864 172.896 116.347 172.757 115.968 172.377C115.657 172.065 115.83 171.476 116.278 171.407Z" fill="#D2B196"/>
<path d="M132.524 202.952C132.731 202.225 132.835 201.464 132.869 200.702C132.904 199.94 134.042 199.975 134.042 200.736C134.008 202.156 133.904 204.164 132.835 205.238C132.524 205.549 131.938 205.272 131.972 204.857C132.041 204.164 132.352 203.576 132.524 202.952Z" fill="#D2B196"/>
<path d="M129.834 195.231C130.041 195.889 130.11 196.581 130.144 197.239C130.144 197.586 130.144 197.897 130.11 198.243C130.075 198.659 129.937 198.832 129.799 199.213C129.661 199.663 128.903 199.698 128.799 199.178C128.73 198.797 128.627 198.555 128.627 198.174C128.627 197.897 128.627 197.62 128.627 197.309C128.592 196.651 128.558 195.993 128.523 195.335C128.523 194.608 129.627 194.573 129.834 195.231Z" fill="#D2B196"/>
<path d="M127.695 206.97C127.799 206.416 127.868 205.827 128.006 205.273C128.178 204.685 129.041 204.754 129.179 205.308C129.454 206.52 129.11 208.078 128.213 208.944C127.937 209.221 127.454 208.978 127.488 208.598C127.488 208.043 127.592 207.524 127.695 206.97Z" fill="#D2B196"/>
<path d="M61.8476 181.38C64.3311 169.122 70.4019 157.557 79.0252 148.519C85.5445 141.663 93.4089 136.123 99.4797 128.886C100.204 128.021 100.859 127.155 101.549 126.255C101.86 126.982 102.101 127.709 102.239 128.332C103.274 132.695 102.791 137.335 104.274 141.56C105.447 144.849 107.724 147.654 109.345 150.735C112.518 156.76 113.105 163.893 111.863 170.576C110.621 177.259 107.655 183.492 104.033 189.24C101.101 193.88 97.5826 198.416 92.6501 200.874C87.752 203.332 81.1983 203.229 77.3351 199.35C73.9202 195.923 73.2304 190.486 69.8845 186.989C67.6425 184.634 64.3656 183.422 61.8476 181.38Z" fill="#C85E38"/>
<path d="M102.274 128.299C102.274 128.333 102.274 128.368 102.308 128.403C101.204 130.238 100.032 132.038 98.7209 133.735C92.995 141.283 85.4065 147.17 79.1977 154.303C72.0576 162.509 66.9526 172.551 64.4691 183.112C63.5722 182.558 62.6754 182.004 61.8821 181.311C61.8821 181.277 61.9166 181.207 61.9166 181.173C62.0545 180.446 62.227 179.753 62.3995 179.026C62.5374 178.472 62.6754 177.918 62.8134 177.364C62.9169 176.983 63.0203 176.567 63.1238 176.187C63.2618 175.667 63.4343 175.113 63.6067 174.594C63.8137 173.901 64.0552 173.209 64.2966 172.516C64.5036 171.962 64.7105 171.408 64.9175 170.854C65.0899 170.404 65.2624 169.954 65.4694 169.504C65.6418 169.054 65.8488 168.603 66.0558 168.153C66.4007 167.357 66.7456 166.56 67.125 165.799C67.2975 165.452 67.47 165.072 67.6769 164.725C67.9529 164.171 68.2288 163.617 68.5393 163.063C68.7462 162.717 68.9187 162.336 69.1257 161.99C69.5741 161.193 70.057 160.362 70.5399 159.566C70.6778 159.358 70.8158 159.116 70.9538 158.908C71.3677 158.25 71.7816 157.592 72.2301 156.969C72.4025 156.692 72.6095 156.45 72.7819 156.173C73.3683 155.376 73.9202 154.545 74.5411 153.783C74.6101 153.68 74.6791 153.61 74.7481 153.506C75.2999 152.779 75.8863 152.052 76.4727 151.36C76.6452 151.152 76.8177 150.944 76.9901 150.736C77.6455 149.975 78.3354 149.213 79.0597 148.451C85.5789 141.595 93.4434 136.055 99.5142 128.818C100.239 127.952 100.928 127.087 101.584 126.187C101.86 126.948 102.136 127.675 102.274 128.299Z" fill="#C86D47"/>
<path d="M161.05 40.1744C161.74 46.8918 161.361 54.094 157.635 59.7035C153.876 65.3129 145.873 68.4292 140.147 64.8974C136.077 62.4043 134.18 57.3835 133.904 52.5705C133.628 47.7921 134.663 43.0483 135.042 38.2699C135.422 33.4915 135.042 28.4015 132.283 24.4542C130.765 22.3073 128.523 20.299 128.627 17.6674C128.73 14.9666 131.352 13.1314 133.766 11.9541C140.423 8.6993 150.185 8.52617 154.703 15.5206C158.877 21.9611 160.291 32.8337 161.05 40.1744Z" fill="#E5CFC1"/>
<path d="M142.734 0.493746C136.181 3.74859 130.972 9.25414 126.936 15.5907C130.42 19.642 135.18 22.3428 140.078 23.0699C145.977 23.9356 151.944 22.4467 157.532 19.7112C154.704 11.7126 151.358 4.75275 147.977 1.29014C146.598 -0.0948972 144.459 -0.371906 142.734 0.493746Z" fill="#472B3C"/>
<path d="M147.977 4.0256C146.632 2.64056 144.494 2.36355 142.734 3.2292C136.733 6.20704 131.903 11.0893 128.006 16.7334C127.626 16.3525 127.281 15.9716 126.936 15.5907C130.972 9.25414 136.181 3.78322 142.734 0.493746C144.459 -0.371906 146.598 -0.0948972 147.977 1.29014C151.392 4.75275 154.738 11.678 157.532 19.7112C157.256 19.8497 156.946 19.9536 156.67 20.0921C154.048 13.0976 151.047 7.14195 147.977 4.0256Z" fill="#634357"/>
<path d="M151.772 30.7224C150.806 29.7529 150.047 29.7183 149.461 30.1684C149.392 30.1684 149.357 30.2031 149.288 30.2031C149.219 30.2031 149.15 30.2377 149.081 30.2723C149.047 30.2723 149.047 30.2723 149.012 30.3069C148.357 30.5493 147.77 31.1033 147.391 32.0729C146.011 35.5701 145.701 40.5562 148.943 43.2571C150.013 44.1573 151.806 44.3651 152.737 43.3609C153.186 42.8762 153.358 42.2183 153.496 41.595C154.221 38.3748 154.221 33.2501 151.772 30.7224Z" fill="#472B3C"/>
<path d="M148.736 16.8031C150.254 19.3654 150.392 22.551 150.909 25.4596C151.427 28.4374 152.117 31.4499 152.151 34.497C152.151 35.4665 150.806 35.605 150.495 34.7047C149.426 31.4845 149.116 28.0219 148.598 24.6632C148.219 22.1008 147.529 19.4346 148.046 16.8723C148.115 16.5607 148.564 16.5261 148.736 16.8031Z" fill="#472B3C"/>
<path d="M114.174 51.0828C114.208 50.9443 114.381 50.9789 114.415 51.1174C114.45 55.0648 113.967 58.9775 114.139 62.9249C114.346 67.4609 115.347 71.8238 116.071 76.2906C116.14 76.7753 115.554 76.9138 115.381 76.4983C112.449 69.0191 111.656 58.8044 114.174 51.0828Z" fill="#CCA78C"/>
<path d="M104.654 61.6426C105.482 60.0498 110.621 57.4183 111.207 60.3615C111.725 62.9931 109.828 67.1828 107.275 68.0485C106.93 68.1523 106.723 67.7714 106.861 67.4944C107.827 65.59 109.207 64.205 109.483 61.9889C109.517 61.7119 109.552 61.4349 109.552 61.1579C109.655 60.6731 109.621 60.5692 109.448 60.8116C109.241 60.777 108.345 61.2271 108.103 61.331C107.206 61.7465 106.482 62.4044 105.551 62.7853C104.861 63.0623 104.378 62.1967 104.654 61.6426Z" fill="#472B3C"/>
<path d="M101.722 65.2451C102.101 64.414 103.102 64.5872 103.481 65.2104C104.654 66.3185 104.343 68.2921 103.86 69.6079C103.584 70.3697 102.55 70.2658 102.136 69.7464C101.17 68.4306 101.066 66.734 101.722 65.2451Z" fill="#472B3C"/>
<path d="M163.051 164.794C163.603 166.179 164.569 167.737 164.465 169.295C164.431 169.849 163.81 169.988 163.499 169.572C162.568 168.326 162.465 166.525 162.189 165.071C162.016 164.448 162.844 164.24 163.051 164.794Z" fill="#D2B196"/>
<path d="M163.913 173.104C163.913 172.585 164.672 172.308 164.914 172.827C165.5 174.005 165.879 176.013 165.224 177.225C164.948 177.71 164.258 177.571 164.12 177.086C163.913 176.498 164.017 175.771 163.982 175.147C163.948 174.455 163.879 173.797 163.913 173.104Z" fill="#D2B196"/>
<path d="M159.877 168.534C160.602 169.711 161.464 171.547 160.912 172.966C160.74 173.347 160.153 173.555 159.912 173.105C159.602 172.482 159.602 171.754 159.464 171.096C159.36 170.369 159.222 169.608 159.015 168.915C158.912 168.396 159.602 168.084 159.877 168.534Z" fill="#D2B196"/>
<path d="M159.636 176.36C159.567 175.771 160.429 175.736 160.602 176.221C160.947 177.225 161.464 179.164 160.774 180.134C160.602 180.376 160.153 180.48 159.981 180.134C159.705 179.58 159.808 179.026 159.808 178.437C159.774 177.745 159.705 177.052 159.636 176.36Z" fill="#D2B196"/>
<path d="M157.256 158.389C158.463 158.562 159.671 159.67 160.153 160.778C160.429 161.401 159.671 162.163 159.119 161.574C158.739 161.159 158.394 160.709 157.946 160.363C157.532 160.016 157.049 159.774 156.635 159.428C156.118 158.978 156.739 158.285 157.256 158.389Z" fill="#D2B196"/>
<path d="M153.186 161.089C154.462 160.882 156.083 161.713 156.946 162.647C157.428 163.167 156.808 163.929 156.221 163.617C155.704 163.34 155.186 163.028 154.669 162.786C154.152 162.544 153.531 162.405 153.082 162.059C152.737 161.851 152.703 161.159 153.186 161.089Z" fill="#D2B196"/>
<path d="M147.494 156.449C148.598 156.242 149.978 156.623 151.047 156.934C151.668 157.142 151.599 158.146 150.875 158.111C149.771 158.077 148.322 157.973 147.356 157.419C147.012 157.177 147.046 156.553 147.494 156.449Z" fill="#D2B196"/>
<path d="M163.706 182.385C163.706 181.796 163.706 181.208 163.603 180.619C163.499 179.996 164.396 179.511 164.707 180.169C165.258 181.415 165.603 183.32 164.569 184.428C164.189 184.809 163.672 184.497 163.603 184.012C163.534 183.458 163.706 182.904 163.706 182.385Z" fill="#D2B196"/>
<path d="M148.184 170.091C148.84 169.226 149.461 168.325 150.15 167.494C150.668 166.871 151.461 167.667 151.185 168.291C150.668 169.364 149.978 170.368 149.254 171.338C148.702 172.065 148.115 173.104 147.15 173.104C146.874 173.104 146.701 172.896 146.701 172.654C146.563 171.649 147.632 170.784 148.184 170.091Z" fill="#D2B196"/>
<path d="M139.768 152.884C140.389 152.919 140.941 153.231 141.527 153.404C142.217 153.611 142.872 153.681 143.562 153.75C144.149 153.819 144.356 154.685 143.7 154.823C142.32 155.135 140.147 154.996 139.251 153.785C138.975 153.438 139.32 152.85 139.768 152.884Z" fill="#D2B196"/>
<path d="M113.657 176.117C114.898 175.459 116.416 175.944 117.52 176.705C117.968 177.017 117.727 177.917 117.106 177.675C116.037 177.294 115.071 177.433 114.002 177.294C113.415 177.225 113.036 176.463 113.657 176.117Z" fill="#D2B196"/>
<path d="M105.447 86.229C107.482 87.2677 109.552 88.3065 111.794 88.8605C114.001 89.4492 116.416 89.5531 118.555 88.722C121.521 87.5794 123.625 84.7747 124.694 81.7622C125.488 79.5115 125.729 76.9146 124.694 74.8024C123.798 73.0018 122.107 71.7553 120.314 70.855C116.485 68.9506 111.932 68.4312 107.862 69.6777C104.481 70.7165 100.17 73.6597 98.9279 77.1916C97.4102 81.4852 102.377 84.6708 105.447 86.229Z" fill="#C85E38"/>
<path d="M103.378 76.0827C103.343 75.3902 103.895 75.044 104.447 75.1132C104.585 75.044 104.757 75.044 104.93 75.1478C106.137 75.9096 108.172 78.7836 106.585 80.0647C104.654 81.6229 103.481 77.2946 103.378 76.0827Z" fill="#472B3C"/>
<path d="M106.344 72.8274C107.344 70.9922 112.518 69.6072 113.829 71.6847C114.553 72.8274 114.036 74.6626 113.656 75.8399C113.174 77.2942 112.415 78.7138 111.138 79.5795C110.518 79.995 109.897 79.1986 110.207 78.6446C110.621 77.8136 111.207 77.0864 111.587 76.2208C111.863 75.5975 112.622 73.7623 112.277 73.0698C111.518 71.6501 108.034 73.7623 106.965 73.9008C106.413 73.9354 106.137 73.2429 106.344 72.8274Z" fill="#472B3C"/>
</g>
<defs>
<filter id="filter0_d_672_17197" x="0" y="0" width="192.699" height="267.205" filterUnits="userSpaceOnUse" color-interpolation-filters="sRGB">
<feFlood flood-opacity="0" result="BackgroundImageFix"/>
<feColorMatrix in="SourceAlpha" type="matrix" values="0 0 0 0 0 0 0 0 0 0 0 0 0 0 0 0 0 0 127 0" result="hardAlpha"/>
<feOffset dy="10"/>
<feGaussianBlur stdDeviation="5"/>
<feColorMatrix type="matrix" values="0 0 0 0 0 0 0 0 0 0 0 0 0 0 0 0 0 0 0.5 0"/>
<feBlend mode="normal" in2="BackgroundImageFix" result="effect1_dropShadow_672_17197"/>
<feBlend mode="normal" in="SourceGraphic" in2="effect1_dropShadow_672_17197" result="shape"/>
</filter>
</defs>
</svg>
