<svg width="294" height="286" viewBox="0 0 294 286" fill="none" xmlns="http://www.w3.org/2000/svg">
<g filter="url(#filter0_d_672_17310)">
<g filter="url(#filter1_d_672_17310)">
<path d="M106.124 44.2253C102.416 52.1065 100.763 61.0091 102.751 69.6256C104.701 78.2544 109.617 86.2812 116.475 92.2625C119.237 89.5755 121.077 86.4877 123.877 83.7882C111.958 73.8419 106.809 59.1049 106.124 44.2253Z" fill="#C85E38"/>
<path d="M106.334 44.0812C105.532 58.7578 112.327 73.8781 124.103 83.6341C125.768 79.1938 127.36 75.8958 129.024 71.4555C124.518 60.5116 116.23 51.0587 106.334 44.0812Z" fill="#E5CFC1"/>
<path d="M103.394 81.7313C105.817 81.7069 107.997 80.8173 110.123 79.9023C110.495 79.7371 110.829 80.2715 110.579 80.5259C108.73 82.5097 106.076 82.9538 103.362 82.5582C102.85 82.4689 102.911 81.7183 103.394 81.7313Z" fill="#C85E38"/>
<path d="M99.1154 70.7919C100.86 73.8518 103.201 75.5908 106.53 76.7986C106.881 76.9342 106.789 77.4649 106.405 77.4651C102.792 77.393 99.3124 74.4821 98.3867 71.1132C98.3185 70.7183 98.8669 70.3724 99.1154 70.7919Z" fill="#C85E38"/>
<path d="M98.0472 64.4065C99.7256 67.1917 102.028 68.7315 104.734 70.4314C105.076 70.6532 104.78 71.208 104.406 71.1219C101.362 70.1989 98.8557 67.4757 97.3391 64.8876C97.0624 64.3947 97.7705 63.9135 98.0472 64.4065Z" fill="#C85E38"/>
<path d="M135.416 30.9453C130.87 35.2625 127.804 40.9727 126.79 47.1384C125.762 53.2671 126.771 59.8145 129.601 65.5597C132.064 63.6723 135.056 62.4876 137.886 61.1056C133.775 51.4026 132.628 40.7738 135.416 30.9453Z" fill="#C85E38"/>
<path d="M148.464 58.9867C147.136 48.8725 142.318 39.2731 135.89 30.9879C132.671 40.6332 133.414 51.6442 138.009 61.1084C141.696 60.7781 145.044 60.2264 148.464 58.9867Z" fill="#E5CFC1"/>
<path d="M123.725 56.0266C124.994 56.6289 126.234 57.1561 127.63 57.4208C129.012 57.6479 130.347 57.4245 131.722 57.5265C132.163 57.5521 132.513 58.1156 132.074 58.4278C129.585 60.0009 125.35 58.7564 123.28 56.7642C122.966 56.4009 123.263 55.8383 123.725 56.0266Z" fill="#C85E38"/>
<path d="M122.357 50.1793C123.249 51.266 124.088 52.3279 125.163 53.2296C126.158 54.0326 127.42 54.5394 128.414 55.3424C128.889 55.6883 128.481 56.2804 127.993 56.2307C125.223 56.0066 122.318 53.0302 121.432 50.6476C121.239 50.0427 122.004 49.71 122.357 50.1793Z" fill="#C85E38"/>
<path d="M124.694 43.8205C125.098 44.9755 125.714 46.0201 126.443 47.028C127.128 47.9252 128.034 48.6262 128.758 49.5112C129.145 49.9661 128.545 50.4937 128.092 50.309C125.623 49.2872 124.28 46.3626 123.763 44.0407C123.624 43.4633 124.509 43.3413 124.694 43.8205Z" fill="#C85E38"/>
<path d="M18.3273 169.786C3.53168 177.11 -16.1372 174.606 -28.9842 163.77C-30.1968 162.751 -31.4091 161.397 -31.1161 159.924C-30.876 158.761 -29.7189 157.963 -28.5146 157.734C-27.3103 157.505 -23.8274 157.821 -22.6188 158.049C-30.2446 158.053 -37.7028 152.912 -40.147 145.915C-40.3661 145.237 -40.5659 144.384 -40.0828 143.85C-39.4131 143.13 -38.133 143.543 -37.3979 144.219C-36.6245 144.883 -35.5601 146.076 -34.5952 146.343C-38.5509 141.011 -41.1104 134.719 -41.9832 128.332C-42.1491 127.01 -42.157 125.428 -41.0764 124.655C-40.1344 123.97 -38.6917 124.247 -37.7225 124.971C-36.7533 125.695 -35.5074 126.913 -34.9399 127.936C-38.1154 116.591 -31.5621 104.551 -21.6649 98.0443C-15.1289 93.7687 -7.03725 91.4011 0.965306 92.1496C8.98216 92.9351 16.8763 96.9729 21.4424 103.439C26.0468 109.893 26.2755 120.079 22.4892 126.788C23.7112 123.258 22.1482 119.1 19.2744 116.457C16.4007 113.814 12.3788 112.55 8.44664 112.299C-1.5007 111.648 -11.474 117.845 -14.0347 126.946C-16.4467 135.539 -12.0941 145.246 -4.67943 150.943C2.73522 156.64 12.619 158.689 21.9084 157.972C21.0957 163.119 20.2099 164.954 18.3273 169.786Z" fill="#D9BBA2"/>
<path d="M22.6837 105.834C18.0143 99.2487 10.0863 95.0884 2.01454 94.2457C-6.05723 93.403 -14.1867 95.7649 -20.7255 100.112C-30.6488 106.672 -37.1762 118.873 -33.9173 130.423C-34.4942 129.38 -35.7547 128.135 -36.7341 127.394C-37.7134 126.652 -39.1668 126.363 -40.1109 127.054C-41.2324 127.846 -41.1918 129.404 -41.0029 130.787C-40.7049 132.898 -40.2003 134.984 -39.5804 137.032C-40.5782 134.343 -41.3071 131.566 -41.6995 128.763C-41.8738 127.419 -41.8906 125.81 -40.8075 125.031C-39.8634 124.34 -38.4101 124.629 -37.4307 125.371C-36.4513 126.112 -35.1908 127.356 -34.614 128.399C-37.8729 116.85 -31.3454 104.648 -21.4221 98.0892C-14.8688 93.7793 -6.7393 91.4174 1.31788 92.2224C9.38965 93.065 17.3561 97.2128 21.9871 103.811C23.2306 105.57 24.1485 107.606 24.7591 109.743C24.2191 108.348 23.5256 107.003 22.6837 105.834Z" fill="#DFC5AD"/>
<path d="M-4.04406 152.656C-8.40738 149.264 -11.7117 144.522 -13.2331 139.408C-11.5016 143.742 -8.53927 147.716 -4.73516 150.662C2.68665 156.406 12.5452 158.507 21.7942 157.835C21.6602 158.59 21.5352 159.259 21.4338 159.878C12.4689 160.291 3.0719 158.165 -4.04406 152.656Z" fill="#DFC5AD"/>
<path d="M23.9254 124.402C23.6503 125.115 23.3467 125.754 22.9678 126.417C23.4516 124.93 23.4732 123.344 23.0898 121.807C23.4938 122.631 23.7472 123.504 23.9254 124.402Z" fill="#DFC5AD"/>
<path d="M-16.0188 162.449C-14.0235 162.376 -12.0424 162.267 -10.047 162.195C-17.784 161.445 -24.857 155.727 -27.0358 148.525C-24.6542 148.784 -22.2582 149.08 -19.9148 149.352C-25.8785 146.395 -30.0918 140.278 -30.4862 133.907C-28.4437 134.402 -26.6025 135.714 -25.3536 137.387C-32.6468 127.532 -30.1769 111.635 -20.3745 104.579C-10.171 97.2253 5.25677 97.1557 14.6652 106.357C19.6579 111.259 24.895 119.915 22.5489 126.77C23.7698 123.243 22.2084 119.089 19.3375 116.448C16.4666 113.808 12.4488 112.545 8.52049 112.294C-1.41707 111.643 -11.3808 117.834 -13.9392 126.927C-16.3491 135.511 -12.0009 145.209 -4.59371 150.901C2.81352 156.593 12.6876 158.64 21.9678 157.924C21.4924 160.706 21.018 162.487 20.3526 164.331C8.63511 167.765 -4.49595 167.205 -16.0188 162.449Z" fill="#C85E38"/>
<path d="M-28.4812 256.493C-27.313 252.659 -23.9493 249.911 -20.5814 247.624C-17.2278 245.299 -13.5957 243.135 -11.3849 239.757C-7.9459 234.502 -8.10888 226.647 -2.49981 223.538C1.94026 221.108 8.75962 222.606 11.6059 218.514C12.0249 217.913 12.2853 217.238 12.4159 216.564C16.5532 217.852 20.904 217.555 24.6795 216.101C26.9364 225.454 29.4242 234.731 31.0754 244.199C27.8639 244.416 24.6432 244.382 21.4229 244.013C17.7461 243.583 13.8485 242.805 10.5394 244.232C7.4852 245.532 5.60671 248.422 3.5604 250.989C-3.4981 259.792 -14.5665 265.499 -26.2297 266.395C-30.4123 266.679 -29.6879 260.34 -28.4812 256.493Z" fill="#CCA78C"/>
<path d="M155.355 159.29C146.832 153.147 150.215 139.446 156.918 133.266C164.334 126.343 175.779 124.257 185.654 124.42C194.774 124.537 203.776 126.383 212.904 127.088C221.994 127.807 231.544 127.233 239.606 123.011C241.814 121.86 243.867 120.423 246.199 119.485C248.531 118.547 251.209 118.17 253.509 119.185C257.012 120.733 258.464 125.195 257.625 128.892C256.801 132.628 253.643 137.977 250.207 139.659C237.129 146.085 225.153 155.61 210.907 160.013C195.93 164.658 178.332 166.323 163.03 162.544C160.34 161.869 157.693 160.968 155.437 159.389C155.37 159.327 155.37 159.327 155.355 159.29Z" fill="#CCA78C"/>
<path d="M191.984 136.27C192.02 136.799 191.639 138.339 191.984 136.27V136.27Z" fill="#D9BBA2"/>
<path d="M-20.2395 273.076C-19.096 269.229 -15.7527 266.484 -12.4023 264.202C-9.06656 261.883 -5.45149 259.727 -3.26375 256.343C0.139385 251.079 -0.0717431 243.185 5.5124 240.088C9.93294 237.669 16.7545 239.209 19.5726 235.111C21.8041 231.84 19.7321 227.391 17.9902 223.682C12.1535 211.315 10.6401 197.28 13.622 184.359C13.5928 184.284 13.5874 184.159 13.5382 183.921C11.8117 175.462 12.8064 166.665 16.9338 159.258C21.1088 151.751 27.2152 145.434 35.1936 141.936C42.5108 138.74 50.8291 138.011 58.9919 137.884C67.1547 137.758 75.3775 138.119 83.3858 136.815C88.0209 136.062 92.6289 134.683 96.7097 132.501C98.9699 130.195 101.785 128.428 104.288 126.635C104.311 126.585 104.388 126.56 104.45 126.497C104.536 126.385 104.622 126.272 104.708 126.159C104.761 126.184 104.814 126.209 104.867 126.234C108.398 123.64 111.17 120.87 110.413 116.246C108.819 106.346 108.923 96.1454 111.572 86.9343C115.246 74.1264 124.228 62.6334 136.798 57.3804C150.082 51.8516 165.64 53.6282 179.688 50.1794C193.583 46.7809 205.843 37.9439 213.176 26.1003C214.51 23.9697 217.281 22.9792 219.782 23.856C222.269 24.6951 224.07 26.775 225.689 28.8299C233.028 38.1645 238.811 49.2788 238.66 60.8078C238.495 72.2992 231.075 83.9172 219.547 86.2878C209.647 94.5228 196.609 99.4626 183.289 99.6656C184.793 104.766 189.782 121.519 191.344 130.667C191.42 130.642 191.497 130.617 191.574 130.592C191.537 130.943 191.515 131.331 191.493 131.72C191.771 133.662 191.874 135.153 191.691 136.018C191.508 136.883 191.391 137.472 191.307 137.923C191.296 137.672 191.19 137.622 190.89 138.186C189.193 153.525 184.926 170.932 176.845 182.851C158.55 209.884 128.815 226.594 95.6845 226.199C94.6976 227.666 93.5902 229.044 92.492 230.335C84.6749 239.372 75.7351 247.632 65.0546 253.411C54.4125 259.177 41.8946 262.338 29.4741 260.849C25.7984 260.398 21.9001 259.597 18.6032 261.014C15.5602 262.305 13.7014 265.2 11.673 267.769C4.67595 276.58 -6.34598 282.259 -17.9916 283.101C-22.1205 283.264 -21.3829 276.923 -20.2395 273.076Z" fill="#D9BBA2"/>
<path d="M93.6646 224.7C96.1625 215.753 102 204.779 98.5472 197.835C113.78 201.699 130.693 197.643 141.896 187.428C143.152 186.299 144.414 184.957 144.782 183.32C145.149 181.684 144.267 179.617 142.575 179.164C149.655 182.01 158.134 180.943 163.967 176.495C169.801 172.048 172.735 164.347 171.403 157.166C170.61 152.965 167.731 148.526 163.322 148C170.069 147.84 178.489 147.634 183.841 143.851C186.522 141.915 189.174 136.748 191.494 131.059C193.507 147.107 185.367 168.099 176.425 181.147C157.235 209.147 128.371 226.316 93.6646 224.7Z" fill="#D2B196"/>
<path d="M245.28 129.722C245.32 127.571 248.143 126.004 249.914 125.423C252.532 124.565 255.474 124.884 258.027 125.886C258.063 126.43 258.008 126.962 257.952 127.494C257.836 127.531 257.706 127.531 257.6 127.481C255.193 126.858 252.766 126.413 250.341 127.208C248.454 127.827 247.554 129.319 245.938 130.191C245.582 130.393 245.267 130.026 245.28 129.722Z" fill="#B8896A"/>
<path d="M245.137 124.159C244.868 124.247 244.544 123.969 244.687 123.666C246.154 119.941 252.5 119.314 256.209 120.618C256.65 121.199 257.052 121.793 257.315 122.475C257.238 122.5 257.147 122.488 257.041 122.437C254.962 121.88 253.043 121.399 250.849 121.776C248.707 122.179 247.167 123.579 245.137 124.159Z" fill="#B8896A"/>
<path d="M13.0008 185.461C12.9721 185.386 12.9675 185.26 12.9197 185.022C11.243 176.567 12.2984 167.76 16.4879 160.329C20.7258 152.797 26.8935 146.447 34.9209 142.91C42.283 139.676 50.6333 138.908 58.8237 138.742C67.014 138.576 75.2614 138.899 83.3044 137.556C91.3618 136.25 99.3115 133.076 104.505 127.132C104.592 127.019 104.679 126.906 104.766 126.792C105.031 126.917 105.31 127.078 105.536 127.215C105.66 128.105 105.846 128.931 106.062 129.833C106.009 129.808 105.941 129.746 105.888 129.721C105.802 129.834 105.715 129.948 105.628 130.061C100.448 136.042 92.4841 139.178 84.4268 140.484C76.3694 141.79 68.1221 141.467 59.9461 141.671C51.7557 141.836 43.4054 142.605 36.0433 145.838C27.9773 149.389 21.8482 155.726 17.6103 163.257C13.4208 170.688 12.3268 179.508 14.0421 187.951C14.0898 188.189 14.1088 188.352 14.1232 188.389C14.3673 189.366 14.5969 190.305 14.9037 191.219C14.1359 189.442 13.4935 187.54 13.0008 185.461Z" fill="#DFC5AD"/>
<path d="M58.8294 138.723C66.9991 138.555 75.2259 138.874 83.2481 137.535C88.5113 136.685 93.7179 135.013 98.1471 132.336C98.2262 134.454 97.3822 136.876 96.4816 138.475C94.2179 142.5 90.456 145.673 88.6679 149.919C87.2605 153.241 87.1021 156.993 86.2327 160.475C84.475 167.276 79.8256 173.095 74.0633 177.262C68.2626 181.442 61.3777 184.046 54.3305 185.777C48.6341 187.191 42.4914 188.12 36.746 186.48C31.0005 184.84 25.7491 180.095 25.4197 174.402C25.0896 169.381 28.4352 164.79 28.1819 159.745C28.0327 156.094 25.9562 152.616 25.5618 149.004C28.3762 146.522 31.5168 144.436 35.0269 142.86C42.3306 139.657 50.6596 138.89 58.8294 138.723Z" fill="#C85E38"/>
<path d="M137.814 61.2912C151.176 55.698 166.77 57.4006 180.885 53.8842C195 50.3678 207.38 41.4206 214.784 29.4652C216.122 27.2903 218.628 26.4633 221.194 27.2652C223.76 28.0672 225.607 30.1636 227.231 32.2485C234.533 41.5495 240.261 52.6379 240.035 64.1693C240.003 66.1246 239.749 68.0685 239.313 69.9882C240.387 67.0125 241.013 63.8887 241.067 60.7427C241.307 49.2488 235.579 38.1604 228.263 28.8219C226.638 26.737 224.792 24.6406 222.226 23.8386C219.66 23.0367 217.154 23.8637 215.816 26.0386C208.412 37.994 195.993 46.9539 181.917 50.4576C167.764 53.9867 152.169 52.2842 138.846 57.8646C126.202 63.1785 117.117 74.7161 113.349 87.5435C113.232 87.92 113.193 88.2711 113.077 88.6477C117.205 76.7586 125.913 66.2755 137.814 61.2912Z" fill="#DFC5AD"/>
<path d="M151.12 77.0707C152.84 79.1778 154.612 81.3094 156.758 83.0677C158.903 84.826 161.485 86.1488 164.259 86.4062C168.108 86.7692 171.812 84.9671 174.517 82.3659C176.537 80.4491 178.094 77.8913 177.992 75.169C177.918 72.8551 176.647 70.6836 175.157 68.8352C171.909 64.8922 167.177 62.0216 162.031 61.2076C157.808 60.5495 151.561 61.3504 148.421 64.3871C144.643 68.0089 148.493 73.8422 151.12 77.0707Z" fill="#C85E38"/>
<path d="M157.506 124.163C164.2 125.236 171.226 125.485 177.511 123.248C183.795 121.012 187.669 118.477 188.532 112.062C188.619 111.277 185.652 102.342 184.705 99.2104C195.074 99.0311 205.231 95.9401 213.959 90.7156C213.671 89.9702 211.961 90.7012 211.014 91.0548C203.509 93.9451 195.247 94.9846 187.112 94.2184C182.531 93.7945 178.003 92.723 173.701 91.115C166.808 88.5125 160.497 84.5002 153.517 82.0101C146.536 79.52 138.363 78.7665 132.307 82.6077C126.453 86.2984 123.879 93.7808 125.274 100.545C126.654 107.272 131.478 113.16 137.448 117.074C143.418 120.989 150.447 123.043 157.506 124.163Z" fill="#E5CFC1"/>
<path d="M152.761 90.6761C151.726 89.891 150.345 90.8866 150.865 92.0081C154.842 101.079 161.074 109.076 169.7 114.577C172.381 116.28 175.235 117.76 178.409 118.175C181.531 118.566 184.955 117.733 186.877 115.351C188.564 113.254 188.816 110.337 188.226 107.696C187.599 105.068 185.97 101.519 184.616 99.1297C187.519 99.176 166.071 100.723 152.761 90.6761Z" fill="#472B3C"/>
<path d="M154.021 90.3606C152.573 89.7386 150.88 90.586 149.996 91.6323C149.103 92.7658 148.788 94.7208 150.199 95.6914C150.665 96.0025 151.194 95.7034 151.33 95.28C151.632 94.5079 151.389 93.6613 151.782 92.9016C152.207 92.0049 153.077 91.8053 153.993 91.5061C154.604 91.3066 154.639 90.6218 154.021 90.3606Z" fill="#472B3C"/>
<path d="M166.898 69.8124C165.87 69.2732 164.76 68.9697 163.631 68.8396C162.646 68.7458 161.641 68.8255 160.78 69.2758C159.918 69.7261 159.319 70.6329 159.381 71.5734C159.461 72.3405 159.939 73.0188 160.517 73.6223C162.319 75.4942 166.278 77.7012 169.02 76.7581C170.13 76.3931 170.896 75.4729 170.787 74.2975C170.707 73.5304 170.306 72.827 169.804 72.1983C169.03 71.1998 168.031 70.4005 166.898 69.8124Z" fill="#472B3C"/>
<path d="M173.974 57.9871C173.051 57.4969 172.032 57.2053 171.009 57.1241C170.114 57.0423 169.186 57.0968 168.401 57.5219C167.654 57.9344 167.065 58.7546 167.136 59.6084C167.188 60.3013 167.651 60.9425 168.148 61.4474C169.802 63.1592 173.378 65.1578 175.852 64.3028C176.848 63.9756 177.552 63.1176 177.447 62.066C177.396 61.373 177.023 60.7437 176.588 60.1766C175.881 59.2395 174.987 58.4892 173.974 57.9871Z" fill="#472B3C"/>
<path d="M155.333 65.7449C154.68 66.5006 154.288 67.3784 154.349 68.3154C154.152 69.9197 154.464 71.7311 156.079 71.9077C157.514 72.0605 158.011 70.5656 158.112 69.4921C158.209 68.2952 157.934 67.1373 157.354 66.0797C157.006 65.4031 155.863 65.1131 155.333 65.7449Z" fill="#472B3C"/>
<path d="M160.816 57.2992C161.25 56.3999 161.885 55.6864 162.832 55.3325C164.241 54.4904 166.077 53.9699 166.96 55.3607C167.732 56.5777 166.539 57.643 165.548 58.2213C164.481 58.825 163.231 59.0683 161.996 59.0125C161.242 58.9666 160.455 58.0487 160.816 57.2992Z" fill="#472B3C"/>
<path d="M231.096 60.9779C230.948 69.3911 227.244 79.3895 220.111 86.5194C233.158 83.6881 240.817 70.684 241.02 59.9639C241.182 50.9215 237.608 42.1084 232.436 34.2781C232.231 34.3038 232.026 34.3296 231.821 34.3553C224.632 36.5515 231.188 55.5377 231.096 60.9779Z" fill="#CCA78C"/>
<path d="M221.764 85.1134C222.16 85.025 221.383 85.2387 221.764 85.1134C230.754 75.3346 234.942 58.3529 230.114 45.9575C229.971 45.5882 228.58 45.5461 228.613 46.0763C229.211 52.7461 230.975 59.9895 229.862 66.6805C228.548 74.5197 224.861 81.2242 219.351 86.9885C220.19 86.3797 220.991 85.7835 221.764 85.1134Z" fill="#B8896A"/>
<path d="M201.805 41.285C205.997 45.7641 212.189 48.7071 218.426 49.4177C225.405 50.2607 232.373 48.7227 238.781 46.0716C236.478 39.8834 232.829 34.0125 228.633 28.7397C227.015 26.6774 225.178 24.6039 222.625 23.8115C220.072 23.0192 217.58 23.8386 216.251 25.9912C212.542 31.9389 207.587 37.1244 201.805 41.285Z" fill="#472B3C"/>
<path d="M214.88 58.2102C213.144 59.0733 214.638 61.7134 216.375 60.8503C218.097 59.9501 216.603 57.31 214.88 58.2102Z" fill="#472B3C"/>
<path d="M213.238 64.0406C211.502 64.9037 213.01 67.5809 214.732 66.6807C216.469 65.8175 214.975 63.1775 213.238 64.0406Z" fill="#472B3C"/>
<path d="M221.658 60.7426C219.959 61.5931 221.439 64.1959 223.137 63.3454C224.821 62.4579 223.342 59.8551 221.658 60.7426Z" fill="#472B3C"/>
<path d="M214.564 28.5527C213.139 30.5697 211.556 32.513 209.825 34.296C209.786 34.3086 209.801 34.3457 209.762 34.3583C207.335 36.914 204.678 39.2104 201.806 41.2847C202.304 41.7905 202.802 42.2964 203.324 42.7525C204.449 43.7635 214.989 29.8776 216.376 28.543C219.296 25.6995 223.212 24.5374 226.453 27.7819C231.761 33.0247 236.019 39.2405 238.963 45.9719C237.306 41.1188 234.479 36.4829 231.498 32.2323C229.584 29.5139 226.658 23.9483 222.897 23.3856C220.281 22.9903 217.583 23.8358 216.254 25.9887C215.716 26.835 215.14 27.6939 214.564 28.5527Z" fill="#634357"/>
<path d="M87.031 137.115C87.7172 136.973 88.4277 136.78 89.0995 136.599C89.5393 136.496 90.0034 136.342 90.4288 136.201C90.8929 136.047 91.3183 135.905 91.7824 135.751C92.2464 135.597 92.6961 135.405 93.1602 135.251C93.3922 135.174 93.6099 135.059 93.8419 134.982C94.78 134.585 95.7037 134.15 96.5743 133.69C96.7146 133.601 96.9079 133.537 97.0482 133.447C97.5852 133.141 98.0978 132.885 98.5817 132.553C98.6266 133.821 98.3478 135.153 97.9098 136.41C94.4427 137.946 90.6968 138.976 86.923 139.588C78.8439 140.902 70.576 140.569 62.3791 140.768C54.1678 140.929 45.7956 141.699 38.4117 144.963C33.8275 146.997 29.8639 149.981 26.4687 153.545C26.0425 152.19 25.6548 150.822 25.5281 149.454C26.8933 148.231 28.3791 147.096 29.9081 146.076C29.9467 146.063 30.0097 145.999 30.0484 145.986C30.7499 145.54 31.4514 145.093 32.1817 144.722C32.2834 144.646 32.3994 144.607 32.501 144.531C33.3329 144.084 34.1649 143.636 35.0643 143.252C42.4482 139.988 50.8204 139.218 59.0317 139.057C67.2429 138.896 75.5109 139.23 83.5755 137.877C84.4309 137.722 85.3248 137.553 86.1657 137.36C86.4751 137.257 86.7459 137.167 87.031 137.115Z" fill="#C86D47"/>
<path d="M163.362 94.2861C172.166 95.393 184.025 94.0569 192.815 95.1263C195.544 95.4505 195.875 96.3122 198.479 96.7621C188.087 101.244 173.574 100.079 163.362 94.2861Z" fill="#E5CFC1"/>
<path d="M124.178 116.623C125.625 115.3 127.563 114.238 129.722 113.526C134.594 111.961 139.691 111.209 144.625 109.919C147.419 109.166 150.234 108.238 152.827 106.959C154.933 105.884 156.974 103.394 159.162 102.756C162.752 101.699 165.91 105.516 166.884 107.942C167.409 107.726 167.949 107.548 168.479 107.458C174.072 106.415 175.033 113.789 171.126 117.529C162.747 125.576 152.824 126.314 141.179 129.016C135.325 130.398 128.099 131.599 123.781 127.361C120.044 123.734 120.932 119.595 124.178 116.623Z" fill="#FB5E5E"/>
<path d="M172.668 188.486C173.232 188.384 173.639 188.543 174.007 189.048C174.088 189.147 173.949 189.234 173.868 189.136C173.605 188.679 173.223 188.471 172.668 188.486C172.668 188.486 172.682 188.523 172.668 188.486Z" fill="#B8896A"/>
<path d="M-8.34725 261.167C-7.96211 259.7 -7.10789 259 -6.0758 257.865C-4.41973 256.106 -3.07029 254.112 -2.06583 251.897C-0.628891 248.785 0.0169319 245.641 3.70064 244.429C4.27622 244.24 4.96154 244.559 5.17672 245.116C5.46829 245.984 5.51528 246.89 5.35606 247.822C5.41345 247.971 5.43246 248.132 5.4131 248.306C4.27098 253.75 -0.441859 262.379 -7.14515 262.489C-7.79245 262.493 -8.55416 261.864 -8.34725 261.167Z" fill="#B8896A"/>
<path d="M14.7089 257.582C15.3986 254.691 14.7914 251.894 14.928 249.018C14.9284 248.685 15.429 248.646 15.6051 248.879C17.8996 252.038 17.7372 256.628 16.1073 260.536C16.0692 260.548 16.031 260.561 15.9929 260.573C14.1804 261.336 12.7773 262.712 11.5076 264.212C12.9114 262.169 14.158 260.053 14.7089 257.582Z" fill="#B8896A"/>
<path d="M90.9746 227.657C92.8905 221.83 95.6582 216.43 97.1173 210.42C98.5764 204.411 98.4737 198.582 98.1667 192.445C98.1528 192.076 98.7005 191.937 98.8429 192.306C102.343 203.713 98.2599 218.61 91.8832 228.232C91.5445 228.801 90.8264 228.163 90.9746 227.657Z" fill="#B8896A"/>
<path d="M156.898 152.231C158.242 151.662 159.961 151.055 161.432 151.043C162.044 151.057 162.588 151.907 161.938 152.248C160.6 152.945 158.749 153.209 157.192 153.335C156.532 153.423 156.311 152.51 156.898 152.231Z" fill="#D2B196"/>
<path d="M156.408 158.216C157.164 157.925 157.944 157.583 158.701 157.292C159.418 157.014 160.044 156.723 160.816 156.812C161.482 156.851 161.557 157.726 161.115 158.043C160.523 158.537 159.641 158.612 158.933 158.802C158.171 158.966 157.41 159.13 156.687 159.282C156.027 159.37 155.845 158.444 156.408 158.216Z" fill="#D2B196"/>
<path d="M141.949 178.598C135.35 170.504 142.329 158.31 150.471 154.124C159.552 149.461 171.211 150.437 180.742 153.168C189.575 155.661 197.83 159.783 206.478 162.802C215.141 165.859 224.548 167.825 233.513 165.87C235.978 165.318 238.38 164.491 240.87 164.227C243.361 163.964 246.085 164.302 248.033 165.868C251.041 168.274 251.242 172.91 249.414 176.219C247.601 179.565 243.095 183.876 239.3 184.566C224.846 187.299 210.648 193.253 195.631 193.756C179.85 194.296 162.309 191.303 148.457 183.673C146.04 182.345 143.703 180.778 141.926 178.648C142.002 178.623 141.988 178.586 141.949 178.598Z" fill="#D9BBA2"/>
<path d="M248.235 165.851C246.287 164.283 243.561 163.944 241.069 164.208C238.577 164.471 236.175 165.299 233.708 165.851C224.739 167.808 215.329 165.839 206.662 162.779C197.996 159.719 189.752 155.631 180.915 153.135C171.342 150.414 159.717 149.424 150.631 154.09C148.83 155.018 147.097 156.348 145.544 157.915C147.211 155.971 149.124 154.328 151.151 153.199C160.081 148.245 171.758 148.921 181.343 151.342C190.261 153.599 198.638 157.474 207.332 160.271C216.065 163.055 225.503 164.76 234.408 162.527C236.845 161.9 239.219 160.997 241.681 160.658C244.182 160.307 246.879 160.57 248.889 162.075C251.931 164.345 252.285 168.936 250.654 172.31C250.926 169.889 250.183 167.418 248.235 165.851Z" fill="#DFC5AD"/>
<path d="M238.102 169.767C238.644 167.717 241.771 166.867 243.658 166.72C246.424 166.499 249.233 167.499 251.507 169.014C251.415 169.554 251.255 170.032 251.071 170.561C250.941 170.56 250.85 170.548 250.691 170.472C248.472 169.322 246.221 168.311 243.638 168.557C241.674 168.73 240.404 169.91 238.611 170.41C238.212 170.497 237.998 170.056 238.102 169.767Z" fill="#B8896A"/>
<path d="M239.373 164.363C239.075 164.375 238.829 164.073 239.023 163.797C241.349 160.578 247.722 161.429 251.005 163.542C251.293 164.17 251.518 164.86 251.668 165.575C251.576 165.563 251.485 165.55 251.418 165.487C249.505 164.455 247.743 163.587 245.521 163.42C243.313 163.291 241.478 164.228 239.373 164.363Z" fill="#B8896A"/>
<path d="M171.116 156.084C171.783 156.246 172.473 156.358 173.149 156.433C173.786 156.52 174.394 156.532 174.966 156.894C175.485 157.231 175.283 157.929 174.815 158.167C173.687 158.703 171.835 158.043 170.708 157.694C169.801 157.357 170.162 155.848 171.116 156.084Z" fill="#D2B196"/>
<path d="M172.864 161.693C174.725 161.254 177.29 161.517 178.927 162.507C179.221 162.707 179.075 163.221 178.739 163.246C177.769 163.309 176.871 163.221 175.905 163.071C174.901 162.933 173.864 162.933 172.883 162.745C172.268 162.608 172.274 161.843 172.864 161.693Z" fill="#D2B196"/>
<path d="M175.422 153.09C177.073 152.889 179.089 152.739 180.625 153.466C181.207 153.741 180.995 154.531 180.37 154.481C179.54 154.456 178.751 154.205 177.891 154.105C177.069 153.992 176.247 153.88 175.417 153.855C174.951 153.88 174.971 153.153 175.422 153.09Z" fill="#D2B196"/>
<path d="M183.753 157.918C184.353 158.017 184.915 158.13 185.523 158.142C186.132 158.154 186.668 157.979 187.235 158.216C187.644 158.379 187.877 158.978 187.543 159.341C186.533 160.516 184.334 159.967 183.19 159.242C182.579 158.892 183.01 157.78 183.753 157.918Z" fill="#D2B196"/>
<path d="M185.926 163.379C186.891 163.19 187.959 163.266 188.944 163.241C189.929 163.215 191.039 163.065 191.916 163.542C192.393 163.768 192.449 164.471 191.926 164.685C191.034 165.061 190.029 164.923 189.091 164.848C188.038 164.81 186.947 164.785 185.913 164.571C185.321 164.383 185.244 163.517 185.926 163.379Z" fill="#D2B196"/>
<path d="M194.053 158.359C193.612 157.999 193.999 157.116 194.593 157.426C195.187 157.737 195.857 158.023 196.498 158.234C197.139 158.445 197.866 158.544 198.46 158.854C198.986 159.103 198.899 159.762 198.313 159.911C196.91 160.285 195.138 159.266 194.053 158.359Z" fill="#D2B196"/>
<path d="M197.936 161.741C198.51 161.89 199.1 162.077 199.674 162.226C200.249 162.375 200.856 162.387 201.436 162.661C201.911 162.885 201.862 163.532 201.336 163.62C200.132 163.844 198.55 163.098 197.628 162.389C197.254 162.09 197.543 161.617 197.936 161.741Z" fill="#D2B196"/>
<path d="M196.42 167.724C196.347 167.535 196.398 167.221 196.576 167.121C197.294 166.631 198.378 167.083 199.185 167.159C200.2 167.209 201.194 167.096 202.238 167.222C202.641 167.259 202.875 167.862 202.482 168.075C201.533 168.64 200.409 168.753 199.303 168.69C198.419 168.64 196.862 168.64 196.42 167.724Z" fill="#D2B196"/>
<path d="M210.834 164.951C211.679 165.013 212.524 165.076 213.369 165.138C214.123 165.188 215.001 165.113 215.689 165.439C216.112 165.639 216.289 166.428 215.699 166.578C214.918 166.791 214.159 166.616 213.367 166.578C212.469 166.491 211.571 166.403 210.673 166.316C209.775 166.228 209.936 164.863 210.834 164.951Z" fill="#D2B196"/>
<path d="M139.652 177.403C144.377 179.358 148.397 183.174 152.983 185.552C157.898 188.113 163.098 188.951 168.282 190.756C168.885 190.976 168.568 191.831 167.97 191.736C162.187 190.838 156.811 189.431 151.594 186.76C147.3 184.579 142.107 181.859 138.886 178.323C138.389 177.818 139.088 177.17 139.652 177.403Z" fill="#B8896A"/>
<path d="M159.786 148.779C168.29 147.114 180.362 148.858 187.941 153.344C188.378 153.578 188.209 154.265 187.685 154.143C183.058 153.269 178.609 151.622 173.895 150.862C169.234 150.125 164.547 150.113 159.881 149.588C159.439 149.566 159.334 148.843 159.786 148.779Z" fill="#B8896A"/>
<path d="M93.0009 199.397C93.2111 198.829 94.1206 199.07 94.2057 199.625C94.3424 200.869 94.2785 202.596 93.6771 203.708C93.448 204.116 92.6906 204.157 92.5293 203.628C92.1973 202.323 92.5327 200.632 93.0009 199.397Z" fill="#D2B196"/>
<path d="M83.4019 206.642C83.7899 205.639 84.2687 204.647 85.1198 203.95C85.5071 203.615 86.1181 204.081 86.0317 204.527C85.8874 205.492 85.404 206.36 85.1164 207.288C84.8145 208.18 84.5938 209.17 84.0149 209.902C83.7566 210.238 83.107 210.117 83.0023 209.735C82.7167 208.661 83.0379 207.596 83.4019 206.642Z" fill="#D2B196"/>
<path d="M88.1142 213.808C88.3595 212.433 89.1882 211.117 89.8924 209.925C90.1846 209.453 91.1218 209.646 90.9251 210.254C90.5124 211.642 90.0518 213.129 89.1659 214.297C88.8497 214.819 87.9941 214.39 88.1142 213.808Z" fill="#D2B196"/>
<path d="M79.8991 219.015C79.8951 218.223 80.283 217.553 80.5659 216.834C80.8869 216.102 81.1937 215.333 81.725 214.699C82.1942 214.128 83.1165 214.618 83.0393 215.311C82.9381 216.054 82.6171 216.785 82.3582 217.455C82.0611 218.137 81.8977 218.942 81.3234 219.465C80.8879 219.9 79.927 219.757 79.8991 219.015Z" fill="#D2B196"/>
<path d="M86.1329 224.948C86.2676 224.069 86.7944 223.311 87.1777 222.517C87.5993 221.71 87.9541 220.842 88.2848 220.024C88.5916 219.255 89.8488 219.719 89.7094 220.474C89.349 222.221 88.8159 224.525 87.2702 225.659C86.7678 226.033 86.051 225.517 86.1329 224.948Z" fill="#D2B196"/>
<path d="M76.1259 228.571C76.2227 227.702 76.7794 227.016 77.2978 226.343C77.8642 225.571 78.4449 224.836 79.1024 224.075C79.611 223.489 80.684 224.141 80.2951 224.813C79.8484 225.672 79.3731 226.456 78.8354 227.303C78.3841 228.037 77.9471 228.809 77.1606 229.235C76.6379 229.449 76.0822 229.129 76.1259 228.571Z" fill="#D2B196"/>
<path d="M77.4516 234.628C77.8751 233.817 78.7593 233.19 79.4084 232.514C80.0958 231.826 80.6634 231.052 81.4036 230.388C81.9948 229.9 82.647 230.693 82.4735 231.254C82.1458 232.201 81.4389 233.064 80.7515 233.752C80.1024 234.427 79.3043 235.278 78.3389 235.469C77.7625 235.659 77.1868 235.177 77.4516 234.628Z" fill="#D2B196"/>
<path d="M67.2005 237.018C67.6342 235.449 69.3204 234.097 70.5934 233.133C71.4244 232.482 72.3111 233.658 71.8207 234.407C70.9842 235.605 69.7151 237.365 68.2698 237.882C67.7321 238.059 67.0655 237.566 67.2005 237.018Z" fill="#D2B196"/>
<path d="M66.8103 244.561C67.2008 243.885 67.8602 243.458 68.4909 242.955C69.1841 242.39 69.8774 241.825 70.6523 241.359C71.2876 240.981 72.1089 241.763 71.584 242.315C70.9964 242.93 70.3658 243.432 69.711 243.985C69.0947 244.525 68.4687 245.152 67.6604 245.418C67.1359 245.633 66.5307 245.074 66.8103 244.561Z" fill="#D2B196"/>
<path d="M52.9557 245.399C53.8914 244.667 55.1108 244.223 56.1668 243.578C57.2083 242.896 58.1296 242.127 59.1614 241.533C59.5182 241.331 60.0908 241.691 59.8445 242.069C58.6851 244.142 55.9022 246.286 53.4306 246.637C52.7176 246.703 52.4879 245.764 52.9557 245.399Z" fill="#D2B196"/>
<path d="M67.8865 228.061C68.3711 227.19 68.9753 226.406 69.5125 225.56C69.9731 224.74 70.314 223.833 70.8416 223.074C71.1005 222.738 71.7804 222.933 71.7704 223.354C71.7253 225.251 70.3149 227.638 68.7526 228.738C68.2877 229.1 67.6466 228.558 67.8865 228.061Z" fill="#D2B196"/>
<path d="M52.935 251.496C53.9257 250.785 54.9255 250.326 56.0412 249.83C57.1327 249.383 58.181 248.823 59.349 248.692C59.8027 248.627 60.1777 249.268 59.8247 249.598C58.2727 251.005 55.549 252.077 53.4539 252.515C52.8457 252.631 52.3646 251.94 52.935 251.496Z" fill="#D2B196"/>
<path d="M40.0612 251.725C41.1083 251.506 42.1985 251.401 43.241 251.056C43.5499 250.954 43.7999 251.381 43.5198 251.558C42.4864 252.155 41.3811 252.563 40.1514 252.417C39.785 252.369 39.7137 251.84 40.0612 251.725Z" fill="#D2B196"/>
<path d="M115.834 121.766C115.988 121.049 116.036 120.283 116.189 119.566C116.415 118.701 117.784 118.459 118.079 119.445C118.502 120.764 118.361 123.517 116.972 124.265C116.504 124.502 115.741 124.42 115.589 123.804C115.394 123.076 115.643 122.495 115.834 121.766Z" fill="#D2B196"/>
<path d="M107.554 131.489C107.891 130.791 108.612 130.302 109.174 129.739C109.798 129.114 110.332 128.477 110.784 127.741C111.346 126.843 112.795 127.457 112.367 128.479C111.712 130.037 110.299 132.432 108.292 132.504C107.75 132.557 107.314 131.987 107.554 131.489Z" fill="#D2B196"/>
<path d="M116.105 134.297C116.418 132.645 117.762 130.864 118.908 129.692C119.57 129.056 120.643 129.708 120.326 130.565C119.711 132.107 118.592 134.023 117.192 134.985C116.674 135.323 115.985 134.88 116.105 134.297Z" fill="#D2B196"/>
<path d="M99.1837 141.551C100.13 140.394 102.033 139.808 103.417 139.224C104.135 138.945 104.615 139.97 104.032 140.374C102.802 141.245 101.35 142.443 99.7696 142.626C99.1866 142.692 98.8603 141.954 99.1837 141.551Z" fill="#D2B196"/>
<path d="M108.796 139.976C109.007 139.405 109.453 138.882 109.784 138.396C110.163 137.812 110.49 137.202 110.816 136.593C111.19 135.885 112.368 136.25 112.204 137.057C111.935 138.484 111.123 140.298 109.619 140.877C109.044 141.066 108.633 140.448 108.796 139.976Z" fill="#D2B196"/>
<path d="M97.4994 148.307C99.1699 147.33 101.023 146.718 102.583 145.566C103.09 145.186 103.652 145.976 103.145 146.356C101.653 147.57 99.813 148.9 97.7343 149.035C97.3725 149.113 97.1566 148.547 97.4994 148.307Z" fill="#D2B196"/>
<path d="M100.801 133.105C101.123 132.705 101.608 132.504 102.036 132.154C102.54 131.778 102.886 131.328 103.189 130.767C103.502 130.119 104.63 130.461 104.437 131.196C104.114 132.603 102.965 134.449 101.218 134.185C100.671 134.113 100.518 133.492 100.801 133.105Z" fill="#D2B196"/>
<path d="M113.524 109.44C113.573 108.677 113.593 107.839 113.965 107.135C114.179 106.691 114.85 106.762 115.02 107.204C115.357 107.966 115.351 108.84 115.355 109.628C115.359 110.416 115.467 111.253 115.148 111.981C114.862 112.574 113.934 112.504 113.655 111.89C113.318 111.128 113.49 110.241 113.524 109.44Z" fill="#D2B196"/>
<path d="M110.91 119.4C110.331 121.233 110.917 122.518 112.313 124.001C113.671 125.497 115.51 126.457 117.319 127.342C139.777 138.434 165.275 142.505 189.141 138.846C190.284 138.684 191.513 138.409 192.212 137.549C192.593 137.087 192.496 136.065 192.161 135.205C192.165 134.993 192.13 134.793 192.096 134.594L192.081 134.556C192.105 134.506 192.076 134.432 192.099 134.382C195.687 136.625 198.312 142.261 197.313 146.002C196.177 150.166 192.493 153.097 188.379 154.482C184.303 155.855 179.779 155.856 175.379 155.732C155.645 155.176 135.011 152.088 118.191 140.758C114.29 138.153 110.544 134.949 108.549 130.71C106.477 126.496 107.531 122.232 110.91 119.4Z" fill="#B10000"/>
<path d="M109.753 120.463C109.136 122.309 110.163 123.619 111.545 125.066C112.942 126.55 114.781 127.51 116.629 128.383C139.552 139.331 165.708 143.192 190.271 139.307C191.453 139.132 192.682 138.858 193.419 137.984C194.157 137.111 193.889 135.427 192.738 135.128C197.023 136.724 199.734 142.249 198.56 146.429C197.347 150.62 193.546 153.59 189.316 155.013C185.086 156.436 180.485 156.462 175.969 156.376C155.731 155.981 134.555 153.066 117.386 141.843C113.408 139.261 109.584 136.081 107.588 131.84C105.492 127.674 106.274 123.37 109.753 120.463Z" fill="#D20000"/>
<path d="M192.557 144.562C193.818 142.31 196.916 142.136 199.456 143.274C202.753 144.709 205.374 148.581 205.51 151.674C205.644 155.312 202.463 156.81 199.019 155.548C196.514 154.608 194.356 152.802 193.051 150.551C192.134 148.967 191.682 147.148 192.148 145.49C192.275 145.156 192.416 144.859 192.557 144.562Z" fill="#F99122"/>
<path d="M193.286 143.369C194.547 141.117 197.645 140.943 200.185 142.081C203.482 143.516 206.103 147.388 206.239 150.481C206.373 154.119 203.192 155.616 199.748 154.355C197.243 153.415 195.085 151.609 193.779 149.357C192.863 147.774 192.411 145.955 192.877 144.297C192.989 143.926 193.13 143.629 193.286 143.369Z" fill="#F9B233"/>
<path d="M134.15 121.889C145.37 117.95 159.512 118.044 166.341 107.568C166.724 106.97 167.718 107.41 167.402 108.07C165.148 112.923 162.237 115.813 157.031 117.585C149.813 120.024 142.032 122.009 134.503 123.397C133.595 123.527 133.338 122.159 134.15 121.889Z" fill="#EE5652"/>
</g>
</g>
<defs>
<filter id="filter0_d_672_17310" x="-52.065" y="23.2915" width="320.104" height="279.812" filterUnits="userSpaceOnUse" color-interpolation-filters="sRGB">
<feFlood flood-opacity="0" result="BackgroundImageFix"/>
<feColorMatrix in="SourceAlpha" type="matrix" values="0 0 0 0 0 0 0 0 0 0 0 0 0 0 0 0 0 0 127 0" result="hardAlpha"/>
<feOffset dy="10"/>
<feGaussianBlur stdDeviation="5"/>
<feColorMatrix type="matrix" values="0 0 0 0 0 0 0 0 0 0 0 0 0 0 0 0 0 0 0.5 0"/>
<feBlend mode="normal" in2="BackgroundImageFix" result="effect1_dropShadow_672_17310"/>
<feBlend mode="normal" in="SourceGraphic" in2="effect1_dropShadow_672_17310" result="shape"/>
</filter>
<filter id="filter1_d_672_17310" x="-46.065" y="23.2915" width="308.104" height="267.812" filterUnits="userSpaceOnUse" color-interpolation-filters="sRGB">
<feFlood flood-opacity="0" result="BackgroundImageFix"/>
<feColorMatrix in="SourceAlpha" type="matrix" values="0 0 0 0 0 0 0 0 0 0 0 0 0 0 0 0 0 0 127 0" result="hardAlpha"/>
<feOffset dy="4"/>
<feGaussianBlur stdDeviation="2"/>
<feComposite in2="hardAlpha" operator="out"/>
<feColorMatrix type="matrix" values="0 0 0 0 0 0 0 0 0 0 0 0 0 0 0 0 0 0 0.25 0"/>
<feBlend mode="normal" in2="BackgroundImageFix" result="effect1_dropShadow_672_17310"/>
<feBlend mode="normal" in="SourceGraphic" in2="effect1_dropShadow_672_17310" result="shape"/>
</filter>
</defs>
</svg>
