<svg width="32" height="32" viewBox="0 0 32 32" fill="none" xmlns="http://www.w3.org/2000/svg">
<g clip-path="url(#clip0_672_17305)">
<path d="M19.5133 19.9093C18.5293 20.584 18.1147 21.0173 16.8547 21.248C17.4813 25.2707 19.1893 28.9347 21.868 32C22.0227 30.9067 22.4667 29.848 22.8907 29C24.068 29.62 25.5293 29.8893 26.668 29.7467C23.836 26.7973 22.4253 23.748 22.008 19.6813C21.092 19.9773 20.4787 19.9093 19.5133 19.9093ZM9.99334 19.68C9.57601 23.748 8.16534 26.796 5.33334 29.7467C6.47201 29.8893 7.93334 29.6213 9.11068 29C9.53334 29.848 9.97734 30.9067 10.1333 32C12.812 28.9347 14.52 25.2707 15.1467 21.248C13.8867 21.0173 13.472 20.584 12.488 19.9093C11.5213 19.9093 10.908 19.9773 9.99334 19.68ZM16 4C13.06 4 10.6667 6.39333 10.6667 9.33333C10.6667 12.2733 13.06 14.6667 16 14.6667C18.9413 14.6667 21.3333 12.2747 21.3333 9.33333C21.3333 6.392 18.9413 4 16 4ZM25.2347 11.0373C25.3027 11.232 25.3333 11.432 25.3333 11.6307C25.3333 12.2293 25.0373 12.808 24.5133 13.172C22.8387 14.332 23.06 14.04 22.4307 15.928C22.1667 16.716 21.404 17.248 20.5453 17.248H20.54C18.4747 17.2413 18.8347 17.1307 17.1693 18.3C16.82 18.544 16.4107 18.6667 16 18.6667C15.5893 18.6667 15.18 18.544 14.832 18.3C13.1667 17.1293 13.5253 17.2413 11.4613 17.248H11.456C10.596 17.248 9.83468 16.716 9.57201 15.928C8.94134 14.0387 9.15734 14.3307 7.48934 13.172C6.96268 12.8067 6.66668 12.228 6.66668 11.6293C6.66668 11.432 6.69868 11.232 6.76534 11.0373C7.40934 9.156 7.41068 9.51867 6.76534 7.63067C6.69868 7.43467 6.66668 7.23467 6.66668 7.03733C6.66668 6.43733 6.96268 5.86 7.48801 5.49467C9.15601 4.33733 8.94001 4.63067 9.57068 2.73867C9.83334 1.95067 10.596 1.41867 11.4547 1.41867H11.46C13.52 1.42533 13.1547 1.54533 14.8307 0.365333C15.18 0.122667 15.5893 0 16 0C16.4107 0 16.82 0.121333 17.168 0.365333C18.8333 1.536 18.4747 1.42533 20.5387 1.41867H20.544C21.404 1.41867 22.1653 1.95067 22.4293 2.73867C23.06 4.62667 22.8387 4.33467 24.512 5.49467C25.0373 5.86 25.3333 6.43733 25.3333 7.036C25.3333 7.23333 25.3027 7.43467 25.2347 7.62933C24.5907 9.51067 24.588 9.148 25.2347 11.0373ZM22.6667 9.33333C22.6667 5.652 19.6827 2.66667 16 2.66667C12.3187 2.66667 9.33334 5.652 9.33334 9.33333C9.33334 13.0147 12.3187 16 16 16C19.6827 16 22.6667 13.016 22.6667 9.33333Z" fill="#D20000"/>
</g>
<defs>
<clipPath id="clip0_672_17305">
<rect width="32" height="32" fill="white"/>
</clipPath>
</defs>
</svg>
