<svg width="46" height="46" viewBox="0 0 46 46" fill="none" xmlns="http://www.w3.org/2000/svg">
<path fill-rule="evenodd" clip-rule="evenodd" d="M0.1035 44.0832C1.96458 40.4185 4.02883 35.3853 3.92342 31.8778C1.41642 28.884 0 25.0258 0 21.0966C0 10.0163 10.8522 1.9165 23 1.9165C35.0731 1.9165 46 9.95692 46 21.0966C46 32.6963 33.097 43.5293 15.3947 39.2225C12.1804 41.1928 5.09067 43.1823 0.1035 44.0832ZM25.1562 31.6248H20.8438L21.9823 32.3743C22.1298 32.5065 22.3464 32.5832 22.5707 32.5832H23.4293C23.6536 32.5832 23.8702 32.5065 24.0177 32.3743L25.1562 31.6248ZM25.1965 29.7082H20.8284C20.5639 29.7082 20.3492 29.9228 20.3492 30.1873C20.3492 30.4538 20.5639 30.6665 20.8284 30.6665H25.1965C25.461 30.6665 25.6757 30.4518 25.6757 30.1873C25.6757 29.9228 25.461 29.7082 25.1965 29.7082ZM25.6699 28.7498C25.6699 24.9127 28.75 23.3257 28.75 19.9063C28.75 16.3413 25.8731 14.3748 22.9981 14.3748C20.1231 14.3748 17.25 16.3394 17.25 19.9063C17.25 23.3276 20.3301 24.9663 20.3301 28.7498H25.6699ZM30.4175 21.823L33.0031 22.996L32.2096 24.7421L29.7218 23.6132C30.0112 23.0382 30.2507 22.4498 30.4175 21.823ZM15.5844 21.823C15.7512 22.4593 15.9831 23.0305 16.2744 23.6132L13.7904 24.7421L12.9969 22.996L15.5844 21.823ZM33.5417 18.2082H30.4865C30.6264 18.8368 30.6839 19.4828 30.6647 20.1248H33.5417V18.2082ZM15.5135 18.2082H12.4583V20.1248H15.3372V20.121C15.318 19.4789 15.3755 18.8349 15.5135 18.2082ZM28.7922 14.923L31.1727 13.2325L32.2824 14.7965L29.8827 16.5004C29.6029 15.9427 29.2388 15.4156 28.7922 14.923ZM17.2078 14.923C16.767 15.4041 16.4067 15.9293 16.1173 16.4985L13.7195 14.7965L14.8273 13.2325L17.2078 14.923ZM25.7083 12.9163L26.979 10.3383L28.6982 11.1874L27.4256 13.7653C26.8927 13.4127 26.3139 13.129 25.7083 12.9163ZM20.2917 12.9163C19.688 13.1271 19.1072 13.4088 18.5725 13.7634L17.3018 11.1874L19.021 10.3403L20.2917 12.9163ZM23.9583 12.5176C23.3182 12.4428 22.7048 12.439 22.0417 12.5138V9.58317H23.9583V12.5176Z" fill="#D20000"/>
</svg>
