<svg width="40" height="40" viewBox="0 0 40 40" fill="none" xmlns="http://www.w3.org/2000/svg">
<g clip-path="url(#clip0_668_14296)">
<path d="M30.6617 29.8317L32.36 40L20 32.41L7.64 40L10.1067 25.2233L0 15.51L13.8867 13.5933L20 0L25.0783 11.2883C22.9817 13.265 21.6667 16.06 21.6667 19.1667C21.6667 24.5217 25.5567 28.9583 30.6617 29.8317Z" fill="#D20000"/>
<path fill-rule="evenodd" clip-rule="evenodd" d="M40 19.375C40 23.8618 36.3564 27.5 31.875 27.5C27.39 27.5 23.75 23.8618 23.75 19.375C23.75 14.8882 27.39 11.25 31.875 11.25C36.3564 11.25 40 14.8882 40 19.375ZM36.25 18.5H32.75V16.75V15H31V18.4982L27.5 18.5V20.25H31V23.75H32.75V20.25H36.25V18.5Z" fill="#D20000"/>
</g>
<defs>
<clipPath id="clip0_668_14296">
<rect width="40" height="40" fill="white"/>
</clipPath>
</defs>
</svg>
