<svg width="197" height="281" viewBox="0 0 197 281" fill="none" xmlns="http://www.w3.org/2000/svg">
<path d="M76.0235 93.4251C79.2893 96.7691 84.1683 99.0115 89.7949 99.759C95.4215 100.506 101.796 99.759 107.737 97.6346C106.399 95.8249 105.809 93.6218 105.022 91.5367C95.0674 94.6053 84.8372 95.4708 76.0235 93.4251Z" fill="#C85E38"/>
<path d="M105.062 83.8259C95.2248 84.8094 85.1913 88.4288 76.1415 93.1891C84.7192 95.5495 95.3035 94.9594 105.14 91.5761C105.534 88.8616 105.652 86.3437 105.062 83.8259Z" fill="#E5CFC1"/>
<path d="M86.0962 101.215C87.2372 100.9 88.3783 100.428 89.4407 99.8771C90.385 99.3657 91.2506 98.6575 92.2343 98.1855C92.5884 97.9887 93.1786 98.4215 92.8638 98.8149C91.4474 100.743 88.575 101.647 86.2929 102.002C85.8207 102.041 85.5847 101.333 86.0962 101.215Z" fill="#C85E38"/>
<path d="M72.2068 105.345C75.4726 108.689 80.3516 110.932 85.9782 111.679C91.6048 112.427 97.979 111.679 103.92 109.555C102.583 107.745 101.992 105.542 101.205 103.457C91.29 106.525 81.0205 107.391 72.2068 105.345Z" fill="#C85E38"/>
<path d="M101.245 95.7463C91.408 96.7299 81.3745 100.349 72.3247 105.109C80.9024 107.47 91.4867 106.88 101.323 103.496C101.717 100.782 101.835 98.2642 101.245 95.7463Z" fill="#E5CFC1"/>
<path d="M82.2796 113.135C83.4206 112.82 84.5617 112.348 85.6241 111.797C86.5684 111.286 87.434 110.578 88.4177 110.106C88.7718 109.909 89.362 110.342 89.0473 110.735C87.6308 112.663 84.7584 113.568 82.4763 113.922C82.0041 113.961 81.7681 113.253 82.2796 113.135Z" fill="#C85E38"/>
<path d="M71.8132 233.007C63.3143 246.855 45.8836 254.605 29.9087 251.575C28.4135 251.3 26.7216 250.749 26.2101 249.294C25.8166 248.153 26.3675 246.894 27.2725 246.068C28.1775 245.281 31.1678 243.786 32.2695 243.353C26.0134 247.209 17.2783 246.422 11.8091 241.583C11.2582 241.111 10.7074 240.442 10.8254 239.734C11.0222 238.79 12.2813 238.514 13.2256 238.711C14.1699 238.908 15.6651 239.419 16.6094 239.144C10.668 236.469 5.43491 232.298 1.50021 227.105C0.67392 226.043 -0.113022 224.666 0.437836 223.447C0.870651 222.385 2.20844 221.912 3.3495 222.03C4.49057 222.188 6.14314 222.581 7.12682 223.211C-1.17539 214.91 -1.80494 201.062 3.07408 190.4C6.30054 183.358 11.7698 177.221 18.7342 173.838C25.6986 170.455 34.1975 170.061 41.2013 173.366C48.2051 176.67 53.4775 185.483 53.753 193.233C52.966 189.535 49.6215 186.663 45.9229 185.837C42.2243 184.971 38.2896 185.916 34.9451 187.647C26.4462 192.092 21.3311 202.517 23.7706 211.762C26.0921 220.496 34.5123 226.791 43.4441 228.05C52.3758 229.308 61.5437 226.083 68.8229 220.811C70.7509 225.807 70.9476 227.853 71.8132 233.007Z" fill="#D9BBA2"/>
<path d="M42.8146 174.86C35.8108 171.556 27.3119 171.949 20.3475 175.332C13.3831 178.716 7.91384 184.853 4.68739 191.895C-0.191635 202.556 0.437912 216.404 8.74012 224.705C7.75645 224.076 6.10387 223.682 4.96281 223.525C3.82175 223.368 2.48395 223.84 2.05114 224.941C1.53963 226.161 2.32657 227.538 3.11351 228.6C4.37261 230.252 5.7891 231.826 7.32363 233.282C5.19889 231.472 3.27089 229.426 1.57897 227.223C0.752682 226.161 -0.0342522 224.784 0.516605 223.564C0.949425 222.502 2.28722 222.03 3.42828 222.148C4.56934 222.305 6.22192 222.699 7.20559 223.328C-1.09662 215.027 -1.72618 201.179 3.15285 190.518C6.3793 183.476 11.8485 177.339 18.8129 173.956C25.7774 170.572 34.2763 170.179 41.2801 173.483C43.1294 174.388 44.9 175.647 46.4345 177.181C45.2934 176.237 44.0737 175.451 42.8146 174.86Z" fill="#DFC5AD"/>
<path d="M18.1834 240.599C17.2391 240.875 15.7832 240.363 14.7996 240.166C13.8552 239.97 12.5961 240.245 12.3994 241.189C12.3207 241.622 12.5174 242.055 12.7929 242.409C12.4387 242.173 12.124 241.897 11.8092 241.622C11.2583 241.15 10.7075 240.481 10.8255 239.773C11.0223 238.829 12.2814 238.553 13.2257 238.75C13.8552 238.868 14.6815 239.104 15.4291 239.222C16.3341 239.694 17.2391 240.166 18.1834 240.599Z" fill="#DFC5AD"/>
<path d="M45.0967 229.544C39.8636 228.797 34.7878 226.318 31.0105 222.62C34.5517 225.532 38.9979 227.499 43.5622 228.128C52.494 229.387 61.6618 226.161 68.941 220.889C69.2164 221.597 69.4131 222.266 69.6492 222.856C62.4487 227.774 53.6744 230.725 45.0967 229.544Z" fill="#DFC5AD"/>
<path d="M26.4856 247.169C27.9808 247.051 29.4367 246.736 30.8531 246.225C29.9875 246.697 29.2399 247.169 28.8465 247.523C27.9415 248.31 27.3906 249.608 27.7841 250.749C27.8234 250.828 27.8628 250.906 27.9021 251.024C27.1545 250.67 26.4856 250.159 26.2102 249.372C25.9741 248.585 26.1315 247.838 26.4856 247.169Z" fill="#DFC5AD"/>
<path d="M53.5957 191.069C53.7137 191.816 53.7924 192.564 53.8318 193.311C53.517 191.738 52.6907 190.361 51.6284 189.181C52.3366 189.731 53.0055 190.361 53.5957 191.069Z" fill="#DFC5AD"/>
<path d="M39.9028 243.983C41.5161 242.881 43.0899 241.819 44.7032 240.717C37.9355 243.943 29.2792 242.527 23.8886 237.334C25.974 236.39 28.0987 235.406 30.1841 234.462C23.7706 234.895 17.2783 231.63 13.7764 226.279C15.7438 225.689 17.8685 225.886 19.7178 226.712C8.77938 221.794 2.87734 206.609 7.40224 195.515C12.1239 183.949 24.7936 176.08 37.1092 179.385C43.6801 181.155 52.2971 186.073 53.7923 193.272C53.0054 189.574 49.6609 186.702 45.9623 185.876C42.2637 185.011 38.329 185.955 34.9845 187.686C26.4855 192.131 21.3704 202.557 23.8099 211.802C26.1314 220.536 34.5516 226.83 43.4834 228.089C52.4152 229.348 61.583 226.122 68.8622 220.85C69.8459 223.525 70.3574 225.335 70.7509 227.263C62.8421 236.193 51.7856 242.37 39.9028 243.983Z" fill="#C85E38"/>
<path d="M110.413 192.879C117.062 187.056 125.679 183.594 134.532 183.201C143.346 182.847 152.278 185.561 159.36 190.794C169.236 198.111 175.374 210.74 173.486 222.896C171.282 237.137 159.478 247.602 152.042 259.955C155.976 260.663 159.36 257.516 163.138 256.218C168.371 254.369 174.587 255.864 178.444 259.876C182.3 263.889 183.519 270.144 181.473 275.298C176.909 276.045 170.85 276.596 166.246 276.399C160.462 276.163 129.378 274 119.738 271.679C108.721 269.043 103.369 257.162 97.979 247.169C94.4771 240.678 91.5261 233.793 90.267 226.515C89.0079 219.237 89.598 211.487 92.9032 204.878C96.2477 198.308 103.133 194.098 110.413 192.879Z" fill="#CCA78C"/>
<path d="M170.653 261.135C174.391 264.518 176.24 271.521 173.446 276.045C173.092 276.085 172.738 276.085 172.384 276.124C172.384 276.085 172.345 276.045 172.345 276.006C172.778 273.606 173.368 271.403 173.014 268.964C172.62 266.289 171.4 264.046 169.787 261.922C169.394 261.332 170.102 260.663 170.653 261.135Z" fill="#B8896A"/>
<path d="M177.971 275.534C178.404 273.134 178.994 270.931 178.64 268.492C178.247 265.817 177.027 263.574 175.414 261.45C174.981 260.899 175.689 260.23 176.24 260.703C179.939 264.047 181.788 271.01 179.112 275.495C178.758 275.534 178.365 275.573 178.011 275.652C178.011 275.573 177.971 275.573 177.971 275.534Z" fill="#B8896A"/>
<path d="M196.976 276.36C197.055 273.921 196.976 271.442 196.189 269.121C195.402 266.8 193.828 264.676 191.625 263.614C189.421 262.551 186.195 261.883 184.464 263.614C181.434 261.647 184.936 263.653 181.906 261.686C182.89 246.697 181.631 233.242 181.906 218.214C182.182 203.186 183.323 183.122 178.601 168.881C175.768 190.282 166.207 208.772 153.143 225.925C156.409 241.504 163.216 262.276 170.889 276.203C180.49 279.743 186.903 278.052 196.976 276.36Z" fill="#D9BBA2"/>
<path d="M154.835 237.531C159.793 223.486 166.167 212.864 169.276 198.308C170.063 194.649 170.692 190.951 171.243 187.214C173.919 180.132 175.847 172.736 176.87 164.947C177.027 165.458 177.185 166.009 177.342 166.521C177.381 166.717 177.421 166.914 177.46 167.071C177.539 167.268 177.617 167.504 177.696 167.701C178.404 170.101 179.073 172.579 179.624 175.176C181.395 184.971 183.165 195.239 179.388 215.579C177.46 225.807 165.538 229.072 156.881 240.521C156.685 240.088 154.993 238.003 154.835 237.531Z" fill="#CCA78C"/>
<path d="M78.7777 168.724C86.2143 160.934 95.1854 154.64 102.11 146.418C104.786 143.231 107.147 139.769 109.272 136.189C110.531 131.311 109.941 125.646 108.327 120.728C105.652 112.702 100.93 105.306 99.7103 96.9268C97.979 84.8491 104.747 72.0633 115.725 66.713C121.233 54.2419 122.177 41.3381 127.607 28.7884C132.604 17.2615 140.316 6.12806 151.452 0.580995C153.419 -0.402526 155.858 -0.0877993 157.432 1.48584C165.616 9.8261 173.643 36.1058 175.965 53.6125C180.017 84.1803 173.171 116.676 180.293 146.024C180.49 146.142 180.686 146.26 180.922 146.378C181.985 150.037 183.205 154.01 184.188 158.141C184.503 158.928 184.818 159.715 185.172 160.502C185.015 160.502 184.857 160.462 184.7 160.462C186.274 167.74 187.021 175.176 184.818 181.431C183.755 178.874 182.654 176.356 181.591 173.799C183.755 181.51 182.26 190.125 177.617 196.656C176.28 195.436 175.611 193.469 176.004 191.66C170.102 213.848 158.455 237.413 143.267 254.605C138.861 259.601 131.345 261.765 124.617 264.48C128.237 264.716 131.424 261.922 134.965 260.663C140.198 258.814 146.415 260.309 150.271 264.322C154.127 268.335 155.347 274.59 153.301 279.744C148.737 280.491 142.677 281.042 138.074 280.845C132.29 280.609 101.205 278.445 91.5655 276.124C85.9389 274.787 81.8074 271.049 78.3842 266.368C67.0917 256.139 59.6551 241.465 58.1206 226.201C55.9565 205.311 64.2587 183.909 78.7777 168.724Z" fill="#D9BBA2"/>
<path d="M87.9455 114.669C89.1652 113.961 90.385 113.332 91.4867 112.466C92.3917 111.758 93.0999 110.814 94.0049 110.145C94.3197 109.909 94.7525 110.302 94.6345 110.656C93.7688 113.017 90.5424 114.945 88.2603 115.495C87.7881 115.574 87.5127 114.945 87.9455 114.669Z" fill="#C85E38"/>
<path d="M194.34 273.016C193.986 270.538 192.805 268.413 191.31 266.407C190.917 265.895 191.585 265.266 192.058 265.699C194.812 268.138 196.425 272.662 195.796 276.557C195.245 276.635 194.733 276.753 194.182 276.832C194.418 275.573 194.536 274.314 194.34 273.016Z" fill="#B8896A"/>
<path d="M189.028 273.449C188.674 270.97 187.493 268.846 185.998 266.84C185.605 266.328 186.274 265.699 186.746 266.132C189.618 268.689 191.271 273.488 190.405 277.462C189.893 277.54 189.343 277.619 188.831 277.698C189.107 276.321 189.264 274.944 189.028 273.449Z" fill="#B8896A"/>
<path d="M108.091 138.077C106.281 140.988 104.314 143.781 102.11 146.417C95.1854 154.679 86.2143 160.934 78.7777 168.723C64.2587 183.909 55.9565 205.31 58.1205 226.24C59.0255 235.131 61.9372 243.825 66.4227 251.575C63.7472 245.95 61.8192 239.93 60.9142 233.754C57.8058 212.982 65.1243 191.226 78.9351 175.372C86.0175 167.268 94.6739 160.541 101.205 152.004C103.684 148.778 105.77 145.316 107.698 141.736C107.776 140.516 107.934 139.297 108.091 138.077Z" fill="#DFC5AD"/>
<path d="M179.427 168.999C182.457 172.185 183.991 177.811 182.732 182.06C182.496 182.886 181.355 182.571 181.316 181.824C181.198 179.7 181.277 177.614 180.804 175.529C180.332 173.444 179.467 171.517 178.64 169.55C178.483 169.038 179.034 168.566 179.427 168.999Z" fill="#B8896A"/>
<path d="M175.375 172.067C175.335 171.674 175.886 171.399 176.083 171.792C178.089 176.474 178.404 182.257 176.673 187.096C176.476 187.686 175.493 187.568 175.571 186.899C176.004 181.785 176.083 177.182 175.375 172.067Z" fill="#B8896A"/>
<path d="M172.62 181.981C172.62 181.588 173.25 181.509 173.328 181.903C174.273 187.292 173.447 193.469 170.417 198.111C170.141 198.544 169.433 198.229 169.591 197.718C171.4 192.446 172.581 187.647 172.62 181.981Z" fill="#B8896A"/>
<path d="M142.599 266.368C146.14 269.593 148.028 276.124 145.786 280.648C145.353 280.688 144.881 280.727 144.448 280.727C144.841 278.524 145.353 276.478 145.038 274.157C144.645 271.482 143.425 269.239 141.812 267.115C141.339 266.564 142.048 265.895 142.599 266.368Z" fill="#B8896A"/>
<path d="M149.406 280.215C149.838 277.816 150.429 275.613 150.074 273.173C149.681 270.498 148.461 268.256 146.848 266.131C146.415 265.581 147.123 264.912 147.674 265.384C151.373 268.728 153.222 275.691 150.547 280.176C150.193 280.215 149.799 280.255 149.445 280.334C149.445 280.255 149.406 280.255 149.406 280.215Z" fill="#B8896A"/>
<path d="M65.1243 214.202C65.3997 213.1 67.0523 213.651 66.7769 214.713C66.5408 215.736 66.4621 216.955 65.7539 217.782C65.3604 218.214 64.6522 217.9 64.5341 217.388C64.298 216.405 64.8882 215.185 65.1243 214.202Z" fill="#D2B196"/>
<path d="M63.5898 222.306C63.7865 221.48 65.203 221.716 65.085 222.581C64.9669 223.722 65.2817 225.02 64.9669 226.122C64.8489 226.555 64.18 226.751 63.9046 226.358C63.0783 225.217 63.3144 223.565 63.5898 222.306Z" fill="#D2B196"/>
<path d="M67.4851 222.935C67.5638 221.991 68.9016 222.07 68.941 222.975C68.941 224.233 69.0197 225.532 68.6655 226.791C68.5082 227.381 67.5638 227.341 67.4458 226.751C67.1704 225.492 67.3671 224.194 67.4851 222.935Z" fill="#D2B196"/>
<path d="M64.8488 235.485C65.2029 237.098 65.9899 238.868 65.9899 240.521C65.9899 240.953 65.3603 241.229 65.0849 240.835C64.0225 239.458 63.7077 237.452 63.393 235.8C63.1962 234.895 64.6521 234.541 64.8488 235.485Z" fill="#D2B196"/>
<path d="M109.626 126.511C109.39 128.202 110.058 129.225 111.357 130.287C112.655 131.35 114.229 131.861 115.803 132.333C135.319 138.195 156.37 137.408 175.02 130.13C175.925 129.776 176.87 129.343 177.302 128.478C177.499 128.084 177.381 127.415 177.106 126.825C177.106 126.707 177.106 126.629 177.066 126.511C176.988 126.275 176.988 126.078 176.948 125.842C180.057 127.297 182.811 131.625 182.496 135.008C182.142 138.824 179.585 142.05 176.476 143.939C173.368 145.827 169.748 146.614 166.207 147.243C150.31 150.115 133.273 150.981 118.243 143.939C114.741 142.326 111.318 140.162 109.153 136.818C107.029 133.513 107.304 129.579 109.626 126.511Z" fill="#B10000"/>
<path d="M108.878 127.691C108.642 129.382 109.626 130.366 110.924 131.428C112.223 132.49 113.875 133.002 115.449 133.435C135.319 139.06 156.842 137.998 176.043 130.405C176.948 130.051 177.932 129.619 178.404 128.714C178.876 127.809 178.443 126.393 177.46 126.353C181.119 127.022 184.031 131.389 183.637 135.244C183.244 139.1 180.568 142.365 177.381 144.332C174.194 146.26 170.495 147.086 166.836 147.794C150.546 150.902 133.116 152.003 117.849 145.119C114.308 143.545 110.806 141.421 108.642 138.077C106.439 134.693 106.439 130.838 108.878 127.691Z" fill="#D20000"/>
<path d="M176.319 137.605C178.247 136.385 180.529 137.526 181.906 139.454C183.677 141.893 183.873 145.945 182.614 148.345C181.119 151.177 178.129 151.059 176.201 148.66C174.784 146.929 173.997 144.647 174.076 142.365C174.115 140.791 174.587 139.178 175.65 138.116C175.847 137.959 176.083 137.762 176.319 137.605Z" fill="#F99122"/>
<path d="M177.342 136.975C179.27 135.756 181.552 136.897 182.929 138.824C184.7 141.263 184.896 145.315 183.637 147.715C182.142 150.548 179.152 150.43 177.224 148.03C175.807 146.299 175.02 144.017 175.099 141.735C175.138 140.162 175.611 138.549 176.673 137.487C176.87 137.29 177.106 137.093 177.342 136.975Z" fill="#F9B233"/>
<path d="M121.981 187.765C123.397 186.23 124.263 184.539 124.814 182.729C123.437 176.277 124.578 169.117 127.332 163.294C127.411 163.098 127.686 162.94 127.922 162.94C128.04 162.94 128.119 162.98 128.237 162.98C128.591 163.019 128.906 163.491 128.552 163.767C128.512 163.806 128.512 163.806 128.473 163.845C127.804 164.239 127.253 168.684 127.056 169.786C126.978 170.179 126.938 170.533 126.899 170.927C126.938 170.769 127.056 170.691 127.214 170.691C127.293 170.415 127.371 170.179 127.45 169.904C127.883 168.606 129.811 169.117 129.496 170.455C127.686 178.834 130.912 186.506 135.634 193.312C135.792 193.508 135.949 193.705 136.106 193.862C136.46 193.823 136.815 193.941 137.129 194.295C137.72 195.003 138.349 195.672 138.939 196.262C140.749 196.734 142.52 197.324 144.408 197.56C146.14 197.757 147.832 197.757 149.563 197.678C151.452 197.285 153.262 196.538 155.072 195.279C156.016 194.61 157.629 195.515 157.472 196.656C157.236 198.898 157.078 201.18 157 203.422C157.157 206.097 157.511 208.733 158.062 211.33C158.573 212.235 158.888 213.179 158.652 213.966C159.557 217.585 160.777 221.165 162.233 224.784C162.705 225.925 160.895 226.633 160.265 225.61C158.298 222.345 156.881 218.844 155.898 215.224C154.206 212.077 152.632 208.733 149.917 206.569C146.533 203.894 142.244 203.501 138.27 202.163C137.641 201.927 137.72 200.944 138.428 200.944C138.743 200.944 139.018 200.944 139.333 200.983C139.175 200.904 139.057 200.826 138.9 200.708C138.27 200.511 137.601 200.314 136.972 200.039C135.949 199.645 135.713 198.662 135.988 197.914L135.949 197.875C135.516 198.19 134.808 198.15 134.414 197.6C131.424 193.469 127.135 192.564 122.846 190.322C122.532 190.164 122.335 189.85 122.256 189.496C121.705 189.22 121.391 188.433 121.981 187.765Z" fill="#CCA78C"/>
<path d="M127.686 181.942C127.843 181.076 129.102 181.195 129.299 181.942C131.03 187.646 132.801 193.862 138.979 196.38C143.228 198.111 151.452 198.032 155.583 195.397C155.583 195.318 155.583 195.239 155.622 195.2C155.78 193.98 157.668 194.492 157.472 195.711C156.016 206.294 158.77 216.326 162.665 226.122C163.02 226.948 163.531 227.695 163.02 226.948C156.999 218.529 154.403 207.592 155.308 197.836C151.57 201.219 141.339 200.314 137.916 198.898C131.857 196.38 126.427 188.551 127.686 181.942Z" fill="#B8896A"/>
<path d="M138.152 154.325C134.572 155.072 131.739 157.984 130.204 161.328C128.67 164.632 128.237 168.37 127.883 171.989C127.214 178.913 127.096 186.624 131.621 191.895C134.336 195.043 138.428 196.852 142.559 197.324C146.691 197.797 150.901 197.088 154.914 195.908C155.662 195.672 156.803 195.239 157.55 195.043C156.685 205.114 156.567 214.91 161.249 223.88C162.783 226.869 165.735 229.899 169 229.112C171.243 228.561 172.699 226.397 173.761 224.352C177.46 217.27 179.585 209.402 179.978 201.416C180.214 196.577 179.781 191.62 177.971 187.135C176.161 182.65 172.856 178.638 168.449 176.631C164.239 174.703 159.439 174.743 154.993 173.366C146.612 170.848 139.097 163.019 138.152 154.325Z" fill="#D9BBA2"/>
<path d="M139.923 156.606C143.267 164.947 147.753 170.415 156.803 172.461C161.485 173.523 166.325 173.916 170.574 176.356C176.043 179.503 179.742 185.207 180.49 191.384C180.135 192.21 179.781 192.997 179.349 193.784C178.325 187.292 175.768 181.352 169.708 177.851C164.043 174.585 157.236 175.136 151.333 172.697C144.644 169.904 140.356 163.885 138.585 157C138.349 156.095 139.608 155.78 139.923 156.606Z" fill="#B8896A"/>
<path d="M116.63 186.624C131.817 189.535 145.943 200.275 148.225 216.326C149.366 224.273 147.674 232.259 144.29 239.458C140.749 246.972 134.69 252.48 130.637 259.444C135.005 258.106 138.9 256.886 143.503 258.303C147.91 259.64 150.665 261.961 152.593 266.131C152.829 266.604 154.324 271.246 153.93 271.639C153.93 271.639 152.907 268.335 152.514 267.548C149.917 262.276 142.638 259.05 136.854 260.348C133.234 261.175 128.079 265.069 124.46 263.968C124.617 263.456 124.774 262.63 125.089 262.197C126.899 253.503 135.477 248.782 139.136 241.111C140.867 237.413 142.284 233.636 143.503 229.662C145.55 216.916 141.733 206.097 131.581 195.121C126.938 192.053 121.587 189.85 116.039 188.551C114.741 188.276 115.37 186.388 116.63 186.624Z" fill="#B8896A"/>
<path d="M172.069 223.014C172.738 220.889 172.738 218.49 172.305 216.326C172.227 215.893 172.817 215.736 172.974 216.129C174.588 220.103 173.565 226.279 169.709 228.876C169.472 228.954 169.276 229.072 169 229.112C168.804 229.151 168.607 229.151 168.371 229.19C168.292 229.033 168.253 228.797 168.41 228.6C169.866 226.751 171.361 225.335 172.069 223.014Z" fill="#B8896A"/>
<path d="M164.633 228.01C164.672 227.971 164.672 227.932 164.711 227.892C167.23 224.902 167.82 221.322 167.112 217.546C166.994 216.955 167.781 216.759 167.977 217.31C169.512 221.165 168.449 225.571 165.892 228.718C165.42 228.522 165.026 228.286 164.633 228.01Z" fill="#B8896A"/>
<path d="M179.899 159.36C182.221 159.321 183.952 162.114 185.093 163.845C186.549 166.127 187.375 168.96 187.1 171.635C187.021 172.343 186.116 172.5 185.841 171.792C185.014 169.471 184.188 167.229 182.929 165.065C181.945 163.373 179.781 161.918 179.388 159.99C179.309 159.675 179.545 159.36 179.899 159.36Z" fill="#B8896A"/>
<path d="M179.899 153.42C182.654 153.577 184.975 155.78 186.156 158.101C186.352 158.495 185.88 158.928 185.526 158.574C184.66 157.708 183.677 156.882 182.654 156.213C181.67 155.544 180.568 155.112 179.585 154.482C179.152 154.207 179.309 153.381 179.899 153.42Z" fill="#B8896A"/>
<path d="M172.62 160.659C173.21 161.131 173.879 161.367 174.352 161.917C174.863 162.547 175.257 163.255 175.611 164.003C176.24 165.419 176.437 166.678 176.634 168.212C176.752 169.078 175.375 169.196 175.138 168.409C174.745 167.032 174.155 165.616 173.604 164.278C173.368 163.727 173.092 163.176 172.935 162.626C172.738 161.996 172.738 161.327 172.502 160.698C172.463 160.659 172.542 160.659 172.62 160.659Z" fill="#B8896A"/>
<path d="M141.615 215.972C142.756 218.096 143.858 221.126 142.756 223.486C142.48 224.116 141.536 223.801 141.379 223.25C141.143 222.227 141.261 221.126 141.143 220.063C141.025 218.923 140.749 217.742 140.316 216.641C140.002 215.815 141.143 215.146 141.615 215.972Z" fill="#D2B196"/>
<path d="M137.326 206.373C138.939 206.648 140.434 209.323 140.12 210.858C140.041 211.33 139.333 211.408 139.057 211.094C138.585 210.543 138.349 209.756 137.956 209.127C137.523 208.497 136.893 207.946 136.618 207.238C136.421 206.687 136.814 206.255 137.326 206.373Z" fill="#D2B196"/>
<path d="M134.375 211.369C136.146 211.723 137.208 214.713 136.775 216.287C136.657 216.68 136.028 216.759 135.831 216.365C135.516 215.578 135.359 214.752 134.965 213.965C134.611 213.257 133.982 212.628 133.785 211.841C133.706 211.526 134.06 211.29 134.375 211.369Z" fill="#D2B196"/>
<path d="M129.732 202.911C130.44 203.147 130.873 203.737 131.345 204.288C131.857 204.878 132.408 205.429 132.801 206.097C133.155 206.688 132.368 207.396 131.857 207.002C131.227 206.53 130.716 205.94 130.204 205.389C129.693 204.878 129.142 204.366 128.984 203.658C128.866 203.147 129.299 202.753 129.732 202.911Z" fill="#D2B196"/>
<path d="M128.866 197.049C130.912 196.892 133.352 198.701 133.863 200.708C134.021 201.376 133.195 201.77 132.722 201.298C132.093 200.629 131.581 199.882 130.834 199.331C130.125 198.819 129.299 198.426 128.552 197.993C128.079 197.757 128.434 197.088 128.866 197.049Z" fill="#D2B196"/>
<path d="M121.233 194.767C122.532 194.531 124.145 195.751 124.971 196.655C125.522 197.285 124.735 198.308 124.027 197.796C123.515 197.403 123.004 197.01 122.453 196.734C121.902 196.459 121.312 196.301 120.879 195.869C120.525 195.515 120.722 194.846 121.233 194.767Z" fill="#D2B196"/>
<path d="M139.766 230.607C140.002 229.78 140.12 228.915 140.159 228.049C140.198 227.184 141.497 227.223 141.497 228.089C141.457 229.702 141.339 231.984 140.12 233.203C139.766 233.557 139.097 233.242 139.136 232.77C139.215 231.984 139.569 231.315 139.766 230.607Z" fill="#D2B196"/>
<path d="M136.696 221.834C136.932 222.581 137.011 223.368 137.051 224.115C137.051 224.509 137.051 224.863 137.011 225.256C136.972 225.728 136.814 225.925 136.657 226.358C136.5 226.869 135.634 226.909 135.516 226.319C135.437 225.886 135.319 225.61 135.319 225.178C135.319 224.863 135.319 224.548 135.319 224.194C135.28 223.447 135.241 222.699 135.201 221.952C135.201 221.126 136.46 221.086 136.696 221.834Z" fill="#D2B196"/>
<path d="M134.257 235.17C134.375 234.541 134.454 233.872 134.611 233.242C134.808 232.574 135.791 232.652 135.949 233.282C136.264 234.659 135.87 236.429 134.847 237.413C134.532 237.727 133.982 237.452 134.021 237.019C134.021 236.39 134.139 235.8 134.257 235.17Z" fill="#D2B196"/>
<path d="M59.1435 206.097C61.9765 192.171 68.9016 179.031 78.7383 168.763C86.1749 160.973 95.146 154.679 102.071 146.457C102.897 145.473 103.645 144.49 104.432 143.467C104.786 144.293 105.061 145.119 105.219 145.827C106.399 150.784 105.848 156.056 107.54 160.855C108.878 164.593 111.475 167.779 113.324 171.281C116.944 178.126 117.613 186.23 116.197 193.823C114.78 201.416 111.396 208.497 107.265 215.028C103.92 220.299 99.907 225.453 94.2803 228.246C88.6931 231.039 81.2172 230.921 76.8103 226.515C72.9149 222.621 72.128 216.444 68.3113 212.471C65.7538 209.795 62.0158 208.418 59.1435 206.097Z" fill="#C85E38"/>
<path d="M105.258 145.788C105.258 145.827 105.258 145.866 105.298 145.906C104.038 147.991 102.701 150.036 101.205 151.964C94.6739 160.541 86.0175 167.228 78.9351 175.333C70.7903 184.656 64.9669 196.065 62.1339 208.064C61.1109 207.435 60.0879 206.805 59.1829 206.019C59.1829 205.979 59.2222 205.901 59.2222 205.861C59.3796 205.035 59.5764 204.248 59.7731 203.422C59.9305 202.793 60.0879 202.163 60.2453 201.534C60.3633 201.101 60.4813 200.629 60.5994 200.196C60.7568 199.606 60.9535 198.977 61.1503 198.386C61.3863 197.6 61.6618 196.813 61.9372 196.026C62.1733 195.397 62.4094 194.767 62.6454 194.138C62.8422 193.626 63.0389 193.115 63.275 192.603C63.4717 192.092 63.7078 191.58 63.9439 191.069C64.3373 190.164 64.7308 189.259 65.1636 188.394C65.3604 188 65.5571 187.568 65.7932 187.174C66.108 186.545 66.4227 185.915 66.7769 185.286C67.0129 184.892 67.2097 184.46 67.4458 184.066C67.9573 183.161 68.5081 182.217 69.059 181.312C69.2164 181.076 69.3738 180.801 69.5312 180.565C70.0033 179.818 70.4755 179.07 70.987 178.362C71.1837 178.047 71.4198 177.772 71.6165 177.457C72.2854 176.552 72.915 175.608 73.6232 174.743C73.7019 174.625 73.7806 174.546 73.8593 174.428C74.4889 173.602 75.1578 172.776 75.8267 171.989C76.0234 171.753 76.2201 171.517 76.4169 171.281C77.1645 170.415 77.9514 169.55 78.7777 168.684C86.2143 160.895 95.1854 154.6 102.11 146.378C102.937 145.394 103.724 144.411 104.471 143.388C104.786 144.253 105.101 145.08 105.258 145.788Z" fill="#C86D47"/>
<path d="M172.305 45.6654C173.092 53.2976 172.66 61.4805 168.41 67.8537C164.121 74.2269 154.993 77.7676 148.461 73.7548C143.818 70.9223 141.654 65.2178 141.339 59.7495C141.025 54.3204 142.205 48.9307 142.638 43.5017C143.071 38.0726 142.638 32.2895 139.49 27.8047C137.759 25.3655 135.201 23.0838 135.319 20.0939C135.437 17.0253 138.428 14.9402 141.182 13.6026C148.776 9.90458 159.911 9.70788 165.066 17.6547C169.827 24.9721 171.44 37.3252 172.305 45.6654Z" fill="#E5CFC1"/>
<path d="M151.412 0.580995C143.936 4.27904 137.995 10.5342 133.391 17.7336C137.365 22.3365 142.795 25.4051 148.382 26.2312C155.111 27.2148 161.918 25.5231 168.292 22.4152C165.066 13.3274 161.249 5.41992 157.393 1.48584C155.819 -0.0877993 153.38 -0.402526 151.412 0.580995Z" fill="#472B3C"/>
<path d="M157.393 4.59376C155.858 3.02013 153.419 2.7054 151.412 3.68892C144.566 7.07224 139.057 12.6193 134.611 19.0319C134.178 18.5991 133.785 18.1664 133.391 17.7336C137.995 10.5342 143.936 4.31838 151.412 0.580995C153.38 -0.402526 155.819 -0.0877993 157.393 1.48584C161.288 5.41992 165.105 13.2881 168.292 22.4152C167.977 22.5725 167.623 22.6906 167.308 22.8479C164.318 14.9011 160.895 8.13444 157.393 4.59376Z" fill="#634357"/>
<path d="M161.721 34.9252C160.619 33.8236 159.754 33.7843 159.085 34.2957C159.006 34.2957 158.967 34.3351 158.888 34.3351C158.809 34.3351 158.731 34.3744 158.652 34.4138C158.613 34.4138 158.613 34.4138 158.573 34.4531C157.826 34.7285 157.157 35.3579 156.724 36.4595C155.15 40.4329 154.796 46.098 158.495 49.1666C159.714 50.1894 161.76 50.4255 162.823 49.2846C163.334 48.7338 163.531 47.9864 163.688 47.2782C164.515 43.6195 164.515 37.7971 161.721 34.9252Z" fill="#472B3C"/>
<path d="M158.258 19.1101C159.99 22.0214 160.147 25.6407 160.737 28.9453C161.328 32.3287 162.114 35.7513 162.154 39.2133C162.154 40.3149 160.619 40.4722 160.265 39.4494C159.045 35.7907 158.691 31.8566 158.101 28.0405C157.668 25.1293 156.881 22.1 157.472 19.1888C157.55 18.8347 158.062 18.7954 158.258 19.1101Z" fill="#472B3C"/>
<path d="M118.833 58.0577C118.872 57.9003 119.069 57.9397 119.108 58.097C119.148 62.5819 118.597 67.0274 118.794 71.5123C119.03 76.6659 120.171 81.6229 120.997 86.6978C121.076 87.2486 120.407 87.406 120.21 86.9339C116.866 78.4363 115.961 66.8307 118.833 58.0577Z" fill="#CCA78C"/>
<path d="M107.973 70.0567C108.917 68.247 114.78 65.2571 115.449 68.6011C116.039 71.591 113.875 76.3512 110.963 77.3347C110.57 77.4528 110.334 77.02 110.491 76.7053C111.593 74.5415 113.167 72.9679 113.482 70.4501C113.521 70.1354 113.56 69.8206 113.56 69.5059C113.678 68.9551 113.639 68.8371 113.442 69.1125C113.206 69.0732 112.183 69.5846 111.908 69.7026C110.885 70.1747 110.058 70.9222 108.996 71.3549C108.209 71.6697 107.658 70.6861 107.973 70.0567Z" fill="#472B3C"/>
<path d="M104.629 74.1481C105.062 73.2039 106.203 73.4007 106.635 74.1088C107.973 75.3677 107.619 77.6101 107.068 79.1051C106.754 79.9706 105.573 79.8526 105.101 79.2624C103.999 77.7675 103.881 75.8398 104.629 74.1481Z" fill="#472B3C"/>
<path d="M174.587 187.253C175.217 188.827 176.319 190.597 176.201 192.367C176.161 192.997 175.453 193.154 175.099 192.682C174.037 191.266 173.919 189.22 173.604 187.568C173.407 186.86 174.351 186.624 174.587 187.253Z" fill="#D2B196"/>
<path d="M175.571 196.695C175.571 196.105 176.437 195.79 176.712 196.38C177.381 197.718 177.814 200 177.066 201.376C176.752 201.927 175.965 201.77 175.807 201.219C175.571 200.55 175.689 199.724 175.65 199.016C175.611 198.229 175.532 197.482 175.571 196.695Z" fill="#D2B196"/>
<path d="M170.968 191.502C171.794 192.839 172.778 194.925 172.148 196.538C171.951 196.97 171.282 197.206 171.007 196.695C170.653 195.987 170.653 195.161 170.496 194.413C170.378 193.587 170.22 192.721 169.984 191.935C169.866 191.345 170.653 190.99 170.968 191.502Z" fill="#D2B196"/>
<path d="M170.692 200.393C170.614 199.724 171.597 199.685 171.794 200.236C172.187 201.377 172.778 203.58 171.991 204.681C171.794 204.957 171.282 205.075 171.086 204.681C170.771 204.052 170.889 203.422 170.889 202.754C170.85 201.967 170.771 201.18 170.692 200.393Z" fill="#D2B196"/>
<path d="M167.977 179.975C169.354 180.172 170.732 181.431 171.282 182.69C171.597 183.398 170.732 184.263 170.102 183.594C169.669 183.122 169.276 182.611 168.764 182.217C168.292 181.824 167.741 181.549 167.269 181.155C166.679 180.644 167.387 179.857 167.977 179.975Z" fill="#D2B196"/>
<path d="M163.334 183.044C164.79 182.808 166.64 183.752 167.623 184.814C168.174 185.404 167.466 186.27 166.797 185.916C166.207 185.601 165.617 185.247 165.026 184.971C164.436 184.696 163.728 184.539 163.216 184.145C162.823 183.909 162.784 183.122 163.334 183.044Z" fill="#D2B196"/>
<path d="M156.842 177.772C158.101 177.536 159.675 177.969 160.895 178.323C161.603 178.559 161.524 179.7 160.698 179.66C159.439 179.621 157.786 179.503 156.685 178.873C156.291 178.598 156.331 177.89 156.842 177.772Z" fill="#D2B196"/>
<path d="M175.335 207.238C175.335 206.569 175.335 205.901 175.217 205.232C175.099 204.524 176.122 203.973 176.476 204.72C177.106 206.137 177.499 208.3 176.319 209.559C175.886 209.992 175.296 209.638 175.217 209.087C175.138 208.458 175.335 207.828 175.335 207.238Z" fill="#D2B196"/>
<path d="M157.629 193.272C158.377 192.289 159.085 191.266 159.872 190.322C160.462 189.614 161.367 190.518 161.052 191.226C160.462 192.446 159.675 193.587 158.849 194.688C158.219 195.515 157.55 196.695 156.449 196.695C156.134 196.695 155.937 196.459 155.937 196.183C155.78 195.043 157 194.059 157.629 193.272Z" fill="#D2B196"/>
<path d="M148.028 173.72C148.737 173.759 149.366 174.113 150.035 174.31C150.822 174.546 151.57 174.625 152.356 174.704C153.025 174.782 153.261 175.766 152.514 175.923C150.94 176.277 148.461 176.12 147.438 174.743C147.123 174.35 147.517 173.681 148.028 173.72Z" fill="#D2B196"/>
<path d="M118.243 200.118C119.659 199.37 121.39 199.921 122.65 200.786C123.161 201.141 122.886 202.163 122.177 201.888C120.958 201.455 119.856 201.613 118.636 201.455C117.967 201.377 117.534 200.511 118.243 200.118Z" fill="#D2B196"/>
<path d="M108.878 97.9886C111.2 99.1688 113.56 100.349 116.118 100.979C118.636 101.647 121.39 101.765 123.83 100.821C127.214 99.5229 129.614 96.3363 130.834 92.9137C131.739 90.3565 132.014 87.4059 130.834 85.0061C129.811 82.9604 127.883 81.5441 125.837 80.5213C121.469 78.3575 116.275 77.7674 111.632 79.1837C107.776 80.3639 102.858 83.7079 101.442 87.7207C99.7103 92.5989 105.376 96.2183 108.878 97.9886Z" fill="#C85E38"/>
<path d="M106.517 86.4619C106.478 85.675 107.108 85.2816 107.737 85.3603C107.894 85.2816 108.091 85.2816 108.288 85.3997C109.665 86.2652 111.987 89.5304 110.177 90.9861C107.973 92.7564 106.635 87.8388 106.517 86.4619Z" fill="#472B3C"/>
<path d="M109.901 82.7638C111.042 80.6787 116.944 79.1051 118.439 81.4655C119.266 82.7638 118.676 84.8488 118.243 86.1864C117.692 87.8387 116.826 89.4517 115.37 90.4352C114.662 90.9073 113.954 90.0025 114.308 89.373C114.78 88.4289 115.449 87.6027 115.882 86.6192C116.197 85.911 117.062 83.826 116.669 83.0392C115.803 81.4262 111.829 83.826 110.609 83.9833C109.98 84.0227 109.665 83.2359 109.901 82.7638Z" fill="#472B3C"/>
</svg>
