<svg width="315" height="367" viewBox="0 0 315 367" fill="none" xmlns="http://www.w3.org/2000/svg">
<g filter="url(#filter0_d_546_11759)">
<path d="M101.528 253.808C92.4069 265.766 75.6351 271.289 61.194 266.982C59.8259 266.576 58.3565 265.918 58.0018 264.55C57.7485 263.486 58.4072 262.32 59.2686 261.661C60.1806 261.003 63.0688 259.888 64.1329 259.635C58.0018 262.574 50.0466 261.053 45.4356 256.088C44.9795 255.581 44.5235 254.922 44.7262 254.314C44.9795 253.453 46.1956 253.301 47.057 253.605C47.9184 253.858 49.2358 254.466 50.0972 254.314C44.8782 251.274 40.4699 246.967 37.3283 241.799C36.6696 240.735 36.0616 239.417 36.6696 238.302C37.1763 237.34 38.4431 237.036 39.5071 237.289C40.5712 237.542 42.0406 238.049 42.8514 238.708C36.0109 230.297 36.7203 217.477 42.1927 208.103C45.8409 201.921 51.4147 196.753 58.1538 194.321C64.893 191.888 72.7975 192.294 78.9286 195.993C85.0597 199.692 89.1134 208.306 88.6067 215.501C88.252 212.005 85.4144 209.066 82.1209 207.951C78.7766 206.836 75.0777 207.292 71.8348 208.61C63.6262 211.903 57.9005 221.024 59.2686 229.79C60.586 238.049 67.7812 244.636 75.8884 246.612C83.9957 248.589 92.711 246.511 99.9568 242.305C101.224 247.018 101.224 248.943 101.528 253.808Z" fill="#D9BBA2"/>
<path d="M80.2461 197.462C74.115 193.763 66.2104 193.307 59.4712 195.79C52.7321 198.222 47.1077 203.391 43.5101 209.572C38.0377 218.946 37.3283 231.766 44.1688 240.177C43.3074 239.518 41.838 238.961 40.8246 238.758C39.7605 238.505 38.4937 238.809 37.987 239.772C37.379 240.836 37.987 242.204 38.6457 243.268C39.6592 244.94 40.8246 246.511 42.0913 247.98C40.3179 246.106 38.6964 244.079 37.379 241.849C36.7203 240.785 36.1122 239.468 36.7203 238.353C37.227 237.39 38.4937 237.086 39.5578 237.34C40.6219 237.593 42.0913 238.1 42.9021 238.758C36.0616 230.347 36.771 217.528 42.2434 208.154C45.8916 201.972 51.4653 196.803 58.2045 194.371C64.9436 191.939 72.8482 192.344 78.9793 196.043C80.6008 197.057 82.1209 198.374 83.3876 199.945C82.4249 198.982 81.3608 198.121 80.2461 197.462Z" fill="#DFC5AD"/>
<path d="M51.4146 255.733C50.5025 255.885 49.1851 255.277 48.3744 255.024C47.513 254.77 46.3476 254.872 46.0436 255.733C45.9422 256.138 46.0436 256.544 46.2969 256.898C45.9929 256.645 45.7395 256.341 45.4862 256.088C45.0301 255.581 44.5741 254.922 44.7768 254.314C45.0302 253.453 46.2462 253.301 47.1076 253.605C47.665 253.808 48.4251 254.061 49.0838 254.213C49.7932 254.77 50.6039 255.277 51.4146 255.733Z" fill="#DFC5AD"/>
<path d="M77.2058 248.082C72.4428 246.916 67.9838 244.129 64.893 240.38C67.8825 243.42 71.7841 245.599 75.9391 246.612C84.0463 248.588 92.7616 246.511 100.007 242.305C100.21 243.015 100.311 243.623 100.464 244.18C93.4203 248.082 85.0597 249.957 77.2058 248.082Z" fill="#DFC5AD"/>
<path d="M58.4578 262.574C59.8259 262.574 61.2447 262.421 62.5621 262.117C61.7514 262.472 60.9914 262.827 60.586 263.131C59.6739 263.79 59.0659 264.904 59.3192 266.019C59.3192 266.12 59.3699 266.171 59.4206 266.272C58.7619 265.867 58.2045 265.31 58.0525 264.6C57.8498 263.84 58.0525 263.182 58.4578 262.574Z" fill="#DFC5AD"/>
<path d="M88.6573 213.423C88.708 214.133 88.708 214.842 88.6573 215.501C88.5053 214.031 87.8972 212.663 87.0359 211.498C87.6439 212.055 88.2013 212.714 88.6573 213.423Z" fill="#DFC5AD"/>
<path d="M71.1254 260.901C72.6961 260.04 74.2669 259.179 75.8377 258.368C69.3012 260.699 61.4473 258.621 56.9883 253.301C59.0152 252.591 61.042 251.933 63.0688 251.223C57.1404 251.021 51.4146 247.423 48.6784 242.153C50.5532 241.799 52.4787 242.153 54.1508 243.116C44.5234 237.542 40.5205 223 45.7395 213.221C51.1613 202.985 63.5755 196.955 74.6216 201.11C80.4994 203.34 87.9986 208.711 88.708 215.501C88.3533 212.005 85.5157 209.066 82.2221 207.951C78.8779 206.836 75.179 207.292 71.9361 208.61C63.7275 211.903 58.0018 221.024 59.3699 229.79C60.6873 238.049 67.8825 244.636 75.9897 246.612C84.097 248.589 92.8122 246.511 100.058 242.305C100.717 244.839 101.021 246.562 101.224 248.386C92.9643 255.885 82.1715 260.496 71.1254 260.901Z" fill="#C85E38"/>
<path d="M108.824 16.9746C103.554 26.1459 100.514 36.6853 101.73 47.2247C102.946 57.7642 107.557 67.8475 114.753 75.6001C118.3 72.6106 120.833 69.0636 124.38 66.0741C111.915 53.1025 107.76 34.9625 108.824 16.9746Z" fill="#C85E38"/>
<path d="M108.824 16.9746C106.037 34.5572 112.016 53.2545 124.38 66.0234C126.863 60.855 129.143 57.0041 131.575 51.7851C127.825 38.3068 119.414 26.2472 108.824 16.9746Z" fill="#E5CFC1"/>
<path d="M102.744 67.1888C105.328 66.6821 107.456 65.2634 109.584 63.8446C109.939 63.5912 110.395 64.0979 110.192 64.4526C108.621 66.9861 105.733 68.0502 102.896 68.1516C102.338 68.1009 102.237 67.2902 102.744 67.1888Z" fill="#C85E38"/>
<path d="M96.0046 53.6092C97.3727 53.7612 98.7914 54.0145 100.16 53.9132C101.73 53.8119 103.149 53.2545 104.669 53.0011C105.176 52.8998 105.733 53.5585 105.227 53.9639C102.693 55.9907 98.4874 55.9907 95.6499 54.6733C95.1938 54.4706 95.4472 53.5585 96.0046 53.6092Z" fill="#C85E38"/>
<path d="M97.3221 39.1681C98.2848 40.1309 99.4502 40.8909 100.616 41.499C101.73 42.0563 103.048 42.259 104.163 42.8164C104.771 43.1204 104.416 43.9311 103.859 43.9818C101.072 44.3365 98.1328 41.9043 96.562 39.9282C96.1567 39.3708 96.8154 38.6614 97.3221 39.1681Z" fill="#C85E38"/>
<path d="M20.5058 151.555C18.4789 150.998 16.7055 149.427 16.1481 147.349C15.4388 144.765 16.7055 141.776 19.0363 140.509C20.7084 139.597 23.546 139.445 25.6234 140.154C24.9141 139.647 24.2047 139.09 23.698 138.431C22.6846 137.114 22.1779 135.188 23.0393 133.77C24.5087 131.185 28.4103 131.895 31.2479 132.908C46.7023 138.33 63.2208 140.711 79.5367 140.154C87.4919 139.85 96.2579 139.343 103.909 136.911C104.973 136.556 106.037 136.151 107.101 135.695H107.051C107.608 124.852 107.405 113.958 106.341 103.063C106.037 91.8653 107.507 80.5151 111.51 70.4317C117.387 55.636 129.092 42.8164 144.141 37.648C160.001 32.1756 177.482 35.5199 194.001 32.5303C210.367 29.5915 225.518 20.1668 235.399 6.78982C237.172 4.35765 240.466 3.44558 243.252 4.66167C245.938 5.82708 247.762 8.46194 249.333 10.9448C256.477 22.5483 261.646 36.0773 259.974 49.5556C258.301 63.0845 248.319 76.1575 234.841 78.0323C222.478 86.8996 206.972 91.7639 191.771 90.9025C192.785 96.9323 196.23 116.491 196.889 127.486C202.209 129.513 206.77 132.706 212.192 134.428C219.843 136.86 228.609 137.367 236.564 137.671C252.93 138.279 269.449 135.847 284.853 130.425C287.69 129.412 291.592 128.703 293.061 131.287C293.872 132.756 293.416 134.631 292.403 135.948C291.845 136.607 291.187 137.165 290.477 137.671C292.605 136.962 295.392 137.114 297.064 138.026C299.395 139.293 300.662 142.282 299.952 144.866C299.395 146.893 297.622 148.515 295.595 149.072C297.115 149.376 298.736 150.693 299.496 151.91C300.561 153.582 300.257 155.963 299.04 157.483C297.774 159.054 295.747 159.814 293.72 159.713C285.815 159.358 278.114 163.766 270.766 160.878C268.537 160.017 259.619 163.868 256.933 164.374C252.018 165.287 238.945 168.833 233.98 169.137C224.859 169.746 215.637 169.239 206.567 167.871C212.445 185.808 213.306 206.583 211.888 223.405C211.685 225.888 211.381 228.32 210.975 230.651C210.671 261.611 196.028 305.643 187.11 325.658C188.022 327.279 189.035 328.85 190.201 330.421C193.9 328.293 193.545 328.141 197.852 328.04C202.159 327.938 206.618 329.408 209.455 332.549C212.293 335.691 213.205 340.555 211.026 344.203C192.481 347.193 179.611 348.46 161.217 344.558C160.508 343.342 159.849 342.126 159.19 340.96C158.988 333.107 159.241 298.195 158.886 280.359C152.553 281.271 146.219 281.119 139.733 279.903C139.328 297.587 139.581 333.056 139.429 340.96C138.77 342.177 138.112 343.393 137.402 344.558C119.009 348.46 106.139 347.193 87.5932 344.203C85.4144 340.606 86.3265 335.691 89.164 332.549C92.0016 329.408 96.4606 327.938 100.768 328.04C105.075 328.141 104.72 328.293 108.419 330.421C109.584 328.85 110.598 327.279 111.51 325.658C103.554 307.822 94.1804 266.12 92.0522 235.364C91.5962 231.817 91.4442 228.219 91.5962 224.621V224.571C92.1029 211.802 95.9539 198.83 101.578 188.24C104.517 182.666 106.443 176.687 108.115 170.607C99.5515 171.823 90.8868 172.228 82.2729 171.671C77.2565 171.367 64.2343 167.82 59.3192 166.908C56.6337 166.401 47.7157 162.5 45.4862 163.412C38.0884 166.3 30.4371 161.892 22.5326 162.246C20.5564 162.348 18.4789 161.537 17.2122 160.017C15.9454 158.446 15.6921 156.115 16.7561 154.443C17.3642 153.176 19.0363 151.808 20.5058 151.555Z" fill="#D9BBA2"/>
<path d="M208.797 344.305C208.239 340.606 208.695 334.981 205.25 332.498C204.946 332.296 205.3 331.84 205.604 331.992C207.581 332.803 208.645 334.221 209.303 336.248C210.063 338.63 210.773 341.822 210.165 344.305C209.709 344.355 209.303 344.457 208.847 344.507C208.847 344.406 208.797 344.406 208.797 344.305Z" fill="#B8896A"/>
<path d="M201.551 345.166C201.196 340.454 201.652 334.677 195.926 333.208C195.673 333.157 195.622 332.752 195.876 332.701C202.26 331.282 203.071 341.011 202.97 345.065C202.97 345.166 202.868 345.267 202.818 345.369C202.463 345.419 202.058 345.47 201.703 345.521C201.652 345.419 201.601 345.318 201.551 345.166Z" fill="#B8896A"/>
<path d="M191.467 330.472C190.201 331.789 188.528 332.549 187.211 333.816C185.742 335.235 185.387 336.755 184.678 338.579C184.424 339.288 183.36 339.39 183.107 338.579C181.891 334.475 187.312 330.218 190.758 329.306C191.467 329.154 191.974 330.016 191.467 330.472Z" fill="#D2B196"/>
<path d="M208.797 344.305C208.239 340.606 208.695 334.981 205.25 332.498C204.946 332.296 205.3 331.84 205.604 331.992C207.581 332.803 208.645 334.221 209.303 336.248C210.063 338.63 210.773 341.822 210.165 344.305C209.709 344.355 209.303 344.457 208.847 344.507C208.847 344.406 208.797 344.406 208.797 344.305Z" fill="#B8896A"/>
<path d="M201.551 345.166C201.196 340.454 201.652 334.677 195.926 333.208C195.673 333.157 195.622 332.752 195.876 332.701C202.26 331.282 203.071 341.011 202.97 345.065C202.97 345.166 202.868 345.267 202.818 345.369C202.463 345.419 202.058 345.47 201.703 345.521C201.652 345.419 201.601 345.318 201.551 345.166Z" fill="#B8896A"/>
<path d="M191.467 330.472C190.201 331.789 188.528 332.549 187.211 333.816C185.742 335.235 185.387 336.755 184.678 338.579C184.424 339.288 183.36 339.39 183.107 338.579C181.891 334.475 187.312 330.218 190.758 329.306C191.467 329.154 191.974 330.016 191.467 330.472Z" fill="#D2B196"/>
<path d="M89.62 344.305C90.1774 340.606 89.7213 334.981 93.1669 332.498C93.4709 332.296 93.1163 331.84 92.8122 331.992C90.8361 332.803 89.772 334.221 89.1133 336.248C88.3532 338.63 87.6439 341.822 88.2519 344.305C88.7079 344.355 89.1133 344.457 89.5693 344.507C89.5187 344.406 89.5693 344.406 89.62 344.305Z" fill="#B8896A"/>
<path d="M96.8152 345.166C97.1699 340.454 96.7139 334.677 102.44 333.208C102.693 333.157 102.744 332.752 102.49 332.701C96.1058 331.282 95.2951 341.011 95.3964 345.065C95.3964 345.166 95.4978 345.267 95.5485 345.369C95.9032 345.419 96.3085 345.47 96.6632 345.521C96.7139 345.419 96.8152 345.318 96.8152 345.166Z" fill="#B8896A"/>
<path d="M107.608 329.357C111.054 330.269 116.475 334.525 115.259 338.63C115.006 339.44 113.993 339.339 113.688 338.63C112.979 336.856 112.624 335.285 111.155 333.867C109.838 332.6 108.165 331.789 106.899 330.522C106.443 330.016 106.899 329.154 107.608 329.357Z" fill="#D2B196"/>
<path d="M158.734 279.143C164.46 278.585 169.527 278.991 175.152 276.913C178.242 275.748 181.333 274.43 184.323 273.012C185.995 272.201 191.518 267.843 193.139 268.046C197.7 268.705 190.251 276.153 188.985 277.775C185.134 282.639 180.827 287.047 176.064 291.05C170.845 295.408 165.068 299.208 158.988 302.248C158.937 293.584 158.886 285.223 158.734 279.143Z" fill="#D2B196"/>
<path d="M139.682 277.167C139.53 283.196 139.429 292.216 139.429 301.64C138.821 301.336 138.213 300.931 137.402 300.374C128.89 294.394 120.073 289.125 113.841 280.511C110.243 275.545 107.507 269.971 105.885 264.043C116.577 269.769 127.927 274.177 139.682 277.167Z" fill="#D2B196"/>
<path d="M107.659 263.536C131.524 281.017 174.391 286.389 196.889 263.232C197.294 262.827 197.852 263.435 197.598 263.891C189.238 277.42 170.794 280.308 156.201 280.967C138.365 281.727 119.465 277.825 106.088 265.31C105.075 264.347 106.595 262.776 107.659 263.536Z" fill="#B8896A"/>
<path d="M94.079 143.448C95.1937 143.093 96.3592 143.144 97.4739 142.89C98.538 142.637 99.5514 142.13 100.615 142.181C101.376 142.181 101.68 142.941 101.426 143.6C100.362 145.981 95.9031 146.843 93.775 145.677C92.7616 145.12 93.1163 143.752 94.079 143.448Z" fill="#D2B196"/>
<path d="M80.246 143.954C81.0567 143.802 81.7661 144.005 82.6275 144.106C83.4889 144.157 84.3503 144.106 85.2117 144.208C85.9717 144.309 86.4278 145.373 85.617 145.778C84.1476 146.539 81.4114 146.843 79.9926 145.778C79.3339 145.322 79.2832 144.157 80.246 143.954Z" fill="#D2B196"/>
<path d="M64.5382 143.853C65.4503 143.498 66.4637 143.65 67.4264 143.6C68.4398 143.549 69.4532 143.397 70.4666 143.498C71.632 143.6 72.2401 145.221 71.0747 145.88C69.3519 146.843 65.9063 147.197 64.2342 145.93C63.4234 145.322 63.5754 144.208 64.5382 143.853Z" fill="#D2B196"/>
<path d="M71.8854 149.629C73.0508 149.123 74.3176 149.224 75.5843 149.376C76.9018 149.477 78.2699 149.629 79.5366 150.085C80.1953 150.339 80.2967 151.352 79.5366 151.504C78.2192 151.808 76.9018 151.859 75.5843 151.859C74.3176 151.859 73.0001 151.91 71.8854 151.251C71.2774 150.947 71.2267 149.933 71.8854 149.629Z" fill="#D2B196"/>
<path d="M49.0331 162.297C52.4787 158.345 54.4548 151.96 53.3401 146.792C53.2894 146.589 53.5428 146.488 53.6948 146.589C56.127 148.819 55.9243 152.366 55.1136 155.304C54.3535 158.193 53.0868 162.854 49.6918 163.412C49.0331 163.564 48.5771 162.854 49.0331 162.297Z" fill="#D2B196"/>
<path d="M86.7824 151.048C88.0999 150.643 89.62 150.845 90.9881 150.744C92.1535 150.693 93.5216 150.44 94.5857 151.048C94.7884 151.15 94.7883 151.403 94.6363 151.606C93.8256 152.568 92.3562 152.67 91.1908 152.771C89.772 152.923 88.0999 153.176 86.7318 152.67C85.921 152.416 85.921 151.302 86.7824 151.048Z" fill="#D2B196"/>
<path d="M56.735 147.552C58.0525 147.451 59.7246 147.755 60.9407 148.312C61.8021 148.717 61.3967 149.832 60.6873 150.085C59.1165 150.693 57.0391 149.933 56.0763 148.565C55.7723 148.16 56.279 147.603 56.735 147.552Z" fill="#D2B196"/>
<path d="M103.25 150.744C104.466 150.136 105.936 149.832 107.253 149.376C107.912 149.173 108.419 150.085 107.912 150.541C106.696 151.555 105.024 152.366 103.402 152.112C102.744 152.011 102.693 150.997 103.25 150.744Z" fill="#D2B196"/>
<path d="M221.971 140.965C220.856 140.61 219.691 140.661 218.576 140.407C217.512 140.154 216.498 139.647 215.434 139.698C214.674 139.698 214.37 140.458 214.624 141.117C215.688 143.498 220.147 144.36 222.275 143.194C223.238 142.637 222.934 141.269 221.971 140.965Z" fill="#D2B196"/>
<path d="M235.804 141.522C234.993 141.37 234.284 141.573 233.422 141.674C232.561 141.725 231.7 141.674 230.838 141.775C230.078 141.877 229.622 142.941 230.433 143.346C231.902 144.106 234.638 144.41 236.057 143.346C236.665 142.84 236.716 141.674 235.804 141.522Z" fill="#D2B196"/>
<path d="M251.512 141.421C250.6 141.066 249.586 141.218 248.623 141.167C247.61 141.117 246.597 140.965 245.583 141.066C244.418 141.167 243.81 142.789 244.975 143.448C246.698 144.41 250.144 144.765 251.816 143.498C252.626 142.84 252.424 141.776 251.512 141.421Z" fill="#D2B196"/>
<path d="M244.165 147.197C242.999 146.691 241.732 146.792 240.466 146.944C239.148 147.045 237.78 147.197 236.513 147.653C235.855 147.907 235.753 148.92 236.513 149.072C237.831 149.376 239.148 149.427 240.466 149.427C241.732 149.427 243.05 149.477 244.165 148.819C244.722 148.464 244.823 147.451 244.165 147.197Z" fill="#D2B196"/>
<path d="M266.966 159.865C263.521 155.913 261.544 149.528 262.659 144.36C262.71 144.157 262.456 144.056 262.304 144.157C259.872 146.386 260.075 149.933 260.886 152.872C261.646 155.76 262.912 160.422 266.307 160.98C267.017 161.132 267.422 160.371 266.966 159.865Z" fill="#D2B196"/>
<path d="M229.267 148.565C227.95 148.16 226.43 148.363 225.062 148.261C223.896 148.211 222.528 147.957 221.464 148.565C221.262 148.667 221.262 148.92 221.414 149.123C222.224 150.085 223.694 150.187 224.859 150.288C226.278 150.44 227.95 150.693 229.318 150.187C230.078 149.984 230.129 148.819 229.267 148.565Z" fill="#D2B196"/>
<path d="M259.264 145.12C257.947 145.018 256.275 145.322 255.059 145.88C254.197 146.285 254.603 147.4 255.312 147.653C256.883 148.261 258.96 147.501 259.923 146.133C260.278 145.677 259.771 145.12 259.264 145.12Z" fill="#D2B196"/>
<path d="M212.8 148.261C211.583 147.653 210.114 147.349 208.797 146.893C208.138 146.691 207.631 147.603 208.138 148.059C209.354 149.072 211.026 149.883 212.648 149.629C213.256 149.528 213.357 148.565 212.8 148.261Z" fill="#D2B196"/>
<path d="M156.353 0C150.526 4.76301 146.219 11.4008 144.192 18.6467C142.165 25.8925 142.469 33.7971 145.003 40.8909C148.094 38.8134 151.691 37.648 155.137 36.2293C151.742 24.3217 151.843 11.5528 156.353 0Z" fill="#C85E38"/>
<path d="M167.652 34.7092C167.45 22.4976 163.092 10.5394 156.758 0.101341C151.742 11.4515 151.184 24.6764 155.238 36.3813C159.494 36.3306 163.497 35.9759 167.652 34.7092Z" fill="#E5CFC1"/>
<path d="M142.52 41.5496C158.38 36.0772 175.861 39.4215 192.379 36.4319C208.847 33.4931 223.998 24.0177 233.929 10.5394C235.703 8.10725 238.692 7.34719 241.479 8.51261C244.266 9.67803 246.141 12.3129 247.711 14.8971C254.856 26.5006 260.024 40.0295 258.352 53.5078C258.048 55.788 257.541 58.0682 256.781 60.2976C258.352 56.9027 259.467 53.2545 259.923 49.5555C261.595 36.0266 256.477 22.4976 249.282 10.9448C247.711 8.3606 245.837 5.72574 243.05 4.56033C240.263 3.39491 237.273 4.15496 235.5 6.58714C225.619 20.0654 210.418 29.5408 193.95 32.4797C177.432 35.4185 159.95 32.125 144.091 37.5974C129.042 42.7657 117.337 55.5853 111.459 70.381C111.307 70.7864 111.155 71.2424 111.003 71.6478C117.235 58.0175 128.434 46.414 142.52 41.5496Z" fill="#DFC5AD"/>
<path d="M155.745 61.2604C157.468 63.9459 159.19 66.6315 161.471 68.9116C163.7 71.1918 166.487 73.0159 169.628 73.5226C173.986 74.2827 178.445 72.4585 181.84 69.621C184.374 67.4928 186.502 64.6046 186.755 61.3111C186.958 58.5242 185.792 55.8387 184.272 53.5078C181.029 48.5422 175.962 44.6912 170.237 43.3231C165.474 42.2084 158.228 42.6137 154.275 45.958C149.512 49.9103 153.161 57.2068 155.745 61.2604Z" fill="#C85E38"/>
<path d="M157.62 118.163C165.119 119.987 173.125 120.899 180.523 118.771C187.971 116.643 192.684 113.958 194.457 106.458C194.66 105.546 192.379 94.7028 191.721 90.9025C203.527 91.5612 215.536 88.7744 226.126 83.3527C225.873 82.4406 223.846 83.15 222.731 83.5047C213.813 86.2915 204.287 86.8489 195.116 85.2275C189.947 84.3154 184.931 82.6939 180.219 80.4138C172.669 76.7655 165.98 71.4451 158.38 67.9489C150.779 64.402 141.507 62.8312 134.109 66.8341C126.964 70.7357 123.113 79.3497 123.873 87.457C124.583 95.5642 129.346 102.962 135.679 108.08C141.912 113.197 149.715 116.187 157.62 118.163Z" fill="#E5CFC1"/>
<path d="M156.302 78.0323C155.238 77.0189 153.515 78.0323 153.971 79.451C157.366 90.5985 163.548 100.682 172.719 107.978C175.557 110.208 178.699 112.285 182.245 112.995C185.792 113.755 189.795 112.995 192.278 110.36C194.508 108.029 195.166 104.533 194.812 101.341C194.457 98.1484 192.988 93.7401 191.721 90.8012C195.116 91.2065 170.338 91.2065 156.302 78.0323Z" fill="#472B3C"/>
<path d="M157.924 77.3736C156.353 76.5628 154.275 77.3736 153.161 78.5897C151.995 79.8564 151.387 82.1366 152.857 83.4033C153.313 83.8087 153.971 83.5047 154.225 82.998C154.681 82.0859 154.529 81.0725 155.035 80.2111C155.644 79.1977 156.657 78.995 157.721 78.7417C158.43 78.539 158.532 77.7283 157.924 77.3736Z" fill="#472B3C"/>
<path d="M174.696 54.0145C173.581 53.3052 172.365 52.7985 171.098 52.5958C169.983 52.3931 168.818 52.3931 167.754 52.8998C166.74 53.3558 165.879 54.3692 165.879 55.484C165.879 56.396 166.335 57.2574 166.892 58.0175C168.716 60.399 172.973 63.3379 176.216 62.4765C177.533 62.1218 178.547 61.1084 178.547 59.6896C178.547 58.7775 178.192 57.9162 177.685 57.1054C176.925 55.8387 175.912 54.7746 174.696 54.0145Z" fill="#472B3C"/>
<path d="M183.968 40.4856C182.955 39.8269 181.84 39.3708 180.675 39.1682C179.661 39.0161 178.597 39.0161 177.685 39.4215C176.773 39.8269 176.013 40.7389 175.962 41.803C175.962 42.6644 176.368 43.4245 176.925 44.0832C178.597 46.262 182.448 48.9475 185.387 48.1368C186.552 47.8328 187.464 46.87 187.515 45.6033C187.515 44.7926 187.16 43.9818 186.755 43.2724C186.046 42.1577 185.083 41.195 183.968 40.4856Z" fill="#472B3C"/>
<path d="M161.977 47.9341C161.116 48.7448 160.558 49.7582 160.508 50.9237C160.052 52.7985 160.204 55.028 162.079 55.3827C163.7 55.6867 164.46 53.9639 164.713 52.6465C165.017 51.2277 164.815 49.8089 164.257 48.4915C163.953 47.6808 162.687 47.2247 161.977 47.9341Z" fill="#472B3C"/>
<path d="M169.071 38.4081C169.679 37.3947 170.49 36.584 171.605 36.2293C173.327 35.3172 175.506 34.9118 176.317 36.6346C177.026 38.1547 175.557 39.3202 174.341 39.8775C173.074 40.4856 171.605 40.6883 170.186 40.4856C169.324 40.3842 168.564 39.2188 169.071 38.4081Z" fill="#472B3C"/>
<path d="M248.37 49.9609C247.154 59.9936 241.631 71.6478 232.561 79.5524C247.914 77.3229 258.302 62.3751 259.923 49.5556C261.24 38.7628 258.251 27.9193 253.336 18.0893C253.083 18.0893 252.88 18.0893 252.627 18.14C244.013 20.2175 249.181 43.4245 248.37 49.9609Z" fill="#CCA78C"/>
<path d="M234.79 78.0323C235.247 77.9816 234.284 78.1336 234.79 78.0323C246.343 67.0875 253.336 47.1741 249.333 31.9223C249.232 31.4663 247.61 31.3142 247.61 31.9223C247.458 39.9789 248.573 48.7448 246.445 56.6494C243.962 65.9221 238.844 73.624 231.801 80.0591C232.814 79.4004 233.777 78.7417 234.79 78.0323Z" fill="#B8896A"/>
<path d="M217.107 23.5617C221.312 29.2368 228.051 33.2397 235.044 34.6585C242.898 36.2293 251.056 35.0132 258.707 32.3783C256.832 24.8285 253.386 17.5319 249.282 10.8941C247.711 8.30993 245.837 5.67508 243.05 4.50966C240.263 3.34424 237.273 4.1043 235.5 6.53647C230.534 13.377 224.2 19.1534 217.107 23.5617Z" fill="#472B3C"/>
<path d="M230.281 45.0459C228.203 45.958 229.571 49.2009 231.7 48.2888C233.726 47.3767 232.358 44.1338 230.281 45.0459Z" fill="#472B3C"/>
<path d="M227.747 51.8864C225.619 52.7985 227.038 56.0414 229.166 55.18C231.294 54.2679 229.876 50.9743 227.747 51.8864Z" fill="#472B3C"/>
<path d="M237.679 48.7955C235.601 49.6569 236.969 52.8998 239.047 51.9877C241.124 51.1263 239.756 47.8834 237.679 48.7955Z" fill="#472B3C"/>
<path d="M233.22 9.52602C231.345 11.8062 229.267 13.985 227.089 15.9611L227.038 16.0118C223.947 18.8494 220.603 21.3322 217.107 23.5617C217.613 24.2204 218.12 24.8285 218.677 25.4365C219.843 26.7539 233.625 11.1475 235.348 9.67803C239.047 6.53647 243.658 5.47239 246.951 9.62736C252.373 16.3665 256.477 24.1191 258.96 32.3277C257.693 26.3992 255.008 20.6735 252.12 15.3531C250.296 11.9582 247.661 5.06703 243.404 4.1043C240.466 3.39491 237.273 4.20564 235.5 6.63781C234.79 7.60055 234.03 8.56328 233.22 9.52602Z" fill="#634357"/>
<path d="M139.936 29.0341C141.304 29.8448 142.621 30.5542 144.192 30.9596C145.712 31.3142 147.283 31.2129 148.854 31.4156C149.36 31.4663 149.715 32.1756 149.158 32.4797C146.016 34.0504 141.456 32.429 139.328 29.8448C138.973 29.4394 139.429 28.7301 139.936 29.0341Z" fill="#C85E38"/>
<path d="M139.024 21.7882C139.885 23.1057 140.696 24.4738 141.861 25.5885C142.925 26.6526 144.344 27.3113 145.408 28.3754C145.763 28.7301 145.509 29.4901 144.952 29.4394C141.76 29.1354 138.618 25.1831 137.909 22.2443C137.757 21.5855 138.618 21.2309 139.024 21.7882Z" fill="#C85E38"/>
<path d="M142.368 14.3904C142.672 15.7585 143.229 17.1266 143.989 18.3426C144.699 19.5081 145.712 20.3695 146.371 21.5349C146.725 22.1429 146.067 22.7003 145.459 22.4469C142.723 21.1802 141.506 17.3292 141.253 14.593C141.152 13.8837 142.216 13.7316 142.368 14.3904Z" fill="#C85E38"/>
<path d="M167.906 83.4033C177.786 85.4808 191.417 84.8728 201.297 86.8489C204.388 87.4569 204.591 88.4703 207.53 89.2304C195.217 93.7401 178.8 91.1052 167.906 83.4033Z" fill="#E5CFC1"/>
<path d="M105.227 146.488C105.379 146.082 105.987 146.133 105.987 146.589C106.493 155.71 103.453 167.364 99.8555 175.674C99.6021 176.231 98.842 175.826 98.8927 175.269C99.7034 170.404 101.122 165.692 102.136 160.878C103.2 156.115 103.656 151.099 105.227 146.488Z" fill="#D2B196"/>
<path d="M109.179 137.468C122.961 148.869 139.125 148.819 156.1 149.173C170.389 149.477 181.84 144.36 195.318 140.711C196.332 140.458 197.345 141.877 196.433 142.586C183.411 152.619 167.5 154.544 151.59 154.291C135.274 153.987 117.793 153.632 105.936 140.813C103.808 138.533 106.899 135.594 109.179 137.468Z" fill="#D2B196"/>
<path d="M107.355 125.865C107.304 128.044 108.317 129.311 110.192 130.425C112.016 131.591 114.195 132.047 116.323 132.402C142.672 136.962 170.034 132.807 193.342 120.646C194.457 120.089 195.622 119.379 196.078 118.214C196.281 117.656 196.028 116.846 195.572 116.136C195.521 115.984 195.521 115.883 195.47 115.731C195.369 115.478 195.268 115.174 195.217 114.92C199.524 116.288 203.73 121.406 203.831 125.814C203.932 130.78 201.044 135.239 197.294 138.127C193.494 141.015 188.934 142.536 184.374 143.904C164.055 149.984 141.962 153.632 121.289 146.893C116.475 145.322 111.662 143.093 108.368 139.141C104.973 135.188 104.77 130.121 107.355 125.865Z" fill="#B10000"/>
<path d="M106.493 127.486C106.443 129.716 107.861 130.78 109.736 131.945C111.611 133.111 113.79 133.516 115.969 133.871C142.773 138.077 170.693 133.466 194.609 120.899C195.724 120.291 196.94 119.582 197.447 118.366C197.953 117.15 197.142 115.376 195.876 115.478C200.74 115.782 205.199 120.899 205.25 125.916C205.3 130.932 202.311 135.492 198.409 138.482C194.508 141.471 189.795 143.042 185.134 144.512C164.308 150.947 141.76 154.95 120.782 148.464C115.918 146.944 111.054 144.765 107.709 140.813C104.365 136.81 103.808 131.844 106.493 127.486Z" fill="#D20000"/>
<path d="M196.028 130.02C198.359 128.196 201.5 129.311 203.578 131.54C206.212 134.428 207.125 139.546 205.807 142.84C204.287 146.691 200.335 146.944 197.497 144.208C195.42 142.181 194.052 139.394 193.798 136.506C193.596 134.479 194.001 132.351 195.217 130.831C195.47 130.527 195.774 130.273 196.028 130.02Z" fill="#F99122"/>
<path d="M197.295 129.057C199.625 127.233 202.767 128.348 204.844 130.577C207.479 133.466 208.391 138.583 207.074 141.877C205.554 145.728 201.601 145.981 198.764 143.245C196.686 141.218 195.318 138.431 195.065 135.543C194.862 133.516 195.268 131.388 196.484 129.868C196.737 129.513 196.99 129.26 197.295 129.057Z" fill="#F9B233"/>
<path d="M200.689 148.869C202.919 149.933 204.692 153.835 203.78 156.217C203.527 156.774 202.716 157.23 202.209 156.622C201.399 155.608 201.095 154.392 200.689 153.176C200.284 151.96 199.676 150.845 199.575 149.528C199.524 148.92 200.233 148.667 200.689 148.869Z" fill="#D2B196"/>
<path d="M193.545 147.451C194.204 148.616 194.913 150.136 194.964 151.555C194.964 152.163 194.254 152.67 193.697 152.315C192.227 151.302 191.771 149.325 192.177 147.653C192.329 146.995 193.241 146.893 193.545 147.451Z" fill="#D2B196"/>
<path d="M194.508 157.433C196.18 158.395 197.446 161.081 196.838 162.956C196.636 163.665 195.673 163.817 195.268 163.158C194.812 162.449 194.558 161.588 194.305 160.777C194.001 159.915 193.545 159.155 193.393 158.243C193.19 157.686 193.849 157.078 194.508 157.433Z" fill="#D2B196"/>
<path d="M200.639 160.726C201.905 161.942 202.818 164.07 202.463 165.844C202.361 166.401 201.551 166.503 201.247 165.996C200.436 164.678 200.031 162.753 199.727 161.233C199.625 160.726 200.233 160.321 200.639 160.726Z" fill="#D2B196"/>
<path d="M207.327 165.996C208.391 168.124 209.303 170.1 209.101 172.583C208.999 173.444 207.682 173.799 207.479 172.836C207.074 170.759 206.973 168.529 206.263 166.503C206.06 165.844 207.074 165.388 207.327 165.996Z" fill="#D2B196"/>
<path d="M198.004 171.468C198.764 172.482 198.967 173.951 199.22 175.167C199.473 176.434 199.575 177.549 199.372 178.815C199.22 179.626 198.206 179.576 197.801 179.018C196.99 177.903 196.686 176.738 196.433 175.421C196.18 174.204 195.825 172.988 196.078 171.722C196.23 170.759 197.497 170.81 198.004 171.468Z" fill="#D2B196"/>
<path d="M204.439 177.599C206.314 179.576 206.871 183.325 206.212 185.859C206.01 186.619 205.047 186.517 204.794 185.859C204.287 184.643 203.983 183.224 203.73 181.957C203.476 180.741 203.02 179.474 203.02 178.207C203.071 177.498 203.932 177.093 204.439 177.599Z" fill="#D2B196"/>
<path d="M189.238 164.324C190.707 165.996 191.366 168.935 191.366 171.114C191.366 171.924 190.403 172.076 189.947 171.519C188.731 169.847 187.566 167.06 187.718 164.983C187.819 164.273 188.681 163.665 189.238 164.324Z" fill="#D2B196"/>
<path d="M196.129 189.304C197.396 191.838 198.257 195.233 197.193 198.07C196.94 198.678 195.876 198.881 195.724 198.07C195.217 195.385 195.268 192.547 194.862 189.862C194.761 189.102 195.724 188.544 196.129 189.304Z" fill="#D2B196"/>
<path d="M212.597 191.331C213.306 193.155 213.965 195.486 213.458 197.462C213.306 198.07 212.445 198.07 212.293 197.462C211.786 195.587 211.888 193.561 211.482 191.686C211.33 190.926 212.344 190.622 212.597 191.331Z" fill="#D2B196"/>
<path d="M288.501 131.033C288.501 131.033 220.755 140.464 151.033 142.389C81.3102 144.314 19.4418 131.641 19.4418 131.641L13.6654 219.656C13.6654 219.656 38.2911 237.497 151.793 237.497C259.872 237.497 290.224 222.696 290.224 222.696L288.501 131.033Z" fill="#F6F3E7"/>
<path d="M293.568 159.915C289.21 160.878 283.383 160.27 282.674 154.899C282.269 151.707 284.295 151.251 286.728 150.44C283.839 150.998 282.015 147.096 282.319 144.157C282.573 141.471 286.17 138.837 288.754 140.255C288.4 140.661 287.842 140.863 287.285 140.965C285.207 141.319 283.029 140.103 282.066 138.279C281.052 136.455 281.204 134.074 282.319 132.3C285.207 127.436 292.251 127.182 296.912 129.361C303.499 132.452 305.678 141.674 304.462 148.312C303.499 153.734 299.699 158.243 294.328 159.713C294.075 159.814 293.821 159.865 293.568 159.915Z" fill="#D9BBA2"/>
<path d="M21.2152 161.334C25.5728 162.297 31.3999 161.689 32.1093 156.318C32.5147 153.126 30.4879 152.67 28.0557 151.859C30.9439 152.416 32.768 148.515 32.464 145.576C32.2106 142.89 28.6131 140.255 26.0289 141.674C26.3836 142.08 26.9409 142.282 27.4983 142.384C29.5758 142.738 31.7546 141.522 32.7173 139.698C33.7307 137.874 33.5787 135.492 32.464 133.719C29.5758 128.855 22.5326 128.601 17.8709 130.78C11.2838 133.871 9.105 143.093 10.3211 149.731C11.2838 155.152 15.0841 159.662 20.4551 161.132C20.7085 161.233 20.9619 161.284 21.2152 161.334Z" fill="#D9BBA2"/>
<path d="M285.562 139.698C287.386 139.191 289.362 139.242 291.237 139.242C292.909 139.293 294.733 139.141 296.254 139.951C296.608 140.154 296.507 140.711 296.152 140.813C294.48 141.319 292.605 140.813 290.882 140.762C289.109 140.711 287.336 140.762 285.613 140.509C285.106 140.458 285.157 139.799 285.562 139.698Z" fill="#B8896A"/>
<path d="M285.917 150.491C287.285 149.984 288.754 150.085 290.173 149.984C291.795 149.883 293.416 149.477 295.037 149.579C295.747 149.629 295.848 150.541 295.19 150.795C293.669 151.403 291.795 151.403 290.173 151.454C288.704 151.504 287.234 151.555 285.866 150.947C285.663 150.845 285.765 150.541 285.917 150.491Z" fill="#B8896A"/>
<path d="M20.6071 141.015C22.1272 140.661 23.7487 141.015 25.2688 141.167C26.8395 141.319 28.4103 141.37 29.9304 141.725C30.4878 141.826 30.3358 142.637 29.8291 142.637C28.2076 142.738 26.5862 142.536 24.9647 142.434C23.546 142.333 22.0258 142.384 20.6578 141.877C20.2524 141.725 20.1511 141.117 20.6071 141.015Z" fill="#B8896A"/>
<path d="M18.1242 150.136C19.7963 150.339 21.4177 150.845 23.0392 151.15C24.8633 151.504 26.7888 151.555 28.5623 152.112C28.7143 152.163 28.7143 152.416 28.5623 152.467C25.4207 153.43 20.759 152.619 17.9215 150.896C17.5668 150.693 17.6681 150.085 18.1242 150.136Z" fill="#B8896A"/>
</g>
<defs>
<filter id="filter0_d_546_11759" x="0" y="0" width="314.783" height="367" filterUnits="userSpaceOnUse" color-interpolation-filters="sRGB">
<feFlood flood-opacity="0" result="BackgroundImageFix"/>
<feColorMatrix in="SourceAlpha" type="matrix" values="0 0 0 0 0 0 0 0 0 0 0 0 0 0 0 0 0 0 127 0" result="hardAlpha"/>
<feOffset dy="10"/>
<feGaussianBlur stdDeviation="5"/>
<feColorMatrix type="matrix" values="0 0 0 0 0 0 0 0 0 0 0 0 0 0 0 0 0 0 0.5 0"/>
<feBlend mode="normal" in2="BackgroundImageFix" result="effect1_dropShadow_546_11759"/>
<feBlend mode="normal" in="SourceGraphic" in2="effect1_dropShadow_546_11759" result="shape"/>
</filter>
</defs>
</svg>
